<?xml version="1.0" encoding="UTF-8" standalone="no"?>
<svg
   xmlns:dc="http://purl.org/dc/elements/1.1/"
   xmlns:cc="http://creativecommons.org/ns#"
   xmlns:rdf="http://www.w3.org/1999/02/22-rdf-syntax-ns#"
   xmlns:svg="http://www.w3.org/2000/svg"
   xmlns="http://www.w3.org/2000/svg"
   xmlns:sodipodi="http://sodipodi.sourceforge.net/DTD/sodipodi-0.dtd"
   xmlns:inkscape="http://www.inkscape.org/namespaces/inkscape"
   version="1.1"
   viewBox="0.0 0.0 960.0 540.0"
   fill="none"
   stroke="none"
   stroke-linecap="square"
   stroke-miterlimit="10"
   id="svg2"
   inkscape:version="0.48.5 r10040"
   width="100%"
   height="100%"
   sodipodi:docname="assembly2.svg">
  <metadata
     id="metadata239">
    <rdf:RDF>
      <cc:Work
         rdf:about="">
        <dc:format>image/svg+xml</dc:format>
        <dc:type
           rdf:resource="http://purl.org/dc/dcmitype/StillImage" />
      </cc:Work>
    </rdf:RDF>
  </metadata>
  <defs
     id="defs237" />
  <sodipodi:namedview
     pagecolor="#ffffff"
     bordercolor="#666666"
     borderopacity="1"
     objecttolerance="10"
     gridtolerance="10"
     guidetolerance="10"
     inkscape:pageopacity="0"
     inkscape:pageshadow="2"
     inkscape:window-width="2560"
     inkscape:window-height="1385"
     id="namedview235"
     showgrid="false"
     inkscape:zoom="1.3625"
     inkscape:cx="559.48888"
     inkscape:cy="203.29682"
     inkscape:window-x="-2"
     inkscape:window-y="-3"
     inkscape:window-maximized="1"
     inkscape:current-layer="svg2" />
  <clipPath
     id="g17aa23b87b_0_1854.0">
    <path
       d="m0 0l960.0 0l0 540.0l-960.0 0l0 -540.0z"
       clip-rule="nonzero"
       id="path5" />
  </clipPath>
  <path
     style="fill:#000000;fill-opacity:0;fill-rule:nonzero"
     inkscape:connector-curvature="0"
     id="path11"
     d="m 267.35165,216.73227 0,0 c 0,-62.21248 82.91544,-112.64566 185.19684,-112.64566 l 0,0 c 102.2814,0 185.19687,50.43318 185.19687,112.64566 l 0,0 c 0,62.21249 -82.91547,112.64569 -185.19687,112.64569 l 0,0 c -102.2814,0 -185.19684,-50.4332 -185.19684,-112.64569 z" />
  <path
     style="stroke:#0c343d;stroke-width:1;stroke-linecap:butt;stroke-linejoin:round;stroke-dasharray:4, 3"
     inkscape:connector-curvature="0"
     id="path13"
     d="m 267.35165,216.73227 0,0 c 0,-62.21248 82.91544,-112.64566 185.19684,-112.64566 l 0,0 c 102.2814,0 185.19687,50.43318 185.19687,112.64566 l 0,0 c 0,62.21249 -82.91547,112.64569 -185.19687,112.64569 l 0,0 c -102.2814,0 -185.19684,-50.4332 -185.19684,-112.64569 z" />
  <path
     style="fill:#000000;fill-opacity:0;fill-rule:nonzero"
     inkscape:connector-curvature="0"
     id="path15"
     d="m 660.6457,215.99475 0,0 c 0,-52.58447 65.9516,-95.2126 147.30707,-95.2126 l 0,0 c 81.35547,0 147.30707,42.62813 147.30707,95.2126 l 0,0 c 0,52.58447 -65.9516,95.21258 -147.30707,95.21258 l 0,0 c -81.35547,0 -147.30707,-42.62811 -147.30707,-95.21258 z" />
  <path
     style="stroke:#ff0000;stroke-width:1;stroke-linecap:butt;stroke-linejoin:round;stroke-dasharray:4, 3"
     inkscape:connector-curvature="0"
     id="path17"
     d="m 660.6457,215.99475 0,0 c 0,-52.58447 65.9516,-95.2126 147.30707,-95.2126 l 0,0 c 81.35547,0 147.30707,42.62813 147.30707,95.2126 l 0,0 c 0,52.58447 -65.9516,95.21258 -147.30707,95.21258 l 0,0 c -81.35547,0 -147.30707,-42.62811 -147.30707,-95.21258 z" />
  <path
     style="fill:#000000;fill-opacity:0;fill-rule:nonzero"
     inkscape:connector-curvature="0"
     id="path19"
     d="m 32.72441,102.72179 894.55115,0 0,60.12598 -894.55115,0 z" />
  <path
     style="fill:#000000;fill-rule:nonzero"
     inkscape:connector-curvature="0"
     id="path23"
     d="m 11.559055,216.73227 0,0 c 0,-8.42776 7.649937,-15.25983 17.086615,-15.25983 l 0,0 c 9.436674,0 17.086615,6.83207 17.086615,15.25983 l 0,0 c 0,8.4278 -7.649941,15.25986 -17.086615,15.25986 l 0,0 c -9.436678,0 -17.086615,-6.83206 -17.086615,-15.25986 z" />
  <path
     style="stroke:#595959;stroke-width:1;stroke-linecap:butt;stroke-linejoin:round"
     inkscape:connector-curvature="0"
     id="path25"
     d="m 11.559055,216.73227 0,0 c 0,-8.42776 7.649937,-15.25983 17.086615,-15.25983 l 0,0 c 9.436674,0 17.086615,6.83207 17.086615,15.25983 l 0,0 c 0,8.4278 -7.649941,15.25986 -17.086615,15.25986 l 0,0 c -9.436678,0 -17.086615,-6.83206 -17.086615,-15.25986 z" />
  <path
     style="fill:#ffffff;fill-rule:nonzero"
     inkscape:connector-curvature="0"
     id="path27"
     d="m 91.55905,216.73227 0,0 c 0,-8.42776 7.64994,-15.25983 17.08662,-15.25983 l 0,0 c 9.43667,0 17.08661,6.83207 17.08661,15.25983 l 0,0 c 0,8.4278 -7.64994,15.25986 -17.08661,15.25986 l 0,0 c -9.436679,0 -17.08662,-6.83206 -17.08662,-15.25986 z" />
  <path
     style="stroke:#595959;stroke-width:1;stroke-linecap:butt;stroke-linejoin:round"
     inkscape:connector-curvature="0"
     id="path29"
     d="m 91.55905,216.73227 0,0 c 0,-8.42776 7.64994,-15.25983 17.08662,-15.25983 l 0,0 c 9.43667,0 17.08661,6.83207 17.08661,15.25983 l 0,0 c 0,8.4278 -7.64994,15.25986 -17.08661,15.25986 l 0,0 c -9.436679,0 -17.08662,-6.83206 -17.08662,-15.25986 z" />
  <path
     style="fill:#ffffff;fill-rule:nonzero"
     inkscape:connector-curvature="0"
     id="path31"
     d="m 259.55905,216.73227 0,0 c 0,-8.42776 7.64993,-15.25983 17.08661,-15.25983 l 0,0 c 9.43667,0 17.08661,6.83207 17.08661,15.25983 l 0,0 c 0,8.4278 -7.64993,15.25986 -17.08661,15.25986 l 0,0 c -9.43668,0 -17.08661,-6.83206 -17.08661,-15.25986 z" />
  <path
     style="stroke:#595959;stroke-width:1;stroke-linecap:butt;stroke-linejoin:round"
     inkscape:connector-curvature="0"
     id="path33"
     d="m 259.55905,216.73227 0,0 c 0,-8.42776 7.64993,-15.25983 17.08661,-15.25983 l 0,0 c 9.43667,0 17.08661,6.83207 17.08661,15.25983 l 0,0 c 0,8.4278 -7.64993,15.25986 -17.08661,15.25986 l 0,0 c -9.43668,0 -17.08661,-6.83206 -17.08661,-15.25986 z" />
  <path
     style="fill:#ffffff;fill-rule:nonzero"
     inkscape:connector-curvature="0"
     id="path35"
     d="m 195.55905,216.73227 0,0 c 0,-8.42776 7.64995,-15.25983 17.08662,-15.25983 l 0,0 c 9.43668,0 17.08661,6.83207 17.08661,15.25983 l 0,0 c 0,8.4278 -7.64993,15.25986 -17.08661,15.25986 l 0,0 c -9.43667,0 -17.08662,-6.83206 -17.08662,-15.25986 z" />
  <path
     style="stroke:#595959;stroke-width:1;stroke-linecap:butt;stroke-linejoin:round"
     inkscape:connector-curvature="0"
     id="path37"
     d="m 195.55905,216.73227 0,0 c 0,-8.42776 7.64995,-15.25983 17.08662,-15.25983 l 0,0 c 9.43668,0 17.08661,6.83207 17.08661,15.25983 l 0,0 c 0,8.4278 -7.64993,15.25986 -17.08661,15.25986 l 0,0 c -9.43667,0 -17.08662,-6.83206 -17.08662,-15.25986 z" />
  <path
     style="fill:#ffffff;fill-rule:nonzero"
     inkscape:connector-curvature="0"
     id="path39"
     d="m 739.30023,216.73227 0,0 c 0,-8.42776 8.83441,-15.25983 19.7323,-15.25983 l 0,0 c 10.89783,0 19.73224,6.83207 19.73224,15.25983 l 0,0 c 0,8.4278 -8.83441,15.25986 -19.73224,15.25986 l 0,0 c -10.89789,0 -19.7323,-6.83206 -19.7323,-15.25986 z" />
  <path
     style="stroke:#595959;stroke-width:1;stroke-linecap:butt;stroke-linejoin:round"
     inkscape:connector-curvature="0"
     id="path41"
     d="m 739.30023,216.73227 0,0 c 0,-8.42776 8.83441,-15.25983 19.7323,-15.25983 l 0,0 c 10.89783,0 19.73224,6.83207 19.73224,15.25983 l 0,0 c 0,8.4278 -8.83441,15.25986 -19.73224,15.25986 l 0,0 c -10.89789,0 -19.7323,-6.83206 -19.7323,-15.25986 z" />
  <path
     style="fill:#000000;fill-opacity:0;fill-rule:nonzero"
     inkscape:connector-curvature="0"
     id="path43"
     d="m 45.732285,216.73227 45.826767,0" />
  <path
     style="stroke:#595959;stroke-width:1;stroke-linecap:butt;stroke-linejoin:round"
     inkscape:connector-curvature="0"
     id="path45"
     d="m 45.732285,216.73227 39.826767,0" />
  <path
     style="fill:#595959;fill-rule:evenodd;stroke:#595959;stroke-width:1;stroke-linecap:butt"
     inkscape:connector-curvature="0"
     id="path47"
     d="m 85.55906,218.384 4.538094,-1.65173 -4.538094,-1.65174 z" />
  <path
     style="fill:#ffffff;fill-rule:nonzero"
     inkscape:connector-curvature="0"
     id="path49"
     d="m 139.55905,176.73228 0,0 c 0,-8.42778 7.64995,-15.25984 17.08662,-15.25984 l 0,0 c 9.43668,0 17.08661,6.83206 17.08661,15.25984 l 0,0 c 0,8.42778 -7.64993,15.25984 -17.08661,15.25984 l 0,0 c -9.43667,0 -17.08662,-6.83206 -17.08662,-15.25984 z" />
  <path
     style="stroke:#595959;stroke-width:1;stroke-linecap:butt;stroke-linejoin:round"
     inkscape:connector-curvature="0"
     id="path51"
     d="m 139.55905,176.73228 0,0 c 0,-8.42778 7.64995,-15.25984 17.08662,-15.25984 l 0,0 c 9.43668,0 17.08661,6.83206 17.08661,15.25984 l 0,0 c 0,8.42778 -7.64993,15.25984 -17.08661,15.25984 l 0,0 c -9.43667,0 -17.08662,-6.83206 -17.08662,-15.25984 z" />
  <path
     style="fill:#ffffff;fill-rule:nonzero"
     inkscape:connector-curvature="0"
     id="path53"
     d="m 139.55905,256.73227 0,0 c 0,-8.42777 7.64995,-15.25983 17.08662,-15.25983 l 0,0 c 9.43668,0 17.08661,6.83207 17.08661,15.25983 l 0,0 c 0,8.4278 -7.64993,15.25986 -17.08661,15.25986 l 0,0 c -9.43667,0 -17.08662,-6.83206 -17.08662,-15.25986 z" />
  <path
     style="stroke:#595959;stroke-width:1;stroke-linecap:butt;stroke-linejoin:round"
     inkscape:connector-curvature="0"
     id="path55"
     d="m 139.55905,256.73227 0,0 c 0,-8.42777 7.64995,-15.25983 17.08662,-15.25983 l 0,0 c 9.43668,0 17.08661,6.83207 17.08661,15.25983 l 0,0 c 0,8.4278 -7.64993,15.25986 -17.08661,15.25986 l 0,0 c -9.43667,0 -17.08662,-6.83206 -17.08662,-15.25986 z" />
  <path
     style="fill:#000000;fill-opacity:0;fill-rule:nonzero"
     inkscape:connector-curvature="0"
     id="path57"
     d="m 108.64567,201.47244 30.92913,-24.7559" />
  <path
     style="stroke:#595959;stroke-width:1;stroke-linecap:butt;stroke-linejoin:round"
     inkscape:connector-curvature="0"
     id="path59"
     d="m 108.64567,201.47244 26.24485,-21.00658" />
  <path
     style="fill:#595959;fill-rule:evenodd;stroke:#595959;stroke-width:1;stroke-linecap:butt"
     inkscape:connector-curvature="0"
     id="path61"
     d="m 135.92267,181.7554 2.5108,-4.12534 -4.5751,1.54628 z" />
  <path
     style="fill:#000000;fill-opacity:0;fill-rule:nonzero"
     inkscape:connector-curvature="0"
     id="path63"
     d="m 108.64567,231.99213 30.92913,24.75589" />
  <path
     style="stroke:#595959;stroke-width:1;stroke-linecap:butt;stroke-linejoin:round"
     inkscape:connector-curvature="0"
     id="path65"
     d="m 108.64567,231.99213 26.24485,21.00659" />
  <path
     style="fill:#595959;fill-rule:evenodd;stroke:#595959;stroke-width:1;stroke-linecap:butt"
     inkscape:connector-curvature="0"
     id="path67"
     d="m 133.85837,254.28824 4.5751,1.54626 -2.5108,-4.12533 z" />
  <path
     style="fill:#000000;fill-opacity:0;fill-rule:nonzero"
     inkscape:connector-curvature="0"
     id="path69"
     d="m 173.73228,176.73228 38.92914,24.7559" />
  <path
     style="stroke:#595959;stroke-width:1;stroke-linecap:butt;stroke-linejoin:round"
     inkscape:connector-curvature="0"
     id="path71"
     d="m 173.73228,176.73228 33.86616,21.53626" />
  <path
     style="fill:#595959;fill-rule:evenodd;stroke:#595959;stroke-width:1;stroke-linecap:butt"
     inkscape:connector-curvature="0"
     id="path73"
     d="m 206.7121,199.66231 4.71573,1.04141 -2.94306,-3.82898 z" />
  <path
     style="fill:#000000;fill-opacity:0;fill-rule:nonzero"
     inkscape:connector-curvature="0"
     id="path75"
     d="m 173.73228,256.73227 38.92914,-24.75589" />
  <path
     style="stroke:#595959;stroke-width:1;stroke-linecap:butt;stroke-linejoin:round"
     inkscape:connector-curvature="0"
     id="path77"
     d="m 173.73228,256.73227 33.86616,-21.53622" />
  <path
     style="fill:#595959;fill-rule:evenodd;stroke:#595959;stroke-width:1;stroke-linecap:butt"
     inkscape:connector-curvature="0"
     id="path79"
     d="m 208.48477,236.5898 2.94305,-3.82895 -4.71572,1.04138 z" />
  <path
     style="fill:#ffffff;fill-rule:nonzero"
     inkscape:connector-curvature="0"
     id="path81"
     d="m 840.8966,216.73227 0,0 c 0,-8.42776 8.83441,-15.25983 19.7323,-15.25983 l 0,0 c 10.89783,0 19.73224,6.83207 19.73224,15.25983 l 0,0 c 0,8.4278 -8.83441,15.25986 -19.73224,15.25986 l 0,0 c -10.89789,0 -19.7323,-6.83206 -19.7323,-15.25986 z" />
  <path
     style="stroke:#595959;stroke-width:1;stroke-linecap:butt;stroke-linejoin:round"
     inkscape:connector-curvature="0"
     id="path83"
     d="m 840.8966,216.73227 0,0 c 0,-8.42776 8.83441,-15.25983 19.7323,-15.25983 l 0,0 c 10.89783,0 19.73224,6.83207 19.73224,15.25983 l 0,0 c 0,8.4278 -8.83441,15.25986 -19.73224,15.25986 l 0,0 c -10.89789,0 -19.7323,-6.83206 -19.7323,-15.25986 z" />
  <path
     style="fill:#000000;fill-rule:nonzero"
     inkscape:connector-curvature="0"
     id="path85"
     d="m 923.8233,216.73227 0,0 c 0,-8.42776 5.80267,-15.25983 12.96063,-15.25983 l 0,0 c 3.43738,0 6.73395,1.60773 9.16455,4.4695 2.43061,2.86179 3.79608,6.74318 3.79608,10.79033 l 0,0 c 0,8.42779 -5.80267,15.25986 -12.96063,15.25986 l 0,0 c -7.15796,0 -12.96063,-6.83207 -12.96063,-15.25986 z" />
  <path
     style="stroke:#595959;stroke-width:1;stroke-linecap:butt;stroke-linejoin:round"
     inkscape:connector-curvature="0"
     id="path87"
     d="m 923.8233,216.73227 0,0 c 0,-8.42776 5.80267,-15.25983 12.96063,-15.25983 l 0,0 c 3.43738,0 6.73395,1.60773 9.16455,4.4695 2.43061,2.86179 3.79608,6.74318 3.79608,10.79033 l 0,0 c 0,8.42779 -5.80267,15.25986 -12.96063,15.25986 l 0,0 c -7.15796,0 -12.96063,-6.83207 -12.96063,-15.25986 z" />
  <path
     style="fill:#ffffff;fill-rule:nonzero"
     inkscape:connector-curvature="0"
     id="path89"
     d="m 785.4804,176.73228 0,0 c 0,-8.42778 8.83441,-15.25984 19.7323,-15.25984 l 0,0 c 10.89783,0 19.73224,6.83206 19.73224,15.25984 l 0,0 c 0,8.42778 -8.83441,15.25984 -19.73224,15.25984 l 0,0 c -10.89789,0 -19.7323,-6.83206 -19.7323,-15.25984 z" />
  <path
     style="stroke:#595959;stroke-width:1;stroke-linecap:butt;stroke-linejoin:round"
     inkscape:connector-curvature="0"
     id="path91"
     d="m 785.4804,176.73228 0,0 c 0,-8.42778 8.83441,-15.25984 19.7323,-15.25984 l 0,0 c 10.89783,0 19.73224,6.83206 19.73224,15.25984 l 0,0 c 0,8.42778 -8.83441,15.25984 -19.73224,15.25984 l 0,0 c -10.89789,0 -19.7323,-6.83206 -19.7323,-15.25984 z" />
  <path
     style="fill:#ffffff;fill-rule:nonzero"
     inkscape:connector-curvature="0"
     id="path93"
     d="m 785.4804,235.10236 0,0 c 0,-8.42777 8.83441,-15.25983 19.7323,-15.25983 l 0,0 c 10.89783,0 19.73224,6.83206 19.73224,15.25983 l 0,0 c 0,8.42779 -8.83441,15.25986 -19.73224,15.25986 l 0,0 c -10.89789,0 -19.7323,-6.83207 -19.7323,-15.25986 z" />
  <path
     style="stroke:#595959;stroke-width:1;stroke-linecap:butt;stroke-linejoin:round"
     inkscape:connector-curvature="0"
     id="path95"
     d="m 785.4804,235.10236 0,0 c 0,-8.42777 8.83441,-15.25983 19.7323,-15.25983 l 0,0 c 10.89783,0 19.73224,6.83206 19.73224,15.25983 l 0,0 c 0,8.42779 -8.83441,15.25986 -19.73224,15.25986 l 0,0 c -10.89789,0 -19.7323,-6.83207 -19.7323,-15.25986 z" />
  <path
     style="fill:#000000;fill-opacity:0;fill-rule:nonzero"
     inkscape:connector-curvature="0"
     id="path97"
     d="m 759.03253,201.47244 26.45666,-24.7559" />
  <path
     style="stroke:#595959;stroke-width:1;stroke-linecap:butt;stroke-linejoin:round"
     inkscape:connector-curvature="0"
     id="path99"
     d="m 759.0325,201.47244 22.07556,-20.65643" />
  <path
     style="fill:#595959;fill-rule:evenodd;stroke:#595959;stroke-width:1;stroke-linecap:butt"
     inkscape:connector-curvature="0"
     id="path101"
     d="m 782.2366,182.0221 2.18512,-4.30672 -4.4422,1.89456 z" />
  <path
     style="fill:#000000;fill-opacity:0;fill-rule:nonzero"
     inkscape:connector-curvature="0"
     id="path103"
     d="m 824.94495,176.73228 35.68506,24.7559" />
  <path
     style="stroke:#595959;stroke-width:1;stroke-linecap:butt;stroke-linejoin:round"
     inkscape:connector-curvature="0"
     id="path105"
     d="m 824.94495,176.73228 30.75519,21.33589" />
  <path
     style="fill:#595959;fill-rule:evenodd;stroke:#595959;stroke-width:1;stroke-linecap:butt"
     inkscape:connector-curvature="0"
     id="path107"
     d="m 854.75867,199.42531 4.67017,1.2296 -2.78717,-3.94386 z" />
  <path
     style="fill:#000000;fill-opacity:0;fill-rule:nonzero"
     inkscape:connector-curvature="0"
     id="path109"
     d="m 759.03253,231.99213 26.45666,3.1181" />
  <path
     style="stroke:#595959;stroke-width:1;stroke-linecap:butt;stroke-linejoin:round"
     inkscape:connector-curvature="0"
     id="path111"
     d="m 759.0325,231.99213 20.49799,2.41583" />
  <path
     style="fill:#595959;fill-rule:evenodd;stroke:#595959;stroke-width:1;stroke-linecap:butt"
     inkscape:connector-curvature="0"
     id="path113"
     d="m 779.3371,236.04834 4.7002,-1.10922 -4.31354,-2.17154 z" />
  <path
     style="fill:#000000;fill-opacity:0;fill-rule:nonzero"
     inkscape:connector-curvature="0"
     id="path115"
     d="m 824.94495,235.10236 35.68506,-3.1181" />
  <path
     style="stroke:#595959;stroke-width:1;stroke-linecap:butt;stroke-linejoin:round"
     inkscape:connector-curvature="0"
     id="path117"
     d="m 824.94495,235.10236 29.70789,-2.59583" />
  <path
     style="fill:#595959;fill-rule:evenodd;stroke:#595959;stroke-width:1;stroke-linecap:butt"
     inkscape:connector-curvature="0"
     id="path119"
     d="m 854.7966,234.152 4.37707,-2.0405 -4.66467,-1.25042 z" />
  <path
     style="fill:#ffffff;fill-rule:nonzero"
     inkscape:connector-curvature="0"
     id="path121"
     d="m 687.2756,216.73227 0,0 c 0,-8.42776 5.80267,-15.25983 12.96063,-15.25983 l 0,0 c 3.43738,0 6.73395,1.60773 9.16455,4.4695 2.43061,2.86179 3.79608,6.74318 3.79608,10.79033 l 0,0 c 0,8.42779 -5.80267,15.25986 -12.96063,15.25986 l 0,0 c -7.15796,0 -12.96063,-6.83207 -12.96063,-15.25986 z" />
  <path
     style="stroke:#595959;stroke-width:1;stroke-linecap:butt;stroke-linejoin:round"
     inkscape:connector-curvature="0"
     id="path123"
     d="m 687.2756,216.73227 0,0 c 0,-8.42776 5.80267,-15.25983 12.96063,-15.25983 l 0,0 c 3.43738,0 6.73395,1.60773 9.16455,4.4695 2.43061,2.86179 3.79608,6.74318 3.79608,10.79033 l 0,0 c 0,8.42779 -5.80267,15.25986 -12.96063,15.25986 l 0,0 c -7.15796,0 -12.96063,-6.83207 -12.96063,-15.25986 z" />
  <path
     style="fill:#000000;fill-opacity:0;fill-rule:nonzero"
     inkscape:connector-curvature="0"
     id="path125"
     d="m 637.7323,216.73227 49.54327,0" />
  <path
     style="stroke:#595959;stroke-width:1;stroke-linecap:butt;stroke-linejoin:round"
     inkscape:connector-curvature="0"
     id="path127"
     d="m 637.7323,216.73227 43.54327,0" />
  <path
     style="fill:#595959;fill-rule:evenodd;stroke:#595959;stroke-width:1;stroke-linecap:butt"
     inkscape:connector-curvature="0"
     id="path129"
     d="m 681.2756,218.384 4.53809,-1.65173 -4.53809,-1.65174 z" />
  <path
     style="fill:#000000;fill-opacity:0;fill-rule:nonzero"
     inkscape:connector-curvature="0"
     id="path131"
     d="m 228.91339,218.1811 30.64566,-1.44882" />
  <path
     style="stroke:#595959;stroke-width:1;stroke-linecap:butt;stroke-linejoin:round"
     inkscape:connector-curvature="0"
     id="path133"
     d="m 228.91339,218.1811 24.65234,-1.16547" />
  <path
     style="fill:#595959;fill-rule:evenodd;stroke:#595959;stroke-width:1;stroke-linecap:butt"
     inkscape:connector-curvature="0"
     id="path135"
     d="m 253.64375,218.66553 4.45503,-1.8642 -4.61104,-1.4356 z" />
  <path
     style="fill:#000000;fill-opacity:0;fill-rule:nonzero"
     inkscape:connector-curvature="0"
     id="path137"
     d="m 713.19684,216.73227 26.11023,0" />
  <path
     style="stroke:#595959;stroke-width:1;stroke-linecap:butt;stroke-linejoin:round"
     inkscape:connector-curvature="0"
     id="path139"
     d="m 713.19684,216.73227 20.11023,0" />
  <path
     style="fill:#595959;fill-rule:evenodd;stroke:#595959;stroke-width:1;stroke-linecap:butt"
     inkscape:connector-curvature="0"
     id="path141"
     d="m 733.30707,218.384 4.53809,-1.65173 -4.53809,-1.65174 z" />
  <path
     style="fill:#000000;fill-opacity:0;fill-rule:nonzero"
     inkscape:connector-curvature="0"
     id="path143"
     d="m 880.36115,216.73227 43.4646,0" />
  <path
     style="stroke:#595959;stroke-width:1;stroke-linecap:butt;stroke-linejoin:round"
     inkscape:connector-curvature="0"
     id="path145"
     d="m 880.36115,216.73227 37.46454,0" />
  <path
     style="fill:#595959;fill-rule:evenodd;stroke:#595959;stroke-width:1;stroke-linecap:butt"
     inkscape:connector-curvature="0"
     id="path147"
     d="m 917.8257,218.384 4.53815,-1.65173 -4.53815,-1.65174 z" />
  <path
     style="fill:#000000;fill-opacity:0;fill-rule:nonzero"
     inkscape:connector-curvature="0"
     id="path149"
     d="m 27.616798,75.73229 475.338602,0 0,48.85038 -475.338602,0 z" />
  <path
     style="fill:#0000ff;fill-rule:nonzero"
     inkscape:connector-curvature="0"
     id="path151"
     d="m 38.08555,102.65228 0,-13.59375 5.125,0 q 1.359375,0 2.078125,0.125 1,0.17187 1.671875,0.64062 0.671875,0.46875 1.078125,1.3125 0.421875,0.84375 0.421875,1.84375 0,1.73438 -1.109375,2.9375 -1.09375,1.20313 -3.984375,1.20313 l -3.484375,0 0,5.53125 -1.796875,0 z m 1.796875,-7.14063 3.515625,0 q 1.75,0 2.46875,-0.64062 0.734375,-0.65625 0.734375,-1.82813 0,-0.85937 -0.4375,-1.46875 -0.421875,-0.60937 -1.125,-0.79687 -0.453125,-0.125 -1.671875,-0.125 l -3.484375,0 0,4.85937 z m 10.412323,7.14063 0,-9.85938 1.5,0 0,1.5 q 0.578125,-1.04687 1.0625,-1.375 0.484375,-0.34375 1.078125,-0.34375 0.84375,0 1.71875,0.54688 l -0.578125,1.54687 q -0.609375,-0.35937 -1.234375,-0.35937 -0.546875,0 -0.984375,0.32812 -0.421875,0.32813 -0.609375,0.90625 -0.28125,0.89063 -0.28125,1.95313 l 0,5.15625 -1.671875,0 z M 63.27305,99.4804 64.9918,99.69915 q -0.40625,1.5 -1.515625,2.34375 -1.09375,0.82813 -2.8125,0.82813 -2.15625,0 -3.421875,-1.32813 -1.265625,-1.32812 -1.265625,-3.73437 0,-2.48438 1.265625,-3.85938 1.28125,-1.375 3.328125,-1.375 1.984375,0 3.234375,1.34375 1.25,1.34375 1.25,3.79688 0,0.14062 -0.01563,0.4375 l -7.34375,0 q 0.09375,1.625 0.921875,2.48437 0.828125,0.85938 2.0625,0.85938 0.90625,0 1.546875,-0.46875 0.65625,-0.48438 1.046875,-1.54688 z m -5.484375,-2.70312 5.5,0 Q 63.1793,95.5429 62.663675,94.9179 61.8668,93.94915 60.58555,93.94915 q -1.140625,0 -1.9375,0.78125 -0.78125,0.76563 -0.859375,2.04688 z m 9.110092,9.65625 0,-13.64063 1.53125,0 0,1.28125 q 0.53125,-0.75 1.203125,-1.125 0.6875,-0.375 1.640625,-0.375 1.265625,0 2.234375,0.65625 0.96875,0.64063 1.453125,1.82813 0.5,1.1875 0.5,2.59375 0,1.51562 -0.546875,2.73437 -0.546875,1.20313 -1.578125,1.84375 -1.03125,0.64063 -2.171875,0.64063 -0.84375,0 -1.515625,-0.34375 -0.65625,-0.35938 -1.078125,-0.89063 l 0,4.79688 -1.671875,0 z m 1.515625,-8.65625 q 0,1.90625 0.765625,2.8125 0.78125,0.90625 1.875,0.90625 1.109375,0 1.890625,-0.9375 0.796875,-0.9375 0.796875,-2.92188 0,-1.875 -0.78125,-2.8125 -0.765625,-0.9375 -1.84375,-0.9375 -1.0625,0 -1.890625,1 -0.8125,1 -0.8125,2.89063 z m 8.844467,4.875 0,-9.85938 1.5,0 0,1.5 q 0.578125,-1.04687 1.0625,-1.375 0.484375,-0.34375 1.078125,-0.34375 0.84375,0 1.71875,0.54688 l -0.578125,1.54687 q -0.609375,-0.35937 -1.234375,-0.35937 -0.546875,0 -0.984375,0.32812 -0.421875,0.32813 -0.609375,0.90625 -0.28125,0.89063 -0.28125,1.95313 l 0,5.15625 -1.671875,0 z m 5.603302,-4.92188 q 0,-2.73437 1.53125,-4.0625 1.265625,-1.09375 3.09375,-1.09375 2.03125,0 3.3125,1.34375 1.296875,1.32813 1.296875,3.67188 0,1.90625 -0.578125,3 -0.5625,1.07812 -1.65625,1.6875 -1.078125,0.59375 -2.375,0.59375 -2.0625,0 -3.34375,-1.32813 -1.28125,-1.32812 -1.28125,-3.8125 z m 1.71875,0 q 0,1.89063 0.828125,2.82813 0.828125,0.9375 2.078125,0.9375 1.25,0 2.0625,-0.9375 0.828125,-0.95313 0.828125,-2.89063 0,-1.82812 -0.828125,-2.76562 -0.828125,-0.9375 -2.0625,-0.9375 -1.25,0 -2.078125,0.9375 -0.828125,0.9375 -0.828125,2.82812 z m 15.719469,1.3125 1.64062,0.21875 q -0.26562,1.6875 -1.375,2.65625 -1.109372,0.95313 -2.734372,0.95313 -2.015625,0 -3.25,-1.3125 -1.21875,-1.32813 -1.21875,-3.79688 0,-1.59375 0.515625,-2.78125 0.53125,-1.20312 1.609375,-1.79687 1.09375,-0.60938 2.359375,-0.60938 1.609375,0 2.624997,0.8125 1.01563,0.8125 1.3125,2.3125 l -1.625,0.25 q -0.234372,-1 -0.828122,-1.5 -0.59375,-0.5 -1.421875,-0.5 -1.265625,0 -2.0625,0.90625 -0.78125,0.90625 -0.78125,2.85938 0,1.98437 0.765625,2.89062 0.765625,0.89063 1.984375,0.89063 0.984375,0 1.640625,-0.59375 0.656252,-0.60938 0.843752,-1.85938 z m 9.64062,0.4375 1.71875,0.21875 q -0.40625,1.5 -1.51562,2.34375 -1.09375,0.82813 -2.8125,0.82813 -2.15625,0 -3.42188,-1.32813 -1.26562,-1.32812 -1.26562,-3.73437 0,-2.48438 1.26562,-3.85938 1.28125,-1.375 3.32813,-1.375 1.98437,0 3.23437,1.34375 1.25,1.34375 1.25,3.79688 0,0.14062 -0.0156,0.4375 l -7.34375,0 q 0.0937,1.625 0.92187,2.48437 0.82813,0.85938 2.0625,0.85938 0.90625,0 1.54688,-0.46875 0.65625,-0.48438 1.04687,-1.54688 z m -5.48437,-2.70312 5.5,0 q -0.10938,-1.23438 -0.625,-1.85938 -0.79688,-0.96875 -2.07813,-0.96875 -1.14062,0 -1.9375,0.78125 -0.78125,0.76563 -0.85937,2.04688 z m 8.43821,2.9375 1.65625,-0.26563 q 0.14063,1 0.76563,1.53125 0.64062,0.51563 1.78125,0.51563 1.15625,0 1.70312,-0.46875 0.5625,-0.46875 0.5625,-1.09375 0,-0.5625 -0.48437,-0.89063 -0.34375,-0.21875 -1.70313,-0.5625 -1.84375,-0.46875 -2.5625,-0.79687 -0.70312,-0.34375 -1.07812,-0.9375 -0.35938,-0.60938 -0.35938,-1.32813 0,-0.65625 0.29688,-1.21875 0.3125,-0.5625 0.82812,-0.9375 0.39063,-0.28125 1.0625,-0.48437 0.67188,-0.20313 1.4375,-0.20313 1.17188,0 2.04688,0.34375 0.875,0.32813 1.28125,0.90625 0.42187,0.5625 0.57812,1.51563 l -1.625,0.21875 q -0.10937,-0.75 -0.65625,-1.17188 -0.53125,-0.4375 -1.5,-0.4375 -1.15625,0 -1.64062,0.39063 -0.48438,0.375 -0.48438,0.875 0,0.32812 0.20313,0.59375 0.20312,0.26562 0.64062,0.4375 0.25,0.0937 1.46875,0.4375 1.76563,0.46875 2.46875,0.76562 0.70313,0.29688 1.09375,0.875 0.40625,0.57813 0.40625,1.4375 0,0.82813 -0.48437,1.57813 -0.48438,0.73437 -1.40625,1.14062 -0.92188,0.39063 -2.07813,0.39063 -1.92187,0 -2.9375,-0.79688 -1,-0.79687 -1.28125,-2.35937 z m 9.32813,0 1.65625,-0.26563 q 0.14062,1 0.76562,1.53125 0.64063,0.51563 1.78125,0.51563 1.15625,0 1.70312,-0.46875 0.5625,-0.46875 0.5625,-1.09375 0,-0.5625 -0.48437,-0.89063 -0.34374,-0.21875 -1.70312,-0.5625 -1.84375,-0.46875 -2.5625,-0.79687 -0.70313,-0.34375 -1.07813,-0.9375 -0.35937,-0.60938 -0.35937,-1.32813 0,-0.65625 0.29687,-1.21875 0.3125,-0.5625 0.82813,-0.9375 0.39062,-0.28125 1.0625,-0.48437 0.67187,-0.20313 1.4375,-0.20313 1.17187,0 2.04687,0.34375 0.875,0.32813 1.28125,0.90625 0.42187,0.5625 0.57812,1.51563 l -1.625,0.21875 q -0.10937,-0.75 -0.65624,-1.17188 -0.53125,-0.4375 -1.5,-0.4375 -1.15625,0 -1.64063,0.39063 -0.48437,0.375 -0.48437,0.875 0,0.32812 0.20312,0.59375 0.20313,0.26562 0.64063,0.4375 0.25,0.0937 1.46875,0.4375 1.76562,0.46875 2.46874,0.76562 0.70313,0.29688 1.09375,0.875 0.40625,0.57813 0.40625,1.4375 0,0.82813 -0.48437,1.57813 -0.48438,0.73437 -1.40625,1.14062 -0.92187,0.39063 -2.07812,0.39063 -1.92188,0 -2.9375,-0.79688 -1,-0.79687 -1.28125,-2.35937 z m 10.01562,-8.75 0,-1.90625 1.67187,0 0,1.90625 -1.67187,0 z m 0,11.6875 0,-9.85938 1.67187,0 0,9.85938 -1.67187,0 z m 4.12919,0 0,-9.85938 1.5,0 0,1.40625 q 1.09375,-1.625 3.14063,-1.625 0.89062,0 1.64062,0.32813 0.75,0.3125 1.10938,0.84375 0.375,0.51562 0.53125,1.21875 0.0937,0.46875 0.0937,1.625 l 0,6.0625 -1.67188,0 0,-6 q 0,-1.01563 -0.20312,-1.51563 -0.1875,-0.51562 -0.6875,-0.8125 -0.5,-0.29687 -1.17188,-0.29687 -1.0625,0 -1.84375,0.67187 -0.76562,0.67188 -0.76562,2.57813 l 0,5.375 -1.67188,0 z m 10.07884,0.8125 1.60938,0.25 q 0.10937,0.75 0.57812,1.09375 0.60938,0.45312 1.6875,0.45312 1.17188,0 1.79688,-0.46875 0.625,-0.45312 0.85937,-1.28125 0.125,-0.51562 0.10938,-2.15625 -1.09375,1.29688 -2.71875,1.29688 -2.03125,0 -3.15625,-1.46875 -1.10938,-1.46875 -1.10938,-3.51563 0,-1.40625 0.51563,-2.59375 0.51562,-1.20312 1.48437,-1.84375 0.96875,-0.65625 2.26563,-0.65625 1.75,0 2.875,1.40625 l 0,-1.1875 1.54687,0 0,8.51563 q 0,2.3125 -0.46875,3.26562 -0.46875,0.96875 -1.48437,1.51563 -1.01563,0.5625 -2.5,0.5625 -1.76563,0 -2.85938,-0.79688 -1.07812,-0.79687 -1.03125,-2.39062 z m 1.375,-5.92188 q 0,1.95313 0.76563,2.84375 0.78125,0.89063 1.9375,0.89063 1.14062,0 1.92187,-0.89063 0.78125,-0.89062 0.78125,-2.78125 0,-1.8125 -0.8125,-2.71875 -0.79687,-0.92187 -1.92187,-0.92187 -1.10938,0 -1.89063,0.90625 -0.78125,0.89062 -0.78125,2.67187 z m 9.76635,-2.84375 0,-1.90625 1.90625,0 0,1.90625 -1.90625,0 z m 0,7.95313 0,-1.90625 1.90625,0 0,1.90625 -1.90625,0 z m 9.22598,-2.9375 1.65625,-0.26563 q 0.14062,1 0.76562,1.53125 0.64063,0.51563 1.78125,0.51563 1.15625,0 1.70313,-0.46875 0.5625,-0.46875 0.5625,-1.09375 0,-0.5625 -0.48438,-0.89063 -0.34375,-0.21875 -1.70312,-0.5625 -1.84375,-0.46875 -2.5625,-0.79687 -0.70313,-0.34375 -1.07813,-0.9375 -0.35937,-0.60938 -0.35937,-1.32813 0,-0.65625 0.29687,-1.21875 0.3125,-0.5625 0.82813,-0.9375 0.39062,-0.28125 1.0625,-0.48437 0.67187,-0.20313 1.4375,-0.20313 1.17187,0 2.04687,0.34375 0.875,0.32813 1.28125,0.90625 0.42188,0.5625 0.57813,1.51563 l -1.625,0.21875 q -0.10938,-0.75 -0.65625,-1.17188 -0.53125,-0.4375 -1.5,-0.4375 -1.15625,0 -1.64063,0.39063 -0.48437,0.375 -0.48437,0.875 0,0.32812 0.20312,0.59375 0.20313,0.26562 0.64063,0.4375 0.25,0.0937 1.46875,0.4375 1.76562,0.46875 2.46875,0.76562 0.70312,0.29688 1.09375,0.875 0.40625,0.57813 0.40625,1.4375 0,0.82813 -0.48438,1.57813 -0.48437,0.73437 -1.40625,1.14062 -0.92187,0.39063 -2.07812,0.39063 -1.92188,0 -2.9375,-0.79688 -1,-0.79687 -1.28125,-2.35937 z m 10.01562,-8.75 0,-1.90625 1.67188,0 0,1.90625 -1.67188,0 z m 0,11.6875 0,-9.85938 1.67188,0 0,9.85938 -1.67188,0 z m 4.1292,0 0,-9.85938 1.5,0 0,1.39063 q 0.45313,-0.71875 1.21875,-1.15625 0.78125,-0.45313 1.76563,-0.45313 1.09375,0 1.79687,0.45313 0.70313,0.45312 0.98438,1.28125 1.17187,-1.73438 3.04687,-1.73438 1.46875,0 2.25,0.8125 0.79688,0.8125 0.79688,2.5 l 0,6.76563 -1.67188,0 0,-6.20313 q 0,-1 -0.15625,-1.4375 -0.15625,-0.45312 -0.59375,-0.71875 -0.42187,-0.26562 -1,-0.26562 -1.03125,0 -1.71875,0.6875 -0.6875,0.6875 -0.6875,2.21875 l 0,5.71875 -1.67187,0 0,-6.40625 q 0,-1.10938 -0.40625,-1.65625 -0.40625,-0.5625 -1.34375,-0.5625 -0.70313,0 -1.3125,0.375 -0.59375,0.35937 -0.85938,1.07812 -0.26562,0.71875 -0.26562,2.0625 l 0,5.10938 -1.67188,0 z m 15.5408,3.78125 0,-13.64063 1.53125,0 0,1.28125 q 0.53125,-0.75 1.20313,-1.125 0.6875,-0.375 1.64062,-0.375 1.26563,0 2.23438,0.65625 0.96875,0.64063 1.45312,1.82813 0.5,1.1875 0.5,2.59375 0,1.51562 -0.54687,2.73437 -0.54688,1.20313 -1.57813,1.84375 -1.03125,0.64063 -2.17187,0.64063 -0.84375,0 -1.51563,-0.34375 -0.65625,-0.35938 -1.07812,-0.89063 l 0,4.79688 -1.67188,0 z m 1.51563,-8.65625 q 0,1.90625 0.76562,2.8125 0.78125,0.90625 1.875,0.90625 1.10938,0 1.89063,-0.9375 0.79687,-0.9375 0.79687,-2.92188 0,-1.875 -0.78125,-2.8125 -0.76562,-0.9375 -1.84375,-0.9375 -1.0625,0 -1.89062,1 -0.8125,1 -0.8125,2.89063 z m 8.82884,4.875 0,-13.59375 1.67187,0 0,13.59375 -1.67187,0 z m 4.1917,-11.6875 0,-1.90625 1.67187,0 0,1.90625 -1.67187,0 z m 0,11.6875 0,-9.85938 1.67187,0 0,9.85938 -1.67187,0 z m 4.53544,0 0,-8.54688 -1.48437,0 0,-1.3125 1.48437,0 0,-1.04687 q 0,-0.98438 0.17188,-1.46875 0.23437,-0.65625 0.84375,-1.04688 0.60937,-0.40625 1.70312,-0.40625 0.70313,0 1.5625,0.15625 l -0.25,1.46875 q -0.51562,-0.0937 -0.98437,-0.0937 -0.76563,0 -1.07813,0.32813 -0.3125,0.3125 -0.3125,1.20312 l 0,0.90625 1.92188,0 0,1.3125 -1.92188,0 0,8.54688 -1.65625,0 z m 4.79268,-11.6875 0,-1.90625 1.67188,0 0,1.90625 -1.67188,0 z m 0,11.6875 0,-9.85938 1.67188,0 0,9.85938 -1.67188,0 z m 10.8792,-3.17188 1.71875,0.21875 q -0.40625,1.5 -1.51563,2.34375 -1.09375,0.82813 -2.8125,0.82813 -2.15625,0 -3.42187,-1.32813 -1.26563,-1.32812 -1.26563,-3.73437 0,-2.48438 1.26563,-3.85938 1.28125,-1.375 3.32812,-1.375 1.98438,0 3.23438,1.34375 1.25,1.34375 1.25,3.79688 0,0.14062 -0.0156,0.4375 l -7.34375,0 q 0.0937,1.625 0.92188,2.48437 0.82812,0.85938 2.0625,0.85938 0.90625,0 1.54687,-0.46875 0.65625,-0.48438 1.04688,-1.54688 z m -5.48438,-2.70312 5.5,0 q -0.10937,-1.23438 -0.625,-1.85938 -0.79687,-0.96875 -2.07812,-0.96875 -1.14063,0 -1.9375,0.78125 -0.78125,0.76563 -0.85938,2.04688 z m 15.50072,5.875 0,-1.25 q -0.9375,1.46875 -2.75,1.46875 -1.17188,0 -2.17188,-0.64063 -0.98437,-0.65625 -1.53125,-1.8125 -0.53125,-1.17187 -0.53125,-2.6875 0,-1.46875 0.48438,-2.67187 0.5,-1.20313 1.46875,-1.84375 0.98437,-0.64063 2.20312,-0.64063 0.89063,0 1.57813,0.375 0.70312,0.375 1.14062,0.98438 l 0,-4.875 1.65625,0 0,13.59375 -1.54687,0 z m -5.28125,-4.92188 q 0,1.89063 0.79687,2.82813 0.8125,0.9375 1.89063,0.9375 1.09375,0 1.85937,-0.89063 0.76563,-0.89062 0.76563,-2.73437 0,-2.01563 -0.78125,-2.95313 -0.78125,-0.95312 -1.92188,-0.95312 -1.10937,0 -1.85937,0.90625 -0.75,0.90625 -0.75,2.85937 z m 14.15277,5.73438 1.60938,0.25 q 0.10937,0.75 0.57812,1.09375 0.60938,0.45312 1.6875,0.45312 1.17188,0 1.79688,-0.46875 0.625,-0.45312 0.85937,-1.28125 0.125,-0.51562 0.10938,-2.15625 -1.09375,1.29688 -2.71875,1.29688 -2.03125,0 -3.15625,-1.46875 -1.10938,-1.46875 -1.10938,-3.51563 0,-1.40625 0.51563,-2.59375 0.51562,-1.20312 1.48437,-1.84375 0.96875,-0.65625 2.26563,-0.65625 1.75,0 2.875,1.40625 l 0,-1.1875 1.54687,0 0,8.51563 q 0,2.3125 -0.46875,3.26562 -0.46875,0.96875 -1.48437,1.51563 -1.01563,0.5625 -2.5,0.5625 -1.76563,0 -2.85938,-0.79688 -1.07812,-0.79687 -1.03125,-2.39062 z m 1.375,-5.92188 q 0,1.95313 0.76563,2.84375 0.78125,0.89063 1.9375,0.89063 1.14062,0 1.92187,-0.89063 0.78125,-0.89062 0.78125,-2.78125 0,-1.8125 -0.8125,-2.71875 -0.79687,-0.92187 -1.92187,-0.92187 -1.10938,0 -1.89063,0.90625 -0.78125,0.89062 -0.78125,2.67187 z m 9.28198,5.10938 0,-9.85938 1.5,0 0,1.5 q 0.57813,-1.04687 1.0625,-1.375 0.48438,-0.34375 1.07813,-0.34375 0.84375,0 1.71875,0.54688 l -0.57813,1.54687 q -0.60937,-0.35937 -1.23437,-0.35937 -0.54688,0 -0.98438,0.32812 -0.42187,0.32813 -0.60937,0.90625 -0.28125,0.89063 -0.28125,1.95313 l 0,5.15625 -1.67188,0 z m 12.6658,-1.21875 q -0.9375,0.79687 -1.79687,1.125 -0.85938,0.3125 -1.84375,0.3125 -1.60938,0 -2.48438,-0.78125 -0.875,-0.79688 -0.875,-2.03125 0,-0.73438 0.32813,-1.32813 0.32812,-0.59375 0.85937,-0.95312 0.53125,-0.35938 1.20313,-0.54688 0.5,-0.14062 1.48437,-0.25 2.03125,-0.25 2.98438,-0.57812 0,-0.34375 0,-0.4375 0,-1.01563 -0.46875,-1.4375 -0.64063,-0.5625 -1.90625,-0.5625 -1.17188,0 -1.73438,0.40625 -0.5625,0.40625 -0.82812,1.46875 l -1.64063,-0.23438 q 0.23438,-1.04687 0.73438,-1.6875 0.51562,-0.64062 1.46875,-0.98437 0.96875,-0.35938 2.25,-0.35938 1.26562,0 2.04687,0.29688 0.78125,0.29687 1.15625,0.75 0.375,0.45312 0.51563,1.14062 0.0937,0.42188 0.0937,1.53125 l 0,2.23438 q 0,2.32812 0.0937,2.95312 0.10937,0.60938 0.4375,1.17188 l -1.75,0 q -0.26563,-0.51563 -0.32813,-1.21875 z m -0.14062,-3.71875 q -0.90625,0.35937 -2.73438,0.625 -1.03125,0.14062 -1.45312,0.32812 -0.42188,0.1875 -0.65625,0.54688 -0.23438,0.35937 -0.23438,0.79687 0,0.67188 0.5,1.125 0.51563,0.4375 1.48438,0.4375 0.96875,0 1.71875,-0.42187 0.75,-0.4375 1.10937,-1.15625 0.26563,-0.57813 0.26563,-1.67188 l 0,-0.60937 z m 4.07883,8.71875 0,-13.64063 1.53125,0 0,1.28125 q 0.53125,-0.75 1.20312,-1.125 0.6875,-0.375 1.64063,-0.375 1.26562,0 2.23437,0.65625 0.96875,0.64063 1.45313,1.82813 0.5,1.1875 0.5,2.59375 0,1.51562 -0.54688,2.73437 -0.54687,1.20313 -1.57812,1.84375 -1.03125,0.64063 -2.17188,0.64063 -0.84375,0 -1.51562,-0.34375 -0.65625,-0.35938 -1.07813,-0.89063 l 0,4.79688 -1.67187,0 z m 1.51562,-8.65625 q 0,1.90625 0.76563,2.8125 0.78125,0.90625 1.875,0.90625 1.10937,0 1.89062,-0.9375 0.79688,-0.9375 0.79688,-2.92188 0,-1.875 -0.78125,-2.8125 -0.76563,-0.9375 -1.84375,-0.9375 -1.0625,0 -1.89063,1 -0.8125,1 -0.8125,2.89063 z m 8.86008,4.875 0,-13.59375 1.67187,0 0,4.875 q 1.17188,-1.35938 2.95313,-1.35938 1.09375,0 1.89062,0.4375 0.8125,0.42188 1.15625,1.1875 0.35938,0.76563 0.35938,2.20313 l 0,6.25 -1.67188,0 0,-6.25 q 0,-1.25 -0.54687,-1.8125 -0.54688,-0.57813 -1.53125,-0.57813 -0.75,0 -1.40625,0.39063 -0.64063,0.375 -0.92188,1.04687 -0.28125,0.65625 -0.28125,1.8125 l 0,5.39063 -1.67187,0 z" />
  <path
     style="fill:#ffffff;fill-rule:nonzero"
     inkscape:connector-curvature="0"
     id="path153"
     d="m 785.4804,278.3622 0,0 c 0,-8.4278 8.83441,-15.25986 19.7323,-15.25986 l 0,0 c 10.89783,0 19.73224,6.83206 19.73224,15.25986 l 0,0 c 0,8.42776 -8.83441,15.25983 -19.73224,15.25983 l 0,0 c -10.89789,0 -19.7323,-6.83207 -19.7323,-15.25983 z" />
  <path
     style="stroke:#595959;stroke-width:1;stroke-linecap:butt;stroke-linejoin:round"
     inkscape:connector-curvature="0"
     id="path155"
     d="m 785.4804,278.3622 0,0 c 0,-8.4278 8.83441,-15.25986 19.7323,-15.25986 l 0,0 c 10.89783,0 19.73224,6.83206 19.73224,15.25986 l 0,0 c 0,8.42776 -8.83441,15.25983 -19.73224,15.25983 l 0,0 c -10.89789,0 -19.7323,-6.83207 -19.7323,-15.25983 z" />
  <path
     style="fill:#000000;fill-opacity:0;fill-rule:nonzero"
     inkscape:connector-curvature="0"
     id="path157"
     d="m 759.03253,231.99213 26.45666,46.36221" />
  <path
     style="stroke:#595959;stroke-width:1;stroke-linecap:butt;stroke-linejoin:round"
     inkscape:connector-curvature="0"
     id="path159"
     d="m 759.0325,231.99213 23.48297,41.151" />
  <path
     style="fill:#595959;fill-rule:evenodd;stroke:#595959;stroke-width:1;stroke-linecap:butt"
     inkscape:connector-curvature="0"
     id="path161"
     d="m 781.0808,273.9618 3.68378,3.12283 -0.81464,-4.76013 z" />
  <path
     style="fill:#000000;fill-opacity:0;fill-rule:nonzero"
     inkscape:connector-curvature="0"
     id="path163"
     d="m 824.94495,278.3622 35.68506,-46.36221" />
  <path
     style="stroke:#595959;stroke-width:1;stroke-linecap:butt;stroke-linejoin:round"
     inkscape:connector-curvature="0"
     id="path165"
     d="m 824.94495,278.3622 32.02539,-41.60754" />
  <path
     style="fill:#595959;fill-rule:evenodd;stroke:#595959;stroke-width:1;stroke-linecap:butt"
     inkscape:connector-curvature="0"
     id="path167"
     d="m 858.27924,237.76212 1.45911,-4.60364 -4.07691,2.58872 z" />
  <path
     style="fill:#ffffff;fill-rule:nonzero"
     inkscape:connector-curvature="0"
     id="path169"
     d="m 603.5591,216.73227 0,0 c 0,-8.42776 7.6499,-15.25983 17.08661,-15.25983 l 0,0 c 9.43664,0 17.08661,6.83207 17.08661,15.25983 l 0,0 c 0,8.4278 -7.64997,15.25986 -17.08661,15.25986 l 0,0 c -9.43671,0 -17.08661,-6.83206 -17.08661,-15.25986 z" />
  <path
     style="stroke:#595959;stroke-width:1;stroke-linecap:butt;stroke-linejoin:round"
     inkscape:connector-curvature="0"
     id="path171"
     d="m 603.5591,216.73227 0,0 c 0,-8.42776 7.6499,-15.25983 17.08661,-15.25983 l 0,0 c 9.43664,0 17.08661,6.83207 17.08661,15.25983 l 0,0 c 0,8.4278 -7.64997,15.25986 -17.08661,15.25986 l 0,0 c -9.43671,0 -17.08661,-6.83206 -17.08661,-15.25986 z" />
  <path
     style="fill:#000000;fill-opacity:0;fill-rule:nonzero"
     inkscape:connector-curvature="0"
     id="path173"
     d="m 75.968506,217.79266 0,0 c 0,-38.33813 37.170934,-69.41733 83.023624,-69.41733 l 0,0 c 45.85267,0 83.02362,31.07919 83.02362,69.41733 l 0,0 c 0,38.3381 -37.17095,69.4173 -83.02362,69.4173 l 0,0 c -45.85269,0 -83.023624,-31.07919 -83.023624,-69.4173 z" />
  <path
     style="stroke:#0000ff;stroke-width:1;stroke-linecap:butt;stroke-linejoin:round;stroke-dasharray:4, 3"
     inkscape:connector-curvature="0"
     id="path175"
     d="m 75.968506,217.79266 0,0 c 0,-38.33813 37.170934,-69.41733 83.023624,-69.41733 l 0,0 c 45.85267,0 83.02362,31.07919 83.02362,69.41733 l 0,0 c 0,38.3381 -37.17095,69.4173 -83.02362,69.4173 l 0,0 c -45.85269,0 -83.023624,-31.07919 -83.023624,-69.4173 z" />
  <path
     style="fill:#ffffff;fill-rule:nonzero"
     inkscape:connector-curvature="0"
     id="path177"
     d="m 399.5013,133.86876 65.07086,0 0,24.7559 -65.07086,0 z" />
  <path
     style="stroke:#666666;stroke-width:1;stroke-linecap:butt;stroke-linejoin:round"
     inkscape:connector-curvature="0"
     id="path179"
     d="m 399.5013,133.86876 65.07086,0 0,24.7559 -65.07086,0 z" />
  <path
     style="fill:#ffffff;fill-rule:nonzero"
     inkscape:connector-curvature="0"
     id="path181"
     d="m 399.5013,181.86876 65.07086,0 0,24.7559 -65.07086,0 z" />
  <path
     style="stroke:#666666;stroke-width:1;stroke-linecap:butt;stroke-linejoin:round"
     inkscape:connector-curvature="0"
     id="path183"
     d="m 399.5013,181.86876 65.07086,0 0,24.7559 -65.07086,0 z" />
  <path
     style="fill:#ffffff;fill-rule:nonzero"
     inkscape:connector-curvature="0"
     id="path185"
     d="m 399.5013,229.86877 65.07086,0 0,24.75589 -65.07086,0 z" />
  <path
     style="stroke:#666666;stroke-width:1;stroke-linecap:butt;stroke-linejoin:round"
     inkscape:connector-curvature="0"
     id="path187"
     d="m 399.5013,229.86877 65.07086,0 0,24.75589 -65.07086,0 z" />
  <path
     style="fill:#000000;fill-opacity:0;fill-rule:nonzero"
     inkscape:connector-curvature="0"
     id="path189"
     d="m 419.1391,263.1601 58.86615,0 0,52.06299 -58.86615,0 z" />
  <path
     style="fill:#000000;fill-rule:nonzero"
     inkscape:connector-curvature="0"
     id="path191"
     d="m 429.85785,290.0801 0,-1.90625 1.90625,0 0,1.90625 -1.90625,0 z m 5.18332,0 0,-1.90625 1.90625,0 0,1.90625 -1.90625,0 z m 5.18329,0 0,-1.90625 1.90625,0 0,1.90625 -1.90625,0 z" />
  <path
     style="fill:#000000;fill-rule:nonzero"
     inkscape:connector-curvature="0"
     id="path193"
     d="m 429.85785,312.0801 0,-1.90625 1.90625,0 0,1.90625 -1.90625,0 z m 5.18332,0 0,-1.90625 1.90625,0 0,1.90625 -1.90625,0 z m 5.18329,0 0,-1.90625 1.90625,0 0,1.90625 -1.90625,0 z" />
  <path
     style="fill:#000000;fill-opacity:0;fill-rule:nonzero"
     inkscape:connector-curvature="0"
     id="path195"
     d="M 288.72772,205.94194 399.49939,146.25691" />
  <path
     style="stroke:#595959;stroke-width:1;stroke-linecap:butt;stroke-linejoin:round"
     inkscape:connector-curvature="0"
     id="path197"
     d="M 288.72772,205.94196 394.21731,149.10294" />
  <path
     style="fill:#595959;fill-rule:evenodd;stroke:#595959;stroke-width:1;stroke-linecap:butt"
     inkscape:connector-curvature="0"
     id="path199"
     d="m 395.00082,150.55704 3.21158,-3.60669 -4.77857,0.6985 z" />
  <path
     style="fill:#000000;fill-opacity:0;fill-rule:nonzero"
     inkscape:connector-curvature="0"
     id="path201"
     d="M 464.57217,146.24672 608.5722,205.93176" />
  <path
     style="stroke:#595959;stroke-width:1;stroke-linecap:butt;stroke-linejoin:round"
     inkscape:connector-curvature="0"
     id="path203"
     d="m 464.57217,146.24672 138.45724,57.38766" />
  <path
     style="fill:#595959;fill-rule:evenodd;stroke:#595959;stroke-width:1;stroke-linecap:butt"
     inkscape:connector-curvature="0"
     id="path205"
     d="m 602.397,205.16026 4.82471,0.21175 -3.55982,-3.26348 z" />
  <path
     style="fill:#000000;fill-opacity:0;fill-rule:nonzero"
     inkscape:connector-curvature="0"
     id="path207"
     d="M 293.73227,216.73227 399.49606,194.2441" />
  <path
     style="stroke:#595959;stroke-width:1;stroke-linecap:butt;stroke-linejoin:round"
     inkscape:connector-curvature="0"
     id="path209"
     d="m 293.73227,216.73227 99.89499,-21.24031" />
  <path
     style="fill:#595959;fill-rule:evenodd;stroke:#595959;stroke-width:1;stroke-linecap:butt"
     inkscape:connector-curvature="0"
     id="path211"
     d="m 393.9708,197.10757 4.09534,-2.55943 -4.78238,-0.6718 z" />
  <path
     style="fill:#000000;fill-opacity:0;fill-rule:nonzero"
     inkscape:connector-curvature="0"
     id="path213"
     d="m 464.57217,194.24672 138.99216,22.48817" />
  <path
     style="stroke:#595959;stroke-width:1;stroke-linecap:butt;stroke-linejoin:round"
     inkscape:connector-curvature="0"
     id="path215"
     d="m 464.57217,194.24672 133.06912,21.52986" />
  <path
     style="fill:#595959;fill-rule:evenodd;stroke:#595959;stroke-width:1;stroke-linecap:butt"
     inkscape:connector-curvature="0"
     id="path217"
     d="m 597.3775,217.40714 4.74365,-0.90573 -4.216,-2.35532 z" />
  <path
     style="fill:#000000;fill-opacity:0;fill-rule:nonzero"
     inkscape:connector-curvature="0"
     id="path219"
     d="m 288.72772,227.5226 110.77167,14.70868" />
  <path
     style="stroke:#595959;stroke-width:1;stroke-linecap:butt;stroke-linejoin:round"
     inkscape:connector-curvature="0"
     id="path221"
     d="M 288.72772,227.5226 393.5516,241.44152" />
  <path
     style="fill:#595959;fill-rule:evenodd;stroke:#595959;stroke-width:1;stroke-linecap:butt"
     inkscape:connector-curvature="0"
     id="path223"
     d="m 393.33417,243.07886 4.71603,-1.04001 -4.28119,-2.23471 z" />
  <path
     style="fill:#000000;fill-opacity:0;fill-rule:nonzero"
     inkscape:connector-curvature="0"
     id="path225"
     d="M 464.57217,242.2467 608.5722,227.53805" />
  <path
     style="stroke:#595959;stroke-width:1;stroke-linecap:butt;stroke-linejoin:round"
     inkscape:connector-curvature="0"
     id="path227"
     d="M 464.57217,242.2467 602.60321,228.14773" />
  <path
     style="fill:#595959;fill-rule:evenodd;stroke:#595959;stroke-width:1;stroke-linecap:butt"
     inkscape:connector-curvature="0"
     id="path229"
     d="m 602.77106,229.79092 4.3468,-2.10431 -4.68243,-1.18204 z" />
  <path
     style="fill:#000000;fill-opacity:0;fill-rule:nonzero"
     inkscape:connector-curvature="0"
     id="path231"
     d="m 151.89764,345.36484 418.6142,0 0,48.85037 -418.6142,0 z" />
  <path
     style="fill:#000000;fill-rule:nonzero"
     inkscape:connector-curvature="0"
     id="path233"
     d="m 168.58514,371.06607 q -0.9375,0.79688 -1.79688,1.125 -0.85937,0.3125 -1.84375,0.3125 -1.60937,0 -2.48437,-0.78125 -0.875,-0.79687 -0.875,-2.03125 0,-0.73437 0.32812,-1.32812 0.32813,-0.59375 0.85938,-0.95313 0.53125,-0.35937 1.20312,-0.54687 0.5,-0.14063 1.48438,-0.25 2.03125,-0.25 2.98437,-0.57813 0,-0.34375 0,-0.4375 0,-1.01562 -0.46875,-1.4375 -0.64062,-0.5625 -1.90625,-0.5625 -1.17187,0 -1.73437,0.40625 -0.5625,0.40625 -0.82813,1.46875 l -1.64062,-0.23437 q 0.23437,-1.04688 0.73437,-1.6875 0.51563,-0.64063 1.46875,-0.98438 0.96875,-0.35937 2.25,-0.35937 1.26563,0 2.04688,0.29687 0.78125,0.29688 1.15625,0.75 0.375,0.45313 0.51562,1.14063 0.0937,0.42187 0.0937,1.53125 l 0,2.23437 q 0,2.32813 0.0937,2.95313 0.10938,0.60937 0.4375,1.17187 l -1.75,0 q -0.26562,-0.51562 -0.32812,-1.21875 z m -0.14063,-3.71875 q -0.90625,0.35938 -2.73437,0.625 -1.03125,0.14063 -1.45313,0.32813 -0.42187,0.1875 -0.65625,0.54687 -0.23437,0.35938 -0.23437,0.79688 0,0.67187 0.5,1.125 0.51562,0.4375 1.48437,0.4375 0.96875,0 1.71875,-0.42188 0.75,-0.4375 1.10938,-1.15625 0.26562,-0.57812 0.26562,-1.67187 l 0,-0.60938 z m 4.0476,4.9375 0,-13.59375 1.67187,0 0,13.59375 -1.67187,0 z m 4.14482,0 0,-13.59375 1.67187,0 0,13.59375 -1.67187,0 z m 8.6875,-2.9375 1.65625,-0.26562 q 0.14062,1 0.76562,1.53125 0.64063,0.51562 1.78125,0.51562 1.15625,0 1.70313,-0.46875 0.5625,-0.46875 0.5625,-1.09375 0,-0.5625 -0.48438,-0.89062 -0.34375,-0.21875 -1.70312,-0.5625 -1.84375,-0.46875 -2.5625,-0.79688 -0.70313,-0.34375 -1.07813,-0.9375 -0.35937,-0.60937 -0.35937,-1.32812 0,-0.65625 0.29687,-1.21875 0.3125,-0.5625 0.82813,-0.9375 0.39062,-0.28125 1.0625,-0.48438 0.67187,-0.20312 1.4375,-0.20312 1.17187,0 2.04687,0.34375 0.875,0.32812 1.28125,0.90625 0.42188,0.5625 0.57813,1.51562 l -1.625,0.21875 q -0.10938,-0.75 -0.65625,-1.17187 -0.53125,-0.4375 -1.5,-0.4375 -1.15625,0 -1.64063,0.39062 -0.48437,0.375 -0.48437,0.875 0,0.32813 0.20312,0.59375 0.20313,0.26563 0.64063,0.4375 0.25,0.0937 1.46875,0.4375 1.76562,0.46875 2.46875,0.76563 0.70312,0.29687 1.09375,0.875 0.40625,0.57812 0.40625,1.4375 0,0.82812 -0.48438,1.57812 -0.48437,0.73438 -1.40625,1.14063 -0.92187,0.39062 -2.07812,0.39062 -1.92188,0 -2.9375,-0.79687 -1,-0.79688 -1.28125,-2.35938 z m 10.01562,-8.75 0,-1.90625 1.67188,0 0,1.90625 -1.67188,0 z m 0,11.6875 0,-9.85937 1.67188,0 0,9.85937 -1.67188,0 z m 4.1292,0 0,-9.85937 1.5,0 0,1.39062 q 0.45312,-0.71875 1.21875,-1.15625 0.78125,-0.45312 1.76562,-0.45312 1.09375,0 1.79688,0.45312 0.70312,0.45313 0.98437,1.28125 1.17188,-1.73437 3.04688,-1.73437 1.46875,0 2.25,0.8125 0.79687,0.8125 0.79687,2.5 l 0,6.76562 -1.67187,0 0,-6.20312 q 0,-1 -0.15625,-1.4375 -0.15625,-0.45313 -0.59375,-0.71875 -0.42188,-0.26563 -1,-0.26563 -1.03125,0 -1.71875,0.6875 -0.6875,0.6875 -0.6875,2.21875 l 0,5.71875 -1.67188,0 0,-6.40625 q 0,-1.10937 -0.40625,-1.65625 -0.40625,-0.5625 -1.34375,-0.5625 -0.70312,0 -1.3125,0.375 -0.59375,0.35938 -0.85937,1.07813 -0.26563,0.71875 -0.26563,2.0625 l 0,5.10937 -1.67187,0 z m 15.5408,3.78125 0,-13.64062 1.53125,0 0,1.28125 q 0.53125,-0.75 1.20313,-1.125 0.6875,-0.375 1.64062,-0.375 1.26563,0 2.23438,0.65625 0.96875,0.64062 1.45312,1.82812 0.5,1.1875 0.5,2.59375 0,1.51563 -0.54687,2.73438 -0.54688,1.20312 -1.57813,1.84375 -1.03125,0.64062 -2.17187,0.64062 -0.84375,0 -1.51563,-0.34375 -0.65625,-0.35937 -1.07812,-0.89062 l 0,4.79687 -1.67188,0 z m 1.51563,-8.65625 q 0,1.90625 0.76562,2.8125 0.78125,0.90625 1.875,0.90625 1.10938,0 1.89063,-0.9375 0.79687,-0.9375 0.79687,-2.92187 0,-1.875 -0.78125,-2.8125 -0.76562,-0.9375 -1.84375,-0.9375 -1.0625,0 -1.89062,1 -0.8125,1 -0.8125,2.89062 z m 8.82884,4.875 0,-13.59375 1.67187,0 0,13.59375 -1.67187,0 z m 10.92607,-3.17187 1.71875,0.21875 q -0.40625,1.5 -1.51563,2.34375 -1.09375,0.82812 -2.8125,0.82812 -2.15625,0 -3.42187,-1.32812 -1.26563,-1.32813 -1.26563,-3.73438 0,-2.48437 1.26563,-3.85937 1.28125,-1.375 3.32812,-1.375 1.98438,0 3.23438,1.34375 1.25,1.34375 1.25,3.79687 0,0.14063 -0.0156,0.4375 l -7.34375,0 q 0.0937,1.625 0.92188,2.48438 0.82812,0.85937 2.0625,0.85937 0.90625,0 1.54687,-0.46875 0.65625,-0.48437 1.04688,-1.54687 z m -5.48438,-2.70313 5.5,0 q -0.10937,-1.23437 -0.625,-1.85937 -0.79687,-0.96875 -2.07812,-0.96875 -1.14063,0 -1.9375,0.78125 -0.78125,0.76562 -0.85938,2.04687 z m 15.84028,5.875 -1.54688,0 0,-13.59375 1.65625,0 0,4.84375 q 1.0625,-1.32812 2.70313,-1.32812 0.90625,0 1.71875,0.375 0.8125,0.35937 1.32812,1.03125 0.53125,0.65625 0.82813,1.59375 0.29687,0.9375 0.29687,2 0,2.53125 -1.25,3.92187 -1.25,1.375 -3,1.375 -1.75,0 -2.73437,-1.45312 l 0,1.23437 z m -0.0156,-5 q 0,1.76563 0.46875,2.5625 0.79688,1.28125 2.14063,1.28125 1.09375,0 1.89062,-0.9375 0.79688,-0.95312 0.79688,-2.84375 0,-1.92187 -0.76563,-2.84375 -0.76562,-0.92187 -1.84375,-0.92187 -1.09375,0 -1.89062,0.95312 -0.79688,0.95313 -0.79688,2.75 z m 15.29759,5 0,-1.45312 q -1.14062,1.67187 -3.125,1.67187 -0.85937,0 -1.625,-0.32812 -0.75,-0.34375 -1.125,-0.84375 -0.35937,-0.5 -0.51562,-1.23438 -0.0937,-0.5 -0.0937,-1.5625 l 0,-6.10937 1.67187,0 0,5.46875 q 0,1.3125 0.0937,1.76562 0.15625,0.65625 0.67188,1.03125 0.51562,0.375 1.26562,0.375 0.75,0 1.40625,-0.375 0.65625,-0.39062 0.92188,-1.04687 0.28125,-0.67188 0.28125,-1.9375 l 0,-5.28125 1.67187,0 0,9.85937 -1.5,0 z m 5.46945,0 -1.54687,0 0,-13.59375 1.65625,0 0,4.84375 q 1.0625,-1.32812 2.70312,-1.32812 0.90625,0 1.71875,0.375 0.8125,0.35937 1.32813,1.03125 0.53125,0.65625 0.82812,1.59375 0.29688,0.9375 0.29688,2 0,2.53125 -1.25,3.92187 -1.25,1.375 -3,1.375 -1.75,0 -2.73438,-1.45312 l 0,1.23437 z m -0.0156,-5 q 0,1.76563 0.46875,2.5625 0.79687,1.28125 2.14062,1.28125 1.09375,0 1.89063,-0.9375 0.79687,-0.95312 0.79687,-2.84375 0,-1.92187 -0.76562,-2.84375 -0.76563,-0.92187 -1.84375,-0.92187 -1.09375,0 -1.89063,0.95312 -0.79687,0.95313 -0.79687,2.75 z m 10.39136,5 -1.54688,0 0,-13.59375 1.65625,0 0,4.84375 q 1.0625,-1.32812 2.70313,-1.32812 0.90625,0 1.71875,0.375 0.8125,0.35937 1.32812,1.03125 0.53125,0.65625 0.82813,1.59375 0.29687,0.9375 0.29687,2 0,2.53125 -1.25,3.92187 -1.25,1.375 -3,1.375 -1.75,0 -2.73437,-1.45312 l 0,1.23437 z m -0.0156,-5 q 0,1.76563 0.46875,2.5625 0.79688,1.28125 2.14063,1.28125 1.09375,0 1.89062,-0.9375 0.79688,-0.95312 0.79688,-2.84375 0,-1.92187 -0.76563,-2.84375 -0.76562,-0.92187 -1.84375,-0.92187 -1.09375,0 -1.89062,0.95312 -0.79688,0.95313 -0.79688,2.75 z m 8.8132,5 0,-13.59375 1.67188,0 0,13.59375 -1.67188,0 z m 10.92609,-3.17187 1.71875,0.21875 q -0.40625,1.5 -1.51563,2.34375 -1.09375,0.82812 -2.8125,0.82812 -2.15625,0 -3.42187,-1.32812 -1.26563,-1.32813 -1.26563,-3.73438 0,-2.48437 1.26563,-3.85937 1.28125,-1.375 3.32812,-1.375 1.98438,0 3.23438,1.34375 1.25,1.34375 1.25,3.79687 0,0.14063 -0.0156,0.4375 l -7.34375,0 q 0.0937,1.625 0.92188,2.48438 0.82812,0.85937 2.0625,0.85937 0.90625,0 1.54687,-0.46875 0.65625,-0.48437 1.04688,-1.54687 z m -5.48438,-2.70313 5.5,0 q -0.10937,-1.23437 -0.625,-1.85937 -0.79687,-0.96875 -2.07812,-0.96875 -1.14063,0 -1.9375,0.78125 -0.78125,0.76562 -0.85938,2.04687 z m 8.43821,2.9375 1.65625,-0.26562 q 0.14062,1 0.76562,1.53125 0.64063,0.51562 1.78125,0.51562 1.15625,0 1.70313,-0.46875 0.5625,-0.46875 0.5625,-1.09375 0,-0.5625 -0.48438,-0.89062 -0.34375,-0.21875 -1.70312,-0.5625 -1.84375,-0.46875 -2.5625,-0.79688 -0.70313,-0.34375 -1.07813,-0.9375 -0.35937,-0.60937 -0.35937,-1.32812 0,-0.65625 0.29687,-1.21875 0.3125,-0.5625 0.82813,-0.9375 0.39062,-0.28125 1.0625,-0.48438 0.67187,-0.20312 1.4375,-0.20312 1.17187,0 2.04687,0.34375 0.875,0.32812 1.28125,0.90625 0.42188,0.5625 0.57813,1.51562 l -1.625,0.21875 q -0.10938,-0.75 -0.65625,-1.17187 -0.53125,-0.4375 -1.5,-0.4375 -1.15625,0 -1.64063,0.39062 -0.48437,0.375 -0.48437,0.875 0,0.32813 0.20312,0.59375 0.20313,0.26563 0.64063,0.4375 0.25,0.0937 1.46875,0.4375 1.76562,0.46875 2.46875,0.76563 0.70312,0.29687 1.09375,0.875 0.40625,0.57812 0.40625,1.4375 0,0.82812 -0.48438,1.57812 -0.48437,0.73438 -1.40625,1.14063 -0.92187,0.39062 -2.07812,0.39062 -1.92188,0 -2.9375,-0.79687 -1,-0.79688 -1.28125,-2.35938 z" />
</svg>
