<?xml version="1.0" encoding="UTF-8" standalone="no"?>
<svg
   xmlns:dc="http://purl.org/dc/elements/1.1/"
   xmlns:cc="http://creativecommons.org/ns#"
   xmlns:rdf="http://www.w3.org/1999/02/22-rdf-syntax-ns#"
   xmlns:svg="http://www.w3.org/2000/svg"
   xmlns="http://www.w3.org/2000/svg"
   xmlns:sodipodi="http://sodipodi.sourceforge.net/DTD/sodipodi-0.dtd"
   xmlns:inkscape="http://www.inkscape.org/namespaces/inkscape"
   version="1.1"
   viewBox="0.0 0.0 960.0 540.0"
   fill="none"
   stroke="none"
   stroke-linecap="square"
   stroke-miterlimit="10"
   id="svg2"
   inkscape:version="0.48.5 r10040"
   width="100%"
   height="100%"
   sodipodi:docname="assembly3.svg">
  <metadata
     id="metadata293">
    <rdf:RDF>
      <cc:Work
         rdf:about="">
        <dc:format>image/svg+xml</dc:format>
        <dc:type
           rdf:resource="http://purl.org/dc/dcmitype/StillImage" />
      </cc:Work>
    </rdf:RDF>
  </metadata>
  <defs
     id="defs291" />
  <sodipodi:namedview
     pagecolor="#ffffff"
     bordercolor="#666666"
     borderopacity="1"
     objecttolerance="10"
     gridtolerance="10"
     guidetolerance="10"
     inkscape:pageopacity="0"
     inkscape:pageshadow="2"
     inkscape:window-width="2560"
     inkscape:window-height="1385"
     id="namedview289"
     showgrid="false"
     inkscape:zoom="0.96343299"
     inkscape:cx="827.73929"
     inkscape:cy="152.32871"
     inkscape:window-x="-2"
     inkscape:window-y="-3"
     inkscape:window-maximized="1"
     inkscape:current-layer="svg2" />
  <clipPath
     id="g17aa23b87b_0_1924.0">
    <path
       d="m0 0l960.0 0l0 540.0l-960.0 0l0 -540.0z"
       clip-rule="nonzero"
       id="path5" />
  </clipPath>
  <path
     style="fill:#000000;fill-opacity:0;fill-rule:nonzero"
     inkscape:connector-curvature="0"
     id="path11"
     d="m 32.72441,46.721786 894.55115,0 0,60.125984 -894.55115,0 z" />
  <path
     style="fill:#000000;fill-rule:nonzero"
     inkscape:connector-curvature="0"
     id="path15"
     d="m 11.559055,196.73227 0,0 c 0,-8.42777 7.649937,-15.25983 17.086615,-15.25983 l 0,0 c 9.436674,0 17.086615,6.83207 17.086615,15.25983 l 0,0 c 0,8.4278 -7.649941,15.25986 -17.086615,15.25986 l 0,0 c -9.436678,0 -17.086615,-6.83206 -17.086615,-15.25986 z" />
  <path
     style="stroke:#595959;stroke-width:1;stroke-linecap:butt;stroke-linejoin:round"
     inkscape:connector-curvature="0"
     id="path17"
     d="m 11.559055,196.73227 0,0 c 0,-8.42777 7.649937,-15.25983 17.086615,-15.25983 l 0,0 c 9.436674,0 17.086615,6.83207 17.086615,15.25983 l 0,0 c 0,8.4278 -7.649941,15.25986 -17.086615,15.25986 l 0,0 c -9.436678,0 -17.086615,-6.83206 -17.086615,-15.25986 z" />
  <path
     style="fill:#ffffff;fill-rule:nonzero"
     inkscape:connector-curvature="0"
     id="path19"
     d="m 91.55905,196.73227 0,0 c 0,-8.42777 7.64994,-15.25983 17.08662,-15.25983 l 0,0 c 9.43667,0 17.08661,6.83207 17.08661,15.25983 l 0,0 c 0,8.4278 -7.64994,15.25986 -17.08661,15.25986 l 0,0 c -9.436679,0 -17.08662,-6.83206 -17.08662,-15.25986 z" />
  <path
     style="stroke:#595959;stroke-width:1;stroke-linecap:butt;stroke-linejoin:round"
     inkscape:connector-curvature="0"
     id="path21"
     d="m 91.55905,196.73227 0,0 c 0,-8.42777 7.64994,-15.25983 17.08662,-15.25983 l 0,0 c 9.43667,0 17.08661,6.83207 17.08661,15.25983 l 0,0 c 0,8.4278 -7.64994,15.25986 -17.08661,15.25986 l 0,0 c -9.436679,0 -17.08662,-6.83206 -17.08662,-15.25986 z" />
  <path
     style="fill:#ffffff;fill-rule:nonzero"
     inkscape:connector-curvature="0"
     id="path23"
     d="m 195.55905,196.73227 0,0 c 0,-8.42777 7.64995,-15.25983 17.08662,-15.25983 l 0,0 c 9.43668,0 17.08661,6.83207 17.08661,15.25983 l 0,0 c 0,8.4278 -7.64993,15.25986 -17.08661,15.25986 l 0,0 c -9.43667,0 -17.08662,-6.83206 -17.08662,-15.25986 z" />
  <path
     style="stroke:#595959;stroke-width:1;stroke-linecap:butt;stroke-linejoin:round"
     inkscape:connector-curvature="0"
     id="path25"
     d="m 195.55905,196.73227 0,0 c 0,-8.42777 7.64995,-15.25983 17.08662,-15.25983 l 0,0 c 9.43668,0 17.08661,6.83207 17.08661,15.25983 l 0,0 c 0,8.4278 -7.64993,15.25986 -17.08661,15.25986 l 0,0 c -9.43667,0 -17.08662,-6.83206 -17.08662,-15.25986 z" />
  <path
     style="fill:#ffffff;fill-rule:nonzero"
     inkscape:connector-curvature="0"
     id="path27"
     d="m 778.2555,196.73227 0,0 c 0,-8.42777 5.80267,-15.25983 12.96063,-15.25983 l 0,0 c 3.43738,0 6.73395,1.60773 9.16455,4.46952 2.43061,2.86175 3.79608,6.74316 3.79608,10.79031 l 0,0 c 0,8.4278 -5.80267,15.25986 -12.96063,15.25986 l 0,0 c -7.15796,0 -12.96063,-6.83206 -12.96063,-15.25986 z" />
  <path
     style="stroke:#595959;stroke-width:1;stroke-linecap:butt;stroke-linejoin:round"
     inkscape:connector-curvature="0"
     id="path29"
     d="m 778.2555,196.73227 0,0 c 0,-8.42777 5.80267,-15.25983 12.96063,-15.25983 l 0,0 c 3.43738,0 6.73395,1.60773 9.16455,4.46952 2.43061,2.86175 3.79608,6.74316 3.79608,10.79031 l 0,0 c 0,8.4278 -5.80267,15.25986 -12.96063,15.25986 l 0,0 c -7.15796,0 -12.96063,-6.83206 -12.96063,-15.25986 z" />
  <path
     style="fill:#000000;fill-opacity:0;fill-rule:nonzero"
     inkscape:connector-curvature="0"
     id="path31"
     d="m 45.732285,196.73227 45.826767,0" />
  <path
     style="stroke:#595959;stroke-width:1;stroke-linecap:butt;stroke-linejoin:round"
     inkscape:connector-curvature="0"
     id="path33"
     d="m 45.732285,196.73227 39.826767,0" />
  <path
     style="fill:#595959;fill-rule:evenodd;stroke:#595959;stroke-width:1;stroke-linecap:butt"
     inkscape:connector-curvature="0"
     id="path35"
     d="m 85.55906,198.384 4.538094,-1.65173 -4.538094,-1.65174 z" />
  <path
     style="fill:#ffffff;fill-rule:nonzero"
     inkscape:connector-curvature="0"
     id="path37"
     d="m 139.55905,156.73228 0,0 c 0,-8.42778 7.64995,-15.25984 17.08662,-15.25984 l 0,0 c 9.43668,0 17.08661,6.83206 17.08661,15.25984 l 0,0 c 0,8.42778 -7.64993,15.25984 -17.08661,15.25984 l 0,0 c -9.43667,0 -17.08662,-6.83206 -17.08662,-15.25984 z" />
  <path
     style="stroke:#595959;stroke-width:1;stroke-linecap:butt;stroke-linejoin:round"
     inkscape:connector-curvature="0"
     id="path39"
     d="m 139.55905,156.73228 0,0 c 0,-8.42778 7.64995,-15.25984 17.08662,-15.25984 l 0,0 c 9.43668,0 17.08661,6.83206 17.08661,15.25984 l 0,0 c 0,8.42778 -7.64993,15.25984 -17.08661,15.25984 l 0,0 c -9.43667,0 -17.08662,-6.83206 -17.08662,-15.25984 z" />
  <path
     style="fill:#ffffff;fill-rule:nonzero"
     inkscape:connector-curvature="0"
     id="path41"
     d="m 139.55905,236.73227 0,0 c 0,-8.42777 7.64995,-15.25983 17.08662,-15.25983 l 0,0 c 9.43668,0 17.08661,6.83207 17.08661,15.25983 l 0,0 c 0,8.4278 -7.64993,15.25986 -17.08661,15.25986 l 0,0 c -9.43667,0 -17.08662,-6.83206 -17.08662,-15.25986 z" />
  <path
     style="stroke:#595959;stroke-width:1;stroke-linecap:butt;stroke-linejoin:round"
     inkscape:connector-curvature="0"
     id="path43"
     d="m 139.55905,236.73227 0,0 c 0,-8.42777 7.64995,-15.25983 17.08662,-15.25983 l 0,0 c 9.43668,0 17.08661,6.83207 17.08661,15.25983 l 0,0 c 0,8.4278 -7.64993,15.25986 -17.08661,15.25986 l 0,0 c -9.43667,0 -17.08662,-6.83206 -17.08662,-15.25986 z" />
  <path
     style="fill:#000000;fill-opacity:0;fill-rule:nonzero"
     inkscape:connector-curvature="0"
     id="path45"
     d="m 108.64567,181.47244 30.92913,-24.7559" />
  <path
     style="stroke:#595959;stroke-width:1;stroke-linecap:butt;stroke-linejoin:round"
     inkscape:connector-curvature="0"
     id="path47"
     d="m 108.64567,181.47244 26.24485,-21.00658" />
  <path
     style="fill:#595959;fill-rule:evenodd;stroke:#595959;stroke-width:1;stroke-linecap:butt"
     inkscape:connector-curvature="0"
     id="path49"
     d="m 135.92267,161.7554 2.5108,-4.12534 -4.5751,1.54628 z" />
  <path
     style="fill:#000000;fill-opacity:0;fill-rule:nonzero"
     inkscape:connector-curvature="0"
     id="path51"
     d="m 108.64567,211.99213 30.92913,24.75589" />
  <path
     style="stroke:#595959;stroke-width:1;stroke-linecap:butt;stroke-linejoin:round"
     inkscape:connector-curvature="0"
     id="path53"
     d="m 108.64567,211.99213 26.24485,21.00659" />
  <path
     style="fill:#595959;fill-rule:evenodd;stroke:#595959;stroke-width:1;stroke-linecap:butt"
     inkscape:connector-curvature="0"
     id="path55"
     d="m 133.85837,234.28824 4.5751,1.54626 -2.5108,-4.12533 z" />
  <path
     style="fill:#000000;fill-opacity:0;fill-rule:nonzero"
     inkscape:connector-curvature="0"
     id="path57"
     d="m 173.73228,156.73228 38.92914,24.7559" />
  <path
     style="stroke:#595959;stroke-width:1;stroke-linecap:butt;stroke-linejoin:round"
     inkscape:connector-curvature="0"
     id="path59"
     d="m 173.73228,156.73228 33.86616,21.53624" />
  <path
     style="fill:#595959;fill-rule:evenodd;stroke:#595959;stroke-width:1;stroke-linecap:butt"
     inkscape:connector-curvature="0"
     id="path61"
     d="m 206.7121,179.66232 4.71573,1.04138 -2.94306,-3.82895 z" />
  <path
     style="fill:#000000;fill-opacity:0;fill-rule:nonzero"
     inkscape:connector-curvature="0"
     id="path63"
     d="m 173.73228,236.73227 38.92914,-24.75589" />
  <path
     style="stroke:#595959;stroke-width:1;stroke-linecap:butt;stroke-linejoin:round"
     inkscape:connector-curvature="0"
     id="path65"
     d="m 173.73228,236.73227 33.86616,-21.53622" />
  <path
     style="fill:#595959;fill-rule:evenodd;stroke:#595959;stroke-width:1;stroke-linecap:butt"
     inkscape:connector-curvature="0"
     id="path67"
     d="m 208.48477,216.5898 2.94305,-3.82895 -4.71572,1.04138 z" />
  <path
     style="fill:#ffffff;fill-rule:nonzero"
     inkscape:connector-curvature="0"
     id="path69"
     d="m 844.97406,196.73227 0,0 c 0,-8.42777 5.80267,-15.25983 12.96063,-15.25983 l 0,0 c 3.43738,0 6.73395,1.60773 9.16455,4.46952 2.43061,2.86175 3.79608,6.74316 3.79608,10.79031 l 0,0 c 0,8.4278 -5.80267,15.25986 -12.96063,15.25986 l 0,0 c -7.15796,0 -12.96063,-6.83206 -12.96063,-15.25986 z" />
  <path
     style="stroke:#595959;stroke-width:1;stroke-linecap:butt;stroke-linejoin:round"
     inkscape:connector-curvature="0"
     id="path71"
     d="m 844.97406,196.73227 0,0 c 0,-8.42777 5.80267,-15.25983 12.96063,-15.25983 l 0,0 c 3.43738,0 6.73395,1.60773 9.16455,4.46952 2.43061,2.86175 3.79608,6.74316 3.79608,10.79031 l 0,0 c 0,8.4278 -5.80267,15.25986 -12.96063,15.25986 l 0,0 c -7.15796,0 -12.96063,-6.83206 -12.96063,-15.25986 z" />
  <path
     style="fill:#000000;fill-rule:nonzero"
     inkscape:connector-curvature="0"
     id="path73"
     d="m 923.8233,196.73227 0,0 c 0,-8.42777 5.80267,-15.25983 12.96063,-15.25983 l 0,0 c 3.43738,0 6.73395,1.60773 9.16455,4.46952 2.43061,2.86175 3.79608,6.74316 3.79608,10.79031 l 0,0 c 0,8.4278 -5.80267,15.25986 -12.96063,15.25986 l 0,0 c -7.15796,0 -12.96063,-6.83206 -12.96063,-15.25986 z" />
  <path
     style="stroke:#595959;stroke-width:1;stroke-linecap:butt;stroke-linejoin:round"
     inkscape:connector-curvature="0"
     id="path75"
     d="m 923.8233,196.73227 0,0 c 0,-8.42777 5.80267,-15.25983 12.96063,-15.25983 l 0,0 c 3.43738,0 6.73395,1.60773 9.16455,4.46952 2.43061,2.86175 3.79608,6.74316 3.79608,10.79031 l 0,0 c 0,8.4278 -5.80267,15.25986 -12.96063,15.25986 l 0,0 c -7.15796,0 -12.96063,-6.83206 -12.96063,-15.25986 z" />
  <path
     style="fill:#ffffff;fill-rule:nonzero"
     inkscape:connector-curvature="0"
     id="path77"
     d="m 808.5821,156.73228 0,0 c 0,-8.42778 5.80267,-15.25984 12.96063,-15.25984 l 0,0 c 3.43738,0 6.73401,1.60773 9.16455,4.4695 2.43061,2.86178 3.79608,6.74318 3.79608,10.79034 l 0,0 c 0,8.42778 -5.80267,15.25984 -12.96063,15.25984 l 0,0 c -7.15796,0 -12.96063,-6.83206 -12.96063,-15.25984 z" />
  <path
     style="stroke:#595959;stroke-width:1;stroke-linecap:butt;stroke-linejoin:round"
     inkscape:connector-curvature="0"
     id="path79"
     d="m 808.5821,156.73228 0,0 c 0,-8.42778 5.80267,-15.25984 12.96063,-15.25984 l 0,0 c 3.43738,0 6.73401,1.60773 9.16455,4.4695 2.43061,2.86178 3.79608,6.74318 3.79608,10.79034 l 0,0 c 0,8.42778 -5.80267,15.25984 -12.96063,15.25984 l 0,0 c -7.15796,0 -12.96063,-6.83206 -12.96063,-15.25984 z" />
  <path
     style="fill:#ffffff;fill-rule:nonzero"
     inkscape:connector-curvature="0"
     id="path81"
     d="m 808.5821,215.10236 0,0 c 0,-8.42777 5.80267,-15.25983 12.96063,-15.25983 l 0,0 c 3.43738,0 6.73401,1.60773 9.16455,4.46949 2.43061,2.86178 3.79608,6.74319 3.79608,10.79034 l 0,0 c 0,8.42779 -5.80267,15.25986 -12.96063,15.25986 l 0,0 c -7.15796,0 -12.96063,-6.83207 -12.96063,-15.25986 z" />
  <path
     style="stroke:#595959;stroke-width:1;stroke-linecap:butt;stroke-linejoin:round"
     inkscape:connector-curvature="0"
     id="path83"
     d="m 808.5821,215.10236 0,0 c 0,-8.42777 5.80267,-15.25983 12.96063,-15.25983 l 0,0 c 3.43738,0 6.73401,1.60773 9.16455,4.46949 2.43061,2.86178 3.79608,6.74319 3.79608,10.79034 l 0,0 c 0,8.42779 -5.80267,15.25986 -12.96063,15.25986 l 0,0 c -7.15796,0 -12.96063,-6.83207 -12.96063,-15.25986 z" />
  <path
     style="fill:#000000;fill-opacity:0;fill-rule:nonzero"
     inkscape:connector-curvature="0"
     id="path85"
     d="m 791.2161,181.47244 17.35431,-24.7559" />
  <path
     style="stroke:#595959;stroke-width:1;stroke-linecap:butt;stroke-linejoin:round"
     inkscape:connector-curvature="0"
     id="path87"
     d="m 791.2161,181.47244 13.91022,-19.84286" />
  <path
     style="fill:#595959;fill-rule:evenodd;stroke:#595959;stroke-width:1;stroke-linecap:butt"
     inkscape:connector-curvature="0"
     id="path89"
     d="m 806.4788,162.5777 1.25244,-4.66409 -3.95746,2.76783 z" />
  <path
     style="fill:#000000;fill-opacity:0;fill-rule:nonzero"
     inkscape:connector-curvature="0"
     id="path91"
     d="m 834.50336,156.73228 23.4331,24.7559" />
  <path
     style="stroke:#595959;stroke-width:1;stroke-linecap:butt;stroke-linejoin:round"
     inkscape:connector-curvature="0"
     id="path93"
     d="m 834.50336,156.73228 19.30847,20.39842" />
  <path
     style="fill:#595959;fill-rule:evenodd;stroke:#595959;stroke-width:1;stroke-linecap:butt"
     inkscape:connector-curvature="0"
     id="path95"
     d="m 852.61224,178.26617 4.31921,2.16031 -1.9201,-4.43121 z" />
  <path
     style="fill:#000000;fill-opacity:0;fill-rule:nonzero"
     inkscape:connector-curvature="0"
     id="path97"
     d="m 791.2161,211.99213 17.35431,3.1181" />
  <path
     style="stroke:#595959;stroke-width:1;stroke-linecap:butt;stroke-linejoin:round"
     inkscape:connector-curvature="0"
     id="path99"
     d="m 791.2161,211.99213 11.44891,2.05707" />
  <path
     style="fill:#595959;fill-rule:evenodd;stroke:#595959;stroke-width:1;stroke-linecap:butt"
     inkscape:connector-curvature="0"
     id="path101"
     d="m 802.3729,215.6749 4.75867,-0.82318 -4.1745,-2.42822 z" />
  <path
     style="fill:#000000;fill-opacity:0;fill-rule:nonzero"
     inkscape:connector-curvature="0"
     id="path103"
     d="m 834.50336,215.10236 23.4331,-3.1181" />
  <path
     style="stroke:#595959;stroke-width:1;stroke-linecap:butt;stroke-linejoin:round"
     inkscape:connector-curvature="0"
     id="path105"
     d="m 834.50336,215.10236 17.48547,-2.32669" />
  <path
     style="fill:#595959;fill-rule:evenodd;stroke:#595959;stroke-width:1;stroke-linecap:butt"
     inkscape:connector-curvature="0"
     id="path107"
     d="m 852.2067,214.41296 4.28058,-2.23587 -4.71631,-1.03873 z" />
  <path
     style="fill:#ffffff;fill-rule:nonzero"
     inkscape:connector-curvature="0"
     id="path109"
     d="m 729.73285,196.73227 0,0 c 0,-8.42777 5.80267,-15.25983 12.96063,-15.25983 l 0,0 c 3.43738,0 6.73401,1.60773 9.16455,4.46952 2.43061,2.86175 3.79608,6.74316 3.79608,10.79031 l 0,0 c 0,8.4278 -5.80267,15.25986 -12.96063,15.25986 l 0,0 c -7.15796,0 -12.96063,-6.83206 -12.96063,-15.25986 z" />
  <path
     style="stroke:#595959;stroke-width:1;stroke-linecap:butt;stroke-linejoin:round"
     inkscape:connector-curvature="0"
     id="path111"
     d="m 729.73285,196.73227 0,0 c 0,-8.42777 5.80267,-15.25983 12.96063,-15.25983 l 0,0 c 3.43738,0 6.73401,1.60773 9.16455,4.46952 2.43061,2.86175 3.79608,6.74316 3.79608,10.79031 l 0,0 c 0,8.4278 -5.80267,15.25986 -12.96063,15.25986 l 0,0 c -7.15796,0 -12.96063,-6.83206 -12.96063,-15.25986 z" />
  <path
     style="fill:#000000;fill-opacity:0;fill-rule:nonzero"
     inkscape:connector-curvature="0"
     id="path113"
     d="m 755.6541,196.73227 22.6142,0" />
  <path
     style="stroke:#595959;stroke-width:1;stroke-linecap:butt;stroke-linejoin:round"
     inkscape:connector-curvature="0"
     id="path115"
     d="m 755.6541,196.73227 16.6142,0" />
  <path
     style="fill:#595959;fill-rule:evenodd;stroke:#595959;stroke-width:1;stroke-linecap:butt"
     inkscape:connector-curvature="0"
     id="path117"
     d="m 772.2683,198.384 4.53809,-1.65173 -4.53809,-1.65174 z" />
  <path
     style="fill:#000000;fill-opacity:0;fill-rule:nonzero"
     inkscape:connector-curvature="0"
     id="path119"
     d="m 637.7323,196.73227 91.71649,-0.7244" />
  <path
     style="stroke:#595959;stroke-width:1;stroke-linecap:butt;stroke-linejoin:round"
     inkscape:connector-curvature="0"
     id="path121"
     d="m 637.7323,196.73227 85.71668,-0.677" />
  <path
     style="fill:#595959;fill-rule:evenodd;stroke:#595959;stroke-width:1;stroke-linecap:butt"
     inkscape:connector-curvature="0"
     id="path123"
     d="m 723.46204,197.70694 4.5249,-1.68753 -4.55096,-1.61581 z" />
  <path
     style="fill:#ffffff;fill-rule:nonzero"
     inkscape:connector-curvature="0"
     id="path125"
     d="m 887.43134,196.73227 0,0 c 0,-8.42777 5.80267,-15.25983 12.96063,-15.25983 l 0,0 c 3.43738,0 6.73395,1.60773 9.16455,4.46952 2.43061,2.86175 3.79608,6.74316 3.79608,10.79031 l 0,0 c 0,8.4278 -5.80267,15.25986 -12.96063,15.25986 l 0,0 c -7.15796,0 -12.96063,-6.83206 -12.96063,-15.25986 z" />
  <path
     style="stroke:#595959;stroke-width:1;stroke-linecap:butt;stroke-linejoin:round"
     inkscape:connector-curvature="0"
     id="path127"
     d="m 887.43134,196.73227 0,0 c 0,-8.42777 5.80267,-15.25983 12.96063,-15.25983 l 0,0 c 3.43738,0 6.73395,1.60773 9.16455,4.46952 2.43061,2.86175 3.79608,6.74316 3.79608,10.79031 l 0,0 c 0,8.4278 -5.80267,15.25986 -12.96063,15.25986 l 0,0 c -7.15796,0 -12.96063,-6.83206 -12.96063,-15.25986 z" />
  <path
     style="fill:#000000;fill-opacity:0;fill-rule:nonzero"
     inkscape:connector-curvature="0"
     id="path129"
     d="m 870.8953,196.73227 16.53546,0" />
  <path
     style="stroke:#595959;stroke-width:1;stroke-linecap:butt;stroke-linejoin:round"
     inkscape:connector-curvature="0"
     id="path131"
     d="m 870.8953,196.73227 10.53546,0" />
  <path
     style="fill:#595959;fill-rule:evenodd;stroke:#595959;stroke-width:1;stroke-linecap:butt"
     inkscape:connector-curvature="0"
     id="path133"
     d="m 881.4308,198.384 4.53809,-1.65173 -4.53809,-1.65174 z" />
  <path
     style="fill:#000000;fill-opacity:0;fill-rule:nonzero"
     inkscape:connector-curvature="0"
     id="path135"
     d="m 913.3526,196.73227 10.45673,0" />
  <path
     style="stroke:#595959;stroke-width:1;stroke-linecap:butt;stroke-linejoin:round"
     inkscape:connector-curvature="0"
     id="path137"
     d="m 913.3526,196.73227 4.45673,0" />
  <path
     style="fill:#595959;fill-rule:evenodd;stroke:#595959;stroke-width:1;stroke-linecap:butt"
     inkscape:connector-curvature="0"
     id="path139"
     d="m 917.8093,198.384 4.53809,-1.65173 -4.53809,-1.65174 z" />
  <path
     style="fill:#000000;fill-opacity:0;fill-rule:nonzero"
     inkscape:connector-curvature="0"
     id="path141"
     d="m 27.616798,39.73229 475.338602,0 0,48.85038 -475.338602,0 z" />
  <path
     style="fill:#000000;fill-rule:nonzero"
     inkscape:connector-curvature="0"
     id="path143"
     d="m 30.078784,489.83424 0,-13.59375 1.8125,0 0,13.59375 -1.8125,0 z m 4.667679,0 0,-9.85938 1.5,0 0,1.40625 q 1.09375,-1.625 3.140625,-1.625 0.890625,0 1.640625,0.32813 0.75,0.3125 1.109375,0.84375 0.375,0.51562 0.53125,1.21875 0.09375,0.46875 0.09375,1.625 l 0,6.0625 -1.671875,0 0,-6 q 0,-1.01563 -0.203125,-1.51563 -0.1875,-0.51562 -0.6875,-0.8125 -0.5,-0.29687 -1.171875,-0.29687 -1.0625,0 -1.84375,0.67187 -0.765625,0.67188 -0.765625,2.57813 l 0,5.375 -1.671875,0 z m 10.375717,3.78125 0,-13.64063 1.53125,0 0,1.28125 q 0.53125,-0.75 1.203125,-1.125 0.6875,-0.375 1.640625,-0.375 1.265625,0 2.234375,0.65625 0.96875,0.64063 1.453125,1.82813 0.5,1.1875 0.5,2.59375 0,1.51562 -0.546875,2.73437 -0.546875,1.20313 -1.578125,1.84375 -1.03125,0.64063 -2.171875,0.64063 -0.84375,0 -1.515625,-0.34375 -0.65625,-0.35938 -1.078125,-0.89063 l 0,4.79688 -1.671875,0 z m 1.515625,-8.65625 q 0,1.90625 0.765625,2.8125 0.78125,0.90625 1.875,0.90625 1.109375,0 1.890625,-0.9375 0.796875,-0.9375 0.796875,-2.92188 0,-1.875 -0.78125,-2.8125 -0.765625,-0.9375 -1.84375,-0.9375 -1.0625,0 -1.890625,1 -0.8125,1 -0.8125,2.89063 z m 15.313217,4.875 0,-1.45313 q -1.140625,1.67188 -3.125,1.67188 -0.859375,0 -1.625,-0.32813 -0.75,-0.34375 -1.125,-0.84375 -0.359375,-0.5 -0.515625,-1.23437 -0.09375,-0.5 -0.09375,-1.5625 l 0,-6.10938 1.671875,0 0,5.46875 q 0,1.3125 0.09375,1.76563 0.15625,0.65625 0.671875,1.03125 0.515625,0.375 1.265625,0.375 0.75,0 1.40625,-0.375 0.65625,-0.39063 0.921875,-1.04688 0.28125,-0.67187 0.28125,-1.9375 l 0,-5.28125 1.671875,0 0,9.85938 -1.5,0 z m 7.578842,-1.5 0.234375,1.48437 q -0.703125,0.14063 -1.265625,0.14063 -0.90625,0 -1.40625,-0.28125 -0.5,-0.29688 -0.703125,-0.75 -0.203125,-0.46875 -0.203125,-1.98438 l 0,-5.65625 -1.234375,0 0,-1.3125 1.234375,0 0,-2.4375 1.65625,-1 0,3.4375 1.6875,0 0,1.3125 -1.6875,0 0,5.75 q 0,0.71875 0.07813,0.92188 0.09375,0.20312 0.296875,0.32812 0.203125,0.125 0.578125,0.125 0.265625,0 0.734375,-0.0781 z m 1.995804,-6.45313 0,-1.90625 1.90625,0 0,1.90625 -1.90625,0 z m 0,7.95313 0,-1.90625 1.90625,0 0,1.90625 -1.90625,0 z m 10.116608,0 0,-13.59375 5.125,0 q 1.359375,0 2.078125,0.125 1,0.17187 1.671875,0.64062 0.671875,0.46875 1.078125,1.3125 0.42187,0.84375 0.42187,1.84375 0,1.73438 -1.10937,2.9375 -1.09375,1.20313 -3.984375,1.20313 l -3.484375,0 0,5.53125 -1.796875,0 z m 1.796875,-7.14063 3.515625,0 q 1.75,0 2.46875,-0.64062 0.734375,-0.65625 0.734375,-1.82813 0,-0.85937 -0.4375,-1.46875 -0.421875,-0.60937 -1.125,-0.79687 -0.453125,-0.125 -1.671875,-0.125 l -3.484375,0 0,4.85937 z m 16.865449,5.92188 q -0.937499,0.79687 -1.796879,1.125 -0.85937,0.3125 -1.84375,0.3125 -1.60937,0 -2.48437,-0.78125 -0.875,-0.79688 -0.875,-2.03125 0,-0.73438 0.32812,-1.32813 0.32813,-0.59375 0.85938,-0.95312 0.53125,-0.35938 1.20312,-0.54688 0.5,-0.14062 1.48438,-0.25 2.03125,-0.25 2.984369,-0.57812 0,-0.34375 0,-0.4375 0,-1.01563 -0.468749,-1.4375 -0.64062,-0.5625 -1.90625,-0.5625 -1.17187,0 -1.73437,0.40625 -0.5625,0.40625 -0.82813,1.46875 l -1.64062,-0.23438 q 0.23437,-1.04687 0.73437,-1.6875 0.51563,-0.64062 1.46875,-0.98437 0.96875,-0.35938 2.25,-0.35938 1.26563,0 2.046879,0.29688 0.78125,0.29687 1.15625,0.75 0.375,0.45312 0.51562,1.14062 0.0937,0.42188 0.0937,1.53125 l 0,2.23438 q 0,2.32812 0.0937,2.95312 0.10938,0.60938 0.4375,1.17188 l -1.75,0 q -0.26562,-0.51563 -0.32812,-1.21875 z m -0.14063,-3.71875 q -0.906249,0.35937 -2.734369,0.625 -1.03125,0.14062 -1.45313,0.32812 -0.42187,0.1875 -0.65625,0.54688 -0.23437,0.35937 -0.23437,0.79687 0,0.67188 0.5,1.125 0.51562,0.4375 1.48437,0.4375 0.96875,0 1.71875,-0.42187 0.75,-0.4375 1.10938,-1.15625 0.265619,-0.57813 0.265619,-1.67188 l 0,-0.60937 z m 10.51634,1.32812 1.64063,0.21875 q -0.26563,1.6875 -1.375,2.65625 -1.10938,0.95313 -2.73438,0.95313 -2.01562,0 -3.25,-1.3125 -1.21875,-1.32813 -1.21875,-3.79688 0,-1.59375 0.51563,-2.78125 0.53125,-1.20312 1.60937,-1.79687 1.09375,-0.60938 2.35938,-0.60938 1.60937,0 2.625,0.8125 1.01562,0.8125 1.3125,2.3125 l -1.625,0.25 q -0.23438,-1 -0.82813,-1.5 -0.59375,-0.5 -1.42187,-0.5 -1.26563,0 -2.0625,0.90625 -0.78125,0.90625 -0.78125,2.85938 0,1.98437 0.76562,2.89062 0.76563,0.89063 1.98438,0.89063 0.98437,0 1.64062,-0.59375 0.65625,-0.60938 0.84375,-1.85938 z m 3.03125,3.60938 0,-13.59375 5.10938,0 q 1.54687,0 2.48437,0.40625 0.95312,0.40625 1.48437,1.26562 0.53125,0.85938 0.53125,1.79688 0,0.875 -0.46875,1.65625 -0.46875,0.76562 -1.4375,1.23437 1.23438,0.35938 1.89063,1.23438 0.67187,0.875 0.67187,2.0625 0,0.95312 -0.40625,1.78125 -0.39062,0.8125 -0.98437,1.26562 -0.59375,0.4375 -1.5,0.67188 -0.89063,0.21875 -2.1875,0.21875 l -5.1875,0 z m 1.79688,-7.89063 2.9375,0 q 1.20312,0 1.71874,-0.15625 0.6875,-0.20312 1.03125,-0.67187 0.35938,-0.46875 0.35938,-1.1875 0,-0.67188 -0.32813,-1.1875 -0.32812,-0.51563 -0.9375,-0.70313 -0.59374,-0.20312 -2.06249,-0.20312 l -2.71875,0 0,4.10937 z m 0,6.28125 3.39062,0 q 0.875,0 1.21875,-0.0625 0.625,-0.10937 1.04687,-0.35937 0.42188,-0.26563 0.6875,-0.76563 0.26563,-0.5 0.26563,-1.14062 0,-0.76563 -0.39063,-1.32813 -0.39062,-0.5625 -1.07812,-0.78125 -0.6875,-0.23437 -1.98437,-0.23437 l -3.15625,0 0,4.67187 z m 10.52169,-10.07812 0,-1.90625 1.67187,0 0,1.90625 -1.67187,0 z m 0,11.6875 0,-9.85938 1.67187,0 0,9.85938 -1.67187,0 z m 3.5042,-4.92188 q 0,-2.73437 1.53125,-4.0625 1.26562,-1.09375 3.09375,-1.09375 2.03125,0 3.3125,1.34375 1.29687,1.32813 1.29687,3.67188 0,1.90625 -0.57812,3 -0.5625,1.07812 -1.65625,1.6875 -1.07813,0.59375 -2.375,0.59375 -2.0625,0 -3.34375,-1.32813 -1.28125,-1.32812 -1.28125,-3.8125 z m 1.71875,0 q 0,1.89063 0.82812,2.82813 0.82813,0.9375 2.07813,0.9375 1.25,0 2.0625,-0.9375 0.82812,-0.95313 0.82812,-2.89063 0,-1.82812 -0.82812,-2.76562 -0.82813,-0.9375 -2.0625,-0.9375 -1.25,0 -2.07813,0.9375 -0.82812,0.9375 -0.82812,2.82812 z m 20.90277,3.70313 q -0.9375,0.79687 -1.79688,1.125 -0.85937,0.3125 -1.84375,0.3125 -1.60937,0 -2.48437,-0.78125 -0.875,-0.79688 -0.875,-2.03125 0,-0.73438 0.32812,-1.32813 0.32813,-0.59375 0.85938,-0.95312 0.53125,-0.35938 1.20312,-0.54688 0.5,-0.14062 1.48438,-0.25 2.03125,-0.25 2.98437,-0.57812 0,-0.34375 0,-0.4375 0,-1.01563 -0.46875,-1.4375 -0.64062,-0.5625 -1.90625,-0.5625 -1.17187,0 -1.73437,0.40625 -0.5625,0.40625 -0.82813,1.46875 l -1.64062,-0.23438 q 0.23437,-1.04687 0.73437,-1.6875 0.51563,-0.64062 1.46875,-0.98437 0.96875,-0.35938 2.25,-0.35938 1.26563,0 2.04688,0.29688 0.78125,0.29687 1.15625,0.75 0.375,0.45312 0.51562,1.14062 0.0937,0.42188 0.0937,1.53125 l 0,2.23438 q 0,2.32812 0.0937,2.95312 0.10938,0.60938 0.4375,1.17188 l -1.75,0 q -0.26562,-0.51563 -0.32812,-1.21875 z m -0.14063,-3.71875 q -0.90625,0.35937 -2.73437,0.625 -1.03125,0.14062 -1.45313,0.32812 -0.42187,0.1875 -0.65625,0.54688 -0.23437,0.35937 -0.23437,0.79687 0,0.67188 0.5,1.125 0.51562,0.4375 1.48437,0.4375 0.96875,0 1.71875,-0.42187 0.75,-0.4375 1.10938,-1.15625 0.26562,-0.57813 0.26562,-1.67188 l 0,-0.60937 z m 4.04759,4.9375 0,-13.59375 1.67188,0 0,13.59375 -1.67188,0 z m 4.1917,-11.6875 0,-1.90625 1.67187,0 0,1.90625 -1.67187,0 z m 0,11.6875 0,-9.85938 1.67187,0 0,9.85938 -1.67187,0 z m 3.83232,0.8125 1.60938,0.25 q 0.10937,0.75 0.57812,1.09375 0.60938,0.45312 1.6875,0.45312 1.17188,0 1.79688,-0.46875 0.625,-0.45312 0.85937,-1.28125 0.125,-0.51562 0.10938,-2.15625 -1.09375,1.29688 -2.71875,1.29688 -2.03125,0 -3.15625,-1.46875 -1.10938,-1.46875 -1.10938,-3.51563 0,-1.40625 0.51563,-2.59375 0.51562,-1.20312 1.48437,-1.84375 0.96875,-0.65625 2.26563,-0.65625 1.75,0 2.875,1.40625 l 0,-1.1875 1.54687,0 0,8.51563 q 0,2.3125 -0.46875,3.26562 -0.46875,0.96875 -1.48437,1.51563 -1.01563,0.5625 -2.5,0.5625 -1.76563,0 -2.85938,-0.79688 -1.07812,-0.79687 -1.03125,-2.39062 z m 1.375,-5.92188 q 0,1.95313 0.76563,2.84375 0.78125,0.89063 1.9375,0.89063 1.14062,0 1.92187,-0.89063 0.78125,-0.89062 0.78125,-2.78125 0,-1.8125 -0.8125,-2.71875 -0.79687,-0.92187 -1.92187,-0.92187 -1.10938,0 -1.89063,0.90625 -0.78125,0.89062 -0.78125,2.67187 z m 9.29759,5.10938 0,-9.85938 1.5,0 0,1.40625 q 1.09375,-1.625 3.14063,-1.625 0.89062,0 1.64062,0.32813 0.75,0.3125 1.10938,0.84375 0.375,0.51562 0.53125,1.21875 0.0937,0.46875 0.0937,1.625 l 0,6.0625 -1.67188,0 0,-6 q 0,-1.01563 -0.20312,-1.51563 -0.1875,-0.51562 -0.6875,-0.8125 -0.5,-0.29687 -1.17188,-0.29687 -1.0625,0 -1.84375,0.67187 -0.76562,0.67188 -0.76562,2.57813 l 0,5.375 -1.67188,0 z m 17.12572,-3.17188 1.71875,0.21875 q -0.40625,1.5 -1.51562,2.34375 -1.09375,0.82813 -2.8125,0.82813 -2.15625,0 -3.42188,-1.32813 -1.26562,-1.32812 -1.26562,-3.73437 0,-2.48438 1.26562,-3.85938 1.28125,-1.375 3.32813,-1.375 1.98437,0 3.23437,1.34375 1.25,1.34375 1.25,3.79688 0,0.14062 -0.0156,0.4375 l -7.34375,0 q 0.0937,1.625 0.92187,2.48437 0.82813,0.85938 2.0625,0.85938 0.90625,0 1.54688,-0.46875 0.65625,-0.48438 1.04687,-1.54688 z m -5.48437,-2.70312 5.5,0 q -0.10938,-1.23438 -0.625,-1.85938 -0.79688,-0.96875 -2.07813,-0.96875 -1.14062,0 -1.9375,0.78125 -0.78125,0.76563 -0.85937,2.04688 z m 15.50071,5.875 0,-1.25 q -0.9375,1.46875 -2.75,1.46875 -1.17187,0 -2.17187,-0.64063 -0.98438,-0.65625 -1.53125,-1.8125 -0.53125,-1.17187 -0.53125,-2.6875 0,-1.46875 0.48437,-2.67187 0.5,-1.20313 1.46875,-1.84375 0.98438,-0.64063 2.20313,-0.64063 0.89062,0 1.57812,0.375 0.70313,0.375 1.14063,0.98438 l 0,-4.875 1.65625,0 0,13.59375 -1.54688,0 z m -5.28125,-4.92188 q 0,1.89063 0.79688,2.82813 0.8125,0.9375 1.89062,0.9375 1.09375,0 1.85938,-0.89063 0.76562,-0.89062 0.76562,-2.73437 0,-2.01563 -0.78125,-2.95313 -0.78125,-0.95312 -1.92187,-0.95312 -1.10938,0 -1.85938,0.90625 -0.75,0.90625 -0.75,2.85937 z m 14.43402,4.92188 0,-9.85938 1.5,0 0,1.5 q 0.57813,-1.04687 1.0625,-1.375 0.48438,-0.34375 1.07813,-0.34375 0.84375,0 1.71875,0.54688 l -0.57813,1.54687 q -0.60937,-0.35937 -1.23437,-0.35937 -0.54688,0 -0.98438,0.32812 -0.42187,0.32813 -0.60937,0.90625 -0.28125,0.89063 -0.28125,1.95313 l 0,5.15625 -1.67188,0 z m 12.97831,-3.17188 1.71875,0.21875 q -0.40625,1.5 -1.51563,2.34375 -1.09375,0.82813 -2.8125,0.82813 -2.15625,0 -3.42187,-1.32813 -1.26563,-1.32812 -1.26563,-3.73437 0,-2.48438 1.26563,-3.85938 1.28125,-1.375 3.32812,-1.375 1.98438,0 3.23438,1.34375 1.25,1.34375 1.25,3.79688 0,0.14062 -0.0156,0.4375 l -7.34375,0 q 0.0937,1.625 0.92188,2.48437 0.82812,0.85938 2.0625,0.85938 0.90625,0 1.54687,-0.46875 0.65625,-0.48438 1.04688,-1.54688 z m -5.48438,-2.70312 5.5,0 q -0.10937,-1.23438 -0.625,-1.85938 -0.79687,-0.96875 -2.07812,-0.96875 -1.14063,0 -1.9375,0.78125 -0.78125,0.76563 -0.85938,2.04688 z m 15.54759,4.65625 q -0.9375,0.79687 -1.79687,1.125 -0.85938,0.3125 -1.84375,0.3125 -1.60938,0 -2.48438,-0.78125 -0.875,-0.79688 -0.875,-2.03125 0,-0.73438 0.32813,-1.32813 0.32812,-0.59375 0.85937,-0.95312 0.53125,-0.35938 1.20313,-0.54688 0.5,-0.14062 1.48437,-0.25 2.03125,-0.25 2.98438,-0.57812 0,-0.34375 0,-0.4375 0,-1.01563 -0.46875,-1.4375 -0.64063,-0.5625 -1.90625,-0.5625 -1.17188,0 -1.73438,0.40625 -0.5625,0.40625 -0.82812,1.46875 l -1.64063,-0.23438 q 0.23438,-1.04687 0.73438,-1.6875 0.51562,-0.64062 1.46875,-0.98437 0.96875,-0.35938 2.25,-0.35938 1.26562,0 2.04687,0.29688 0.78125,0.29687 1.15625,0.75 0.375,0.45312 0.51563,1.14062 0.0937,0.42188 0.0937,1.53125 l 0,2.23438 q 0,2.32812 0.0937,2.95312 0.10937,0.60938 0.4375,1.17188 l -1.75,0 q -0.26563,-0.51563 -0.32813,-1.21875 z m -0.14062,-3.71875 q -0.90625,0.35937 -2.73438,0.625 -1.03125,0.14062 -1.45312,0.32812 -0.42188,0.1875 -0.65625,0.54688 -0.23438,0.35937 -0.23438,0.79687 0,0.67188 0.5,1.125 0.51563,0.4375 1.48438,0.4375 0.96875,0 1.71875,-0.42187 0.75,-0.4375 1.10937,-1.15625 0.26563,-0.57813 0.26563,-1.67188 l 0,-0.60937 z m 10.46946,4.9375 0,-1.25 q -0.9375,1.46875 -2.75,1.46875 -1.17187,0 -2.17187,-0.64063 -0.98438,-0.65625 -1.53125,-1.8125 -0.53125,-1.17187 -0.53125,-2.6875 0,-1.46875 0.48437,-2.67187 0.5,-1.20313 1.46875,-1.84375 0.98438,-0.64063 2.20313,-0.64063 0.89062,0 1.57812,0.375 0.70313,0.375 1.14063,0.98438 l 0,-4.875 1.65625,0 0,13.59375 -1.54688,0 z m -5.28125,-4.92188 q 0,1.89063 0.79688,2.82813 0.8125,0.9375 1.89062,0.9375 1.09375,0 1.85938,-0.89063 0.76562,-0.89062 0.76562,-2.73437 0,-2.01563 -0.78125,-2.95313 -0.78125,-0.95312 -1.92187,-0.95312 -1.10938,0 -1.85938,0.90625 -0.75,0.90625 -0.75,2.85937 z m 8.59447,1.98438 1.65625,-0.26563 q 0.14063,1 0.76563,1.53125 0.64062,0.51563 1.78125,0.51563 1.15625,0 1.70312,-0.46875 0.5625,-0.46875 0.5625,-1.09375 0,-0.5625 -0.48437,-0.89063 -0.34375,-0.21875 -1.70313,-0.5625 -1.84375,-0.46875 -2.5625,-0.79687 -0.70312,-0.34375 -1.07812,-0.9375 -0.35938,-0.60938 -0.35938,-1.32813 0,-0.65625 0.29688,-1.21875 0.3125,-0.5625 0.82812,-0.9375 0.39063,-0.28125 1.0625,-0.48437 0.67188,-0.20313 1.4375,-0.20313 1.17188,0 2.04688,0.34375 0.875,0.32813 1.28125,0.90625 0.42187,0.5625 0.57812,1.51563 l -1.625,0.21875 q -0.10937,-0.75 -0.65625,-1.17188 -0.53125,-0.4375 -1.5,-0.4375 -1.15625,0 -1.64062,0.39063 -0.48438,0.375 -0.48438,0.875 0,0.32812 0.20313,0.59375 0.20312,0.26562 0.64062,0.4375 0.25,0.0937 1.46875,0.4375 1.76563,0.46875 2.46875,0.76562 0.70313,0.29688 1.09375,0.875 0.40625,0.57813 0.40625,1.4375 0,0.82813 -0.48437,1.57813 -0.48438,0.73437 -1.40625,1.14062 -0.92188,0.39063 -2.07813,0.39063 -1.92187,0 -2.9375,-0.79688 -1,-0.79687 -1.28125,-2.35937 z m 14.55832,-1.98438 q 0,-2.73437 1.53125,-4.0625 1.26563,-1.09375 3.09375,-1.09375 2.03125,0 3.3125,1.34375 1.29688,1.32813 1.29688,3.67188 0,1.90625 -0.57813,3 -0.5625,1.07812 -1.65625,1.6875 -1.07812,0.59375 -2.375,0.59375 -2.0625,0 -3.34375,-1.32813 -1.28125,-1.32812 -1.28125,-3.8125 z m 1.71875,0 q 0,1.89063 0.82813,2.82813 0.82812,0.9375 2.07812,0.9375 1.25,0 2.0625,-0.9375 0.82813,-0.95313 0.82813,-2.89063 0,-1.82812 -0.82813,-2.76562 -0.82812,-0.9375 -2.0625,-0.9375 -1.25,0 -2.07812,0.9375 -0.82813,0.9375 -0.82813,2.82812 z m 12.01633,4.92188 -3.75,-9.85938 1.76562,0 2.125,5.90625 q 0.34375,0.95313 0.625,1.98438 0.21875,-0.78125 0.625,-1.875 l 2.1875,-6.01563 1.71875,0 -3.73437,9.85938 -1.5625,0 z m 13.34375,-3.17188 1.71875,0.21875 q -0.40625,1.5 -1.51563,2.34375 -1.09375,0.82813 -2.8125,0.82813 -2.15625,0 -3.42187,-1.32813 -1.26563,-1.32812 -1.26563,-3.73437 0,-2.48438 1.26563,-3.85938 1.28125,-1.375 3.32812,-1.375 1.98438,0 3.23438,1.34375 1.25,1.34375 1.25,3.79688 0,0.14062 -0.0156,0.4375 l -7.34375,0 q 0.0937,1.625 0.92188,2.48437 0.82812,0.85938 2.0625,0.85938 0.90625,0 1.54687,-0.46875 0.65625,-0.48438 1.04688,-1.54688 z m -5.48438,-2.70312 5.5,0 q -0.10937,-1.23438 -0.625,-1.85938 -0.79687,-0.96875 -2.07812,-0.96875 -1.14063,0 -1.9375,0.78125 -0.78125,0.76563 -0.85938,2.04688 z m 9.09448,5.875 0,-9.85938 1.5,0 0,1.5 q 0.57813,-1.04687 1.0625,-1.375 0.48438,-0.34375 1.07813,-0.34375 0.84375,0 1.71875,0.54688 l -0.57813,1.54687 q -0.60937,-0.35937 -1.23437,-0.35937 -0.54688,0 -0.98438,0.32812 -0.42187,0.32813 -0.60937,0.90625 -0.28125,0.89063 -0.28125,1.95313 l 0,5.15625 -1.67188,0 z m 12.9585,0 -1.54687,0 0,-13.59375 1.65625,0 0,4.84375 q 1.0625,-1.32813 2.70312,-1.32813 0.90625,0 1.71875,0.375 0.8125,0.35938 1.32813,1.03125 0.53125,0.65625 0.82812,1.59375 0.29688,0.9375 0.29688,2 0,2.53125 -1.25,3.92188 -1.25,1.375 -3,1.375 -1.75,0 -2.73438,-1.45313 l 0,1.23438 z m -0.0156,-5 q 0,1.76562 0.46875,2.5625 0.79687,1.28125 2.14062,1.28125 1.09375,0 1.89063,-0.9375 0.79687,-0.95313 0.79687,-2.84375 0,-1.92188 -0.76562,-2.84375 -0.76563,-0.92188 -1.84375,-0.92188 -1.09375,0 -1.89063,0.95313 -0.79687,0.95312 -0.79687,2.75 z m 15.2976,5 0,-1.45313 q -1.14062,1.67188 -3.125,1.67188 -0.85937,0 -1.625,-0.32813 -0.75,-0.34375 -1.125,-0.84375 -0.35937,-0.5 -0.51562,-1.23437 -0.0937,-0.5 -0.0937,-1.5625 l 0,-6.10938 1.67187,0 0,5.46875 q 0,1.3125 0.0937,1.76563 0.15625,0.65625 0.67188,1.03125 0.51562,0.375 1.26562,0.375 0.75,0 1.40625,-0.375 0.65625,-0.39063 0.92188,-1.04688 0.28125,-0.67187 0.28125,-1.9375 l 0,-5.28125 1.67187,0 0,9.85938 -1.5,0 z m 5.46948,0 -1.54687,0 0,-13.59375 1.65625,0 0,4.84375 q 1.0625,-1.32813 2.70312,-1.32813 0.90625,0 1.71875,0.375 0.8125,0.35938 1.32813,1.03125 0.53125,0.65625 0.82812,1.59375 0.29688,0.9375 0.29688,2 0,2.53125 -1.25,3.92188 -1.25,1.375 -3,1.375 -1.75,0 -2.73438,-1.45313 l 0,1.23438 z m -0.0156,-5 q 0,1.76562 0.46875,2.5625 0.79687,1.28125 2.14062,1.28125 1.09375,0 1.89063,-0.9375 0.79687,-0.95313 0.79687,-2.84375 0,-1.92188 -0.76562,-2.84375 -0.76563,-0.92188 -1.84375,-0.92188 -1.09375,0 -1.89063,0.95313 -0.79687,0.95312 -0.79687,2.75 z m 10.39136,5 -1.54688,0 0,-13.59375 1.65625,0 0,4.84375 q 1.0625,-1.32813 2.70313,-1.32813 0.90625,0 1.71875,0.375 0.8125,0.35938 1.32812,1.03125 0.53125,0.65625 0.82813,1.59375 0.29687,0.9375 0.29687,2 0,2.53125 -1.25,3.92188 -1.25,1.375 -3,1.375 -1.75,0 -2.73437,-1.45313 l 0,1.23438 z m -0.0156,-5 q 0,1.76562 0.46875,2.5625 0.79688,1.28125 2.14063,1.28125 1.09375,0 1.89062,-0.9375 0.79688,-0.95313 0.79688,-2.84375 0,-1.92188 -0.76563,-2.84375 -0.76562,-0.92188 -1.84375,-0.92188 -1.09375,0 -1.89062,0.95313 -0.79688,0.95312 -0.79688,2.75 z m 8.81323,5 0,-13.59375 1.67188,0 0,13.59375 -1.67188,0 z m 10.92609,-3.17188 1.71875,0.21875 q -0.40625,1.5 -1.51563,2.34375 -1.09375,0.82813 -2.8125,0.82813 -2.15625,0 -3.42187,-1.32813 -1.26563,-1.32812 -1.26563,-3.73437 0,-2.48438 1.26563,-3.85938 1.28125,-1.375 3.32812,-1.375 1.98438,0 3.23438,1.34375 1.25,1.34375 1.25,3.79688 0,0.14062 -0.0156,0.4375 l -7.34375,0 q 0.0937,1.625 0.92188,2.48437 0.82812,0.85938 2.0625,0.85938 0.90625,0 1.54687,-0.46875 0.65625,-0.48438 1.04688,-1.54688 z m -5.48438,-2.70312 5.5,0 q -0.10937,-1.23438 -0.625,-1.85938 -0.79687,-0.96875 -2.07812,-0.96875 -1.14063,0 -1.9375,0.78125 -0.78125,0.76563 -0.85938,2.04688 z m 8.43824,2.9375 1.65625,-0.26563 q 0.14062,1 0.76562,1.53125 0.64063,0.51563 1.78125,0.51563 1.15625,0 1.70313,-0.46875 0.5625,-0.46875 0.5625,-1.09375 0,-0.5625 -0.48438,-0.89063 -0.34375,-0.21875 -1.70312,-0.5625 -1.84375,-0.46875 -2.5625,-0.79687 -0.70313,-0.34375 -1.07813,-0.9375 -0.35937,-0.60938 -0.35937,-1.32813 0,-0.65625 0.29687,-1.21875 0.3125,-0.5625 0.82813,-0.9375 0.39062,-0.28125 1.0625,-0.48437 0.67187,-0.20313 1.4375,-0.20313 1.17187,0 2.04687,0.34375 0.875,0.32813 1.28125,0.90625 0.42188,0.5625 0.57813,1.51563 l -1.625,0.21875 q -0.10938,-0.75 -0.65625,-1.17188 -0.53125,-0.4375 -1.5,-0.4375 -1.15625,0 -1.64063,0.39063 -0.48437,0.375 -0.48437,0.875 0,0.32812 0.20312,0.59375 0.20313,0.26562 0.64063,0.4375 0.25,0.0937 1.46875,0.4375 1.76562,0.46875 2.46875,0.76562 0.70312,0.29688 1.09375,0.875 0.40625,0.57813 0.40625,1.4375 0,0.82813 -0.48438,1.57813 -0.48437,0.73437 -1.40625,1.14062 -0.92187,0.39063 -2.07812,0.39063 -1.92188,0 -2.9375,-0.79688 -1,-0.79687 -1.28125,-2.35937 z m 8.75,3.17187 3.9375,-14.0625 1.34375,0 -3.9375,14.0625 -1.34375,0 z m 6.04266,-4.60937 1.6875,-0.14063 q 0.125,1.01563 0.5625,1.67188 0.4375,0.65625 1.35938,1.0625 0.9375,0.40625 2.09375,0.40625 1.03125,0 1.8125,-0.3125 0.79687,-0.3125 1.1875,-0.84375 0.39062,-0.53125 0.39062,-1.15625 0,-0.64063 -0.375,-1.10938 -0.375,-0.48437 -1.23437,-0.8125 -0.54688,-0.21875 -2.42188,-0.65625 -1.875,-0.45312 -2.625,-0.85937 -0.96875,-0.51563 -1.45312,-1.26563 -0.46875,-0.75 -0.46875,-1.6875 0,-1.03125 0.57812,-1.92187 0.59375,-0.90625 1.70313,-1.35938 1.125,-0.46875 2.5,-0.46875 1.51562,0 2.67187,0.48438 1.15625,0.48437 1.76563,1.4375 0.625,0.9375 0.67187,2.14062 l -1.71875,0.125 q -0.14062,-1.28125 -0.95312,-1.9375 -0.79688,-0.67187 -2.35938,-0.67187 -1.625,0 -2.375,0.60937 -0.75,0.59375 -0.75,1.4375 0,0.73438 0.53125,1.20313 0.51563,0.46875 2.70313,0.96875 2.20312,0.5 3.01562,0.875 1.1875,0.54687 1.75,1.39062 0.57813,0.82813 0.57813,1.92188 0,1.09375 -0.625,2.0625 -0.625,0.95312 -1.79688,1.48437 -1.15625,0.53125 -2.60937,0.53125 -1.84375,0 -3.09375,-0.53125 -1.25,-0.54687 -1.96875,-1.625 -0.70313,-1.07812 -0.73438,-2.45312 z m 13.03732,4.375 0,-13.59375 1.84375,0 7.14063,10.67187 0,-10.67187 1.71875,0 0,13.59375 -1.84375,0 -7.14063,-10.6875 0,10.6875 -1.71875,0 z m 13.48856,0 0,-13.59375 5.125,0 q 1.35937,0 2.07812,0.125 1,0.17187 1.67188,0.64062 0.67187,0.46875 1.07812,1.3125 0.42188,0.84375 0.42188,1.84375 0,1.73438 -1.10938,2.9375 -1.09375,1.20313 -3.98437,1.20313 l -3.48438,0 0,5.53125 -1.79687,0 z m 1.79687,-7.14063 3.51563,0 q 1.75,0 2.46875,-0.64062 0.73437,-0.65625 0.73437,-1.82813 0,-0.85937 -0.4375,-1.46875 -0.42187,-0.60937 -1.125,-0.79687 -0.45312,-0.125 -1.67187,-0.125 l -3.48438,0 0,4.85937 z m 9.75608,4.20313 1.65625,-0.26563 q 0.14062,1 0.76562,1.53125 0.64063,0.51563 1.78125,0.51563 1.15625,0 1.70313,-0.46875 0.5625,-0.46875 0.5625,-1.09375 0,-0.5625 -0.48438,-0.89063 -0.34375,-0.21875 -1.70312,-0.5625 -1.84375,-0.46875 -2.5625,-0.79687 -0.70313,-0.34375 -1.07813,-0.9375 -0.35937,-0.60938 -0.35937,-1.32813 0,-0.65625 0.29687,-1.21875 0.3125,-0.5625 0.82813,-0.9375 0.39062,-0.28125 1.0625,-0.48437 0.67187,-0.20313 1.4375,-0.20313 1.17187,0 2.04687,0.34375 0.875,0.32813 1.28125,0.90625 0.42188,0.5625 0.57813,1.51563 l -1.625,0.21875 q -0.10938,-0.75 -0.65625,-1.17188 -0.53125,-0.4375 -1.5,-0.4375 -1.15625,0 -1.64063,0.39063 -0.48437,0.375 -0.48437,0.875 0,0.32812 0.20312,0.59375 0.20313,0.26562 0.64063,0.4375 0.25,0.0937 1.46875,0.4375 1.76562,0.46875 2.46875,0.76562 0.70312,0.29688 1.09375,0.875 0.40625,0.57813 0.40625,1.4375 0,0.82813 -0.48438,1.57813 -0.48437,0.73437 -1.40625,1.14062 -0.92187,0.39063 -2.07812,0.39063 -1.92188,0 -2.9375,-0.79688 -1,-0.79687 -1.28125,-2.35937 z" />
  <path
     style="fill:#000000;fill-rule:nonzero"
     inkscape:connector-curvature="0"
     id="path145"
     d="m 36.141284,506.50612 0,-1.60938 5.765625,0 0,5.04688 q -1.328125,1.0625 -2.75,1.59375 -1.40625,0.53125 -2.890625,0.53125 -2,0 -3.640625,-0.85938 -1.625,-0.85937 -2.46875,-2.48437 -0.828125,-1.625 -0.828125,-3.625 0,-1.98438 0.828125,-3.70313 0.828125,-1.71875 2.390625,-2.54687 1.5625,-0.84375 3.59375,-0.84375 1.46875,0 2.65625,0.48437 1.203125,0.46875 1.875,1.32813 0.671875,0.84375 1.03125,2.21875 l -1.625,0.4375 q -0.3125,-1.03125 -0.765625,-1.625 -0.453125,-0.59375 -1.296875,-0.95313 -0.84375,-0.35937 -1.875,-0.35937 -1.234375,0 -2.140625,0.375 -0.890625,0.375 -1.453125,1 -0.546875,0.60937 -0.84375,1.34375 -0.53125,1.25 -0.53125,2.73437 0,1.8125 0.625,3.04688 0.640625,1.21875 1.828125,1.8125 1.203125,0.59375 2.546875,0.59375 1.171875,0 2.28125,-0.45313 1.109375,-0.45312 1.6875,-0.95312 l 0,-2.53125 -4,0 z m 7.308304,0.40625 q 0,-2.73438 1.53125,-4.0625 1.265625,-1.09375 3.09375,-1.09375 2.03125,0 3.3125,1.34375 1.296875,1.32812 1.296875,3.67187 0,1.90625 -0.578125,3 -0.5625,1.07813 -1.65625,1.6875 -1.078125,0.59375 -2.375,0.59375 -2.0625,0 -3.34375,-1.32812 -1.28125,-1.32813 -1.28125,-3.8125 z m 1.71875,0 q 0,1.89062 0.828125,2.82812 0.828125,0.9375 2.078125,0.9375 1.25,0 2.0625,-0.9375 0.828125,-0.95312 0.828125,-2.89062 0,-1.82813 -0.828125,-2.76563 -0.828125,-0.9375 -2.0625,-0.9375 -1.25,0 -2.078125,0.9375 -0.828125,0.9375 -0.828125,2.82813 z m 15.719467,3.70312 q -0.9375,0.79688 -1.796875,1.125 -0.859375,0.3125 -1.84375,0.3125 -1.609375,0 -2.484375,-0.78125 -0.875,-0.79687 -0.875,-2.03125 0,-0.73437 0.328125,-1.32812 0.328125,-0.59375 0.859375,-0.95313 0.53125,-0.35937 1.203125,-0.54687 0.5,-0.14063 1.484375,-0.25 2.03125,-0.25 2.984375,-0.57813 0,-0.34375 0,-0.4375 0,-1.01562 -0.46875,-1.4375 -0.640625,-0.5625 -1.90625,-0.5625 -1.171875,0 -1.734375,0.40625 -0.5625,0.40625 -0.828125,1.46875 l -1.640625,-0.23437 q 0.234375,-1.04688 0.734375,-1.6875 0.515625,-0.64063 1.46875,-0.98438 0.96875,-0.35937 2.25,-0.35937 1.265625,0 2.046875,0.29687 0.78125,0.29688 1.15625,0.75 0.375,0.45313 0.515625,1.14063 0.09375,0.42187 0.09375,1.53125 l 0,2.23437 q 0,2.32813 0.09375,2.95313 0.109375,0.60937 0.4375,1.17187 l -1.75,0 q -0.265625,-0.51562 -0.328125,-1.21875 z m -0.140625,-3.71875 q -0.90625,0.35938 -2.734375,0.625 -1.03125,0.14063 -1.453125,0.32813 -0.421875,0.1875 -0.65625,0.54687 -0.234375,0.35938 -0.234375,0.79688 0,0.67187 0.5,1.125 0.515625,0.4375 1.484375,0.4375 0.96875,0 1.71875,-0.42188 0.75,-0.4375 1.109375,-1.15625 0.265625,-0.57812 0.265625,-1.67187 l 0,-0.60938 z m 4.047592,4.9375 0,-13.59375 1.671875,0 0,13.59375 -1.671875,0 z m 4.644821,-7.95312 0,-1.90625 1.90625,0 0,1.90625 -1.90625,0 z m 0,7.95312 0,-1.90625 1.90625,0 0,1.90625 -1.90625,0 z m 13.569733,0 0,-12 -4.46875,0 0,-1.59375 10.765625,0 0,1.59375 -4.5,0 0,12 -1.796875,0 z m 9.552235,0 -3.015629,-9.85937 1.71875,0 1.562499,5.6875 0.59375,2.125 q 0.0312,-0.15625 0.5,-2.03125 l 1.57813,-5.78125 1.71875,0 1.46875,5.71875 0.48437,1.89062 0.57813,-1.90625 1.687499,-5.70312 1.625,0 -3.078129,9.85937 -1.73437,0 -1.57813,-5.90625 -0.375,-1.67187 -2,7.57812 -1.73437,0 z m 11.019819,-4.92187 q 0,-2.73438 1.53125,-4.0625 1.26562,-1.09375 3.09375,-1.09375 2.03125,0 3.3125,1.34375 1.29687,1.32812 1.29687,3.67187 0,1.90625 -0.57812,3 -0.5625,1.07813 -1.65625,1.6875 -1.07813,0.59375 -2.375,0.59375 -2.0625,0 -3.34375,-1.32812 -1.28125,-1.32813 -1.28125,-3.8125 z m 1.71875,0 q 0,1.89062 0.82812,2.82812 0.82813,0.9375 2.07813,0.9375 1.25,0 2.0625,-0.9375 0.82812,-0.95312 0.82812,-2.89062 0,-1.82813 -0.82812,-2.76563 -0.82813,-0.9375 -2.0625,-0.9375 -1.25,0 -2.07813,0.9375 -0.82812,0.9375 -0.82812,2.82813 z m 13.84027,0 q 0,-2.73438 1.53124,-4.0625 1.26563,-1.09375 3.09375,-1.09375 2.03125,0 3.3125,1.34375 1.29688,1.32812 1.29688,3.67187 0,1.90625 -0.57813,3 -0.5625,1.07813 -1.65625,1.6875 -1.07812,0.59375 -2.375,0.59375 -2.0625,0 -3.34375,-1.32812 -1.28124,-1.32813 -1.28124,-3.8125 z m 1.71874,0 q 0,1.89062 0.82813,2.82812 0.82812,0.9375 2.07812,0.9375 1.25,0 2.0625,-0.9375 0.82813,-0.95312 0.82813,-2.89062 0,-1.82813 -0.82813,-2.76563 -0.82812,-0.9375 -2.0625,-0.9375 -1.25,0 -2.07812,0.9375 -0.82813,0.9375 -0.82813,2.82813 z m 9.28197,8.70312 0,-13.64062 1.53125,0 0,1.28125 q 0.53125,-0.75 1.20312,-1.125 0.6875,-0.375 1.64063,-0.375 1.26562,0 2.23437,0.65625 0.96875,0.64062 1.45313,1.82812 0.5,1.1875 0.5,2.59375 0,1.51563 -0.54688,2.73438 -0.54687,1.20312 -1.57812,1.84375 -1.03125,0.64062 -2.17188,0.64062 -0.84375,0 -1.51562,-0.34375 -0.65625,-0.35937 -1.07813,-0.89062 l 0,4.79687 -1.67187,0 z m 1.51562,-8.65625 q 0,1.90625 0.76563,2.8125 0.78125,0.90625 1.875,0.90625 1.10937,0 1.89062,-0.9375 0.79688,-0.9375 0.79688,-2.92187 0,-1.875 -0.78125,-2.8125 -0.76563,-0.9375 -1.84375,-0.9375 -1.0625,0 -1.89063,1 -0.8125,1 -0.8125,2.89062 z m 12.51634,3.375 0.23438,1.48438 q -0.70313,0.14062 -1.26563,0.14062 -0.90625,0 -1.40625,-0.28125 -0.5,-0.29687 -0.70312,-0.75 -0.20313,-0.46875 -0.20313,-1.98437 l 0,-5.65625 -1.23437,0 0,-1.3125 1.23437,0 0,-2.4375 1.65625,-1 0,3.4375 1.6875,0 0,1.3125 -1.6875,0 0,5.75 q 0,0.71875 0.0781,0.92187 0.0937,0.20313 0.29687,0.32813 0.20313,0.125 0.57813,0.125 0.26562,0 0.73437,-0.0781 z m 1.54268,-10.1875 0,-1.90625 1.67188,0 0,1.90625 -1.67188,0 z m 0,11.6875 0,-9.85937 1.67188,0 0,9.85937 -1.67188,0 z m 4.1292,0 0,-9.85937 1.5,0 0,1.39062 q 0.45312,-0.71875 1.21875,-1.15625 0.78125,-0.45312 1.76562,-0.45312 1.09375,0 1.79688,0.45312 0.70312,0.45313 0.98437,1.28125 1.17188,-1.73437 3.04688,-1.73437 1.46875,0 2.25,0.8125 0.79687,0.8125 0.79687,2.5 l 0,6.76562 -1.67187,0 0,-6.20312 q 0,-1 -0.15625,-1.4375 -0.15625,-0.45313 -0.59375,-0.71875 -0.42188,-0.26563 -1,-0.26563 -1.03125,0 -1.71875,0.6875 -0.6875,0.6875 -0.6875,2.21875 l 0,5.71875 -1.67188,0 0,-6.40625 q 0,-1.10937 -0.40625,-1.65625 -0.40625,-0.5625 -1.34375,-0.5625 -0.70312,0 -1.3125,0.375 -0.59375,0.35938 -0.85937,1.07813 -0.26563,0.71875 -0.26563,2.0625 l 0,5.10937 -1.67187,0 z m 21.9783,-1.21875 q -0.9375,0.79688 -1.79687,1.125 -0.85938,0.3125 -1.84375,0.3125 -1.60938,0 -2.48438,-0.78125 -0.875,-0.79687 -0.875,-2.03125 0,-0.73437 0.32813,-1.32812 0.32812,-0.59375 0.85937,-0.95313 0.53125,-0.35937 1.20313,-0.54687 0.5,-0.14063 1.48437,-0.25 2.03125,-0.25 2.98438,-0.57813 0,-0.34375 0,-0.4375 0,-1.01562 -0.46875,-1.4375 -0.64063,-0.5625 -1.90625,-0.5625 -1.17188,0 -1.73438,0.40625 -0.5625,0.40625 -0.82812,1.46875 l -1.64063,-0.23437 q 0.23438,-1.04688 0.73438,-1.6875 0.51562,-0.64063 1.46875,-0.98438 0.96875,-0.35937 2.25,-0.35937 1.26562,0 2.04687,0.29687 0.78125,0.29688 1.15625,0.75 0.375,0.45313 0.51563,1.14063 0.0937,0.42187 0.0937,1.53125 l 0,2.23437 q 0,2.32813 0.0937,2.95313 0.10937,0.60937 0.4375,1.17187 l -1.75,0 q -0.26563,-0.51562 -0.32813,-1.21875 z m -0.14062,-3.71875 q -0.90625,0.35938 -2.73438,0.625 -1.03125,0.14063 -1.45312,0.32813 -0.42188,0.1875 -0.65625,0.54687 -0.23438,0.35938 -0.23438,0.79688 0,0.67187 0.5,1.125 0.51563,0.4375 1.48438,0.4375 0.96875,0 1.71875,-0.42188 0.75,-0.4375 1.10937,-1.15625 0.26563,-0.57812 0.26563,-1.67187 l 0,-0.60938 z m 4.04759,4.9375 0,-13.59375 1.67187,0 0,13.59375 -1.67187,0 z m 9.35937,3.78125 0,-13.64062 1.53125,0 0,1.28125 q 0.53125,-0.75 1.20313,-1.125 0.6875,-0.375 1.64062,-0.375 1.26563,0 2.23438,0.65625 0.96875,0.64062 1.45312,1.82812 0.5,1.1875 0.5,2.59375 0,1.51563 -0.54687,2.73438 -0.54688,1.20312 -1.57813,1.84375 -1.03125,0.64062 -2.17187,0.64062 -0.84375,0 -1.51563,-0.34375 -0.65625,-0.35937 -1.07812,-0.89062 l 0,4.79687 -1.67188,0 z m 1.51563,-8.65625 q 0,1.90625 0.76562,2.8125 0.78125,0.90625 1.875,0.90625 1.10938,0 1.89063,-0.9375 0.79687,-0.9375 0.79687,-2.92187 0,-1.875 -0.78125,-2.8125 -0.76562,-0.9375 -1.84375,-0.9375 -1.0625,0 -1.89062,1 -0.8125,1 -0.8125,2.89062 z m 15.29759,3.65625 q -0.9375,0.79688 -1.79687,1.125 -0.85938,0.3125 -1.84375,0.3125 -1.60938,0 -2.48438,-0.78125 -0.875,-0.79687 -0.875,-2.03125 0,-0.73437 0.32813,-1.32812 0.32812,-0.59375 0.85937,-0.95313 0.53125,-0.35937 1.20313,-0.54687 0.5,-0.14063 1.48437,-0.25 2.03125,-0.25 2.98438,-0.57813 0,-0.34375 0,-0.4375 0,-1.01562 -0.46875,-1.4375 -0.64063,-0.5625 -1.90625,-0.5625 -1.17188,0 -1.73438,0.40625 -0.5625,0.40625 -0.82812,1.46875 l -1.64063,-0.23437 q 0.23438,-1.04688 0.73438,-1.6875 0.51562,-0.64063 1.46875,-0.98438 0.96875,-0.35937 2.25,-0.35937 1.26562,0 2.04687,0.29687 0.78125,0.29688 1.15625,0.75 0.375,0.45313 0.51563,1.14063 0.0937,0.42187 0.0937,1.53125 l 0,2.23437 q 0,2.32813 0.0937,2.95313 0.10937,0.60937 0.4375,1.17187 l -1.75,0 q -0.26563,-0.51562 -0.32813,-1.21875 z m -0.14062,-3.71875 q -0.90625,0.35938 -2.73438,0.625 -1.03125,0.14063 -1.45312,0.32813 -0.42188,0.1875 -0.65625,0.54687 -0.23438,0.35938 -0.23438,0.79688 0,0.67187 0.5,1.125 0.51563,0.4375 1.48438,0.4375 0.96875,0 1.71875,-0.42188 0.75,-0.4375 1.10937,-1.15625 0.26563,-0.57812 0.26563,-1.67187 l 0,-0.60938 z m 7.73509,3.4375 0.23437,1.48438 q -0.70312,0.14062 -1.26562,0.14062 -0.90625,0 -1.40625,-0.28125 -0.5,-0.29687 -0.70313,-0.75 -0.20312,-0.46875 -0.20312,-1.98437 l 0,-5.65625 -1.23438,0 0,-1.3125 1.23438,0 0,-2.4375 1.65625,-1 0,3.4375 1.6875,0 0,1.3125 -1.6875,0 0,5.75 q 0,0.71875 0.0781,0.92187 0.0937,0.20313 0.29688,0.32813 0.20312,0.125 0.57812,0.125 0.26563,0 0.73438,-0.0781 z m 1.52705,1.5 0,-13.59375 1.67188,0 0,4.875 q 1.17187,-1.35937 2.95312,-1.35937 1.09375,0 1.89063,0.4375 0.8125,0.42187 1.15625,1.1875 0.35937,0.76562 0.35937,2.20312 l 0,6.25 -1.67187,0 0,-6.25 q 0,-1.25 -0.54688,-1.8125 -0.54687,-0.57812 -1.53125,-0.57812 -0.75,0 -1.40625,0.39062 -0.64062,0.375 -0.92187,1.04688 -0.28125,0.65625 -0.28125,1.8125 l 0,5.39062 -1.67188,0 z m 9.70384,-2.9375 1.65625,-0.26562 q 0.14063,1 0.76563,1.53125 0.64062,0.51562 1.78125,0.51562 1.15625,0 1.70312,-0.46875 0.5625,-0.46875 0.5625,-1.09375 0,-0.5625 -0.48437,-0.89062 -0.34375,-0.21875 -1.70313,-0.5625 -1.84375,-0.46875 -2.5625,-0.79688 -0.70312,-0.34375 -1.07812,-0.9375 -0.35938,-0.60937 -0.35938,-1.32812 0,-0.65625 0.29688,-1.21875 0.3125,-0.5625 0.82812,-0.9375 0.39063,-0.28125 1.0625,-0.48438 0.67188,-0.20312 1.4375,-0.20312 1.17188,0 2.04688,0.34375 0.875,0.32812 1.28125,0.90625 0.42187,0.5625 0.57812,1.51562 l -1.625,0.21875 q -0.10937,-0.75 -0.65625,-1.17187 -0.53125,-0.4375 -1.5,-0.4375 -1.15625,0 -1.64062,0.39062 -0.48438,0.375 -0.48438,0.875 0,0.32813 0.20313,0.59375 0.20312,0.26563 0.64062,0.4375 0.25,0.0937 1.46875,0.4375 1.76563,0.46875 2.46875,0.76563 0.70313,0.29687 1.09375,0.875 0.40625,0.57812 0.40625,1.4375 0,0.82812 -0.48437,1.57812 -0.48438,0.73438 -1.40625,1.14063 -0.92188,0.39062 -2.07813,0.39062 -1.92187,0 -2.9375,-0.79687 -1,-0.79688 -1.28125,-2.35938 z m 18.37081,6.9375 q -1.375,-1.75 -2.32813,-4.07812 -0.95312,-2.34375 -0.95312,-4.84375 0,-2.21875 0.70312,-4.23438 0.84375,-2.34375 2.57813,-4.67187 l 1.20312,0 q -1.125,1.92187 -1.48437,2.75 -0.5625,1.28125 -0.89063,2.67187 -0.40625,1.73438 -0.40625,3.48438 0,4.46875 2.78125,8.92187 l -1.20312,0 z m 3.02517,-4 0,-13.59375 1.67188,0 0,4.875 q 1.17187,-1.35937 2.95312,-1.35937 1.09375,0 1.89063,0.4375 0.8125,0.42187 1.15625,1.1875 0.35937,0.76562 0.35937,2.20312 l 0,6.25 -1.67187,0 0,-6.25 q 0,-1.25 -0.54688,-1.8125 -0.54687,-0.57812 -1.53125,-0.57812 -0.75,0 -1.40625,0.39062 -0.64062,0.375 -0.92187,1.04688 -0.28125,0.65625 -0.28125,1.8125 l 0,5.39062 -1.67188,0 z m 16.81324,-1.21875 q -0.9375,0.79688 -1.79688,1.125 -0.85937,0.3125 -1.84375,0.3125 -1.60937,0 -2.48437,-0.78125 -0.875,-0.79687 -0.875,-2.03125 0,-0.73437 0.32812,-1.32812 0.32813,-0.59375 0.85938,-0.95313 0.53125,-0.35937 1.20312,-0.54687 0.5,-0.14063 1.48438,-0.25 2.03125,-0.25 2.98437,-0.57813 0,-0.34375 0,-0.4375 0,-1.01562 -0.46875,-1.4375 -0.64062,-0.5625 -1.90625,-0.5625 -1.17187,0 -1.73437,0.40625 -0.5625,0.40625 -0.82813,1.46875 l -1.64062,-0.23437 q 0.23437,-1.04688 0.73437,-1.6875 0.51563,-0.64063 1.46875,-0.98438 0.96875,-0.35937 2.25,-0.35937 1.26563,0 2.04688,0.29687 0.78125,0.29688 1.15625,0.75 0.375,0.45313 0.51562,1.14063 0.0937,0.42187 0.0937,1.53125 l 0,2.23437 q 0,2.32813 0.0937,2.95313 0.10938,0.60937 0.4375,1.17187 l -1.75,0 q -0.26562,-0.51562 -0.32812,-1.21875 z m -0.14063,-3.71875 q -0.90625,0.35938 -2.73437,0.625 -1.03125,0.14063 -1.45313,0.32813 -0.42187,0.1875 -0.65625,0.54687 -0.23437,0.35938 -0.23437,0.79688 0,0.67187 0.5,1.125 0.51562,0.4375 1.48437,0.4375 0.96875,0 1.71875,-0.42188 0.75,-0.4375 1.10938,-1.15625 0.26562,-0.57812 0.26562,-1.67187 l 0,-0.60938 z m 4.07883,8.71875 0,-13.64062 1.53125,0 0,1.28125 q 0.53125,-0.75 1.20312,-1.125 0.6875,-0.375 1.64063,-0.375 1.26562,0 2.23437,0.65625 0.96875,0.64062 1.45313,1.82812 0.5,1.1875 0.5,2.59375 0,1.51563 -0.54688,2.73438 -0.54687,1.20312 -1.57812,1.84375 -1.03125,0.64062 -2.17188,0.64062 -0.84375,0 -1.51562,-0.34375 -0.65625,-0.35937 -1.07813,-0.89062 l 0,4.79687 -1.67187,0 z m 1.51562,-8.65625 q 0,1.90625 0.76563,2.8125 0.78125,0.90625 1.875,0.90625 1.10937,0 1.89062,-0.9375 0.79688,-0.9375 0.79688,-2.92187 0,-1.875 -0.78125,-2.8125 -0.76563,-0.9375 -1.84375,-0.9375 -1.0625,0 -1.89063,1 -0.8125,1 -0.8125,2.89062 z m 8.82886,4.875 0,-13.59375 1.67188,0 0,13.59375 -1.67188,0 z m 3.55106,-4.92187 q 0,-2.73438 1.53125,-4.0625 1.26562,-1.09375 3.09375,-1.09375 2.03125,0 3.3125,1.34375 1.29687,1.32812 1.29687,3.67187 0,1.90625 -0.57812,3 -0.5625,1.07813 -1.65625,1.6875 -1.07813,0.59375 -2.375,0.59375 -2.0625,0 -3.34375,-1.32812 -1.28125,-1.32813 -1.28125,-3.8125 z m 1.71875,0 q 0,1.89062 0.82812,2.82812 0.82813,0.9375 2.07813,0.9375 1.25,0 2.0625,-0.9375 0.82812,-0.95312 0.82812,-2.89062 0,-1.82813 -0.82812,-2.76563 -0.82813,-0.9375 -2.0625,-0.9375 -1.25,0 -2.07813,0.9375 -0.82812,0.9375 -0.82812,2.82813 z m 12.9382,3.42187 0.23437,1.48438 q -0.70312,0.14062 -1.26562,0.14062 -0.90625,0 -1.40625,-0.28125 -0.5,-0.29687 -0.70313,-0.75 -0.20312,-0.46875 -0.20312,-1.98437 l 0,-5.65625 -1.23438,0 0,-1.3125 1.23438,0 0,-2.4375 1.65625,-1 0,3.4375 1.6875,0 0,1.3125 -1.6875,0 0,5.75 q 0,0.71875 0.0781,0.92187 0.0937,0.20313 0.29688,0.32813 0.20312,0.125 0.57812,0.125 0.26563,0 0.73438,-0.0781 z m 1.44891,5.29688 -0.17187,-1.5625 q 0.54687,0.14062 0.95312,0.14062 0.54688,0 0.875,-0.1875 0.34375,-0.1875 0.5625,-0.51562 0.15625,-0.25 0.5,-1.25 0.0469,-0.14063 0.15625,-0.40625 l -3.73437,-9.875 1.79687,0 2.04688,5.71875 q 0.40625,1.07812 0.71875,2.28125 0.28125,-1.15625 0.6875,-2.25 l 2.09375,-5.75 1.67187,0 -3.75,10.03125 q -0.59375,1.625 -0.9375,2.23437 -0.4375,0.82813 -1.01562,1.20313 -0.57813,0.39062 -1.375,0.39062 -0.48438,0 -1.07813,-0.20312 z m 9.40625,-0.0156 0,-13.64062 1.53125,0 0,1.28125 q 0.53125,-0.75 1.20313,-1.125 0.6875,-0.375 1.64062,-0.375 1.26563,0 2.23438,0.65625 0.96875,0.64062 1.45312,1.82812 0.5,1.1875 0.5,2.59375 0,1.51563 -0.54687,2.73438 -0.54688,1.20312 -1.57813,1.84375 -1.03125,0.64062 -2.17187,0.64062 -0.84375,0 -1.51563,-0.34375 -0.65625,-0.35937 -1.07812,-0.89062 l 0,4.79687 -1.67188,0 z m 1.51563,-8.65625 q 0,1.90625 0.76562,2.8125 0.78125,0.90625 1.875,0.90625 1.10938,0 1.89063,-0.9375 0.79687,-0.9375 0.79687,-2.92187 0,-1.875 -0.78125,-2.8125 -0.76562,-0.9375 -1.84375,-0.9375 -1.0625,0 -1.89062,1 -0.8125,1 -0.8125,2.89062 z m 15.6101,1.70313 1.71875,0.21875 q -0.40625,1.5 -1.51562,2.34375 -1.09375,0.82812 -2.8125,0.82812 -2.15625,0 -3.42188,-1.32812 -1.26562,-1.32813 -1.26562,-3.73438 0,-2.48437 1.26562,-3.85937 1.28125,-1.375 3.32813,-1.375 1.98437,0 3.23437,1.34375 1.25,1.34375 1.25,3.79687 0,0.14063 -0.0156,0.4375 l -7.34375,0 q 0.0937,1.625 0.92187,2.48438 0.82813,0.85937 2.0625,0.85937 0.90625,0 1.54688,-0.46875 0.65625,-0.48437 1.04687,-1.54687 z m -5.48437,-2.70313 5.5,0 q -0.10938,-1.23437 -0.625,-1.85937 -0.79688,-0.96875 -2.07813,-0.96875 -1.14062,0 -1.9375,0.78125 -0.78125,0.76562 -0.85937,2.04687 z m 8.43823,2.9375 1.65625,-0.26562 q 0.14063,1 0.76563,1.53125 0.64062,0.51562 1.78125,0.51562 1.15625,0 1.70312,-0.46875 0.5625,-0.46875 0.5625,-1.09375 0,-0.5625 -0.48437,-0.89062 -0.34375,-0.21875 -1.70313,-0.5625 -1.84375,-0.46875 -2.5625,-0.79688 -0.70312,-0.34375 -1.07812,-0.9375 -0.35938,-0.60937 -0.35938,-1.32812 0,-0.65625 0.29688,-1.21875 0.3125,-0.5625 0.82812,-0.9375 0.39063,-0.28125 1.0625,-0.48438 0.67188,-0.20312 1.4375,-0.20312 1.17188,0 2.04688,0.34375 0.875,0.32812 1.28125,0.90625 0.42187,0.5625 0.57812,1.51562 l -1.625,0.21875 q -0.10937,-0.75 -0.65625,-1.17187 -0.53125,-0.4375 -1.5,-0.4375 -1.15625,0 -1.64062,0.39062 -0.48438,0.375 -0.48438,0.875 0,0.32813 0.20313,0.59375 0.20312,0.26563 0.64062,0.4375 0.25,0.0937 1.46875,0.4375 1.76563,0.46875 2.46875,0.76563 0.70313,0.29687 1.09375,0.875 0.40625,0.57812 0.40625,1.4375 0,0.82812 -0.48437,1.57812 -0.48438,0.73438 -1.40625,1.14063 -0.92188,0.39062 -2.07813,0.39062 -1.92187,0 -2.9375,-0.79687 -1,-0.79688 -1.28125,-2.35938 z m 11.09375,6.9375 -1.1875,0 q 2.76563,-4.45312 2.76563,-8.92187 0,-1.73438 -0.39063,-3.45313 -0.32812,-1.39062 -0.89062,-2.67187 -0.35938,-0.84375 -1.48438,-2.78125 l 1.1875,0 q 1.75,2.32812 2.57813,4.67187 0.71875,2.01563 0.71875,4.23438 0,2.5 -0.96875,4.84375 -0.95313,2.32812 -2.32813,4.07812 z" />
  <path
     style="fill:#ffffff;fill-rule:nonzero"
     inkscape:connector-curvature="0"
     id="path147"
     d="m 808.5821,258.3622 0,0 c 0,-8.4278 5.80267,-15.25986 12.96063,-15.25986 l 0,0 c 3.43738,0 6.73401,1.60773 9.16455,4.46952 2.43061,2.86178 3.79608,6.74316 3.79608,10.79034 l 0,0 c 0,8.42776 -5.80267,15.25983 -12.96063,15.25983 l 0,0 c -7.15796,0 -12.96063,-6.83207 -12.96063,-15.25983 z" />
  <path
     style="stroke:#595959;stroke-width:1;stroke-linecap:butt;stroke-linejoin:round"
     inkscape:connector-curvature="0"
     id="path149"
     d="m 808.5821,258.3622 0,0 c 0,-8.4278 5.80267,-15.25986 12.96063,-15.25986 l 0,0 c 3.43738,0 6.73401,1.60773 9.16455,4.46952 2.43061,2.86178 3.79608,6.74316 3.79608,10.79034 l 0,0 c 0,8.42776 -5.80267,15.25983 -12.96063,15.25983 l 0,0 c -7.15796,0 -12.96063,-6.83207 -12.96063,-15.25983 z" />
  <path
     style="fill:#000000;fill-opacity:0;fill-rule:nonzero"
     inkscape:connector-curvature="0"
     id="path151"
     d="m 791.2161,211.99213 17.35431,46.36221" />
  <path
     style="stroke:#595959;stroke-width:1;stroke-linecap:butt;stroke-linejoin:round"
     inkscape:connector-curvature="0"
     id="path153"
     d="m 791.2161,211.99213 15.25092,40.74298" />
  <path
     style="fill:#595959;fill-rule:evenodd;stroke:#595959;stroke-width:1;stroke-linecap:butt"
     inkscape:connector-curvature="0"
     id="path155"
     d="m 804.92017,253.31415 3.13782,3.67105 -0.044,-4.82913 z" />
  <path
     style="fill:#000000;fill-opacity:0;fill-rule:nonzero"
     inkscape:connector-curvature="0"
     id="path157"
     d="m 834.50336,258.3622 23.4331,-46.36221" />
  <path
     style="stroke:#595959;stroke-width:1;stroke-linecap:butt;stroke-linejoin:round"
     inkscape:connector-curvature="0"
     id="path159"
     d="m 834.50336,258.3622 20.72656,-41.00736" />
  <path
     style="fill:#595959;fill-rule:evenodd;stroke:#595959;stroke-width:1;stroke-linecap:butt"
     inkscape:connector-curvature="0"
     id="path161"
     d="m 856.70404,218.09995 0.57294,-4.79523 -3.52124,3.30509 z" />
  <path
     style="fill:#000000;fill-opacity:0;fill-rule:nonzero"
     inkscape:connector-curvature="0"
     id="path163"
     d="m 338.5643,258.512 c 17.56125,6.97241 55.80579,49.22308 105.36746,41.83463 49.56168,-7.38846 150.79614,-72.28871 192.00262,-86.16535 41.20648,-13.87665 37.91425,2.78433 55.23621,2.90552 17.32196,0.12115 36.58227,-2.05731 48.69555,-2.1785 12.11328,-0.12115 17.08002,-2.54547 23.98426,1.45145 6.90417,3.99695 12.23272,14.05075 17.44091,22.53018 5.20826,8.47946 8.47858,19.74585 13.80842,28.34647 5.32983,8.60061 10.53936,21.44052 18.17059,23.2572 7.63122,1.81671 19.74322,-5.69464 27.61682,-12.35694 7.8736,-6.66229 14.41602,-18.6531 19.62469,-27.61679 5.20862,-8.96371 5.81318,-21.56256 11.62726,-26.16537 5.81409,-4.60278 14.53589,-1.20953 23.2572,-1.45145 8.72138,-0.24191 20.8338,0 29.07087,0 8.23712,0 16.95977,0 20.35174,0" />
  <path
     style="stroke:#999999;stroke-width:1;stroke-linecap:butt;stroke-linejoin:round;stroke-dasharray:4, 3"
     inkscape:connector-curvature="0"
     id="path165"
     d="m 338.5643,258.512 c 17.56125,6.97241 55.80579,49.22308 105.36746,41.83463 49.56168,-7.38846 150.79614,-72.28871 192.00262,-86.16535 41.20648,-13.87665 37.91425,2.78433 55.23621,2.90552 17.32196,0.12115 36.58227,-2.05731 48.69555,-2.1785 12.11328,-0.12115 17.08002,-2.54547 23.98426,1.45145 6.90417,3.99695 12.23272,14.05075 17.44091,22.53018 5.20826,8.47946 8.47858,19.74585 13.80842,28.34647 5.32983,8.60061 10.53936,21.44052 18.17059,23.2572 7.63122,1.81671 19.74322,-5.69464 27.61682,-12.35694 7.8736,-6.66229 14.41602,-18.6531 19.62469,-27.61679 5.20862,-8.96371 5.81318,-21.56256 11.62726,-26.16537 5.81409,-4.60278 14.53589,-1.20953 23.2572,-1.45145 8.72138,-0.24191 20.8338,0 29.07087,0 8.23712,0 16.95977,0 20.35174,0" />
  <path
     style="fill:#000000;fill-opacity:0;fill-rule:nonzero"
     inkscape:connector-curvature="0"
     id="path167"
     d="m 17.44357,170.57022 c 7.267717,0.24234 31.856956,1.2117 43.6063,1.45407 11.74934,0.24234 20.106297,0.72659 26.889767,0 6.783463,-0.72662 5.452751,1.21216 13.811023,-4.35959 8.35827,-5.57174 26.6483,-22.65092 36.33857,-29.07087 9.6903,-6.41994 16.5945,-8.11635 21.80317,-9.44881 5.20864,-1.33246 3.51355,-1.57393 9.4488,1.45405 5.93526,3.028 17.68373,11.98995 26.16274,16.71392 8.479,4.72397 18.65442,8.23797 24.71129,11.62993 6.05687,3.39195 9.6916,7.26814 11.62991,8.72178" />
  <path
     style="stroke:#666666;stroke-width:2;stroke-linecap:butt;stroke-linejoin:round;stroke-dasharray:8, 6"
     inkscape:connector-curvature="0"
     id="path169"
     d="m 17.44357,170.57022 c 7.267717,0.24234 31.856956,1.2117 43.6063,1.45407 11.74934,0.24234 20.106297,0.72659 26.889767,0 6.783463,-0.72662 5.452751,1.21216 13.811023,-4.35959 8.35827,-5.57174 26.6483,-22.65092 36.33857,-29.07087 9.6903,-6.41994 16.5945,-8.11635 21.80317,-9.44881 5.20864,-1.33246 3.51355,-1.57393 9.4488,1.45405 5.93526,3.028 17.68373,11.98995 26.16274,16.71392 8.479,4.72397 18.65442,8.23797 24.71129,11.62993 6.05687,3.39195 9.6916,7.26814 11.62991,8.72178" />
  <path
     style="fill:#ffffff;fill-rule:nonzero"
     inkscape:connector-curvature="0"
     id="path171"
     d="m 259.55905,196.73227 0,0 c 0,-8.42777 7.64993,-15.25983 17.08661,-15.25983 l 0,0 c 9.43667,0 17.08661,6.83207 17.08661,15.25983 l 0,0 c 0,8.4278 -7.64993,15.25986 -17.08661,15.25986 l 0,0 c -9.43668,0 -17.08661,-6.83206 -17.08661,-15.25986 z" />
  <path
     style="stroke:#595959;stroke-width:1;stroke-linecap:butt;stroke-linejoin:round"
     inkscape:connector-curvature="0"
     id="path173"
     d="m 259.55905,196.73227 0,0 c 0,-8.42777 7.64993,-15.25983 17.08661,-15.25983 l 0,0 c 9.43667,0 17.08661,6.83207 17.08661,15.25983 l 0,0 c 0,8.4278 -7.64993,15.25986 -17.08661,15.25986 l 0,0 c -9.43668,0 -17.08661,-6.83206 -17.08661,-15.25986 z" />
  <path
     style="fill:#000000;fill-opacity:0;fill-rule:nonzero"
     inkscape:connector-curvature="0"
     id="path175"
     d="m 228.91339,198.1811 30.64566,-1.44882" />
  <path
     style="stroke:#595959;stroke-width:1;stroke-linecap:butt;stroke-linejoin:round"
     inkscape:connector-curvature="0"
     id="path177"
     d="m 228.91339,198.1811 24.65234,-1.16547" />
  <path
     style="fill:#595959;fill-rule:evenodd;stroke:#595959;stroke-width:1;stroke-linecap:butt"
     inkscape:connector-curvature="0"
     id="path179"
     d="m 253.64375,198.66553 4.45503,-1.8642 -4.61104,-1.4356 z" />
  <path
     style="fill:#ffffff;fill-rule:nonzero"
     inkscape:connector-curvature="0"
     id="path181"
     d="m 603.5591,196.73227 0,0 c 0,-8.42777 7.6499,-15.25983 17.08661,-15.25983 l 0,0 c 9.43664,0 17.08661,6.83207 17.08661,15.25983 l 0,0 c 0,8.4278 -7.64997,15.25986 -17.08661,15.25986 l 0,0 c -9.43671,0 -17.08661,-6.83206 -17.08661,-15.25986 z" />
  <path
     style="stroke:#595959;stroke-width:1;stroke-linecap:butt;stroke-linejoin:round"
     inkscape:connector-curvature="0"
     id="path183"
     d="m 603.5591,196.73227 0,0 c 0,-8.42777 7.6499,-15.25983 17.08661,-15.25983 l 0,0 c 9.43664,0 17.08661,6.83207 17.08661,15.25983 l 0,0 c 0,8.4278 -7.64997,15.25986 -17.08661,15.25986 l 0,0 c -9.43671,0 -17.08661,-6.83206 -17.08661,-15.25986 z" />
  <path
     style="fill:#ffffff;fill-rule:nonzero"
     inkscape:connector-curvature="0"
     id="path185"
     d="m 399.5013,113.86876 65.07086,0 0,24.7559 -65.07086,0 z" />
  <path
     style="stroke:#666666;stroke-width:1;stroke-linecap:butt;stroke-linejoin:round"
     inkscape:connector-curvature="0"
     id="path187"
     d="m 399.5013,113.86876 65.07086,0 0,24.7559 -65.07086,0 z" />
  <path
     style="fill:#ffffff;fill-rule:nonzero"
     inkscape:connector-curvature="0"
     id="path189"
     d="m 399.5013,161.86876 65.07086,0 0,24.7559 -65.07086,0 z" />
  <path
     style="stroke:#666666;stroke-width:1;stroke-linecap:butt;stroke-linejoin:round"
     inkscape:connector-curvature="0"
     id="path191"
     d="m 399.5013,161.86876 65.07086,0 0,24.7559 -65.07086,0 z" />
  <path
     style="fill:#ffffff;fill-rule:nonzero"
     inkscape:connector-curvature="0"
     id="path193"
     d="m 399.5013,209.86877 65.07086,0 0,24.75589 -65.07086,0 z" />
  <path
     style="stroke:#666666;stroke-width:1;stroke-linecap:butt;stroke-linejoin:round"
     inkscape:connector-curvature="0"
     id="path195"
     d="m 399.5013,209.86877 65.07086,0 0,24.75589 -65.07086,0 z" />
  <path
     style="fill:#000000;fill-opacity:0;fill-rule:nonzero"
     inkscape:connector-curvature="0"
     id="path197"
     d="M 288.72772,185.94196 399.49939,126.25692" />
  <path
     style="stroke:#595959;stroke-width:1;stroke-linecap:butt;stroke-linejoin:round"
     inkscape:connector-curvature="0"
     id="path199"
     d="M 288.72772,185.94196 394.21731,129.10294" />
  <path
     style="fill:#595959;fill-rule:evenodd;stroke:#595959;stroke-width:1;stroke-linecap:butt"
     inkscape:connector-curvature="0"
     id="path201"
     d="m 395.00082,130.55704 3.21158,-3.60669 -4.77857,0.6985 z" />
  <path
     style="fill:#000000;fill-opacity:0;fill-rule:nonzero"
     inkscape:connector-curvature="0"
     id="path203"
     d="M 464.57217,126.24672 608.5722,185.93176" />
  <path
     style="stroke:#595959;stroke-width:1;stroke-linecap:butt;stroke-linejoin:round"
     inkscape:connector-curvature="0"
     id="path205"
     d="M 464.57217,126.24672 603.02941,183.6344" />
  <path
     style="fill:#595959;fill-rule:evenodd;stroke:#595959;stroke-width:1;stroke-linecap:butt"
     inkscape:connector-curvature="0"
     id="path207"
     d="m 602.397,185.16025 4.82471,0.21176 -3.55982,-3.26346 z" />
  <path
     style="fill:#000000;fill-opacity:0;fill-rule:nonzero"
     inkscape:connector-curvature="0"
     id="path209"
     d="M 293.73227,196.73227 399.49606,174.24408" />
  <path
     style="stroke:#595959;stroke-width:1;stroke-linecap:butt;stroke-linejoin:round"
     inkscape:connector-curvature="0"
     id="path211"
     d="m 293.73227,196.73227 99.89499,-21.24029" />
  <path
     style="fill:#595959;fill-rule:evenodd;stroke:#595959;stroke-width:1;stroke-linecap:butt"
     inkscape:connector-curvature="0"
     id="path213"
     d="m 393.9708,177.10757 4.09534,-2.55945 -4.78238,-0.67178 z" />
  <path
     style="fill:#000000;fill-opacity:0;fill-rule:nonzero"
     inkscape:connector-curvature="0"
     id="path215"
     d="m 464.57217,174.2467 138.99216,22.48819" />
  <path
     style="stroke:#595959;stroke-width:1;stroke-linecap:butt;stroke-linejoin:round"
     inkscape:connector-curvature="0"
     id="path217"
     d="m 464.57217,174.2467 133.06912,21.52988" />
  <path
     style="fill:#595959;fill-rule:evenodd;stroke:#595959;stroke-width:1;stroke-linecap:butt"
     inkscape:connector-curvature="0"
     id="path219"
     d="m 597.3775,197.40714 4.74365,-0.90573 -4.216,-2.35532 z" />
  <path
     style="fill:#000000;fill-opacity:0;fill-rule:nonzero"
     inkscape:connector-curvature="0"
     id="path221"
     d="m 288.72772,207.5226 110.77167,14.70868" />
  <path
     style="stroke:#595959;stroke-width:1;stroke-linecap:butt;stroke-linejoin:round"
     inkscape:connector-curvature="0"
     id="path223"
     d="M 288.72772,207.5226 393.5516,221.44152" />
  <path
     style="fill:#595959;fill-rule:evenodd;stroke:#595959;stroke-width:1;stroke-linecap:butt"
     inkscape:connector-curvature="0"
     id="path225"
     d="m 393.33417,223.07886 4.71603,-1.04001 -4.28119,-2.23471 z" />
  <path
     style="fill:#000000;fill-opacity:0;fill-rule:nonzero"
     inkscape:connector-curvature="0"
     id="path227"
     d="M 464.57217,222.2467 608.5722,207.53805" />
  <path
     style="stroke:#595959;stroke-width:1;stroke-linecap:butt;stroke-linejoin:round"
     inkscape:connector-curvature="0"
     id="path229"
     d="M 464.57217,222.2467 602.60321,208.14773" />
  <path
     style="fill:#595959;fill-rule:evenodd;stroke:#595959;stroke-width:1;stroke-linecap:butt"
     inkscape:connector-curvature="0"
     id="path231"
     d="m 602.77106,209.79092 4.3468,-2.10431 -4.68243,-1.18204 z" />
  <path
     style="fill:#ffffff;fill-rule:nonzero"
     inkscape:connector-curvature="0"
     id="path233"
     d="m 399.5013,257.86877 65.07086,0 0,24.75589 -65.07086,0 z" />
  <path
     style="stroke:#666666;stroke-width:1;stroke-linecap:butt;stroke-linejoin:round"
     inkscape:connector-curvature="0"
     id="path235"
     d="m 399.5013,257.86877 65.07086,0 0,24.75589 -65.07086,0 z" />
  <path
     style="fill:#000000;fill-opacity:0;fill-rule:nonzero"
     inkscape:connector-curvature="0"
     id="path237"
     d="m 288.72772,207.5226 110.77167,62.70868" />
  <path
     style="stroke:#595959;stroke-width:1;stroke-linecap:butt;stroke-linejoin:round"
     inkscape:connector-curvature="0"
     id="path239"
     d="m 288.72772,207.5226 105.55029,59.75281" />
  <path
     style="fill:#595959;fill-rule:evenodd;stroke:#595959;stroke-width:1;stroke-linecap:butt"
     inkscape:connector-curvature="0"
     id="path241"
     d="m 393.4643,268.71283 4.76291,0.79828 -3.1355,-3.67307 z" />
  <path
     style="fill:#000000;fill-opacity:0;fill-rule:nonzero"
     inkscape:connector-curvature="0"
     id="path243"
     d="M 464.57217,270.2467 620.63519,211.979" />
  <path
     style="stroke:#595959;stroke-width:1;stroke-linecap:butt;stroke-linejoin:round"
     inkscape:connector-curvature="0"
     id="path245"
     d="M 464.57217,270.2467 615.01416,214.07766" />
  <path
     style="fill:#595959;fill-rule:evenodd;stroke:#595959;stroke-width:1;stroke-linecap:butt"
     inkscape:connector-curvature="0"
     id="path247"
     d="m 615.5919,215.62506 3.67371,-3.1347 -4.82917,0.0399 z" />
  <path
     style="fill:#000000;fill-opacity:0;fill-rule:nonzero"
     inkscape:connector-curvature="0"
     id="path249"
     d="m 143.32808,265.48294 c 6.32721,-0.90378 26.72923,-0.25766 37.96326,-5.42258 11.23404,-5.16491 20.01487,-18.85257 29.44094,-25.56692 9.42608,-6.71436 14.46151,-14.20255 27.11548,-14.71915 12.654,-0.51663 32.02233,14.33115 48.8084,11.61942 16.7861,-2.71174 36.67105,-21.95014 51.90814,-27.88977 15.23709,-5.93964 27.89282,-7.74802 39.51444,-7.74802 11.62161,0 14.33288,8.26465 30.21524,7.74802 15.88232,-0.51664 42.74014,-10.84778 65.07873,-10.84778 22.33856,0 57.4606,9.03982 68.95273,10.84778" />
  <path
     style="stroke:#666666;stroke-width:1;stroke-linecap:butt;stroke-linejoin:round;stroke-dasharray:4, 3"
     inkscape:connector-curvature="0"
     id="path251"
     d="m 143.32808,265.48294 c 6.32721,-0.90378 26.72923,-0.25766 37.96326,-5.42258 11.23404,-5.16491 20.01487,-18.85257 29.44094,-25.56692 9.42608,-6.71436 14.46151,-14.20255 27.11548,-14.71915 12.654,-0.51663 32.02233,14.33115 48.8084,11.61942 16.7861,-2.71174 36.67105,-21.95014 51.90814,-27.88977 15.23709,-5.93964 27.89282,-7.74802 39.51444,-7.74802 11.62161,0 14.33288,8.26465 30.21524,7.74802 15.88232,-0.51664 42.74014,-10.84778 65.07873,-10.84778 22.33856,0 57.4606,9.03982 68.95273,10.84778" />
  <path
     style="fill:#000000;fill-opacity:0;fill-rule:nonzero"
     inkscape:connector-curvature="0"
     id="path253"
     d="m 211.50656,134.55118 c 3.48643,3.48643 13.94575,15.23709 20.91864,20.91864 6.97287,5.68153 13.81671,9.81366 20.91862,13.17059 7.10195,3.35697 13.17104,8.13343 21.69292,6.97113 8.52188,-1.16229 18.85041,-9.29657 29.43833,-13.94487 10.58792,-4.6483 22.46762,-8.26335 34.08923,-13.94488 11.62161,-5.68155 23.88977,-13.30052 35.64041,-20.14436 11.75067,-6.84383 22.20953,-17.17411 34.86352,-20.91863 12.654,-3.74454 28.53543,-3.87315 41.06037,-1.54857 12.52493,2.32459 22.5971,10.07262 34.08923,15.49606 11.49213,5.42345 21.56345,10.8469 34.86353,17.04464 13.30011,6.19772 29.18371,13.68547 44.93701,20.14172 15.75329,6.45625 35.5083,14.20561 49.5827,18.59581 14.07434,4.3902 18.20642,6.4545 34.86346,7.74539 16.65705,1.29093 46.61377,0 65.0788,0 18.46497,0 38.09271,0 45.71125,0" />
  <path
     style="stroke:#595959;stroke-width:1;stroke-linecap:butt;stroke-linejoin:round;stroke-dasharray:4, 3"
     inkscape:connector-curvature="0"
     id="path255"
     d="m 211.50656,134.55118 c 3.48643,3.48643 13.94575,15.23709 20.91864,20.91864 6.97287,5.68153 13.81671,9.81366 20.91862,13.17059 7.10195,3.35697 13.17104,8.13343 21.69292,6.97113 8.52188,-1.16229 18.85041,-9.29657 29.43833,-13.94487 10.58792,-4.6483 22.46762,-8.26335 34.08923,-13.94488 11.62161,-5.68155 23.88977,-13.30052 35.64041,-20.14436 11.75067,-6.84383 22.20953,-17.17411 34.86352,-20.91863 12.654,-3.74454 28.53543,-3.87315 41.06037,-1.54857 12.52493,2.32459 22.5971,10.07262 34.08923,15.49606 11.49213,5.42345 21.56345,10.8469 34.86353,17.04464 13.30011,6.19772 29.18371,13.68547 44.93701,20.14172 15.75329,6.45625 35.5083,14.20561 49.5827,18.59581 14.07434,4.3902 18.20642,6.4545 34.86346,7.74539 16.65705,1.29093 46.61377,0 65.0788,0 18.46497,0 38.09271,0 45.71125,0" />
  <path
     style="fill:#000000;fill-opacity:0;fill-rule:nonzero"
     inkscape:connector-curvature="0"
     id="path257"
     d="m 23.24147,243.51978 c 8.393263,-0.77472 35.51006,-4.51926 50.35958,-4.64832 14.849518,-0.12902 23.888016,-5.16491 38.73753,3.87403 14.84952,9.03894 33.70254,43.90332 50.35958,50.35959 16.65705,6.45627 29.4392,-2.06693 49.58268,-11.62204 20.14347,-9.55512 51.78041,-44.2883 71.27821,-45.70868 19.4978,-1.42038 27.50219,24.40332 45.70868,37.18637 18.20645,12.78302 39.12552,33.05554 63.53018,39.51181 24.40463,6.45624 59.52624,1.54986 82.89761,-0.77429 23.37139,-2.32416 36.02493,-4.00263 57.33072,-13.1706 21.30578,-9.168 52.94268,-31.76553 70.50397,-41.83728 17.56121,-10.07174 15.1076,-15.49432 34.86346,-18.59317 19.75592,-3.09887 58.28522,-5.57742 83.67194,0 25.38671,5.57743 51.07043,23.35782 68.64831,33.46457 17.57782,10.10672 24.25372,30.24408 36.81891,27.17584 12.56513,-3.06823 29.55029,-36.25326 38.57214,-45.58529 9.02186,-9.33203 5.99299,-8.54331 15.55909,-10.40683 9.56604,-1.86353 31.63647,-0.77426 41.83728,-0.77426 10.20074,0 16.13952,0.64523 19.36743,0.77426" />
  <path
     style="stroke:#0000ff;stroke-width:3;stroke-linecap:butt;stroke-linejoin:round"
     inkscape:connector-curvature="0"
     id="path259"
     d="m 23.24147,243.51978 c 8.393263,-0.77472 35.51006,-4.51926 50.35958,-4.64832 14.849518,-0.12902 23.888016,-5.16491 38.73753,3.87403 14.84952,9.03894 33.70254,43.90332 50.35958,50.35959 16.65705,6.45627 29.4392,-2.06693 49.58268,-11.62204 20.14347,-9.55512 51.78041,-44.2883 71.27821,-45.70868 19.4978,-1.42038 27.50219,24.40332 45.70868,37.18637 18.20645,12.78302 39.12552,33.05554 63.53018,39.51181 24.40463,6.45624 59.52624,1.54986 82.89761,-0.77429 23.37139,-2.32416 36.02493,-4.00263 57.33072,-13.1706 21.30578,-9.168 52.94268,-31.76553 70.50397,-41.83728 17.56121,-10.07174 15.1076,-15.49432 34.86346,-18.59317 19.75592,-3.09887 58.28522,-5.57742 83.67194,0 25.38671,5.57743 51.07043,23.35782 68.64831,33.46457 17.57782,10.10672 24.25372,30.24408 36.81891,27.17584 12.56513,-3.06823 29.55029,-36.25326 38.57214,-45.58529 9.02186,-9.33203 5.99299,-8.54331 15.55909,-10.40683 9.56604,-1.86353 31.63647,-0.77426 41.83728,-0.77426 10.20074,0 16.13952,0.64523 19.36743,0.77426" />
  <path
     style="fill:#000000;fill-opacity:0;fill-rule:nonzero"
     inkscape:connector-curvature="0"
     id="path261"
     d="m 131.8084,347.25986 52.7559,0" />
  <path
     style="stroke:#595959;stroke-width:2;stroke-linecap:butt;stroke-linejoin:round;stroke-dasharray:8, 6"
     inkscape:connector-curvature="0"
     id="path263"
     d="m 131.8084,347.25986 52.7559,0" />
  <path
     style="fill:#000000;fill-opacity:0;fill-rule:nonzero"
     inkscape:connector-curvature="0"
     id="path265"
     d="m 196.0105,325.98163 177.85828,0 0,44.66141 -177.85828,0 z" />
  <path
     style="fill:#000000;fill-rule:nonzero"
     inkscape:connector-curvature="0"
     id="path267"
     d="m 204.97925,352.9016 5.23437,-13.59375 1.9375,0 5.5625,13.59375 -2.04687,0 -1.59375,-4.125 -5.6875,0 -1.48438,4.125 -1.92187,0 z m 3.92187,-5.57813 4.60938,0 -1.40625,-3.78125 q -0.65625,-1.70312 -0.96875,-2.8125 -0.26563,1.3125 -0.73438,2.59375 l -1.5,4 z m 9.7717,5.57813 0,-13.59375 1.67188,0 0,13.59375 -1.67188,0 z m 4.1917,-11.6875 0,-1.90625 1.67187,0 0,1.90625 -1.67187,0 z m 0,11.6875 0,-9.85938 1.67187,0 0,9.85938 -1.67187,0 z m 3.83232,0.8125 1.60938,0.25 q 0.10937,0.75 0.57812,1.09375 0.60938,0.45312 1.6875,0.45312 1.17188,0 1.79688,-0.46875 0.625,-0.45312 0.85937,-1.28125 0.125,-0.51562 0.10938,-2.15625 -1.09375,1.29688 -2.71875,1.29688 -2.03125,0 -3.15625,-1.46875 -1.10938,-1.46875 -1.10938,-3.51563 0,-1.40625 0.51563,-2.59375 0.51562,-1.20312 1.48437,-1.84375 0.96875,-0.65625 2.26563,-0.65625 1.75,0 2.875,1.40625 l 0,-1.1875 1.54687,0 0,8.51563 q 0,2.3125 -0.46875,3.26562 -0.46875,0.96875 -1.48437,1.51563 -1.01563,0.5625 -2.5,0.5625 -1.76563,0 -2.85938,-0.79688 -1.07812,-0.79687 -1.03125,-2.39062 z m 1.375,-5.92188 q 0,1.95313 0.76563,2.84375 0.78125,0.89063 1.9375,0.89063 1.14062,0 1.92187,-0.89063 0.78125,-0.89062 0.78125,-2.78125 0,-1.8125 -0.8125,-2.71875 -0.79687,-0.92187 -1.92187,-0.92187 -1.10938,0 -1.89063,0.90625 -0.78125,0.89062 -0.78125,2.67187 z m 9.29759,5.10938 0,-9.85938 1.5,0 0,1.40625 q 1.09375,-1.625 3.14063,-1.625 0.89062,0 1.64062,0.32813 0.75,0.3125 1.10938,0.84375 0.375,0.51562 0.53125,1.21875 0.0937,0.46875 0.0937,1.625 l 0,6.0625 -1.67188,0 0,-6 q 0,-1.01563 -0.20312,-1.51563 -0.1875,-0.51562 -0.6875,-0.8125 -0.5,-0.29687 -1.17188,-0.29687 -1.0625,0 -1.84375,0.67187 -0.76562,0.67188 -0.76562,2.57813 l 0,5.375 -1.67188,0 z m 17.12572,-3.17188 1.71875,0.21875 q -0.40625,1.5 -1.51563,2.34375 -1.09375,0.82813 -2.8125,0.82813 -2.15625,0 -3.42187,-1.32813 -1.26563,-1.32812 -1.26563,-3.73437 0,-2.48438 1.26563,-3.85938 1.28125,-1.375 3.32812,-1.375 1.98438,0 3.23438,1.34375 1.25,1.34375 1.25,3.79688 0,0.14062 -0.0156,0.4375 l -7.34375,0 q 0.0937,1.625 0.92188,2.48437 0.82812,0.85938 2.0625,0.85938 0.90625,0 1.54687,-0.46875 0.65625,-0.48438 1.04688,-1.54688 z m -5.48438,-2.70312 5.5,0 q -0.10937,-1.23438 -0.625,-1.85938 -0.79687,-0.96875 -2.07812,-0.96875 -1.14063,0 -1.9375,0.78125 -0.78125,0.76563 -0.85938,2.04688 z m 15.50074,5.875 0,-1.25 q -0.9375,1.46875 -2.75,1.46875 -1.17188,0 -2.17188,-0.64063 -0.98437,-0.65625 -1.53125,-1.8125 -0.53125,-1.17187 -0.53125,-2.6875 0,-1.46875 0.48438,-2.67187 0.5,-1.20313 1.46875,-1.84375 0.98437,-0.64063 2.20312,-0.64063 0.89063,0 1.57813,0.375 0.70312,0.375 1.14062,0.98438 l 0,-4.875 1.65625,0 0,13.59375 -1.54687,0 z m -5.28125,-4.92188 q 0,1.89063 0.79687,2.82813 0.8125,0.9375 1.89063,0.9375 1.09375,0 1.85937,-0.89063 0.76563,-0.89062 0.76563,-2.73437 0,-2.01563 -0.78125,-2.95313 -0.78125,-0.95312 -1.92188,-0.95312 -1.10937,0 -1.85937,0.90625 -0.75,0.90625 -0.75,2.85937 z m 14.69964,4.92188 0,-13.59375 6.03125,0 q 1.8125,0 2.75,0.35937 0.95313,0.35938 1.51563,1.29688 0.5625,0.92187 0.5625,2.04687 0,1.45313 -0.9375,2.45313 -0.92188,0.98437 -2.89063,1.25 0.71875,0.34375 1.09375,0.67187 0.78125,0.73438 1.48438,1.8125 l 2.375,3.70313 -2.26563,0 -1.79687,-2.82813 q -0.79688,-1.21875 -1.3125,-1.875 -0.5,-0.65625 -0.90625,-0.90625 -0.40625,-0.26562 -0.8125,-0.35937 -0.3125,-0.0781 -1.01563,-0.0781 l -2.07812,0 0,6.04688 -1.79688,0 z m 1.79688,-7.59375 3.85937,0 q 1.23438,0 1.92188,-0.25 0.70312,-0.26563 1.0625,-0.82813 0.375,-0.5625 0.375,-1.21875 0,-0.96875 -0.70313,-1.57812 -0.70312,-0.625 -2.21875,-0.625 l -4.29687,0 0,4.5 z m 18.17605,4.42187 1.71875,0.21875 q -0.40625,1.5 -1.51562,2.34375 -1.09375,0.82813 -2.8125,0.82813 -2.15625,0 -3.42188,-1.32813 -1.26562,-1.32812 -1.26562,-3.73437 0,-2.48438 1.26562,-3.85938 1.28125,-1.375 3.32813,-1.375 1.98437,0 3.23437,1.34375 1.25,1.34375 1.25,3.79688 0,0.14062 -0.0156,0.4375 l -7.34375,0 q 0.0937,1.625 0.92187,2.48437 0.82813,0.85938 2.0625,0.85938 0.90625,0 1.54688,-0.46875 0.65625,-0.48438 1.04687,-1.54688 z m -5.48437,-2.70312 5.5,0 q -0.10938,-1.23438 -0.625,-1.85938 -0.79688,-0.96875 -2.07813,-0.96875 -1.14062,0 -1.9375,0.78125 -0.78125,0.76563 -0.85937,2.04688 z m 15.54761,4.65625 q -0.9375,0.79687 -1.79688,1.125 -0.85937,0.3125 -1.84375,0.3125 -1.60937,0 -2.48437,-0.78125 -0.875,-0.79688 -0.875,-2.03125 0,-0.73438 0.32812,-1.32813 0.32813,-0.59375 0.85938,-0.95312 0.53125,-0.35938 1.20312,-0.54688 0.5,-0.14062 1.48438,-0.25 2.03125,-0.25 2.98437,-0.57812 0,-0.34375 0,-0.4375 0,-1.01563 -0.46875,-1.4375 -0.64062,-0.5625 -1.90625,-0.5625 -1.17187,0 -1.73437,0.40625 -0.5625,0.40625 -0.82813,1.46875 l -1.64062,-0.23438 q 0.23437,-1.04687 0.73437,-1.6875 0.51563,-0.64062 1.46875,-0.98437 0.96875,-0.35938 2.25,-0.35938 1.26563,0 2.04688,0.29688 0.78125,0.29687 1.15625,0.75 0.375,0.45312 0.51562,1.14062 0.0937,0.42188 0.0937,1.53125 l 0,2.23438 q 0,2.32812 0.0937,2.95312 0.10938,0.60938 0.4375,1.17188 l -1.75,0 q -0.26562,-0.51563 -0.32812,-1.21875 z m -0.14063,-3.71875 q -0.90625,0.35937 -2.73437,0.625 -1.03125,0.14062 -1.45313,0.32812 -0.42187,0.1875 -0.65625,0.54688 -0.23437,0.35937 -0.23437,0.79687 0,0.67188 0.5,1.125 0.51562,0.4375 1.48437,0.4375 0.96875,0 1.71875,-0.42187 0.75,-0.4375 1.10938,-1.15625 0.26562,-0.57813 0.26562,-1.67188 l 0,-0.60937 z m 10.46945,4.9375 0,-1.25 q -0.9375,1.46875 -2.75,1.46875 -1.17187,0 -2.17187,-0.64063 -0.98438,-0.65625 -1.53125,-1.8125 -0.53125,-1.17187 -0.53125,-2.6875 0,-1.46875 0.48437,-2.67187 0.5,-1.20313 1.46875,-1.84375 0.98438,-0.64063 2.20313,-0.64063 0.89062,0 1.57812,0.375 0.70313,0.375 1.14063,0.98438 l 0,-4.875 1.65625,0 0,13.59375 -1.54688,0 z m -5.28125,-4.92188 q 0,1.89063 0.79688,2.82813 0.8125,0.9375 1.89062,0.9375 1.09375,0 1.85938,-0.89063 0.76562,-0.89062 0.76562,-2.73437 0,-2.01563 -0.78125,-2.95313 -0.78125,-0.95312 -1.92187,-0.95312 -1.10938,0 -1.85938,0.90625 -0.75,0.90625 -0.75,2.85937 z m 8.59448,1.98438 1.65625,-0.26563 q 0.14063,1 0.76563,1.53125 0.64062,0.51563 1.78125,0.51563 1.15625,0 1.70312,-0.46875 0.5625,-0.46875 0.5625,-1.09375 0,-0.5625 -0.48437,-0.89063 -0.34375,-0.21875 -1.70313,-0.5625 -1.84375,-0.46875 -2.5625,-0.79687 -0.70312,-0.34375 -1.07812,-0.9375 -0.35938,-0.60938 -0.35938,-1.32813 0,-0.65625 0.29688,-1.21875 0.3125,-0.5625 0.82812,-0.9375 0.39063,-0.28125 1.0625,-0.48437 0.67188,-0.20313 1.4375,-0.20313 1.17188,0 2.04688,0.34375 0.875,0.32813 1.28125,0.90625 0.42187,0.5625 0.57812,1.51563 l -1.625,0.21875 q -0.10937,-0.75 -0.65625,-1.17188 -0.53125,-0.4375 -1.5,-0.4375 -1.15625,0 -1.64062,0.39063 -0.48438,0.375 -0.48438,0.875 0,0.32812 0.20313,0.59375 0.20312,0.26562 0.64062,0.4375 0.25,0.0937 1.46875,0.4375 1.76563,0.46875 2.46875,0.76562 0.70313,0.29688 1.09375,0.875 0.40625,0.57813 0.40625,1.4375 0,0.82813 -0.48437,1.57813 -0.48438,0.73437 -1.40625,1.14062 -0.92188,0.39063 -2.07813,0.39063 -1.92187,0 -2.9375,-0.79688 -1,-0.79687 -1.28125,-2.35937 z" />
  <path
     style="fill:#000000;fill-opacity:0;fill-rule:nonzero"
     inkscape:connector-curvature="0"
     id="path269"
     d="m 131.8084,371.25986 52.7559,0" />
  <path
     style="stroke:#ff0000;stroke-width:3;stroke-linecap:butt;stroke-linejoin:round"
     inkscape:connector-curvature="0"
     id="path271"
     d="m 131.8084,371.25986 52.7559,0" />
  <path
     style="fill:#000000;fill-opacity:0;fill-rule:nonzero"
     inkscape:connector-curvature="0"
     id="path273"
     d="m 196.0105,349.98163 124.8819,0 0,44.66141 -124.8819,0 z" />
  <path
     style="fill:#000000;fill-rule:nonzero"
     inkscape:connector-curvature="0"
     id="path275"
     d="m 206.52612,376.9016 0,-13.59375 1.8125,0 0,5.57812 7.0625,0 0,-5.57812 1.79687,0 0,13.59375 -1.79687,0 0,-6.40625 -7.0625,0 0,6.40625 -1.8125,0 z m 19.64482,-1.21875 q -0.9375,0.79687 -1.79687,1.125 -0.85938,0.3125 -1.84375,0.3125 -1.60938,0 -2.48438,-0.78125 -0.875,-0.79688 -0.875,-2.03125 0,-0.73438 0.32813,-1.32813 0.32812,-0.59375 0.85937,-0.95312 0.53125,-0.35938 1.20313,-0.54688 0.5,-0.14062 1.48437,-0.25 2.03125,-0.25 2.98438,-0.57812 0,-0.34375 0,-0.4375 0,-1.01563 -0.46875,-1.4375 -0.64063,-0.5625 -1.90625,-0.5625 -1.17188,0 -1.73438,0.40625 -0.5625,0.40625 -0.82812,1.46875 l -1.64063,-0.23438 q 0.23438,-1.04687 0.73438,-1.6875 0.51562,-0.64062 1.46875,-0.98437 0.96875,-0.35938 2.25,-0.35938 1.26562,0 2.04687,0.29688 0.78125,0.29687 1.15625,0.75 0.375,0.45312 0.51563,1.14062 0.0937,0.42188 0.0937,1.53125 l 0,2.23438 q 0,2.32812 0.0937,2.95312 0.10937,0.60938 0.4375,1.17188 l -1.75,0 q -0.26563,-0.51563 -0.32813,-1.21875 z m -0.14062,-3.71875 q -0.90625,0.35937 -2.73438,0.625 -1.03125,0.14062 -1.45312,0.32812 -0.42188,0.1875 -0.65625,0.54688 -0.23438,0.35937 -0.23438,0.79687 0,0.67188 0.5,1.125 0.51563,0.4375 1.48438,0.4375 0.96875,0 1.71875,-0.42187 0.75,-0.4375 1.10937,-1.15625 0.26563,-0.57813 0.26563,-1.67188 l 0,-0.60937 z m 4.07884,8.71875 0,-13.64063 1.53125,0 0,1.28125 q 0.53125,-0.75 1.20312,-1.125 0.6875,-0.375 1.64063,-0.375 1.26562,0 2.23437,0.65625 0.96875,0.64063 1.45313,1.82813 0.5,1.1875 0.5,2.59375 0,1.51562 -0.54688,2.73437 -0.54687,1.20313 -1.57812,1.84375 -1.03125,0.64063 -2.17188,0.64063 -0.84375,0 -1.51562,-0.34375 -0.65625,-0.35938 -1.07813,-0.89063 l 0,4.79688 -1.67187,0 z m 1.51562,-8.65625 q 0,1.90625 0.76563,2.8125 0.78125,0.90625 1.875,0.90625 1.10937,0 1.89062,-0.9375 0.79688,-0.9375 0.79688,-2.92188 0,-1.875 -0.78125,-2.8125 -0.76563,-0.9375 -1.84375,-0.9375 -1.0625,0 -1.89063,1 -0.8125,1 -0.8125,2.89063 z m 8.82885,4.875 0,-13.59375 1.67187,0 0,13.59375 -1.67187,0 z m 3.55107,-4.92188 q 0,-2.73437 1.53125,-4.0625 1.26562,-1.09375 3.09375,-1.09375 2.03125,0 3.3125,1.34375 1.29687,1.32813 1.29687,3.67188 0,1.90625 -0.57812,3 -0.5625,1.07812 -1.65625,1.6875 -1.07813,0.59375 -2.375,0.59375 -2.0625,0 -3.34375,-1.32813 -1.28125,-1.32812 -1.28125,-3.8125 z m 1.71875,0 q 0,1.89063 0.82812,2.82813 0.82813,0.9375 2.07813,0.9375 1.25,0 2.0625,-0.9375 0.82812,-0.95313 0.82812,-2.89063 0,-1.82812 -0.82812,-2.76562 -0.82813,-0.9375 -2.0625,-0.9375 -1.25,0 -2.07813,0.9375 -0.82812,0.9375 -0.82812,2.82812 z m 12.93823,3.42188 0.23437,1.48437 q -0.70312,0.14063 -1.26562,0.14063 -0.90625,0 -1.40625,-0.28125 -0.50002,-0.29688 -0.70314,-0.75 -0.20313,-0.46875 -0.20313,-1.98438 l 0,-5.65625 -1.23437,0 0,-1.3125 1.23437,0 0,-2.4375 1.65627,-1 0,3.4375 1.6875,0 0,1.3125 -1.6875,0 0,5.75 q 0,0.71875 0.0781,0.92188 0.0937,0.20312 0.29688,0.32812 0.20312,0.125 0.57812,0.125 0.26563,0 0.73438,-0.0781 z m 1.44891,5.29687 -0.17187,-1.5625 q 0.54687,0.14063 0.95312,0.14063 0.54688,0 0.875,-0.1875 0.34375,-0.1875 0.5625,-0.51563 0.15625,-0.25 0.5,-1.25 0.0469,-0.14062 0.15625,-0.40625 l -3.73437,-9.875 1.79687,0 2.04688,5.71875 q 0.40625,1.07813 0.71875,2.28125 0.28125,-1.15625 0.6875,-2.25 l 2.09375,-5.75 1.67187,0 -3.75,10.03125 q -0.59375,1.625 -0.9375,2.23438 -0.4375,0.82812 -1.01562,1.20312 -0.57813,0.39063 -1.375,0.39063 -0.48438,0 -1.07813,-0.20313 z m 9.40625,-0.0156 0,-13.64063 1.53125,0 0,1.28125 q 0.53125,-0.75 1.20313,-1.125 0.6875,-0.375 1.64062,-0.375 1.26563,0 2.23438,0.65625 0.96875,0.64063 1.45312,1.82813 0.5,1.1875 0.5,2.59375 0,1.51562 -0.54687,2.73437 -0.54688,1.20313 -1.57813,1.84375 -1.03125,0.64063 -2.17187,0.64063 -0.84375,0 -1.51563,-0.34375 -0.65625,-0.35938 -1.07812,-0.89063 l 0,4.79688 -1.67188,0 z m 1.51563,-8.65625 q 0,1.90625 0.76562,2.8125 0.78125,0.90625 1.875,0.90625 1.10938,0 1.89063,-0.9375 0.79687,-0.9375 0.79687,-2.92188 0,-1.875 -0.78125,-2.8125 -0.76562,-0.9375 -1.84375,-0.9375 -1.0625,0 -1.89062,1 -0.8125,1 -0.8125,2.89063 z m 15.6101,1.70312 1.71875,0.21875 q -0.40625,1.5 -1.51562,2.34375 -1.09375,0.82813 -2.8125,0.82813 -2.15625,0 -3.42188,-1.32813 -1.26562,-1.32812 -1.26562,-3.73437 0,-2.48438 1.26562,-3.85938 1.28125,-1.375 3.32813,-1.375 1.98437,0 3.23437,1.34375 1.25,1.34375 1.25,3.79688 0,0.14062 -0.0156,0.4375 l -7.34375,0 q 0.0937,1.625 0.92187,2.48437 0.82813,0.85938 2.0625,0.85938 0.90625,0 1.54688,-0.46875 0.65625,-0.48438 1.04687,-1.54688 z m -5.48437,-2.70312 5.5,0 q -0.10938,-1.23438 -0.625,-1.85938 -0.79688,-0.96875 -2.07813,-0.96875 -1.14062,0 -1.9375,0.78125 -0.78125,0.76563 -0.85937,2.04688 z m 14.9382,5.875 -1.67187,0 0,-10.64063 q -0.59375,0.57813 -1.57813,1.15625 -0.98437,0.5625 -1.76562,0.85938 l 0,-1.625 q 1.40625,-0.65625 2.45312,-1.59375 1.04688,-0.9375 1.48438,-1.8125 l 1.07812,0 0,13.65625 z" />
  <path
     style="fill:#000000;fill-opacity:0;fill-rule:nonzero"
     inkscape:connector-curvature="0"
     id="path277"
     d="m 131.8084,395.25986 52.7559,0" />
  <path
     style="stroke:#0000ff;stroke-width:3;stroke-linecap:butt;stroke-linejoin:round"
     inkscape:connector-curvature="0"
     id="path279"
     d="m 131.8084,395.25986 52.7559,0" />
  <path
     style="fill:#000000;fill-opacity:0;fill-rule:nonzero"
     inkscape:connector-curvature="0"
     id="path281"
     d="m 196.0105,373.98163 124.8819,0 0,44.66144 -124.8819,0 z" />
  <path
     style="fill:#000000;fill-rule:nonzero"
     inkscape:connector-curvature="0"
     id="path283"
     d="m 206.52612,400.9016 0,-13.59375 1.8125,0 0,5.57812 7.0625,0 0,-5.57812 1.79687,0 0,13.59375 -1.79687,0 0,-6.40625 -7.0625,0 0,6.40625 -1.8125,0 z m 19.64482,-1.21875 q -0.9375,0.79687 -1.79687,1.125 -0.85938,0.3125 -1.84375,0.3125 -1.60938,0 -2.48438,-0.78125 -0.875,-0.79688 -0.875,-2.03125 0,-0.73438 0.32813,-1.32813 0.32812,-0.59375 0.85937,-0.95312 0.53125,-0.35938 1.20313,-0.54688 0.5,-0.14062 1.48437,-0.25 2.03125,-0.25 2.98438,-0.57812 0,-0.34375 0,-0.4375 0,-1.01563 -0.46875,-1.4375 -0.64063,-0.5625 -1.90625,-0.5625 -1.17188,0 -1.73438,0.40625 -0.5625,0.40625 -0.82812,1.46875 l -1.64063,-0.23438 q 0.23438,-1.04687 0.73438,-1.6875 0.51562,-0.64062 1.46875,-0.98437 0.96875,-0.35938 2.25,-0.35938 1.26562,0 2.04687,0.29688 0.78125,0.29687 1.15625,0.75 0.375,0.45312 0.51563,1.14062 0.0937,0.42188 0.0937,1.53125 l 0,2.23438 q 0,2.32812 0.0937,2.95312 0.10937,0.60938 0.4375,1.17188 l -1.75,0 q -0.26563,-0.51563 -0.32813,-1.21875 z m -0.14062,-3.71875 q -0.90625,0.35937 -2.73438,0.625 -1.03125,0.14062 -1.45312,0.32812 -0.42188,0.1875 -0.65625,0.54688 -0.23438,0.35937 -0.23438,0.79687 0,0.67188 0.5,1.125 0.51563,0.4375 1.48438,0.4375 0.96875,0 1.71875,-0.42187 0.75,-0.4375 1.10937,-1.15625 0.26563,-0.57813 0.26563,-1.67188 l 0,-0.60937 z m 4.07884,8.71875 0,-13.64063 1.53125,0 0,1.28125 q 0.53125,-0.75 1.20312,-1.125 0.6875,-0.375 1.64063,-0.375 1.26562,0 2.23437,0.65625 0.96875,0.64063 1.45313,1.82813 0.5,1.1875 0.5,2.59375 0,1.51562 -0.54688,2.73437 -0.54687,1.20313 -1.57812,1.84375 -1.03125,0.64063 -2.17188,0.64063 -0.84375,0 -1.51562,-0.34375 -0.65625,-0.35938 -1.07813,-0.89063 l 0,4.79688 -1.67187,0 z m 1.51562,-8.65625 q 0,1.90625 0.76563,2.8125 0.78125,0.90625 1.875,0.90625 1.10937,0 1.89062,-0.9375 0.79688,-0.9375 0.79688,-2.92188 0,-1.875 -0.78125,-2.8125 -0.76563,-0.9375 -1.84375,-0.9375 -1.0625,0 -1.89063,1 -0.8125,1 -0.8125,2.89063 z m 8.82885,4.875 0,-13.59375 1.67187,0 0,13.59375 -1.67187,0 z m 3.55107,-4.92188 q 0,-2.73437 1.53125,-4.0625 1.26562,-1.09375 3.09375,-1.09375 2.03125,0 3.3125,1.34375 1.29687,1.32813 1.29687,3.67188 0,1.90625 -0.57812,3 -0.5625,1.07812 -1.65625,1.6875 -1.07813,0.59375 -2.375,0.59375 -2.0625,0 -3.34375,-1.32813 -1.28125,-1.32812 -1.28125,-3.8125 z m 1.71875,0 q 0,1.89063 0.82812,2.82813 0.82813,0.9375 2.07813,0.9375 1.25,0 2.0625,-0.9375 0.82812,-0.95313 0.82812,-2.89063 0,-1.82812 -0.82812,-2.76562 -0.82813,-0.9375 -2.0625,-0.9375 -1.25,0 -2.07813,0.9375 -0.82812,0.9375 -0.82812,2.82812 z m 12.93823,3.42188 0.23437,1.48437 q -0.70312,0.14063 -1.26562,0.14063 -0.90625,0 -1.40625,-0.28125 -0.50002,-0.29688 -0.70314,-0.75 -0.20313,-0.46875 -0.20313,-1.98438 l 0,-5.65625 -1.23437,0 0,-1.3125 1.23437,0 0,-2.4375 1.65627,-1 0,3.4375 1.6875,0 0,1.3125 -1.6875,0 0,5.75 q 0,0.71875 0.0781,0.92188 0.0937,0.20312 0.29688,0.32812 0.20312,0.125 0.57812,0.125 0.26563,0 0.73438,-0.0781 z m 1.44891,5.29687 -0.17187,-1.5625 q 0.54687,0.14063 0.95312,0.14063 0.54688,0 0.875,-0.1875 0.34375,-0.1875 0.5625,-0.51563 0.15625,-0.25 0.5,-1.25 0.0469,-0.14062 0.15625,-0.40625 l -3.73437,-9.875 1.79687,0 2.04688,5.71875 q 0.40625,1.07813 0.71875,2.28125 0.28125,-1.15625 0.6875,-2.25 l 2.09375,-5.75 1.67187,0 -3.75,10.03125 q -0.59375,1.625 -0.9375,2.23438 -0.4375,0.82812 -1.01562,1.20312 -0.57813,0.39063 -1.375,0.39063 -0.48438,0 -1.07813,-0.20313 z m 9.40625,-0.0156 0,-13.64063 1.53125,0 0,1.28125 q 0.53125,-0.75 1.20313,-1.125 0.6875,-0.375 1.64062,-0.375 1.26563,0 2.23438,0.65625 0.96875,0.64063 1.45312,1.82813 0.5,1.1875 0.5,2.59375 0,1.51562 -0.54687,2.73437 -0.54688,1.20313 -1.57813,1.84375 -1.03125,0.64063 -2.17187,0.64063 -0.84375,0 -1.51563,-0.34375 -0.65625,-0.35938 -1.07812,-0.89063 l 0,4.79688 -1.67188,0 z m 1.51563,-8.65625 q 0,1.90625 0.76562,2.8125 0.78125,0.90625 1.875,0.90625 1.10938,0 1.89063,-0.9375 0.79687,-0.9375 0.79687,-2.92188 0,-1.875 -0.78125,-2.8125 -0.76562,-0.9375 -1.84375,-0.9375 -1.0625,0 -1.89062,1 -0.8125,1 -0.8125,2.89063 z m 15.6101,1.70312 1.71875,0.21875 q -0.40625,1.5 -1.51562,2.34375 -1.09375,0.82813 -2.8125,0.82813 -2.15625,0 -3.42188,-1.32813 -1.26562,-1.32812 -1.26562,-3.73437 0,-2.48438 1.26562,-3.85938 1.28125,-1.375 3.32813,-1.375 1.98437,0 3.23437,1.34375 1.25,1.34375 1.25,3.79688 0,0.14062 -0.0156,0.4375 l -7.34375,0 q 0.0937,1.625 0.92187,2.48437 0.82813,0.85938 2.0625,0.85938 0.90625,0 1.54688,-0.46875 0.65625,-0.48438 1.04687,-1.54688 z m -5.48437,-2.70312 5.5,0 q -0.10938,-1.23438 -0.625,-1.85938 -0.79688,-0.96875 -2.07813,-0.96875 -1.14062,0 -1.9375,0.78125 -0.78125,0.76563 -0.85937,2.04688 z m 17.42258,4.26562 0,1.60938 -8.98438,0 q -0.0156,-0.60938 0.1875,-1.15625 0.34375,-0.92188 1.09375,-1.8125 0.76563,-0.89063 2.1875,-2.0625 2.21875,-1.8125 3,-2.875 0.78125,-1.0625 0.78125,-2.01563 0,-0.98437 -0.71875,-1.67187 -0.70312,-0.6875 -1.84375,-0.6875 -1.20312,0 -1.9375,0.73437 -0.71875,0.71875 -0.71875,2 l -1.71875,-0.17187 q 0.17188,-1.92188 1.32813,-2.92188 1.15625,-1.01562 3.09375,-1.01562 1.95312,0 3.09375,1.09375 1.14062,1.07812 1.14062,2.6875 0,0.8125 -0.34375,1.60937 -0.32812,0.78125 -1.10937,1.65625 -0.76563,0.85938 -2.5625,2.39063 -1.5,1.26562 -1.9375,1.71875 -0.42188,0.4375 -0.70313,0.89062 l 6.67188,0 z" />
  <path
     style="fill:#000000;fill-opacity:0;fill-rule:nonzero"
     inkscape:connector-curvature="0"
     id="path285"
     d="m 15.76378,155.21855 c 8.135171,0 31.249783,6.06911 48.811028,0 17.561241,-6.06912 35.767272,-28.9252 56.556432,-36.4147 20.78914,-7.48951 46.74365,-12.52538 68.17847,-8.52231 21.43483,4.00307 42.30665,24.21565 60.43045,32.54068 18.12379,8.32503 32.66316,19.03718 48.31233,17.40945 15.64917,-1.62774 23.08267,-15.1951 45.58267,-27.17586 22.5,-11.98075 61.80359,-42.66316 89.41733,-44.70866 27.61374,-2.04549 53.9112,21.47769 76.26511,32.4357 22.35391,10.95801 41.98203,25.76553 57.85825,33.31233 15.87622,7.54682 14.3797,11.00656 37.39899,11.96851 23.01922,0.96194 76.69946,-1.16098 100.71649,-6.19685 24.01709,-5.03588 24.66272,-16.91645 43.38586,-24.01838 18.72308,-7.10193 48.03455,-22.3377 68.95276,-18.59317 20.91815,3.74453 38.09143,33.05468 56.5564,41.06037 18.46502,8.00569 45.1947,5.81144 54.23358,6.97374" />
  <path
     style="stroke:#ff0000;stroke-width:3;stroke-linecap:butt;stroke-linejoin:round"
     inkscape:connector-curvature="0"
     id="path287"
     d="m 15.76378,155.21855 c 8.135171,0 31.249783,6.06911 48.811028,0 17.561241,-6.06912 35.767272,-28.9252 56.556432,-36.4147 20.78914,-7.48951 46.74365,-12.52538 68.17847,-8.52231 21.43483,4.00307 42.30665,24.21565 60.43045,32.54068 18.12379,8.32503 32.66316,19.03718 48.31233,17.40945 15.64917,-1.62774 23.08267,-15.1951 45.58267,-27.17586 22.5,-11.98075 61.80359,-42.66316 89.41733,-44.70866 27.61374,-2.04549 53.9112,21.47769 76.26511,32.4357 22.35391,10.95801 41.98203,25.76553 57.85825,33.31233 15.87622,7.54682 14.3797,11.00656 37.39899,11.96851 23.01922,0.96194 76.69946,-1.16098 100.71649,-6.19685 24.01709,-5.03588 24.66272,-16.91645 43.38586,-24.01838 18.72308,-7.10193 48.03455,-22.3377 68.95276,-18.59317 20.91815,3.74453 38.09143,33.05468 56.5564,41.06037 18.46502,8.00569 45.1947,5.81144 54.23358,6.97374" />
</svg>
