<?xml version="1.0" encoding="UTF-8" standalone="no"?>
<svg
   xmlns:dc="http://purl.org/dc/elements/1.1/"
   xmlns:cc="http://creativecommons.org/ns#"
   xmlns:rdf="http://www.w3.org/1999/02/22-rdf-syntax-ns#"
   xmlns:svg="http://www.w3.org/2000/svg"
   xmlns="http://www.w3.org/2000/svg"
   xmlns:sodipodi="http://sodipodi.sourceforge.net/DTD/sodipodi-0.dtd"
   xmlns:inkscape="http://www.inkscape.org/namespaces/inkscape"
   style="fill:none;stroke:none"
   height="59.700321"
   width="801.99597"
   sodipodi:docname="trio-phasing-complete-haplotype1.svg"
   inkscape:version="0.48.5 r10040"
   id="svg2"
   stroke-miterlimit="10"
   viewBox="0 0 801.99597 59.700322"
   version="1.1">
  <sodipodi:namedview
     pagecolor="#ffffff"
     bordercolor="#666666"
     borderopacity="1"
     objecttolerance="10"
     gridtolerance="10"
     guidetolerance="10"
     inkscape:pageopacity="0"
     inkscape:pageshadow="2"
     inkscape:window-width="2560"
     inkscape:window-height="1385"
     id="namedview295"
     showgrid="true"
     inkscape:zoom="1.4142136"
     inkscape:cx="217.86191"
     inkscape:cy="58.235489"
     inkscape:window-x="-2"
     inkscape:window-y="-3"
     inkscape:window-maximized="1"
     inkscape:current-layer="svg2"
     showguides="true"
     inkscape:guide-bbox="true"
     fit-margin-top="0"
     fit-margin-left="0"
     fit-margin-right="0"
     fit-margin-bottom="0"
     inkscape:snap-grids="true"
     inkscape:snap-to-guides="true"
     inkscape:snap-bbox="true"
     inkscape:snap-page="true">
    <inkscape:grid
       type="xygrid"
       id="grid4427"
       originx="-164.50833px"
       originy="665.03834px"
       empspacing="5"
       visible="true"
       enabled="true"
       snapvisiblegridlinesonly="true" />
  </sodipodi:namedview>
  <metadata
     id="metadata299">
    <rdf:RDF>
      <cc:Work
         rdf:about="">
        <dc:format>image/svg+xml</dc:format>
        <dc:type
           rdf:resource="http://purl.org/dc/dcmitype/StillImage" />
        <dc:title />
      </cc:Work>
    </rdf:RDF>
  </metadata>
  <defs
     id="defs297" />
  <clipPath
     id="p.0">
    <path
       d="M 0,0 960,0 960,720 0,720 0,0 z"
       id="path5"
       inkscape:connector-curvature="0" />
  </clipPath>
  <text
     xml:space="preserve"
     style="font-size:20px;font-style:normal;font-variant:normal;font-weight:normal;font-stretch:normal;line-height:125%;letter-spacing:0px;word-spacing:0px;fill:#000000;fill-opacity:1;stroke:none;font-family:Sans;-inkscape-font-specification:Sans"
     x="685.32135"
     y="-28.086117"
     id="text4572-64-9-4"
     sodipodi:linespacing="125%"><tspan
       sodipodi:role="line"
       id="tspan4574-41-0-4"
       x="9.6579299e-07"
       y="0.00335844"
       style="font-size:27.5px;font-style:normal;font-variant:normal;font-weight:normal;font-stretch:normal;font-family:Sans;-inkscape-font-specification:Sans"><tspan
         style="font-size:17.87525177px;baseline-shift:sub"
         id="tspan3447" /></tspan></text>
  <text
     xml:space="preserve"
     style="font-size:20px;font-style:normal;font-variant:normal;font-weight:normal;font-stretch:normal;line-height:125%;letter-spacing:0px;word-spacing:0px;fill:#000000;fill-opacity:1;stroke:none;font-family:Sans;-inkscape-font-specification:Sans"
     x="689.32129"
     y="159.85899"
     id="text4572-64-9-4-4-3"
     sodipodi:linespacing="125%"><tspan
       sodipodi:role="line"
       id="tspan4574-41-0-4-4-3"
       x="689.32129"
       y="159.85899"
       style="font-size:27.5px;font-style:normal;font-variant:normal;font-weight:normal;font-stretch:normal;font-family:Sans;-inkscape-font-specification:Sans" /></text>
  <path
     style="fill:#ffffff;fill-rule:nonzero;stroke:none"
     inkscape:connector-curvature="0"
     id="path291-1-8-0"
     d="m 258.63223,9.99133 q 1.96875,0 3.07812,1.4063 1.32813,1.6718 1.32813,5.5468 0,3.8594 -1.32813,5.5469 -1.10937,1.3906 -3.07812,1.3906 -1.98438,0 -3.20313,-1.5312 -1.21875,-1.5313 -1.21875,-5.4375 0,-3.8438 1.34375,-5.5313 1.09375,-1.3906 3.07813,-1.3906 z m 0,2.1563 q -0.48438,0 -0.85938,0.3125 -0.35937,0.2968 -0.5625,1.0781 -0.26562,1.0156 -0.26562,3.4062 0,2.3907 0.23437,3.2813 0.25,0.8906 0.60938,1.1875 0.35937,0.2969 0.84375,0.2969 0.46875,0 0.82812,-0.2969 0.375,-0.2969 0.59375,-1.0781 0.26563,-1 0.26563,-3.3907 0,-2.3906 -0.25,-3.2812 -0.23438,-0.9063 -0.60938,-1.2031 -0.35937,-0.3125 -0.82812,-0.3125 z" />
  <path
     style="fill:#0000ff;fill-rule:nonzero;stroke:none"
     inkscape:connector-curvature="0"
     id="path105-1"
     d="m 346.2126,23.77341 -2.60938,0 0,-9.8281 q -1.4375,1.3438 -3.375,1.9844 l 0,-2.375 q 1.03125,-0.3281 2.21875,-1.25 1.20313,-0.9375 1.64063,-2.1875 l 2.125,0 0,13.6562 z" />
  <path
     style="fill:#000000;fill-opacity:0;fill-rule:nonzero;stroke:none"
     inkscape:connector-curvature="0"
     id="path137-2"
     d="m 646.92109,37.21212 115.7479,0 0,22.4882 -115.7479,0 z" />
  <path
     style="fill:#0000ff;fill-rule:nonzero;stroke:none"
     inkscape:connector-curvature="0"
     id="path105-2-4"
     d="m 429.2573,23.77341 -2.60938,0 0,-9.8281 q -1.4375,1.3438 -3.375,1.9844 l 0,-2.375 q 1.03125,-0.3281 2.21875,-1.25 1.20313,-0.9375 1.64063,-2.1875 l 2.125,0 0,13.6562 z" />
  <path
     style="fill:#0000ff;fill-rule:nonzero;stroke:none"
     inkscape:connector-curvature="0"
     id="path291-8-5"
     d="m 599.96559,37.09613 q 1.9688,0 3.0781,1.4063 1.3282,1.6718 1.3282,5.5468 0,3.8594 -1.3282,5.5469 -1.1093,1.3906 -3.0781,1.3906 -1.9844,0 -3.2031,-1.5312 -1.2188,-1.5313 -1.2188,-5.4375 0,-3.8438 1.3438,-5.5313 1.0937,-1.3906 3.0781,-1.3906 z m 0,2.1563 q -0.4844,0 -0.8594,0.3125 -0.3593,0.2968 -0.5625,1.0781 -0.2656,1.0156 -0.2656,3.4062 0,2.3907 0.2344,3.2813 0.25,0.8906 0.6094,1.1875 0.3593,0.2969 0.8437,0.2969 0.4688,0 0.8281,-0.2969 0.375,-0.2969 0.5938,-1.0781 0.2656,-1 0.2656,-3.3907 0,-2.3906 -0.25,-3.2812 -0.2344,-0.9063 -0.6094,-1.2031 -0.3593,-0.3125 -0.8281,-0.3125 z" />
  <path
     style="fill:#0000ff;fill-rule:nonzero;stroke:none"
     inkscape:connector-curvature="0"
     id="path291-8-4-7"
     d="m 514.89107,37.09613 q 1.96875,0 3.07812,1.4063 1.32813,1.6718 1.32813,5.5468 0,3.8594 -1.32813,5.5469 -1.10937,1.3906 -3.07812,1.3906 -1.98438,0 -3.20313,-1.5312 -1.21875,-1.5313 -1.21875,-5.4375 0,-3.8438 1.34375,-5.5313 1.09375,-1.3906 3.07813,-1.3906 z m 0,2.1563 q -0.48438,0 -0.85938,0.3125 -0.35937,0.2968 -0.5625,1.0781 -0.26562,1.0156 -0.26562,3.4062 0,2.3907 0.23437,3.2813 0.25,0.8906 0.60938,1.1875 0.35937,0.2969 0.84375,0.2969 0.46875,0 0.82812,-0.2969 0.375,-0.2969 0.59375,-1.0781 0.26563,-1 0.26563,-3.3907 0,-2.3906 -0.25,-3.2812 -0.23438,-0.9063 -0.60938,-1.2031 -0.35937,-0.3125 -0.82812,-0.3125 z" />
  <path
     style="fill:#0000ff;fill-opacity:1;fill-rule:nonzero;stroke:none"
     inkscape:connector-curvature="0"
     id="path105-9-4-2-1-5-4-0"
     d="m 601.61667,23.77341 -2.60938,0 0,-9.8281 q -1.4375,1.3437 -3.375,1.9844 l 0,-2.375 q 1.03125,-0.3282 2.21875,-1.25 1.20313,-0.9375 1.64063,-2.1875 l 2.125,0 0,13.6562 z" />
  <path
     style="fill:#0000ff;fill-opacity:1;fill-rule:nonzero;stroke:none"
     inkscape:connector-curvature="0"
     id="path291-1-2-50-8"
     d="m 88.551365,37.09613 q 1.96875,0 3.07812,1.4062 1.32813,1.6719 1.32813,5.5469 0,3.8594 -1.32813,5.5469 -1.10937,1.3906 -3.07812,1.3906 -1.98438,0 -3.20313,-1.5312 -1.21875,-1.5313 -1.21875,-5.4375 0,-3.8438 1.34375,-5.5313 1.09375,-1.3906 3.07813,-1.3906 z m 0,2.1562 q -0.48438,0 -0.85938,0.3125 -0.35937,0.2969 -0.5625,1.0782 -0.26562,1.0156 -0.26562,3.4062 0,2.3906 0.23437,3.2813 0.25,0.8906 0.60938,1.1875 0.35937,0.2968 0.84375,0.2968 0.46875,0 0.82812,-0.2968 0.375,-0.2969 0.59375,-1.0782 0.26563,-1 0.26563,-3.3906 0,-2.3906 -0.25,-3.2812 -0.23438,-0.9063 -0.60938,-1.2032 -0.35937,-0.3125 -0.82812,-0.3125 z" />
  <path
     style="fill:#0000ff;fill-opacity:1;fill-rule:nonzero;stroke:none"
     inkscape:connector-curvature="0"
     id="path291-1-2-6-7-6"
     d="m 173.8847,37.09613 q 1.96875,0 3.07812,1.4062 1.32813,1.6719 1.32813,5.5469 0,3.8594 -1.32813,5.5469 -1.10937,1.3906 -3.07812,1.3906 -1.98438,0 -3.20313,-1.5312 -1.21875,-1.5313 -1.21875,-5.4375 0,-3.8438 1.34375,-5.5313 1.09375,-1.3906 3.07813,-1.3906 z m 0,2.1562 q -0.48438,0 -0.85938,0.3125 -0.35937,0.2969 -0.5625,1.0782 -0.26562,1.0156 -0.26562,3.4062 0,2.3906 0.23437,3.2813 0.25,0.8906 0.60938,1.1875 0.35937,0.2968 0.84375,0.2968 0.46875,0 0.82812,-0.2968 0.375,-0.2969 0.59375,-1.0782 0.26563,-1 0.26563,-3.3906 0,-2.3906 -0.25,-3.2812 -0.23438,-0.9063 -0.60938,-1.2032 -0.35937,-0.3125 -0.82812,-0.3125 z" />
  <path
     style="fill:#0000ff;fill-opacity:1;fill-rule:nonzero;stroke:none"
     inkscape:connector-curvature="0"
     id="path291-1-2-5-7-8"
     d="m 343.22822,37.09613 q 1.96875,0 3.07813,1.4062 1.32812,1.6719 1.32812,5.5469 0,3.8594 -1.32812,5.5469 -1.10938,1.3906 -3.07813,1.3906 -1.98437,0 -3.20312,-1.5313 -1.21875,-1.5312 -1.21875,-5.4375 0,-3.8437 1.34375,-5.5312 1.09375,-1.3906 3.07812,-1.3906 z m 0,2.1562 q -0.48437,0 -0.85937,0.3125 -0.35938,0.2969 -0.5625,1.0781 -0.26563,1.0157 -0.26563,3.4063 0,2.3906 0.23438,3.2812 0.25,0.8907 0.60937,1.1875 0.35938,0.2969 0.84375,0.2969 0.46875,0 0.82813,-0.2969 0.375,-0.2968 0.59375,-1.0781 0.26562,-1 0.26562,-3.3906 0,-2.3906 -0.25,-3.2813 -0.23437,-0.9062 -0.60937,-1.2031 -0.35938,-0.3125 -0.82813,-0.3125 z" />
  <path
     style="fill:#0000ff;fill-opacity:1;fill-rule:nonzero;stroke:none"
     inkscape:connector-curvature="0"
     id="path291-1-2-4-3-0"
     d="m 429.29889,37.09613 q 1.96875,0 3.07812,1.4062 1.32813,1.6719 1.32813,5.5469 0,3.8594 -1.32813,5.5469 -1.10937,1.3906 -3.07812,1.3906 -1.98438,0 -3.20313,-1.5313 -1.21875,-1.5312 -1.21875,-5.4375 0,-3.8437 1.34375,-5.5312 1.09375,-1.3906 3.07813,-1.3906 z m 0,2.1562 q -0.48438,0 -0.85938,0.3125 -0.35937,0.2969 -0.5625,1.0781 -0.26562,1.0157 -0.26562,3.4063 0,2.3906 0.23437,3.2812 0.25,0.8907 0.60938,1.1875 0.35937,0.2969 0.84375,0.2969 0.46875,0 0.82812,-0.2969 0.375,-0.2968 0.59375,-1.0781 0.26563,-1 0.26563,-3.3906 0,-2.3906 -0.25,-3.2813 -0.23438,-0.9062 -0.60938,-1.2031 -0.35937,-0.3125 -0.82812,-0.3125 z" />
  <path
     style="fill:#0000ff;fill-opacity:1;fill-rule:nonzero;stroke:none"
     inkscape:connector-curvature="0"
     id="path105-9-4-2-1-47-3-2"
     d="m 514.59061,23.77346 -2.60938,0 0,-9.8281 q -1.4375,1.3437 -3.375,1.98429 l 0,-2.375 q 1.03125,-0.3281 2.21875,-1.25 1.20313,-0.9375 1.64063,-2.1875 l 2.125,0 0,13.6563 z" />
  <g
     id="g3983"
     transform="matrix(0.74070785,0,0,0.98585954,577.05199,-361.36816)">
    <g
       word-spacing="normal"
       letter-spacing="normal"
       font-size-adjust="none"
       font-stretch="normal"
       font-weight="normal"
       font-variant="normal"
       font-style="normal"
       stroke-miterlimit="10.433"
       xml:space="preserve"
       transform="matrix(0.5191112,0,0,-0.5191112,-90.84446,603.2677)"
       id="g3985"
       style="font-style:normal;font-variant:normal;font-weight:normal;font-stretch:normal;letter-spacing:normal;word-spacing:normal;text-anchor:start;fill:none;stroke:#000000;stroke-linecap:butt;stroke-linejoin:miter;stroke-miterlimit:10.43299961;stroke-opacity:1;stroke-dasharray:none;stroke-dashoffset:0"><path
         id="path3987"
         d="m 465.79,426.12 h 4.68 c 0.99,0 1.49,0 1.49,1 0,0.55 -0.5,0.55 -1.39,0.55 h -4.39 c 1.79,7.08 2.04,8.08 2.04,8.37 0,0.85 -0.59,1.35 -1.43,1.35 -0.16,0 -1.55,-0.05 -2,-1.8 l -1.94,-7.92 h -4.69 c -1,0 -1.5,0 -1.5,-0.94 0,-0.61 0.41,-0.61 1.41,-0.61 h 4.37 c -3.58,-14.14 -3.78,-14.98 -3.78,-15.89 0,-2.69 1.89,-4.58 4.58,-4.58 5.08,0 7.92,7.27 7.92,7.67 0,0.5 -0.39,0.5 -0.59,0.5 -0.46,0 -0.5,-0.15 -0.75,-0.7 -2.14,-5.17 -4.78,-6.37 -6.47,-6.37 -1.05,0 -1.55,0.65 -1.55,2.29 0,1.19 0.09,1.55 0.3,2.39 z"
         inkscape:connector-curvature="0"
         style="fill:#000000;stroke-width:0" /><path
         id="path3989"
         d="m 488.64,401.59 -0.01,-0.07 -0.02,-0.07 -0.02,-0.07 -0.02,-0.07 -0.01,-0.08 -0.02,-0.08 -0.04,-0.15 -0.04,-0.17 -0.04,-0.16 -0.04,-0.16 -0.02,-0.07 -0.02,-0.08 -0.02,-0.08 -0.02,-0.07 -0.02,-0.07 -0.01,-0.07 -0.02,-0.07 -0.01,-0.06 -0.02,-0.06 -0.01,-0.06 -0.01,-0.05 -0.01,-0.05 -0.01,-0.04 -0.01,-0.04 0,-0.04 -0.01,-0.03 0,-0.02 0,-0.02 c 0,-0.77 0.63,-1.11 1.17,-1.11 0.64,0 1.19,0.45 1.36,0.76 0.19,0.32 0.45,1.43 0.64,2.16 0.17,0.66 0.55,2.27 0.77,3.14 0.2,0.77 0.4,1.53 0.59,2.33 0.38,1.5 0.38,1.56 1.08,2.65 1.11,1.71 2.86,3.69 5.56,3.69 1.96,0 2.06,-1.61 2.06,-2.44 0,-2.09 -1.5,-5.95 -2.06,-7.42 -0.37,-0.98 -0.51,-1.29 -0.51,-1.89 0,-1.84 1.53,-2.98 3.31,-2.98 3.48,0 5.01,4.79 5.01,5.33 0,0.45 -0.45,0.45 -0.56,0.45 -0.48,0 -0.51,-0.2 -0.65,-0.59 -0.8,-2.79 -2.3,-4.22 -3.69,-4.22 -0.74,0 -0.88,0.48 -0.88,1.22 0,0.79 0.18,1.25 0.8,2.82 0.42,1.08 1.84,4.77 1.84,6.72 0,0.56 0,2.03 -1.28,3.03 -0.59,0.46 -1.61,0.94 -3.25,0.94 -3.12,0 -5.04,-2.05 -6.15,-3.51 -0.28,2.96 -2.77,3.51 -4.53,3.51 -2.9,0 -4.85,-1.76 -5.9,-3.16 -0.25,2.4 -2.29,3.16 -3.73,3.16 -1.5,0 -2.3,-1.08 -2.75,-1.87 -0.77,-1.29 -1.25,-3.29 -1.25,-3.46 0,-0.45 0.48,-0.45 0.59,-0.45 0.49,0 0.52,0.11 0.77,1.05 0.52,2.06 1.19,3.76 2.55,3.76 0.9,0 1.14,-0.76 1.14,-1.7 0,-0.67 -0.32,-1.95 -0.57,-2.89 -0.23,-0.95 -0.57,-2.38 -0.76,-3.14 l -1.11,-4.47 c -0.14,-0.44 -0.34,-1.31 -0.34,-1.42 0,-0.77 0.62,-1.11 1.18,-1.11 0.63,0 1.18,0.45 1.36,0.76 0.17,0.32 0.46,1.43 0.63,2.16 0.17,0.66 0.54,2.27 0.76,3.14 0.21,0.77 0.43,1.53 0.6,2.33 0.37,1.44 0.45,1.7 1.45,3.14 0.98,1.39 2.63,3.2 5.23,3.2 2.02,0 2.05,-1.78 2.05,-2.44 0,-0.87 -0.09,-1.32 -0.59,-3.28 z"
         inkscape:connector-curvature="0"
         style="fill:#000000;stroke-width:0" /><path
         id="path3991"
         d="m 540.98,406.64 -0.4,-0.31 -0.38,-0.31 -0.36,-0.31 -0.33,-0.33 -0.32,-0.32 -0.3,-0.33 -0.28,-0.33 -0.26,-0.33 -0.24,-0.33 -0.23,-0.32 -0.21,-0.33 -0.2,-0.32 -0.18,-0.32 -0.16,-0.31 -0.15,-0.3 -0.14,-0.29 -0.12,-0.29 -0.11,-0.27 -0.11,-0.27 -0.08,-0.25 -0.08,-0.24 -0.07,-0.22 -0.06,-0.21 -0.05,-0.19 -0.05,-0.17 -0.03,-0.15 -0.03,-0.14 -0.02,-0.11 -0.02,-0.09 -0.01,-0.07 0,-0.04 0,-0.02 c 0,-0.51 0.34,-0.51 0.82,-0.51 0.63,0 0.74,0 0.91,0.59 0.22,0.88 0.77,3.1 2.58,5.02 2.03,2.12 3.76,2.65 5.23,3.11 0.21,0.06 0.35,0.26 0.35,0.45 0,0.34 -0.21,0.41 -0.66,0.55 -5.01,1.61 -6.8,5.15 -7.53,8.22 -0.14,0.42 -0.39,0.42 -0.88,0.42 -0.48,0 -0.82,0 -0.82,-0.52 0,-0.08 0.34,-2.4 2.04,-4.81 0.81,-1.19 1.78,-2.16 2.94,-3 H 513 c -0.57,0 -1.39,0 -1.39,-0.83 0,-0.87 0.79,-0.87 1.39,-0.87 z"
         inkscape:connector-curvature="0"
         style="fill:#000000;stroke-width:0" /><path
         id="path3993"
         d="m 563.9,412.11 -0.11,-0.03 -0.12,-0.02 -0.1,-0.03 -0.11,-0.04 -0.1,-0.03 -0.09,-0.04 -0.09,-0.05 -0.09,-0.05 -0.08,-0.05 -0.08,-0.05 -0.08,-0.06 -0.07,-0.06 -0.06,-0.06 -0.07,-0.07 -0.06,-0.06 -0.05,-0.07 -0.05,-0.07 -0.05,-0.07 -0.05,-0.07 -0.04,-0.08 -0.04,-0.07 -0.03,-0.08 -0.03,-0.07 -0.03,-0.08 -0.02,-0.07 -0.02,-0.08 -0.02,-0.08 -0.01,-0.07 -0.02,-0.08 0,-0.07 -0.01,-0.08 0,-0.07 c 0,-0.94 0.73,-1.28 1.36,-1.28 0.77,0 1.99,0.55 1.99,2.22 0,2.37 -2.72,3.03 -4.6,3.03 -5.23,0 -10.08,-4.8 -10.08,-9.64 0,-3 2.1,-6.06 6.46,-6.06 5.89,0 8.64,3.44 8.64,3.94 0,0.2 -0.32,0.59 -0.6,0.59 -0.2,0 -0.28,-0.08 -0.56,-0.36 -2.72,-3.2 -6.8,-3.2 -7.42,-3.2 -2.5,0 -3.63,1.7 -3.63,3.87 0,1 0.5,4.8 2.32,7.2 1.31,1.72 3.12,2.69 4.87,2.69 0.48,0 2.16,-0.06 3.03,-1.04 z"
         inkscape:connector-curvature="0"
         style="fill:#000000;stroke-width:0" /></g>  </g>
  <g
     transform="matrix(0.84942139,0,0,0.84231287,560.72017,-278.18567)"
     id="g4346">
    <g
       style="font-style:normal;font-variant:normal;font-weight:normal;font-stretch:normal;letter-spacing:normal;word-spacing:normal;text-anchor:start;fill:none;stroke:#000000;stroke-linecap:butt;stroke-linejoin:miter;stroke-miterlimit:10.43299961;stroke-opacity:1;stroke-dasharray:none;stroke-dashoffset:0"
       id="content"
       transform="matrix(0.5191112,0,0,-0.5191112,-90.84446,603.2677)"
       xml:space="preserve"
       stroke-miterlimit="10.433"
       font-style="normal"
       font-variant="normal"
       font-weight="normal"
       font-stretch="normal"
       font-size-adjust="none"
       letter-spacing="normal"
       word-spacing="normal"><path
         style="fill:#000000;stroke-width:0"
         inkscape:connector-curvature="0"
         d="m 465.79,426.12 h 4.68 c 0.99,0 1.49,0 1.49,1 0,0.55 -0.5,0.55 -1.39,0.55 h -4.39 c 1.79,7.08 2.04,8.08 2.04,8.37 0,0.85 -0.59,1.35 -1.43,1.35 -0.16,0 -1.55,-0.05 -2,-1.8 l -1.94,-7.92 h -4.69 c -1,0 -1.5,0 -1.5,-0.94 0,-0.61 0.41,-0.61 1.41,-0.61 h 4.37 c -3.58,-14.14 -3.78,-14.98 -3.78,-15.89 0,-2.69 1.89,-4.58 4.58,-4.58 5.08,0 7.92,7.27 7.92,7.67 0,0.5 -0.39,0.5 -0.59,0.5 -0.46,0 -0.5,-0.15 -0.75,-0.7 -2.14,-5.17 -4.78,-6.37 -6.47,-6.37 -1.05,0 -1.55,0.65 -1.55,2.29 0,1.19 0.09,1.55 0.3,2.39 z"
         id="path4349" /><path
         style="fill:#000000;stroke-width:0"
         inkscape:connector-curvature="0"
         d="m 487.71,412.53 h 3.4 c 0.71,0 1.16,0 1.16,0.76 0,0.49 -0.45,0.49 -1.08,0.49 h -3.25 c 0.81,4.42 1.08,6.03 1.36,7.04 0.17,0.77 0.94,1.5 1.78,1.5 0.03,0 0.97,0 1.64,-0.42 -1.43,-0.45 -1.53,-1.72 -1.53,-1.92 0,-0.77 0.6,-1.28 1.39,-1.28 0.94,0 1.99,0.8 1.99,2.12 0,1.6 -1.71,2.47 -3.49,2.47 -1.53,0 -3.23,-0.87 -4.19,-2.61 -0.68,-1.29 -0.96,-2.86 -1.7,-6.9 h -2.75 c -0.7,0 -1.15,0 -1.15,-0.77 0,-0.48 0.45,-0.48 1.07,-0.48 h 2.58 c -0.03,-0.22 -2.22,-12.75 -3.06,-16.49 -0.17,-0.76 -0.77,-3.4 -2.44,-3.4 -0.03,0 -0.87,0 -1.53,0.4 1.42,0.46 1.53,1.72 1.53,1.92 0,0.77 -0.59,1.29 -1.39,1.29 -0.94,0 -1.98,-0.8 -1.98,-2.13 0,-1.56 1.64,-2.47 3.37,-2.47 2.24,0 3.77,2.3 4.19,3.06 1.25,2.35 2.05,6.63 2.12,7.05 z"
         id="path4351" /><path
         style="fill:#000000;stroke-width:0"
         inkscape:connector-curvature="0"
         d="m 528.98,406.64 -0.4,-0.31 -0.38,-0.31 -0.36,-0.31 -0.33,-0.33 -0.32,-0.32 -0.3,-0.33 -0.28,-0.33 -0.26,-0.33 -0.24,-0.33 -0.23,-0.32 -0.21,-0.33 -0.2,-0.32 -0.18,-0.32 -0.16,-0.31 -0.15,-0.3 -0.14,-0.29 -0.12,-0.29 -0.11,-0.27 -0.11,-0.27 -0.08,-0.25 -0.08,-0.24 -0.07,-0.22 -0.06,-0.21 -0.05,-0.19 -0.05,-0.17 -0.03,-0.15 -0.03,-0.14 -0.02,-0.11 -0.02,-0.09 -0.01,-0.07 0,-0.04 0,-0.02 c 0,-0.51 0.34,-0.51 0.82,-0.51 0.63,0 0.74,0 0.91,0.59 0.22,0.88 0.77,3.1 2.58,5.02 2.03,2.12 3.76,2.65 5.23,3.11 0.21,0.06 0.35,0.26 0.35,0.45 0,0.34 -0.21,0.41 -0.66,0.55 -5.01,1.61 -6.8,5.15 -7.53,8.22 -0.14,0.42 -0.39,0.42 -0.88,0.42 -0.48,0 -0.82,0 -0.82,-0.52 0,-0.08 0.34,-2.4 2.04,-4.81 0.81,-1.19 1.78,-2.16 2.94,-3 H 501 c -0.57,0 -1.39,0 -1.39,-0.83 0,-0.87 0.79,-0.87 1.39,-0.87 z"
         id="path4353" /><path
         style="fill:#000000;stroke-width:0"
         inkscape:connector-curvature="0"
         d="m 551.9,412.11 -0.11,-0.03 -0.12,-0.02 -0.1,-0.03 -0.11,-0.04 -0.1,-0.03 -0.09,-0.04 -0.09,-0.05 -0.09,-0.05 -0.08,-0.05 -0.08,-0.05 -0.08,-0.06 -0.07,-0.06 -0.06,-0.06 -0.07,-0.07 -0.06,-0.06 -0.05,-0.07 -0.05,-0.07 -0.05,-0.07 -0.05,-0.07 -0.04,-0.08 -0.04,-0.07 -0.03,-0.08 -0.03,-0.07 -0.03,-0.08 -0.02,-0.07 -0.02,-0.08 -0.02,-0.08 -0.01,-0.07 -0.02,-0.08 0,-0.07 -0.01,-0.08 0,-0.07 c 0,-0.94 0.73,-1.28 1.36,-1.28 0.77,0 1.99,0.55 1.99,2.22 0,2.37 -2.72,3.03 -4.6,3.03 -5.23,0 -10.08,-4.8 -10.08,-9.64 0,-3 2.1,-6.06 6.46,-6.06 5.89,0 8.64,3.44 8.64,3.94 0,0.2 -0.32,0.59 -0.6,0.59 -0.2,0 -0.28,-0.08 -0.56,-0.36 -2.72,-3.2 -6.8,-3.2 -7.42,-3.2 -2.5,0 -3.63,1.7 -3.63,3.87 0,1 0.5,4.8 2.32,7.2 1.31,1.72 3.12,2.69 4.87,2.69 0.48,0 2.16,-0.06 3.03,-1.04 z"
         id="path4355" /></g>  </g>
  <path
     style="fill:#0000ff;fill-rule:nonzero;stroke:none"
     inkscape:connector-curvature="0"
     id="path291-8-5-2"
     d="m 259.33119,10.00001 q 1.9688,0 3.0781,1.4063 1.3282,1.6718 1.3282,5.5468 0,3.8594 -1.3282,5.5469 -1.1093,1.3906 -3.0781,1.3906 -1.9844,0 -3.2031,-1.5312 -1.2188,-1.5313 -1.2188,-5.4375 0,-3.8438 1.3438,-5.5313 1.0937,-1.3906 3.0781,-1.3906 z m 0,2.1563 q -0.4844,0 -0.8594,0.3125 -0.3593,0.2968 -0.5625,1.0781 -0.2656,1.0156 -0.2656,3.4062 0,2.3907 0.2344,3.2813 0.25,0.8906 0.6094,1.1875 0.3593,0.2969 0.8437,0.2969 0.4688,0 0.8281,-0.2969 0.375,-0.2969 0.5938,-1.0781 0.2656,-1 0.2656,-3.3907 0,-2.3906 -0.25,-3.2812 -0.2344,-0.9063 -0.6094,-1.2031 -0.3593,-0.3125 -0.8281,-0.3125 z" />
  <path
     style="fill:#0000ff;fill-rule:nonzero;stroke:none"
     inkscape:connector-curvature="0"
     id="path291-8-4-7-6"
     d="m 174.25667,10.00001 q 1.96875,0 3.07812,1.4063 1.32813,1.6718 1.32813,5.5468 0,3.8594 -1.32813,5.5469 -1.10937,1.3906 -3.07812,1.3906 -1.98438,0 -3.20313,-1.5312 -1.21875,-1.5313 -1.21875,-5.4375 0,-3.8438 1.34375,-5.5313 1.09375,-1.3906 3.07813,-1.3906 z m 0,2.1563 q -0.48438,0 -0.85938,0.3125 -0.35937,0.2968 -0.5625,1.0781 -0.26562,1.0156 -0.26562,3.4062 0,2.3907 0.23437,3.2813 0.25,0.8906 0.60938,1.1875 0.35937,0.2969 0.84375,0.2969 0.46875,0 0.82812,-0.2969 0.375,-0.2969 0.59375,-1.0781 0.26563,-1 0.26563,-3.3907 0,-2.3906 -0.25,-3.2812 -0.23438,-0.9063 -0.60938,-1.2031 -0.35937,-0.3125 -0.82812,-0.3125 z" />
  <path
     style="fill:#0000ff;fill-opacity:1;fill-rule:nonzero;stroke:none"
     inkscape:connector-curvature="0"
     id="path291-1-2-4-3-0-5"
     d="m 88.664517,10 q 1.96875,0 3.07812,1.40621 1.32813,1.67189 1.32813,5.54689 0,3.8594 -1.32813,5.5469 -1.10937,1.3906 -3.07812,1.3906 -1.98438,0 -3.20313,-1.53129 -1.21875,-1.53121 -1.21875,-5.4375 0,-3.84371 1.34375,-5.53121 Q 86.680137,10 88.664517,10 z m 0,2.15621 q -0.48438,0 -0.85938,0.3125 -0.35937,0.29689 -0.5625,1.0781 -0.26562,1.0157 -0.26562,3.40629 0,2.39061 0.23437,3.28121 0.25,0.8907 0.60938,1.1875 0.35937,0.2969 0.84375,0.2969 0.46875,0 0.82812,-0.2969 0.375,-0.2968 0.59375,-1.0781 0.26563,-1 0.26563,-3.39061 0,-2.3906 -0.25,-3.28129 -0.23438,-0.90621 -0.60938,-1.2031 -0.35937,-0.3125 -0.82812,-0.3125 z" />
  <path
     style="fill:#0000ff;fill-rule:nonzero;stroke:none"
     inkscape:connector-curvature="0"
     id="path291-8-5-2-5"
     d="m 259.33119,37.09613 q 1.9688,0 3.0781,1.4063 1.3282,1.6718 1.3282,5.5468 0,3.8594 -1.3282,5.5469 -1.1093,1.3906 -3.0781,1.3906 -1.9844,0 -3.2031,-1.5312 -1.2188,-1.5313 -1.2188,-5.4375 0,-3.8438 1.3438,-5.5313 1.0937,-1.3906 3.0781,-1.3906 z m 0,2.1563 q -0.4844,0 -0.8594,0.3125 -0.3593,0.2968 -0.5625,1.0781 -0.2656,1.0156 -0.2656,3.4062 0,2.3907 0.2344,3.2813 0.25,0.8906 0.6094,1.1875 0.3593,0.2969 0.8437,0.2969 0.4688,0 0.8281,-0.2969 0.375,-0.2969 0.5938,-1.0781 0.2656,-1 0.2656,-3.3907 0,-2.3906 -0.25,-3.2812 -0.2344,-0.9063 -0.6094,-1.2031 -0.3593,-0.3125 -0.8281,-0.3125 z" />
  <path
     style="fill:#ffffff;fill-opacity:1;fill-rule:nonzero;stroke:none"
     inkscape:connector-curvature="0"
     id="path291-1-2-4-3-0-5-4"
     d="m 4.4218753,0 q 1.9687494,0 3.078119,1.40621 1.3281296,1.67189 1.3281296,5.54689 0,3.8594 -1.3281296,5.5469 -1.1093696,1.3906 -3.078119,1.3906 -1.98438,0 -3.20313,-1.53129 Q -4.7781472e-6,10.8281 -4.7781472e-6,6.92181 -4.7781472e-6,3.0781 1.3437453,1.3906 2.4374953,0 4.4218753,0 z m 0,2.15621 q -0.48438,0 -0.85938,0.3125 -0.35937,0.29689 -0.5625,1.0781 -0.26562,1.0157 -0.26562,3.40629 0,2.39061 0.23437,3.28121 0.25,0.8907 0.60938,1.1875 0.35937,0.2969 0.84375,0.2969 0.46875,0 0.8281196,-0.2969 0.375,-0.2968 0.59375,-1.0781 0.2656298,-1 0.2656298,-3.39061 0,-2.3906 -0.2499998,-3.28129 -0.23438,-0.90621 -0.60938,-1.2031 -0.3593696,-0.3125 -0.8281196,-0.3125 z" />
  <path
     d="m 797.58973,0.99012996 q 1.96875,0 3.07812,1.40621004 1.32812,1.67189 1.32812,5.5468898 0,3.8594002 -1.32812,5.5469002 -1.10937,1.3906 -3.07812,1.3906 -1.98438,0 -3.20313,-1.53129 -1.21875,-1.53121 -1.21875,-5.4375002 0,-3.8437098 1.34375,-5.5312098 1.09375,-1.39060004 3.07813,-1.39060004 z m 0,2.15621004 q -0.48438,0 -0.85938,0.3125 -0.35937,0.29689 -0.5625,1.0781 -0.26562,1.0157 -0.26562,3.4062898 0,2.3906102 0.23437,3.2812102 0.25,0.8907 0.60938,1.1875 0.35937,0.2969 0.84375,0.2969 0.46875,0 0.82812,-0.2969 0.375,-0.2968 0.59375,-1.0781 0.26563,-1 0.26563,-3.3906102 0,-2.3905998 -0.25,-3.2812898 -0.23438,-0.90621 -0.60938,-1.2031 -0.35937,-0.3125 -0.82812,-0.3125 z"
     id="path3151"
     inkscape:connector-curvature="0"
     style="fill:#ffffff;fill-opacity:1;fill-rule:nonzero;stroke:none" />
</svg>
