<?xml version="1.0" encoding="UTF-8" standalone="no"?>
<svg
   xmlns:dc="http://purl.org/dc/elements/1.1/"
   xmlns:cc="http://creativecommons.org/ns#"
   xmlns:rdf="http://www.w3.org/1999/02/22-rdf-syntax-ns#"
   xmlns:svg="http://www.w3.org/2000/svg"
   xmlns="http://www.w3.org/2000/svg"
   xmlns:sodipodi="http://sodipodi.sourceforge.net/DTD/sodipodi-0.dtd"
   xmlns:inkscape="http://www.inkscape.org/namespaces/inkscape"
   style="fill:none;stroke:none"
   height="72.001686"
   width="802"
   sodipodi:docname="trio-phasing-complete-haplotype2.svg"
   inkscape:version="0.48.5 r10040"
   id="svg2"
   stroke-miterlimit="10"
   viewBox="0 0 802 72.001687"
   version="1.1">
  <sodipodi:namedview
     pagecolor="#ffffff"
     bordercolor="#666666"
     borderopacity="1"
     objecttolerance="10"
     gridtolerance="10"
     guidetolerance="10"
     inkscape:pageopacity="0"
     inkscape:pageshadow="2"
     inkscape:window-width="2560"
     inkscape:window-height="1385"
     id="namedview295"
     showgrid="true"
     inkscape:zoom="1.4142136"
     inkscape:cx="218.41691"
     inkscape:cy="-6.8028554"
     inkscape:window-x="-2"
     inkscape:window-y="-3"
     inkscape:window-maximized="1"
     inkscape:current-layer="svg2"
     showguides="true"
     inkscape:guide-bbox="true"
     fit-margin-top="0"
     fit-margin-left="0"
     fit-margin-right="0"
     fit-margin-bottom="0"
     inkscape:snap-grids="true"
     inkscape:snap-to-guides="true"
     inkscape:snap-bbox="true"
     inkscape:snap-page="true">
    <inkscape:grid
       type="xygrid"
       id="grid4427"
       originx="-163.95332px"
       originy="599.99999px"
       empspacing="5"
       visible="true"
       enabled="true"
       snapvisiblegridlinesonly="true" />
  </sodipodi:namedview>
  <metadata
     id="metadata299">
    <rdf:RDF>
      <cc:Work
         rdf:about="">
        <dc:format>image/svg+xml</dc:format>
        <dc:type
           rdf:resource="http://purl.org/dc/dcmitype/StillImage" />
        <dc:title />
      </cc:Work>
    </rdf:RDF>
  </metadata>
  <defs
     id="defs297" />
  <clipPath
     id="p.0">
    <path
       d="M 0,0 960,0 960,720 0,720 0,0 z"
       id="path5"
       inkscape:connector-curvature="0" />
  </clipPath>
  <rect
     style="fill:#924900;fill-opacity:1;stroke:none"
     id="rect6453-3-2-6-0"
     width="620.08417"
     height="13.152132"
     x="25.949093"
     y="45.074589"
     ry="4.0740433" />
  <rect
     style="fill:#6db6ff;fill-opacity:1;stroke:none"
     id="rect6453-3-2-6"
     width="620.08417"
     height="13.152132"
     x="25.949093"
     y="29.037754"
     ry="4.0740433" />
  <path
     style="fill:#000000;fill-opacity:0;fill-rule:nonzero"
     inkscape:connector-curvature="0"
     id="path113"
     d="m 620.93799,20.558089 161.06122,0 0,37.3921 -161.06122,0 z" />
  <text
     xml:space="preserve"
     style="font-size:16.85599136px;font-style:normal;font-variant:normal;font-weight:normal;font-stretch:normal;line-height:125%;letter-spacing:0px;word-spacing:0px;fill:#000000;fill-opacity:1;stroke:none;font-family:Sans;-inkscape-font-specification:Sans"
     x="65.071365"
     y="21.124411"
     id="text4572-2-2-0-8"
     sodipodi:linespacing="125%"
     transform="scale(1.0680144,0.93631696)"><tspan
       sodipodi:role="line"
       id="tspan4574-34-4-2-9"
       x="65.071365"
       y="21.124411">0/0</tspan></text>
  <text
     xml:space="preserve"
     style="font-size:16.85599136px;font-style:normal;font-variant:normal;font-weight:normal;font-stretch:normal;line-height:125%;letter-spacing:0px;word-spacing:0px;fill:#000000;fill-opacity:1;stroke:none;font-family:Sans;-inkscape-font-specification:Sans"
     x="144.98125"
     y="21.124411"
     id="text4572-2-2-0-7"
     sodipodi:linespacing="125%"
     transform="scale(1.0680144,0.93631696)"><tspan
       sodipodi:role="line"
       id="tspan4574-34-4-2-2"
       x="144.98125"
       y="21.124411">0/0</tspan></text>
  <text
     xml:space="preserve"
     style="font-size:16.85599136px;font-style:normal;font-variant:normal;font-weight:normal;font-stretch:normal;line-height:125%;letter-spacing:0px;word-spacing:0px;fill:#000000;fill-opacity:1;stroke:none;font-family:Sans;-inkscape-font-specification:Sans"
     x="544.5307"
     y="21.124411"
     id="text4572-2-2-0-1"
     sodipodi:linespacing="125%"
     transform="scale(1.0680144,0.93631696)"><tspan
       sodipodi:role="line"
       id="tspan4574-34-4-2-8"
       x="544.5307"
       y="21.124411">0/0</tspan></text>
  <text
     xml:space="preserve"
     style="font-size:16.85599136px;font-style:normal;font-variant:normal;font-weight:normal;font-stretch:normal;line-height:125%;letter-spacing:0px;word-spacing:0px;fill:#000000;fill-opacity:1;stroke:none;font-family:Sans;-inkscape-font-specification:Sans"
     x="384.71091"
     y="21.124411"
     id="text4572-2-2-0-0"
     sodipodi:linespacing="125%"
     transform="scale(1.0680144,0.93631696)"><tspan
       sodipodi:role="line"
       id="tspan4574-34-4-2-94"
       x="384.71091"
       y="21.124411">0/0</tspan></text>
  <text
     xml:space="preserve"
     style="font-size:16.85599136px;font-style:normal;font-variant:normal;font-weight:normal;font-stretch:normal;line-height:125%;letter-spacing:0px;word-spacing:0px;fill:#000000;fill-opacity:1;stroke:none;font-family:Sans;-inkscape-font-specification:Sans"
     x="464.86319"
     y="21.124411"
     id="text4572-2-2-9-8"
     sodipodi:linespacing="125%"
     transform="scale(1.0680144,0.93631696)"><tspan
       sodipodi:role="line"
       id="tspan4574-34-4-1-6"
       x="464.86319"
       y="21.124411">0/1</tspan></text>
  <text
     xml:space="preserve"
     style="font-size:16.85599136px;font-style:normal;font-variant:normal;font-weight:normal;font-stretch:normal;line-height:125%;letter-spacing:0px;word-spacing:0px;fill:#000000;fill-opacity:1;stroke:none;font-family:Sans;-inkscape-font-specification:Sans"
     x="305.16458"
     y="21.124411"
     id="text4572-2-2-9-82"
     sodipodi:linespacing="125%"
     transform="scale(1.0680144,0.93631696)"><tspan
       sodipodi:role="line"
       id="tspan4574-34-4-1-9"
       x="305.16458"
       y="21.124411">0/1</tspan></text>
  <text
     xml:space="preserve"
     style="font-size:16.85599136px;font-style:normal;font-variant:normal;font-weight:normal;font-stretch:normal;line-height:125%;letter-spacing:0px;word-spacing:0px;fill:#000000;fill-opacity:1;stroke:none;font-family:Sans;-inkscape-font-specification:Sans"
     x="227.96275"
     y="21.124411"
     id="text4572-2-7-1"
     sodipodi:linespacing="125%"
     transform="scale(1.0680144,0.93631696)"><tspan
       sodipodi:role="line"
       id="tspan4574-34-0-8"
       x="227.96275"
       y="21.124411">0/1</tspan></text>
  <rect
     style="fill:none;stroke:#000000;stroke-width:1.60041404;stroke-linejoin:round;stroke-miterlimit:4;stroke-opacity:1;stroke-dasharray:none;stroke-dashoffset:0"
     id="rect5757-4"
     width="800.3996"
     height="70.401276"
     x="0.80019772"
     y="0.80020702"
     ry="6.4001164" />
  <text
     xml:space="preserve"
     style="font-size:20px;font-style:normal;font-variant:normal;font-weight:normal;font-stretch:normal;line-height:125%;letter-spacing:0px;word-spacing:0px;fill:#000000;fill-opacity:1;stroke:none;font-family:Sans;-inkscape-font-specification:Sans"
     x="685.87634"
     y="49.253654"
     id="text4572-64-9-4"
     sodipodi:linespacing="125%"><tspan
       sodipodi:role="line"
       id="tspan4574-41-0-4"
       x="3.6469595e-07"
       y="-15.307121"
       style="font-size:27.5px;font-style:normal;font-variant:normal;font-weight:normal;font-stretch:normal;font-family:Sans;-inkscape-font-specification:Sans"><tspan
         style="font-size:17.87525177px;baseline-shift:sub"
         id="tspan3447" /></tspan></text>
  <path
     style="fill:#ffffff;fill-opacity:1;fill-rule:nonzero"
     inkscape:connector-curvature="0"
     id="path291-1-2"
     d="m 85.610678,45.458199 q 1.969017,0 3.078537,1.23297 1.328311,1.46593 1.328311,4.86356 0,3.38396 -1.328311,4.86357 -1.10952,1.21929 -3.078537,1.21929 -1.98465,0 -3.203565,-1.34257 -1.218915,-1.34265 -1.218915,-4.76764 0,-3.37028 1.343932,-4.84989 1.093898,-1.21929 3.078548,-1.21929 z m 0,1.89057 q -0.484446,0 -0.859497,0.274 -0.359419,0.26033 -0.562576,0.94538 -0.265656,0.89049 -0.265656,2.98658 0,2.0961 0.234401,2.87708 0.250034,0.78088 0.609463,1.04121 0.359419,0.26023 0.843865,0.26023 0.468813,0 0.828232,-0.26023 0.375051,-0.26033 0.593831,-0.94538 0.265666,-0.87681 0.265666,-2.97291 0,-2.09609 -0.250034,-2.87698 -0.234412,-0.79465 -0.609463,-1.05498 -0.359419,-0.274 -0.828232,-0.274 z" />
  <path
     style="fill:#ffffff;fill-opacity:1;fill-rule:nonzero"
     inkscape:connector-curvature="0"
     id="path291-1-2-6"
     d="m 170.95561,45.458199 q 1.96902,0 3.07854,1.23297 1.32831,1.46593 1.32831,4.86356 0,3.38396 -1.32831,4.86357 -1.10952,1.21929 -3.07854,1.21929 -1.98465,0 -3.20356,-1.34257 -1.21892,-1.34265 -1.21892,-4.76764 0,-3.37028 1.34393,-4.84989 1.0939,-1.21929 3.07855,-1.21929 z m 0,1.89057 q -0.48444,0 -0.8595,0.274 -0.35941,0.26033 -0.56257,0.94538 -0.26566,0.89049 -0.26566,2.98658 0,2.0961 0.2344,2.87708 0.25004,0.78088 0.60947,1.04121 0.35942,0.26023 0.84386,0.26023 0.46882,0 0.82823,-0.26023 0.37505,-0.26033 0.59383,-0.94538 0.26567,-0.87681 0.26567,-2.97291 0,-2.09609 -0.25003,-2.87698 -0.23442,-0.79465 -0.60947,-1.05498 -0.35941,-0.274 -0.82823,-0.274 z" />
  <path
     style="fill:#ffffff;fill-opacity:1;fill-rule:nonzero"
     inkscape:connector-curvature="0"
     id="path291-1-2-68"
     d="m 426.99033,45.458199 q 1.96901,0 3.07853,1.23297 1.32832,1.46593 1.32832,4.86356 0,3.38396 -1.32832,4.86357 -1.10952,1.21929 -3.07853,1.21929 -1.98465,0 -3.20357,-1.34257 -1.21891,-1.34265 -1.21891,-4.76764 0,-3.37028 1.34393,-4.84989 1.0939,-1.21929 3.07855,-1.21929 z m 0,1.89057 q -0.48445,0 -0.8595,0.274 -0.35942,0.26033 -0.56258,0.94538 -0.26565,0.89049 -0.26565,2.98658 0,2.0961 0.2344,2.87708 0.25003,0.78088 0.60946,1.04121 0.35942,0.26023 0.84387,0.26023 0.46881,0 0.82823,-0.26023 0.37505,-0.26033 0.59383,-0.94538 0.26567,-0.87681 0.26567,-2.97291 0,-2.09609 -0.25004,-2.87698 -0.23441,-0.79465 -0.60946,-1.05498 -0.35942,-0.274 -0.82823,-0.274 z" />
  <path
     style="fill:#ffffff;fill-opacity:1;fill-rule:nonzero"
     inkscape:connector-curvature="0"
     id="path291-1-2-3"
     d="m 597.6802,45.458199 q 1.96902,0 3.07854,1.23297 1.32831,1.46593 1.32831,4.86356 0,3.38396 -1.32831,4.86357 -1.10952,1.21929 -3.07854,1.21929 -1.98465,0 -3.20356,-1.34257 -1.21892,-1.34265 -1.21892,-4.76764 0,-3.37028 1.34393,-4.84989 1.0939,-1.21929 3.07855,-1.21929 z m 0,1.89057 q -0.48444,0 -0.8595,0.274 -0.35941,0.26033 -0.56257,0.94538 -0.26566,0.89049 -0.26566,2.98658 0,2.0961 0.2344,2.87708 0.25004,0.78088 0.60947,1.04121 0.35942,0.26023 0.84386,0.26023 0.46881,0 0.82823,-0.26023 0.37505,-0.26033 0.59383,-0.94538 0.26567,-0.87681 0.26567,-2.97291 0,-2.09609 -0.25003,-2.87698 -0.23442,-0.79465 -0.60947,-1.05498 -0.35942,-0.274 -0.82823,-0.274 z" />
  <path
     style="fill:#ffffff;fill-opacity:1;fill-rule:nonzero"
     inkscape:connector-curvature="0"
     id="path105-9-4-7"
     d="m 344.75965,57.637589 -2.60974,0 0,-8.61736 q -1.43769,1.17817 -3.37545,1.73994 l 0,-2.08242 q 1.03139,-0.28777 2.21905,-1.09601 1.20329,-0.82201 1.64085,-1.91802 l 2.12529,0 0,11.97387 z" />
  <path
     style="fill:#ffffff;fill-opacity:1;fill-rule:nonzero"
     inkscape:connector-curvature="0"
     id="path105-9-4-2"
     d="m 515.32009,57.637589 -2.60973,0 0,-8.61736 q -1.4377,1.17817 -3.37546,1.73994 l 0,-2.08242 q 1.03139,-0.28777 2.21905,-1.09601 1.2033,-0.82201 1.64086,-1.91802 l 2.12528,0 0,11.97387 z" />
  <path
     style="fill:#ffffff;fill-opacity:1;fill-rule:nonzero"
     inkscape:connector-curvature="0"
     id="path291-1-2-61"
     d="m 85.610678,29.524149 q 1.969017,0 3.078537,1.23297 1.328311,1.46594 1.328311,4.86357 0,3.38395 -1.328311,4.86357 -1.10952,1.21929 -3.078537,1.21929 -1.98465,0 -3.203565,-1.34266 -1.218915,-1.34257 -1.218915,-4.76765 0,-3.37018 1.343932,-4.8498 1.093898,-1.21929 3.078548,-1.21929 z m 0,1.89058 q -0.484446,0 -0.859497,0.274 -0.359419,0.26032 -0.562576,0.94529 -0.265656,0.89057 -0.265656,2.98667 0,2.0961 0.234401,2.87698 0.250034,0.78098 0.609463,1.04121 0.359419,0.26033 0.843865,0.26033 0.468813,0 0.828232,-0.26033 0.375051,-0.26023 0.593831,-0.94529 0.265666,-0.8768 0.265666,-2.9729 0,-2.0961 -0.250034,-2.87707 -0.234412,-0.79457 -0.609463,-1.05489 -0.359419,-0.274 -0.828232,-0.274 z" />
  <path
     style="fill:#ffffff;fill-opacity:1;fill-rule:nonzero"
     inkscape:connector-curvature="0"
     id="path291-1-2-1"
     d="m 170.95561,29.524149 q 1.96902,0 3.07854,1.23297 1.32831,1.46594 1.32831,4.86357 0,3.38395 -1.32831,4.86357 -1.10952,1.21929 -3.07854,1.21929 -1.98465,0 -3.20356,-1.34266 -1.21892,-1.34257 -1.21892,-4.76765 0,-3.37018 1.34393,-4.8498 1.0939,-1.21929 3.07855,-1.21929 z m 0,1.89058 q -0.48444,0 -0.8595,0.274 -0.35941,0.26032 -0.56257,0.94529 -0.26566,0.89057 -0.26566,2.98667 0,2.0961 0.2344,2.87698 0.25004,0.78098 0.60947,1.04121 0.35942,0.26033 0.84386,0.26033 0.46882,0 0.82823,-0.26033 0.37505,-0.26023 0.59383,-0.94529 0.26567,-0.8768 0.26567,-2.9729 0,-2.0961 -0.25003,-2.87707 -0.23442,-0.79457 -0.60947,-1.05489 -0.35941,-0.274 -0.82823,-0.274 z" />
  <path
     style="fill:#ffffff;fill-opacity:1;fill-rule:nonzero"
     inkscape:connector-curvature="0"
     id="path291-1-2-5"
     d="m 341.77486,29.524149 q 1.96902,0 3.07855,1.23297 1.3283,1.46594 1.3283,4.86357 0,3.38395 -1.3283,4.86357 -1.10953,1.21929 -3.07855,1.21929 -1.98464,0 -3.20355,-1.34266 -1.21892,-1.34257 -1.21892,-4.76765 0,-3.37018 1.34393,-4.8498 1.0939,-1.21929 3.07854,-1.21929 z m 0,1.89058 q -0.48443,0 -0.85948,0.274 -0.35943,0.26032 -0.56258,0.94529 -0.26567,0.89057 -0.26567,2.98667 0,2.0961 0.23442,2.87698 0.25003,0.78098 0.60945,1.04121 0.35943,0.26033 0.84386,0.26033 0.46882,0 0.82825,-0.26033 0.37505,-0.26023 0.59383,-0.94529 0.26565,-0.8768 0.26565,-2.9729 0,-2.0961 -0.25003,-2.87707 -0.2344,-0.79457 -0.60945,-1.05489 -0.35943,-0.274 -0.82825,-0.274 z" />
  <path
     style="fill:#ffffff;fill-opacity:1;fill-rule:nonzero"
     inkscape:connector-curvature="0"
     id="path291-1-2-4"
     d="m 426.99033,29.524149 q 1.96901,0 3.07853,1.23297 1.32832,1.46594 1.32832,4.86357 0,3.38395 -1.32832,4.86357 -1.10952,1.21929 -3.07853,1.21929 -1.98465,0 -3.20357,-1.34266 -1.21891,-1.34257 -1.21891,-4.76765 0,-3.37018 1.34393,-4.8498 1.0939,-1.21929 3.07855,-1.21929 z m 0,1.89058 q -0.48445,0 -0.8595,0.274 -0.35942,0.26032 -0.56258,0.94529 -0.26565,0.89057 -0.26565,2.98667 0,2.0961 0.2344,2.87698 0.25003,0.78098 0.60946,1.04121 0.35942,0.26033 0.84387,0.26033 0.46881,0 0.82823,-0.26033 0.37505,-0.26023 0.59383,-0.94529 0.26567,-0.8768 0.26567,-2.9729 0,-2.0961 -0.25004,-2.87707 -0.23441,-0.79457 -0.60946,-1.05489 -0.35942,-0.274 -0.82823,-0.274 z" />
  <path
     style="fill:#ffffff;fill-opacity:1;fill-rule:nonzero"
     inkscape:connector-curvature="0"
     id="path291-1-2-7"
     d="m 512.33531,29.524149 q 1.96902,0 3.07854,1.23297 1.32831,1.46594 1.32831,4.86357 0,3.38395 -1.32831,4.86357 -1.10952,1.21929 -3.07854,1.21929 -1.98465,0 -3.20357,-1.34266 -1.21891,-1.34257 -1.21891,-4.76765 0,-3.37018 1.34393,-4.8498 1.0939,-1.21929 3.07855,-1.21929 z m 0,1.89058 q -0.48445,0 -0.8595,0.274 -0.35942,0.26032 -0.56257,0.94529 -0.26566,0.89057 -0.26566,2.98667 0,2.0961 0.2344,2.87698 0.25004,0.78098 0.60946,1.04121 0.35942,0.26033 0.84387,0.26033 0.46881,0 0.82823,-0.26033 0.37505,-0.26023 0.59383,-0.94529 0.26567,-0.8768 0.26567,-2.9729 0,-2.0961 -0.25004,-2.87707 -0.23441,-0.79457 -0.60946,-1.05489 -0.35942,-0.274 -0.82823,-0.274 z" />
  <path
     style="fill:#ffffff;fill-opacity:1;fill-rule:nonzero"
     inkscape:connector-curvature="0"
     id="path291-1-2-9"
     d="m 597.6802,29.524149 q 1.96902,0 3.07854,1.23297 1.32831,1.46594 1.32831,4.86357 0,3.38395 -1.32831,4.86357 -1.10952,1.21929 -3.07854,1.21929 -1.98465,0 -3.20356,-1.34266 -1.21892,-1.34257 -1.21892,-4.76765 0,-3.37018 1.34393,-4.8498 1.0939,-1.21929 3.07855,-1.21929 z m 0,1.89058 q -0.48444,0 -0.8595,0.274 -0.35941,0.26032 -0.56257,0.94529 -0.26566,0.89057 -0.26566,2.98667 0,2.0961 0.2344,2.87698 0.25004,0.78098 0.60947,1.04121 0.35942,0.26033 0.84386,0.26033 0.46881,0 0.82823,-0.26033 0.37505,-0.26023 0.59383,-0.94529 0.26567,-0.8768 0.26567,-2.9729 0,-2.0961 -0.25003,-2.87707 -0.23442,-0.79457 -0.60947,-1.05489 -0.35942,-0.274 -0.82823,-0.274 z" />
  <path
     style="fill:#ffffff;fill-opacity:1;fill-rule:nonzero"
     inkscape:connector-curvature="0"
     id="path105-9-4-2-1"
     d="m 259.28528,41.703549 -2.60974,0 0,-8.61736 q -1.43769,1.17816 -3.37545,1.73985 l 0,-2.08242 q 1.03139,-0.28768 2.21905,-1.09601 1.20329,-0.82201 1.64085,-1.91802 l 2.12529,0 0,11.97396 z" />
  <path
     style="fill:#ffffff;fill-opacity:1;fill-rule:nonzero;stroke:none"
     inkscape:connector-curvature="0"
     id="path291-1-2-6-4-49"
     d="m 256.30049,45.458149 q 1.96902,0 3.07854,1.23306 1.32831,1.46594 1.32831,4.86357 0,3.38386 -1.32831,4.86348 -1.10952,1.21938 -3.07854,1.21938 -1.98465,0 -3.20356,-1.34266 -1.21892,-1.34257 -1.21892,-4.76765 0,-3.37018 1.34394,-4.8498 1.09389,-1.21938 3.07854,-1.21938 z m 0,1.89067 q -0.48444,0 -0.85949,0.274 -0.35942,0.26032 -0.56258,0.94529 -0.26566,0.89048 -0.26566,2.98667 0,2.0961 0.23441,2.87698 0.25003,0.78089 0.60946,1.04121 0.35942,0.26033 0.84386,0.26033 0.46882,0 0.82824,-0.26033 0.37505,-0.26032 0.59383,-0.94529 0.26566,-0.8768 0.26566,-2.9729 0,-2.09619 -0.25003,-2.87707 -0.23441,-0.79457 -0.60946,-1.05489 -0.35942,-0.274 -0.82824,-0.274 z" />
  <text
     xml:space="preserve"
     style="font-size:20px;font-style:normal;font-variant:normal;font-weight:normal;font-stretch:normal;line-height:125%;letter-spacing:0px;word-spacing:0px;fill:#000000;fill-opacity:1;stroke:none;font-family:Sans;-inkscape-font-specification:Sans"
     x="689.87628"
     y="237.19872"
     id="text4572-64-9-4-4-3"
     sodipodi:linespacing="125%"><tspan
       sodipodi:role="line"
       id="tspan4574-41-0-4-4-3"
       x="689.87628"
       y="237.19872"
       style="font-size:27.5px;font-style:normal;font-variant:normal;font-weight:normal;font-stretch:normal;font-family:Sans;-inkscape-font-specification:Sans" /></text>
  <g
     transform="matrix(0.85230876,0,0,0.54127765,571.23013,-155.76559)"
     id="g6598">
    <g
       style="font-style:normal;font-variant:normal;font-weight:normal;font-stretch:normal;letter-spacing:normal;word-spacing:normal;text-anchor:start;fill:none;stroke:#000000;stroke-linecap:butt;stroke-linejoin:miter;stroke-miterlimit:10.43299961;stroke-opacity:1;stroke-dasharray:none;stroke-dashoffset:0"
       id="g6600"
       transform="matrix(0.5191112,0,0,-0.5191112,-90.84446,603.2677)"
       xml:space="preserve"
       stroke-miterlimit="10.433"
       font-style="normal"
       font-variant="normal"
       font-weight="normal"
       font-stretch="normal"
       font-size-adjust="none"
       letter-spacing="normal"
       word-spacing="normal"><path
         style="fill:#000000;stroke-width:0"
         inkscape:connector-curvature="0"
         d="m 469.82,440.23 0,0 0,0.01 0,0 0,0.01 -0.01,0.02 0,0.01 0,0.02 0,0.02 0,0.02 -0.01,0.02 0,0.02 -0.01,0.02 -0.01,0.02 -0.01,0.03 -0.01,0.02 -0.01,0.03 -0.01,0.02 -0.02,0.03 -0.02,0.02 -0.02,0.02 -0.02,0.03 -0.01,0.01 -0.01,0.01 -0.02,0.01 -0.01,0.01 -0.02,0.01 -0.01,0.01 -0.02,0.01 -0.01,0.01 -0.02,0.01 -0.02,0.01 -0.02,0 -0.02,0.01 -0.02,0.01 -0.02,0 -0.02,0.01 -0.02,0.01 -0.03,0 -0.02,0 -0.03,0.01 -0.02,0 -0.03,0 -0.03,0.01 -0.02,0 -0.03,0 c -1.16,0 -4.79,-0.41 -6.08,-0.5 -0.41,-0.05 -0.96,-0.1 -0.96,-1 0,-0.6 0.46,-0.6 1.21,-0.6 2.39,0 2.48,-0.34 2.48,-0.84 l -0.15,-1 -7.22,-28.7 c -0.21,-0.69 -0.21,-0.8 -0.21,-1.1 0,-1.14 1,-1.39 1.46,-1.39 0.79,0 1.59,0.6 1.84,1.3 l 0.94,3.78 1.11,4.48 c 0.29,1.1 0.59,2.19 0.84,3.35 0.1,0.3 0.5,1.94 0.55,2.23 0.14,0.46 1.69,3.25 3.39,4.6 1.09,0.79 2.64,1.73 4.78,1.73 2.14,0 2.69,-1.69 2.69,-3.48 0,-2.69 -1.89,-8.13 -3.1,-11.16 -0.39,-1.16 -0.64,-1.75 -0.64,-2.75 0,-2.33 1.74,-4.08 4.08,-4.08 4.69,0 6.53,7.27 6.53,7.67 0,0.5 -0.45,0.5 -0.59,0.5 -0.5,0 -0.5,-0.15 -0.75,-0.9 -0.75,-2.64 -2.34,-6.17 -5.08,-6.17 -0.86,0 -1.2,0.5 -1.2,1.64 0,1.25 0.45,2.45 0.9,3.54 0.8,2.14 3.04,8.07 3.04,10.96 0,3.23 -2,5.32 -5.74,5.32 -3.14,0 -5.53,-1.53 -7.37,-3.82 z"
         id="path6602" /><path
         style="fill:#000000;stroke-width:0"
         inkscape:connector-curvature="0"
         d="m 495.87,446.36 0,0.04 0,0.04 0,0.04 0,0.04 0,0.04 0,0.04 0,0.04 0,0.03 -0.01,0.04 0,0.03 0,0.03 0,0.03 0,0.03 -0.01,0.03 0,0.03 0,0.02 -0.01,0.03 0,0.02 -0.01,0.02 0,0.03 -0.02,0.04 -0.01,0.04 -0.02,0.03 -0.02,0.03 -0.02,0.03 -0.02,0.03 -0.03,0.02 -0.03,0.02 -0.03,0.01 -0.04,0.02 -0.04,0.01 -0.05,0.01 -0.02,0.01 -0.02,0 -0.03,0.01 -0.03,0 -0.02,0 -0.03,0.01 -0.03,0 -0.03,0 -0.04,0 -0.03,0 -0.03,0.01 -0.04,0 -0.03,0 -0.04,0 -0.04,0 -0.04,0 -0.04,0 -0.05,0 -0.04,0 -0.05,0 c -2.23,-2.2 -5.39,-2.23 -6.82,-2.23 v -1.25 c 0.84,0 3.14,0 5.04,0.96 v -17.76 c 0,-1.16 0,-1.61 -3.48,-1.61 h -1.31 v -1.25 c 0.62,0.03 4.9,0.14 6.2,0.14 1.08,0 5.47,-0.11 6.23,-0.14 v 1.25 h -1.32 c -3.49,0 -3.49,0.45 -3.49,1.61 z"
         id="path6604" /><path
         style="fill:#000000;stroke-width:0"
         inkscape:connector-curvature="0"
         d="m 498.39,405.8 h 3.4 c 0.71,0 1.16,0 1.16,0.77 0,0.48 -0.45,0.48 -1.08,0.48 h -3.25 c 0.81,4.43 1.08,6.04 1.36,7.05 0.17,0.77 0.94,1.5 1.78,1.5 0.03,0 0.97,0 1.64,-0.42 -1.44,-0.45 -1.53,-1.72 -1.53,-1.92 0,-0.77 0.59,-1.28 1.39,-1.28 0.94,0 1.99,0.79 1.99,2.12 0,1.6 -1.71,2.47 -3.49,2.47 -1.53,0 -3.23,-0.87 -4.19,-2.61 -0.68,-1.3 -0.96,-2.86 -1.7,-6.91 h -2.75 c -0.7,0 -1.16,0 -1.16,-0.76 0,-0.49 0.46,-0.49 1.08,-0.49 h 2.58 c -0.03,-0.21 -2.22,-12.75 -3.06,-16.48 -0.17,-0.77 -0.77,-3.41 -2.44,-3.41 -0.03,0 -0.87,0 -1.53,0.41 1.42,0.45 1.53,1.72 1.53,1.92 0,0.77 -0.59,1.28 -1.39,1.28 -0.94,0 -1.98,-0.79 -1.98,-2.12 0,-1.56 1.64,-2.47 3.37,-2.47 2.24,0 3.77,2.3 4.19,3.06 1.25,2.35 2.05,6.63 2.12,7.05 z"
         id="path6606" /></g>  </g>
  <g
     id="g6984"
     transform="matrix(0.85230876,0,0,0.54127765,571.23013,-172.72996)">
    <g
       word-spacing="normal"
       letter-spacing="normal"
       font-size-adjust="none"
       font-stretch="normal"
       font-weight="normal"
       font-variant="normal"
       font-style="normal"
       stroke-miterlimit="10.433"
       xml:space="preserve"
       transform="matrix(0.5191112,0,0,-0.5191112,-90.84446,603.2677)"
       id="g6986"
       style="font-style:normal;font-variant:normal;font-weight:normal;font-stretch:normal;letter-spacing:normal;word-spacing:normal;text-anchor:start;fill:none;stroke:#000000;stroke-linecap:butt;stroke-linejoin:miter;stroke-miterlimit:10.43299961;stroke-opacity:1;stroke-dasharray:none;stroke-dashoffset:0"><path
         id="path6988"
         d="m 469.82,440.23 0,0 0,0.01 0,0 0,0.01 -0.01,0.02 0,0.01 0,0.02 0,0.02 0,0.02 -0.01,0.02 0,0.02 -0.01,0.02 -0.01,0.02 -0.01,0.03 -0.01,0.02 -0.01,0.03 -0.01,0.02 -0.02,0.03 -0.02,0.02 -0.02,0.02 -0.02,0.03 -0.01,0.01 -0.01,0.01 -0.02,0.01 -0.01,0.01 -0.02,0.01 -0.01,0.01 -0.02,0.01 -0.01,0.01 -0.02,0.01 -0.02,0.01 -0.02,0 -0.02,0.01 -0.02,0.01 -0.02,0 -0.02,0.01 -0.02,0.01 -0.03,0 -0.02,0 -0.03,0.01 -0.02,0 -0.03,0 -0.03,0.01 -0.02,0 -0.03,0 c -1.16,0 -4.79,-0.41 -6.08,-0.5 -0.41,-0.05 -0.96,-0.1 -0.96,-1 0,-0.6 0.46,-0.6 1.21,-0.6 2.39,0 2.48,-0.34 2.48,-0.84 l -0.15,-1 -7.22,-28.7 c -0.21,-0.69 -0.21,-0.8 -0.21,-1.1 0,-1.14 1,-1.39 1.46,-1.39 0.79,0 1.59,0.6 1.84,1.3 l 0.94,3.78 1.11,4.48 c 0.29,1.1 0.59,2.19 0.84,3.35 0.1,0.3 0.5,1.94 0.55,2.23 0.14,0.46 1.69,3.25 3.39,4.6 1.09,0.79 2.64,1.73 4.78,1.73 2.14,0 2.69,-1.69 2.69,-3.48 0,-2.69 -1.89,-8.13 -3.1,-11.16 -0.39,-1.16 -0.64,-1.75 -0.64,-2.75 0,-2.33 1.74,-4.08 4.08,-4.08 4.69,0 6.53,7.27 6.53,7.67 0,0.5 -0.45,0.5 -0.59,0.5 -0.5,0 -0.5,-0.15 -0.75,-0.9 -0.75,-2.64 -2.34,-6.17 -5.08,-6.17 -0.86,0 -1.2,0.5 -1.2,1.64 0,1.25 0.45,2.45 0.9,3.54 0.8,2.14 3.04,8.07 3.04,10.96 0,3.23 -2,5.32 -5.74,5.32 -3.14,0 -5.53,-1.53 -7.37,-3.82 z"
         inkscape:connector-curvature="0"
         style="fill:#000000;stroke-width:0" /><path
         id="path6990"
         d="m 502.18,435.31 0,0.71 -0.02,0.68 -0.03,0.66 -0.04,0.64 -0.06,0.62 -0.07,0.59 -0.1,0.58 -0.1,0.56 -0.13,0.55 -0.15,0.52 -0.17,0.52 -0.19,0.5 -0.21,0.49 -0.24,0.48 -0.26,0.47 -0.14,0.23 -0.15,0.23 c -1.08,1.61 -3.23,3 -6.03,3 -8.08,0 -8.08,-9.52 -8.08,-12.03 0,-2.5 0,-11.81 8.08,-11.81 v 0.98 c -1.59,0 -3.72,0.94 -4.42,3.8 -0.49,2.04 -0.49,4.9 -0.49,7.48 0,2.55 0,5.2 0.52,7.11 0.73,2.75 2.97,3.49 4.39,3.49 1.89,0 3.7,-1.15 4.33,-3.18 0.56,-1.87 0.59,-4.39 0.59,-7.42 0,-2.58 0,-5.15 -0.45,-7.34 -0.7,-3.17 -3.06,-3.94 -4.47,-3.94 h 0 v -0.98 c 8.09,0 8.09,9.31 8.09,11.81 z"
         inkscape:connector-curvature="0"
         style="fill:#000000;stroke-width:0" /><path
         id="path6992"
         d="m 498.39,405.8 h 3.4 c 0.71,0 1.16,0 1.16,0.77 0,0.48 -0.45,0.48 -1.08,0.48 h -3.25 c 0.81,4.43 1.08,6.04 1.36,7.05 0.17,0.77 0.94,1.5 1.78,1.5 0.03,0 0.97,0 1.64,-0.42 -1.44,-0.45 -1.53,-1.72 -1.53,-1.92 0,-0.77 0.59,-1.28 1.39,-1.28 0.94,0 1.99,0.79 1.99,2.12 0,1.6 -1.71,2.47 -3.49,2.47 -1.53,0 -3.23,-0.87 -4.19,-2.61 -0.68,-1.3 -0.96,-2.86 -1.7,-6.91 h -2.75 c -0.7,0 -1.16,0 -1.16,-0.76 0,-0.49 0.46,-0.49 1.08,-0.49 h 2.58 c -0.03,-0.21 -2.22,-12.75 -3.06,-16.48 -0.17,-0.77 -0.77,-3.41 -2.44,-3.41 -0.03,0 -0.87,0 -1.53,0.41 1.42,0.45 1.53,1.72 1.53,1.92 0,0.77 -0.59,1.28 -1.39,1.28 -0.94,0 -1.98,-0.79 -1.98,-2.12 0,-1.56 1.64,-2.47 3.37,-2.47 2.24,0 3.77,2.3 4.19,3.06 1.25,2.35 2.05,6.63 2.12,7.05 z"
         inkscape:connector-curvature="0"
         style="fill:#000000;stroke-width:0" /></g>  </g>
</svg>
