<?xml version="1.0" encoding="UTF-8" standalone="no"?>
<!-- Created with Inkscape (http://www.inkscape.org/) -->

<svg
   xmlns:dc="http://purl.org/dc/elements/1.1/"
   xmlns:cc="http://creativecommons.org/ns#"
   xmlns:rdf="http://www.w3.org/1999/02/22-rdf-syntax-ns#"
   xmlns:svg="http://www.w3.org/2000/svg"
   xmlns="http://www.w3.org/2000/svg"
   xmlns:sodipodi="http://sodipodi.sourceforge.net/DTD/sodipodi-0.dtd"
   xmlns:inkscape="http://www.inkscape.org/namespaces/inkscape"
   width="1120"
   height="770"
   id="svg2"
   version="1.1"
   inkscape:version="0.48.5 r10040"
   sodipodi:docname="pedmec1.svg">
  <sodipodi:namedview
     id="base"
     pagecolor="#ffffff"
     bordercolor="#666666"
     borderopacity="1.0"
     inkscape:pageopacity="0.0"
     inkscape:pageshadow="2"
     inkscape:zoom="1"
     inkscape:cx="256.83365"
     inkscape:cy="332.28797"
     inkscape:document-units="px"
     inkscape:current-layer="layer1"
     showgrid="true"
     inkscape:window-width="1920"
     inkscape:window-height="1025"
     inkscape:window-x="-2"
     inkscape:window-y="-3"
     inkscape:window-maximized="1"
     fit-margin-top="0"
     fit-margin-left="0"
     fit-margin-right="0"
     fit-margin-bottom="0">
    <inkscape:grid
       originy="-838px"
       originx="232px"
       snapvisiblegridlinesonly="true"
       enabled="true"
       visible="true"
       empspacing="5"
       id="grid2985"
       type="xygrid" />
  </sodipodi:namedview>
  <defs
     id="defs4">
    <marker
       style="overflow:visible"
       id="Arrow1Mend"
       refX="0"
       refY="0"
       orient="auto"
       inkscape:stockid="Arrow1Mend">
      <path
         inkscape:connector-curvature="0"
         transform="matrix(-0.4,0,0,-0.4,-4,0)"
         style="fill-rule:evenodd;stroke:#000000;stroke-width:1pt"
         d="M 0,0 5,-5 -12.5,0 5,5 0,0 z"
         id="path5225" />
    </marker>
  </defs>
  <metadata
     id="metadata7">
    <rdf:RDF>
      <cc:Work
         rdf:about="">
        <dc:format>image/svg+xml</dc:format>
        <dc:type
           rdf:resource="http://purl.org/dc/dcmitype/StillImage" />
        <dc:title />
      </cc:Work>
    </rdf:RDF>
  </metadata>
  <g
     transform="translate(232,555.63785)"
     id="layer1"
     inkscape:groupmode="layer"
     inkscape:label="Layer 1">
    <path
       d="m 110,67.362183 c 0,8.284271 -6.71573,15 -15,15 -8.284271,0 -15,-6.715729 -15,-15 0,-8.284272 6.715729,-15 15,-15 8.28427,0 15,6.715728 15,15 z"
       sodipodi:ry="15"
       sodipodi:rx="15"
       sodipodi:cy="67.362183"
       sodipodi:cx="95"
       id="path2987"
       style="fill:none;stroke:#000000;stroke-width:3;stroke-linecap:round;stroke-miterlimit:10;stroke-opacity:1;stroke-dasharray:none;stroke-dashoffset:0"
       sodipodi:type="arc"
       transform="matrix(1.4219632,0,0,1.4219632,-321.30031,-549.60322)" />
    <rect
       ry="0"
       rx="0"
       y="-475.14612"
       x="-72.456749"
       height="42.658897"
       width="42.658897"
       id="rect3757"
       style="fill:none;stroke:#000000;stroke-width:4.26588964;stroke-linecap:round;stroke-linejoin:round;stroke-miterlimit:10;stroke-opacity:1;stroke-dasharray:none;stroke-dashoffset:0" />
    <rect
       ry="0"
       rx="0"
       y="-349.30237"
       x="-140"
       height="42.658897"
       width="42.658897"
       id="rect3757-2"
       style="fill:none;stroke:#000000;stroke-width:4.26588964;stroke-linecap:round;stroke-linejoin:round;stroke-miterlimit:10;stroke-opacity:1;stroke-dasharray:none;stroke-dashoffset:0" />
    <path
       inkscape:connector-curvature="0"
       id="path3821"
       d="m -186.2138,-432.48723 0,35.54908 135.0865,0 0,-35.54908"
       style="fill:none;stroke:#000000;stroke-width:2.84392643;stroke-linecap:butt;stroke-linejoin:miter;stroke-miterlimit:4;stroke-opacity:1;stroke-dasharray:none" />
    <path
       sodipodi:nodetypes="cc"
       inkscape:connector-curvature="0"
       id="path3835"
       d="m -118.67055,-348.59141 0,-48.34674"
       style="fill:none;stroke:#000000;stroke-width:2.84392643;stroke-linecap:butt;stroke-linejoin:miter;stroke-miterlimit:4;stroke-opacity:1;stroke-dasharray:none" />
    <text
       sodipodi:linespacing="125%"
       id="text3860"
       y="-442.41388"
       x="-196.9063"
       style="font-size:31.28318977px;font-style:normal;font-weight:normal;line-height:125%;letter-spacing:0px;word-spacing:0px;fill:#000000;fill-opacity:1;stroke:none;font-family:Sans"
       xml:space="preserve"><tspan
         style="font-size:31.28318977px"
         y="-442.41388"
         x="-196.9063"
         id="tspan3862"
         sodipodi:role="line">A</tspan></text>
    <text
       sodipodi:linespacing="125%"
       id="text3860-6"
       y="-442.41388"
       x="-61.819798"
       style="font-size:31.28318977px;font-style:normal;font-weight:normal;line-height:125%;letter-spacing:0px;word-spacing:0px;fill:#000000;fill-opacity:1;stroke:none;font-family:Sans"
       xml:space="preserve"><tspan
         style="font-size:31.28318977px"
         y="-442.41388"
         x="-61.819798"
         id="tspan3862-0"
         sodipodi:role="line">B</tspan></text>
    <text
       sodipodi:linespacing="125%"
       id="text3860-1"
       y="-316.58542"
       x="-129.62273"
       style="font-size:31.28318977px;font-style:normal;font-weight:normal;line-height:125%;letter-spacing:0px;word-spacing:0px;fill:#000000;fill-opacity:1;stroke:none;font-family:Sans"
       xml:space="preserve"><tspan
         style="font-size:31.28318977px"
         y="-316.58542"
         x="-129.62273"
         id="tspan3862-04"
         sodipodi:role="line">C</tspan></text>
    <rect
       ry="15"
       rx="15"
       y="-553.63782"
       x="-230"
       height="710"
       width="530"
       id="rect6477"
       style="fill:none;stroke:#000000;stroke-width:4;stroke-linecap:round;stroke-miterlimit:4;stroke-opacity:1;stroke-dasharray:none;stroke-dashoffset:0" />
    <text
       sodipodi:linespacing="125%"
       id="text6479"
       y="-513.63782"
       x="-210"
       style="font-size:40px;font-style:normal;font-weight:normal;line-height:125%;letter-spacing:0px;word-spacing:0px;fill:#000000;fill-opacity:1;stroke:none;font-family:Sans"
       xml:space="preserve"><tspan
         y="-513.63782"
         x="-210"
         id="tspan6481"
         sodipodi:role="line">Input</tspan></text>
    <text
       transform="translate(-232,-499.63784)"
       sodipodi:linespacing="125%"
       id="text7698"
       y="120.5"
       x="922"
       style="font-size:40px;font-style:normal;font-weight:normal;line-height:125%;letter-spacing:0px;word-spacing:0px;fill:#000000;fill-opacity:1;stroke:none;font-family:Sans"
       xml:space="preserve"><tspan
         y="120.5"
         x="922"
         id="tspan7700"
         sodipodi:role="line" /></text>
    <rect
       style="fill:#c9c9c9;fill-opacity:1;stroke:#4076d0;stroke-width:2.18809414;stroke-linecap:round;stroke-miterlimit:4;stroke-opacity:1;stroke-dasharray:none;stroke-dashoffset:0"
       id="rect3589-6"
       width="460"
       height="170.00003"
       x="350.00006"
       y="-392.07693"
       rx="32.857143"
       ry="14.571431" />
    <g
       id="g3263">
      <g
         id="g3265"
         transform="matrix(1.1,0,0,-1.1,-192.5,840.0)"
         xml:space="preserve"
         stroke="black"
         stroke-linecap="butt"
         stroke-linejoin="miter"
         stroke-miterlimit="10.433"
         stroke-dasharray="none"
         stroke-dashoffset="0"
         stroke-opacity="1"
         fill="none"
         fill-rule="evenodd"
         fill-opacity="1"
         font-style="normal"
         font-variant="normal"
         font-weight="normal"
         font-stretch="normal"
         font-size-adjust="none"
         letter-spacing="normal"
         word-spacing="normal"
         text-anchor="start"><path
           d="M473.21,440.23 L472.64,440.23 L472.09,440.22 L471.56,440.2 L471.05,440.18 L470.56,440.15 L470.09,440.12 L469.63,440.08 L469.2,440.04 L468.78,440 L468.38,439.95 L467.99,439.9 L467.62,439.84 L467.27,439.78 L466.93,439.72 L466.61,439.66 L466.31,439.6 L466.01,439.53 L465.74,439.47 L465.47,439.4 L465.22,439.33 L464.99,439.27 L464.76,439.2 L464.55,439.13 L464.35,439.07 L464.16,439.01 L463.99,438.95 L463.82,438.89 L463.66,438.83 L463.52,438.78 L463.39,438.73 L463.26,438.68 L463.14,438.64 C458.07,436.5,456.91,433.11,456.91,432.45 C456.91,432.11,457.16,432.06,457.46,432.06 C458.36,432.06,460.75,433.31,461.14,434.4 C461.75,436.29,461.89,436.75,465.24,437.18 C466.93,437.39,468.57,437.48,470.27,437.48 H474.8 C471.66,434.45,470.22,429.12,468.43,421.95 C466.97,416.06,465.83,412.18,463.79,409.54 C463.29,409,463.24,408.93,461.89,408.93 H458.71 C457.75,408.93,457.21,408.93,455.97,408.2 C455.43,407.89,454.32,407.04,454.32,406.54 C454.32,406.25,454.38,406.2,455.47,406.2 H472.5 C478.33,406.2,482.68,410.53,482.68,412.32 C482.68,412.68,482.27,412.68,482.13,412.68 C481.27,412.68,478.94,411.53,478.44,410.28 C478.08,409.25,477.94,408.93,475.44,408.93 H465.93 C469.47,411.98,470.96,416.92,472.66,423.68 C474,429.12,475.19,433.95,477.24,437 C477.54,437.43,477.6,437.48,478.58,437.48 H482.82 C483.82,437.48,484.27,437.48,485.57,438.23 C486,438.48,487.16,439.28,487.16,439.87 C487.16,440.18,487.11,440.23,486,440.23 Z "
           stroke-width="0"
           fill="black"
           id="path3267" /></g>    </g>
    <g
       transform="translate(71.849,-717.58985)"
       id="g3395">
      <g
         style="font-style:normal;font-variant:normal;font-weight:normal;font-stretch:normal;letter-spacing:normal;word-spacing:normal;text-anchor:start;fill:none;stroke:#000000;stroke-linecap:butt;stroke-linejoin:miter;stroke-miterlimit:10.43299961;stroke-opacity:1;stroke-dasharray:none;stroke-dashoffset:0"
         word-spacing="normal"
         letter-spacing="normal"
         font-size-adjust="none"
         font-stretch="normal"
         font-weight="normal"
         font-variant="normal"
         font-style="normal"
         stroke-miterlimit="10.433"
         xml:space="preserve"
         transform="matrix(1.1,0,0,-1.1,-192.5,840)"
         id="g3397"><path
           style="fill:#000000;stroke-width:0"
           inkscape:connector-curvature="0"
           id="path3399"
           d="m 473.21,440.23 -0.57,0 -0.55,-0.01 -0.53,-0.02 -0.51,-0.02 -0.49,-0.03 -0.47,-0.03 -0.46,-0.04 -0.43,-0.04 -0.42,-0.04 -0.4,-0.05 -0.39,-0.05 -0.37,-0.06 -0.35,-0.06 -0.34,-0.06 -0.32,-0.06 -0.3,-0.06 -0.3,-0.07 -0.27,-0.06 -0.27,-0.07 -0.25,-0.07 -0.23,-0.06 -0.23,-0.07 -0.21,-0.07 -0.2,-0.06 -0.19,-0.06 -0.17,-0.06 -0.17,-0.06 -0.16,-0.06 -0.14,-0.05 -0.13,-0.05 -0.13,-0.05 -0.12,-0.04 c -5.07,-2.14 -6.23,-5.53 -6.23,-6.19 0,-0.34 0.25,-0.39 0.55,-0.39 0.9,0 3.29,1.25 3.68,2.34 0.61,1.89 0.75,2.35 4.1,2.78 1.69,0.21 3.33,0.3 5.03,0.3 h 4.53 c -3.14,-3.03 -4.58,-8.36 -6.37,-15.53 -1.46,-5.89 -2.6,-9.77 -4.64,-12.41 -0.5,-0.54 -0.55,-0.61 -1.9,-0.61 h -3.18 c -0.96,0 -1.5,0 -2.74,-0.73 -0.54,-0.31 -1.65,-1.16 -1.65,-1.66 0,-0.29 0.06,-0.34 1.15,-0.34 h 17.03 c 5.83,0 10.18,4.33 10.18,6.12 0,0.36 -0.41,0.36 -0.55,0.36 -0.86,0 -3.19,-1.15 -3.69,-2.4 -0.36,-1.03 -0.5,-1.35 -3,-1.35 h -9.51 c 3.54,3.05 5.03,7.99 6.73,14.75 1.34,5.44 2.53,10.27 4.58,13.32 0.3,0.43 0.36,0.48 1.34,0.48 h 4.24 c 1,0 1.45,0 2.75,0.75 0.43,0.25 1.59,1.05 1.59,1.64 0,0.31 -0.05,0.36 -1.16,0.36 z" /></g>    </g>
    <text
       sodipodi:linespacing="125%"
       id="text3607"
       y="-332.63785"
       x="428"
       style="font-size:40px;font-style:normal;font-weight:normal;line-height:125%;letter-spacing:0px;word-spacing:0px;fill:#000000;fill-opacity:1;stroke:none;font-family:Sans"
       xml:space="preserve"><tspan
         style="font-size:32px;font-style:normal;font-variant:normal;font-weight:normal;font-stretch:normal;text-align:start;line-height:125%;writing-mode:lr-tb;text-anchor:start;font-family:Sans;-inkscape-font-specification:Sans"
         y="-332.63785"
         x="428"
         id="tspan3609"
         sodipodi:role="line">: <tspan
   style="font-size:28px;font-style:normal;font-variant:normal;font-weight:normal;font-stretch:normal;text-align:start;line-height:125%;writing-mode:lr-tb;text-anchor:start;font-family:Sans;-inkscape-font-specification:Sans"
   id="tspan3689">no. of individuals</tspan></tspan></text>
    <g
       id="g3644"
       transform="translate(64.809,-650.76385)">
      <g
         word-spacing="normal"
         letter-spacing="normal"
         font-size-adjust="none"
         font-stretch="normal"
         font-weight="normal"
         font-variant="normal"
         font-style="normal"
         stroke-miterlimit="10.433"
         xml:space="preserve"
         transform="matrix(1.1,0,0,-1.1,-192.5,840)"
         id="content"
         style="font-style:normal;font-variant:normal;font-weight:normal;font-stretch:normal;letter-spacing:normal;word-spacing:normal;text-anchor:start;fill:none;stroke:#000000;stroke-linecap:butt;stroke-linejoin:miter;stroke-miterlimit:10.43299961;stroke-opacity:1;stroke-dasharray:none;stroke-dashoffset:0"><path
           id="path3647"
           d="M 479.74,437.14 H 488 c 6.58,0 9.07,3.78 9.07,4.43 0,0.25 -0.19,0.35 -0.44,0.35 -0.56,0 -1.84,-0.5 -3.09,-1.39 -0.41,-0.3 -0.5,-0.3 -1.46,-0.3 h -21.76 c -6.18,0 -13.11,-5.33 -13.11,-9.42 0,-0.3 0,-0.6 0.4,-0.6 1.19,0 4.33,1.65 4.44,2.85 0.05,0.84 0.14,1.78 1.14,3.08 0.5,0.61 0.89,1 3.1,1 h 9.9 c -0.84,-0.55 -1.05,-1.3 -1.14,-1.8 l -5.69,-22.56 c -0.59,-2.44 -1.64,-5.58 -3.07,-8.82 -0.3,-0.6 -0.3,-0.7 -0.3,-0.81 0,-0.29 0.19,-0.34 0.44,-0.34 1,0 3.43,1.34 4.18,2.39 0.3,0.5 2.5,5.58 3.55,9.72 z"
           inkscape:connector-curvature="0"
           style="fill:#000000;stroke-width:0" /></g>    </g>
    <text
       xml:space="preserve"
       style="font-size:40px;font-style:normal;font-weight:normal;line-height:125%;letter-spacing:0px;word-spacing:0px;fill:#000000;fill-opacity:1;stroke:none;font-family:Sans"
       x="428"
       y="-264.63785"
       id="text3683"
       sodipodi:linespacing="125%"><tspan
         sodipodi:role="line"
         id="tspan3685"
         x="428"
         y="-264.63785"
         style="font-size:32px;font-style:normal;font-variant:normal;font-weight:normal;font-stretch:normal;text-align:start;line-height:125%;writing-mode:lr-tb;text-anchor:start;font-family:Sans;-inkscape-font-specification:Sans">: <tspan
   style="font-size:28px;font-style:normal;font-variant:normal;font-weight:normal;font-stretch:normal;text-align:start;line-height:125%;writing-mode:lr-tb;text-anchor:start;font-family:Sans;-inkscape-font-specification:Sans"
   id="tspan3687">no. of triple relationships</tspan></tspan></text>
  </g>
</svg>
