<?xml version="1.0" encoding="UTF-8" standalone="no"?>
<svg
   xmlns:dc="http://purl.org/dc/elements/1.1/"
   xmlns:cc="http://creativecommons.org/ns#"
   xmlns:rdf="http://www.w3.org/1999/02/22-rdf-syntax-ns#"
   xmlns:svg="http://www.w3.org/2000/svg"
   xmlns="http://www.w3.org/2000/svg"
   xmlns:sodipodi="http://sodipodi.sourceforge.net/DTD/sodipodi-0.dtd"
   xmlns:inkscape="http://www.inkscape.org/namespaces/inkscape"
   version="1.1"
   viewBox="0 0 813.42889 349.10742"
   stroke-miterlimit="10"
   id="svg2"
   inkscape:version="0.48.5 r10040"
   sodipodi:docname="sih-phasing-complete.svg"
   width="813.42889"
   height="349.10742"
   style="fill:none;stroke:none">
  <metadata
     id="metadata299">
    <rdf:RDF>
      <cc:Work
         rdf:about="">
        <dc:format>image/svg+xml</dc:format>
        <dc:type
           rdf:resource="http://purl.org/dc/dcmitype/StillImage" />
        <dc:title></dc:title>
      </cc:Work>
    </rdf:RDF>
  </metadata>
  <defs
     id="defs297" />
  <sodipodi:namedview
     pagecolor="#ffffff"
     bordercolor="#666666"
     borderopacity="1"
     objecttolerance="10"
     gridtolerance="10"
     guidetolerance="10"
     inkscape:pageopacity="0"
     inkscape:pageshadow="2"
     inkscape:window-width="2560"
     inkscape:window-height="1385"
     id="namedview295"
     showgrid="true"
     inkscape:zoom="1.4142136"
     inkscape:cx="459.86439"
     inkscape:cy="138.67489"
     inkscape:window-x="-2"
     inkscape:window-y="-3"
     inkscape:window-maximized="1"
     inkscape:current-layer="svg2"
     showguides="true"
     inkscape:guide-bbox="true"
     fit-margin-top="0"
     fit-margin-left="0"
     fit-margin-right="0"
     fit-margin-bottom="0"
     inkscape:snap-grids="true"
     inkscape:snap-to-guides="true"
     inkscape:snap-bbox="true"
     inkscape:snap-page="true">
    <inkscape:grid
       type="xygrid"
       id="grid4427"
       originx="-164.26916px"
       originy="773.76201px"
       empspacing="5"
       visible="true"
       enabled="true"
       snapvisiblegridlinesonly="true" />
  </sodipodi:namedview>
  <clipPath
     id="p.0">
    <path
       d="M 0,0 960,0 960,720 0,720 0,0 z"
       id="path5"
       inkscape:connector-curvature="0" />
  </clipPath>
  <rect
     style="fill:#009292;fill-opacity:1;stroke:none"
     id="rect6453-3-2-6-0-6"
     width="530.04669"
     height="15"
     x="25.684162"
     y="150.62041"
     ry="4.6464467" />
  <path
     style="fill:#ffffff;fill-rule:nonzero;stroke:none"
     inkscape:connector-curvature="0"
     id="path291-1-8"
     d="m 256.0043,198.10875 q 1.96875,0 3.07812,1.4063 1.32813,1.6718 1.32813,5.5468 0,3.8594 -1.32813,5.5469 -1.10937,1.3906 -3.07812,1.3906 -1.98438,0 -3.20313,-1.5312 -1.21875,-1.5313 -1.21875,-5.4375 0,-3.8438 1.34375,-5.5313 1.09375,-1.3906 3.07813,-1.3906 z m 0,2.1563 q -0.48438,0 -0.85938,0.3125 -0.35937,0.2968 -0.5625,1.0781 -0.26562,1.0156 -0.26562,3.4062 0,2.3907 0.23437,3.2813 0.25,0.8906 0.60938,1.1875 0.35937,0.2969 0.84375,0.2969 0.46875,0 0.82812,-0.2969 0.375,-0.2969 0.59375,-1.0781 0.26563,-1 0.26563,-3.3907 0,-2.3906 -0.25,-3.2812 -0.23438,-0.9063 -0.60938,-1.2031 -0.35937,-0.3125 -0.82812,-0.3125 z" />
  <rect
     style="fill:#b66dff;fill-opacity:1;stroke:none"
     id="rect6453-3-2-6-0-4-5"
     width="359.99643"
     height="15.000031"
     x="25.734409"
     y="197.55408"
     ry="4.6464467" />
  <rect
     style="fill:#b66dff;fill-opacity:1;stroke:none"
     id="rect6453-3-2-6-0-4"
     width="169.95334"
     height="15.000031"
     x="475.73087"
     y="211.67126"
     ry="4.6464467" />
  <rect
     style="fill:#b66dff;fill-opacity:1;stroke:none"
     id="rect6453-3-2"
     width="620"
     height="15.000008"
     x="25.684162"
     y="103.99023"
     ry="4.6464467" />
  <rect
     style="fill:#009292;fill-opacity:1;stroke:none"
     id="rect6453-3-2-6-0"
     width="359.95331"
     height="15.000008"
     x="285.73083"
     y="168.10742"
     ry="4.6464467" />
  <rect
     style="fill:#b66dff;fill-opacity:1;stroke:none"
     id="rect6453-3-2-6"
     width="360.04669"
     height="15.000008"
     x="25.684162"
     y="132.4032"
     ry="4.6464467" />
  <rect
     style="fill:#009292;fill-opacity:1;stroke:none"
     id="rect6453-3"
     width="530"
     height="15.000008"
     x="25.684162"
     y="86.072754"
     ry="4.6464467" />
  <rect
     style="fill:#009292;fill-opacity:1;stroke:none"
     id="rect6453"
     width="515"
     height="15"
     x="130.68414"
     y="68.194092"
     ry="4.6464467" />
  <path
     style="fill:#000000;fill-opacity:0;fill-rule:nonzero"
     inkscape:connector-curvature="0"
     id="path27"
     d="m 224.61856,43.390949 61.5748,0 0,22.4882 -61.5748,0 z" />
  <path
     style="fill:#000000;fill-opacity:0;fill-rule:nonzero"
     inkscape:connector-curvature="0"
     id="path31"
     d="m 408.61856,43.390949 61.57483,0 0,22.4882 -61.57483,0 z" />
  <path
     style="fill:#000000;fill-opacity:0;fill-rule:nonzero"
     inkscape:connector-curvature="0"
     id="path35"
     d="m 304.61856,43.390949 61.5748,0 0,22.4882 -61.5748,0 z" />
  <path
     style="fill:#ffffff;fill-rule:nonzero"
     inkscape:connector-curvature="0"
     id="path105"
     d="m 88.322019,211.99935 -2.60938,0 0,-9.8281 q -1.4375,1.3438 -3.375,1.9844 l 0,-2.375 q 1.03125,-0.3281 2.21875,-1.25 1.20313,-0.9375 1.64063,-2.1875 l 2.125,0 0,13.6562 z" />
  <path
     style="fill:#000000;fill-opacity:0;fill-rule:nonzero"
     inkscape:connector-curvature="0"
     id="path109"
     d="m 612.5923,48.732149 161.03937,0 0,42.6457 -161.03937,0 z" />
  <path
     style="fill:#000000;fill-opacity:0;fill-rule:nonzero"
     inkscape:connector-curvature="0"
     id="path113"
     d="m 620.5923,176.73215 161.03937,0 0,42.6457 -161.03937,0 z" />
  <path
     style="fill:#000000;fill-opacity:0;fill-rule:nonzero"
     inkscape:connector-curvature="0"
     id="path121"
     d="m 219.27568,15.574649 87.62204,0 0,22.4882 -87.62204,0 z" />
  <path
     style="fill:#000000;fill-opacity:0;fill-rule:nonzero"
     inkscape:connector-curvature="0"
     id="path125"
     d="m 296.90724,15.574649 87.62207,0 0,22.4882 -87.62207,0 z" />
  <path
     style="fill:#000000;fill-opacity:0;fill-rule:nonzero"
     inkscape:connector-curvature="0"
     id="path129"
     d="m 480.90726,15.574649 87.62207,0 0,22.4882 -87.62207,0 z" />
  <path
     style="fill:#000000;fill-opacity:0;fill-rule:nonzero"
     inkscape:connector-curvature="0"
     id="path133"
     d="m 688.29311,96.036649 115.74799,0 0,22.488201 -115.74799,0 z" />
  <path
     style="fill:#000000;fill-opacity:0;fill-rule:nonzero"
     inkscape:connector-curvature="0"
     id="path137"
     d="m 644.29311,240.03665 115.74799,0 0,22.4882 -115.74799,0 z" />
  <path
     style="fill:#000000;fill-opacity:0;fill-rule:nonzero"
     inkscape:connector-curvature="0"
     id="path149"
     d="m 488.61856,43.390949 61.57483,0 0,22.4882 -61.57483,0 z" />
  <path
     style="fill:#000000;fill-opacity:0;fill-rule:nonzero"
     inkscape:connector-curvature="0"
     id="path173"
     d="m 136.61855,43.390949 61.5748,0 0,22.4882 -61.5748,0 z" />
  <path
     style="fill:#000000;fill-opacity:0;fill-rule:nonzero"
     inkscape:connector-curvature="0"
     id="path193"
     d="m 51.275679,16.255849 87.622041,0 0,22.4882 -87.622041,0 z" />
  <path
     style="fill:#000000;fill-opacity:0;fill-rule:nonzero"
     inkscape:connector-curvature="0"
     id="path197"
     d="m 403.27568,16.255849 87.62204,0 0,22.4882 -87.62204,0 z" />
  <path
     style="fill:#000000;fill-opacity:0;fill-rule:nonzero"
     inkscape:connector-curvature="0"
     id="path205"
     d="m 56.618549,43.390949 61.574801,0 0,22.4882 -61.574801,0 z" />
  <path
     style="fill:#000000;fill-opacity:0;fill-rule:nonzero"
     inkscape:connector-curvature="0"
     id="path225"
     d="m 131.27568,16.255849 87.62204,0 0,22.4882 -87.62204,0 z" />
  <path
     style="fill:#000000;fill-opacity:0;fill-rule:nonzero"
     inkscape:connector-curvature="0"
     id="path233"
     d="m 568.61856,43.390949 61.57483,0 0,22.4882 -61.57483,0 z" />
  <path
     style="fill:#000000;fill-opacity:0;fill-rule:nonzero"
     inkscape:connector-curvature="0"
     id="path253"
     d="m 571.27571,16.255849 87.62201,0 0,22.4882 -87.62201,0 z" />
  <text
     xml:space="preserve"
     style="font-size:20px;font-style:normal;font-variant:normal;font-weight:normal;font-stretch:normal;line-height:125%;letter-spacing:0px;word-spacing:0px;fill:#000000;fill-opacity:1;stroke:none;font-family:Sans;-inkscape-font-specification:Sans"
     x="56.184322"
     y="14.84375"
     id="text4572"
     sodipodi:linespacing="125%"><tspan
       sodipodi:role="line"
       id="tspan4574"
       x="56.184322"
       y="14.84375">SNP 1</tspan></text>
  <text
     xml:space="preserve"
     style="font-size:20px;font-style:normal;font-variant:normal;font-weight:normal;font-stretch:normal;line-height:125%;letter-spacing:0px;word-spacing:0px;fill:#000000;fill-opacity:1;stroke:none;font-family:Sans;-inkscape-font-specification:Sans"
     x="141.59578"
     y="14.84375"
     id="text4572-8"
     sodipodi:linespacing="125%"><tspan
       sodipodi:role="line"
       id="tspan4574-3"
       x="141.59578"
       y="14.84375">SNP 2</tspan></text>
  <text
     xml:space="preserve"
     style="font-size:20px;font-style:normal;font-variant:normal;font-weight:normal;font-stretch:normal;line-height:125%;letter-spacing:0px;word-spacing:0px;fill:#000000;fill-opacity:1;stroke:none;font-family:Sans;-inkscape-font-specification:Sans"
     x="230.39713"
     y="14.84375"
     id="text4572-84"
     sodipodi:linespacing="125%"><tspan
       sodipodi:role="line"
       id="tspan4574-4"
       x="230.39713"
       y="14.84375">SNP 3</tspan></text>
  <text
     xml:space="preserve"
     style="font-size:20px;font-style:normal;font-variant:normal;font-weight:normal;font-stretch:normal;line-height:125%;letter-spacing:0px;word-spacing:0px;fill:#000000;fill-opacity:1;stroke:none;font-family:Sans;-inkscape-font-specification:Sans"
     x="311.82303"
     y="14.84375"
     id="text4572-1"
     sodipodi:linespacing="125%"><tspan
       sodipodi:role="line"
       id="tspan4574-1"
       x="311.82303"
       y="14.84375">SNP 4</tspan></text>
  <text
     xml:space="preserve"
     style="font-size:20px;font-style:normal;font-variant:normal;font-weight:normal;font-stretch:normal;line-height:125%;letter-spacing:0px;word-spacing:0px;fill:#000000;fill-opacity:1;stroke:none;font-family:Sans;-inkscape-font-specification:Sans"
     x="397.46881"
     y="14.84375"
     id="text4572-6"
     sodipodi:linespacing="125%"><tspan
       sodipodi:role="line"
       id="tspan4574-6"
       x="397.46881"
       y="14.84375">SNP 5</tspan></text>
  <text
     xml:space="preserve"
     style="font-size:20px;font-style:normal;font-variant:normal;font-weight:normal;font-stretch:normal;line-height:125%;letter-spacing:0px;word-spacing:0px;fill:#000000;fill-opacity:1;stroke:none;font-family:Sans;-inkscape-font-specification:Sans"
     x="482.55807"
     y="14.84375"
     id="text4572-4"
     sodipodi:linespacing="125%"><tspan
       sodipodi:role="line"
       id="tspan4574-7"
       x="482.55807"
       y="14.84375">SNP 6</tspan></text>
  <text
     xml:space="preserve"
     style="font-size:20px;font-style:normal;font-variant:normal;font-weight:normal;font-stretch:normal;line-height:125%;letter-spacing:0px;word-spacing:0px;fill:#000000;fill-opacity:1;stroke:none;font-family:Sans;-inkscape-font-specification:Sans"
     x="568.11597"
     y="14.84375"
     id="text4572-64"
     sodipodi:linespacing="125%"><tspan
       sodipodi:role="line"
       id="tspan4574-41"
       x="568.11597"
       y="14.84375">SNP 7</tspan></text>
  <text
     xml:space="preserve"
     style="font-size:20px;font-style:normal;font-variant:normal;font-weight:normal;font-stretch:normal;line-height:125%;letter-spacing:0px;word-spacing:0px;fill:#000000;fill-opacity:1;stroke:none;font-family:Sans;-inkscape-font-specification:Sans"
     x="69.045654"
     y="53.843746"
     id="text4572-2"
     sodipodi:linespacing="125%"><tspan
       sodipodi:role="line"
       id="tspan4574-34"
       x="69.045654"
       y="53.843746">1/1</tspan></text>
  <text
     xml:space="preserve"
     style="font-size:20px;font-style:normal;font-variant:normal;font-weight:normal;font-stretch:normal;line-height:125%;letter-spacing:0px;word-spacing:0px;fill:#000000;fill-opacity:1;stroke:none;font-family:Sans;-inkscape-font-specification:Sans"
     x="154.37898"
     y="53.843746"
     id="text4572-2-9"
     sodipodi:linespacing="125%"><tspan
       sodipodi:role="line"
       id="tspan4574-34-1"
       x="154.37898"
       y="53.843746">1/1</tspan></text>
  <text
     xml:space="preserve"
     style="font-size:20px;font-style:normal;font-variant:normal;font-weight:normal;font-stretch:normal;line-height:125%;letter-spacing:0px;word-spacing:0px;fill:#000000;fill-opacity:1;stroke:none;font-family:Sans;-inkscape-font-specification:Sans"
     x="495.97116"
     y="53.843746"
     id="text4572-2-7"
     sodipodi:linespacing="125%"><tspan
       sodipodi:role="line"
       id="tspan4574-34-0"
       x="495.97116"
       y="53.843746">1/1</tspan></text>
  <text
     xml:space="preserve"
     style="font-size:20px;font-style:normal;font-variant:normal;font-weight:normal;font-stretch:normal;line-height:125%;letter-spacing:0px;word-spacing:0px;fill:#000000;fill-opacity:1;stroke:none;font-family:Sans;-inkscape-font-specification:Sans"
     x="244.04306"
     y="53.843746"
     id="text4572-2-2"
     sodipodi:linespacing="125%"><tspan
       sodipodi:role="line"
       id="tspan4574-34-4"
       x="244.04306"
       y="53.843746">0/1</tspan></text>
  <text
     xml:space="preserve"
     style="font-size:20px;font-style:normal;font-variant:normal;font-weight:normal;font-stretch:normal;line-height:125%;letter-spacing:0px;word-spacing:0px;fill:#000000;fill-opacity:1;stroke:none;font-family:Sans;-inkscape-font-specification:Sans"
     x="410.81842"
     y="53.843746"
     id="text4572-2-2-9"
     sodipodi:linespacing="125%"><tspan
       sodipodi:role="line"
       id="tspan4574-34-4-1"
       x="410.81842"
       y="53.843746">0/1</tspan></text>
  <text
     xml:space="preserve"
     style="font-size:20px;font-style:normal;font-variant:normal;font-weight:normal;font-stretch:normal;line-height:125%;letter-spacing:0px;word-spacing:0px;fill:#000000;fill-opacity:1;stroke:none;font-family:Sans;-inkscape-font-specification:Sans"
     x="581.48511"
     y="53.843746"
     id="text4572-2-2-2"
     sodipodi:linespacing="125%"><tspan
       sodipodi:role="line"
       id="tspan4574-34-4-6"
       x="581.48511"
       y="53.843746">0/1</tspan></text>
  <text
     xml:space="preserve"
     style="font-size:20px;font-style:normal;font-variant:normal;font-weight:normal;font-stretch:normal;line-height:125%;letter-spacing:0px;word-spacing:0px;fill:#000000;fill-opacity:1;stroke:none;font-family:Sans;-inkscape-font-specification:Sans"
     x="325.35574"
     y="53.843746"
     id="text4572-2-2-0"
     sodipodi:linespacing="125%"><tspan
       sodipodi:role="line"
       id="tspan4574-34-4-2"
       x="325.35574"
       y="53.843746">0/0</tspan></text>
  <rect
     style="fill:none;stroke:#000000;stroke-width:2.79547739;stroke-linejoin:round;stroke-miterlimit:4;stroke-opacity:1;stroke-dasharray:none;stroke-dashoffset:0"
     id="rect5757"
     width="798.57288"
     height="215.28813"
     x="1.3977374"
     y="30.057325"
     ry="19.57165" />
  <text
     xml:space="preserve"
     style="font-size:20px;font-style:normal;font-variant:normal;font-weight:normal;font-stretch:normal;line-height:125%;letter-spacing:0px;word-spacing:0px;fill:#000000;fill-opacity:1;stroke:none;font-family:Sans;-inkscape-font-specification:Sans"
     x="659.56049"
     y="145.59741"
     id="text4572-64-9"
     sodipodi:linespacing="125%"><tspan
       sodipodi:role="line"
       id="tspan4574-41-0"
       x="659.56049"
       y="145.59741"
       style="font-size:27.5px;font-style:normal;font-variant:normal;font-weight:normal;font-stretch:normal;font-family:Sans;-inkscape-font-specification:Sans">Individual</tspan></text>
  <path
     style="fill:#ffffff;fill-rule:nonzero"
     inkscape:connector-curvature="0"
     id="path105-2"
     d="m 173.65536,211.99935 -2.60938,0 0,-9.8281 q -1.4375,1.3438 -3.375,1.9844 l 0,-2.375 q 1.03125,-0.3281 2.21875,-1.25 1.20313,-0.9375 1.64063,-2.1875 l 2.125,0 0,13.6562 z" />
  <path
     style="fill:#ffffff;fill-rule:nonzero"
     inkscape:connector-curvature="0"
     id="path291-1"
     d="m 256.0043,198.10875 q 1.96875,0 3.07812,1.4063 1.32813,1.6718 1.32813,5.5468 0,3.8594 -1.32813,5.5469 -1.10937,1.3906 -3.07812,1.3906 -1.98438,0 -3.20313,-1.5312 -1.21875,-1.5313 -1.21875,-5.4375 0,-3.8438 1.34375,-5.5313 1.09375,-1.3906 3.07813,-1.3906 z m 0,2.1563 q -0.48438,0 -0.85938,0.3125 -0.35937,0.2968 -0.5625,1.0781 -0.26562,1.0156 -0.26562,3.4062 0,2.3907 0.23437,3.2813 0.25,0.8906 0.60938,1.1875 0.35937,0.2969 0.84375,0.2969 0.46875,0 0.82812,-0.2969 0.375,-0.2969 0.59375,-1.0781 0.26563,-1 0.26563,-3.3907 0,-2.3906 -0.25,-3.2812 -0.23438,-0.9063 -0.60938,-1.2031 -0.35937,-0.3125 -0.82812,-0.3125 z" />
  <path
     style="fill:#ffffff;fill-opacity:1;fill-rule:nonzero"
     inkscape:connector-curvature="0"
     id="path105-9-4-2-1-4"
     d="m 88.322019,118.43555 -2.60938,0 0,-9.8281 q -1.4375,1.3437 -3.375,1.9844 l 0,-2.375 q 1.03125,-0.3282 2.21875,-1.25 1.20313,-0.9375 1.64063,-2.1875 l 2.125,0 0,13.6562 z" />
  <path
     style="fill:#ffffff;fill-opacity:1;fill-rule:nonzero"
     inkscape:connector-curvature="0"
     id="path105-9-4-2-1-3"
     d="m 173.65536,118.43555 -2.60938,0 0,-9.8281 q -1.4375,1.3437 -3.375,1.9844 l 0,-2.375 q 1.03125,-0.3282 2.21875,-1.25 1.20313,-0.9375 1.64063,-2.1875 l 2.125,0 0,13.6562 z" />
  <path
     style="fill:#ffffff;fill-opacity:1;fill-rule:nonzero"
     inkscape:connector-curvature="0"
     id="path105-9-4-2-1-7"
     d="m 258.98867,82.522194 -2.60938,0 0,-9.8281 q -1.4375,1.3437 -3.375,1.9844 l 0,-2.375 q 1.03125,-0.3282 2.21875,-1.25 1.20313,-0.9375 1.64063,-2.1875 l 2.125,0 0,13.6562 z" />
  <path
     style="fill:#ffffff;fill-opacity:1;fill-rule:nonzero"
     inkscape:connector-curvature="0"
     id="path105-9-4-2-1-5"
     d="m 514.98874,118.43555 -2.60938,0 0,-9.8281 q -1.4375,1.3437 -3.375,1.9844 l 0,-2.375 q 1.03125,-0.3282 2.21875,-1.25 1.20313,-0.9375 1.64063,-2.1875 l 2.125,0 0,13.6562 z" />
  <path
     style="fill:#ffffff;fill-opacity:1;fill-rule:nonzero"
     inkscape:connector-curvature="0"
     id="path291-1-2-9-7"
     d="m 341.46706,104.54495 q 1.96875,0 3.07812,1.4062 1.32813,1.6719 1.32813,5.5469 0,3.8594 -1.32813,5.5469 -1.10937,1.3906 -3.07812,1.3906 -1.98438,0 -3.20313,-1.5312 -1.21875,-1.5313 -1.21875,-5.4375 0,-3.8438 1.34375,-5.5313 1.09375,-1.3906 3.07813,-1.3906 z m 0,2.1562 q -0.48438,0 -0.85938,0.3125 -0.35937,0.2969 -0.5625,1.0782 -0.26562,1.0156 -0.26562,3.4062 0,2.3906 0.23437,3.2813 0.25,0.8906 0.60938,1.1875 0.35937,0.2968 0.84375,0.2968 0.46875,0 0.82812,-0.2968 0.375,-0.2969 0.59375,-1.0782 0.26563,-1 0.26563,-3.3906 0,-2.3906 -0.25,-3.2812 -0.23438,-0.9063 -0.60938,-1.2032 -0.35937,-0.3125 -0.82812,-0.3125 z" />
  <path
     style="fill:#ffffff;fill-opacity:1;fill-rule:nonzero"
     inkscape:connector-curvature="0"
     id="path291-1-2-9-9"
     d="m 426.67096,104.54495 q 1.96875,0 3.07812,1.4062 1.32813,1.6719 1.32813,5.5469 0,3.8594 -1.32813,5.5469 -1.10937,1.3906 -3.07812,1.3906 -1.98438,0 -3.20313,-1.5312 -1.21875,-1.5313 -1.21875,-5.4375 0,-3.8438 1.34375,-5.5313 1.09375,-1.3906 3.07813,-1.3906 z m 0,2.1562 q -0.48438,0 -0.85938,0.3125 -0.35937,0.2969 -0.5625,1.0782 -0.26562,1.0156 -0.26562,3.4062 0,2.3906 0.23437,3.2813 0.25,0.8906 0.60938,1.1875 0.35937,0.2968 0.84375,0.2968 0.46875,0 0.82812,-0.2968 0.375,-0.2969 0.59375,-1.0782 0.26563,-1 0.26563,-3.3906 0,-2.3906 -0.25,-3.2812 -0.23438,-0.9063 -0.60938,-1.2032 -0.35937,-0.3125 -0.82812,-0.3125 z" />
  <path
     style="fill:#ffffff;fill-opacity:1;fill-rule:nonzero"
     inkscape:connector-curvature="0"
     id="path291-1-2-9-4"
     d="m 597.33767,104.54495 q 1.96875,0 3.07812,1.4062 1.32813,1.6719 1.32813,5.5469 0,3.8594 -1.32813,5.5469 -1.10937,1.3906 -3.07812,1.3906 -1.98438,0 -3.20313,-1.5312 -1.21875,-1.5313 -1.21875,-5.4375 0,-3.8438 1.34375,-5.5313 1.09375,-1.3906 3.07813,-1.3906 z m 0,2.1562 q -0.48438,0 -0.85938,0.3125 -0.35937,0.2969 -0.5625,1.0782 -0.26562,1.0156 -0.26562,3.4062 0,2.3906 0.23437,3.2813 0.25,0.8906 0.60938,1.1875 0.35937,0.2968 0.84375,0.2968 0.46875,0 0.82812,-0.2968 0.375,-0.2969 0.59375,-1.0782 0.26563,-1 0.26563,-3.3906 0,-2.3906 -0.25,-3.2812 -0.23438,-0.9063 -0.60938,-1.2032 -0.35937,-0.3125 -0.82812,-0.3125 z" />
  <path
     style="fill:#ffffff;fill-opacity:1;fill-rule:nonzero"
     inkscape:connector-curvature="0"
     id="path105-9-4-2-1-5-5"
     d="m 600.32205,82.522149 -2.60938,0 0,-9.8281 q -1.4375,1.3438 -3.375,1.9844 l 0,-2.375 q 1.03125,-0.3281 2.21875,-1.25 1.20313,-0.9375 1.64063,-2.1875 l 2.125,0 0,13.6562 z" />
  <path
     style="fill:#ffffff;fill-opacity:1;fill-rule:nonzero"
     inkscape:connector-curvature="0"
     id="path105-9-4-2-1-5-2"
     d="m 514.98874,82.522149 -2.60938,0 0,-9.8281 q -1.4375,1.3438 -3.375,1.9844 l 0,-2.375 q 1.03125,-0.3281 2.21875,-1.25 1.20313,-0.9375 1.64063,-2.1875 l 2.125,0 0,13.6562 z" />
  <path
     style="fill:#ffffff;fill-opacity:1;fill-rule:nonzero"
     inkscape:connector-curvature="0"
     id="path105-9-4-2-1-5-7"
     d="m 429.65533,82.522149 -2.60938,0 0,-9.8281 q -1.4375,1.3438 -3.375,1.9844 l 0,-2.375 q 1.03125,-0.3281 2.21875,-1.25 1.20313,-0.9375 1.64063,-2.1875 l 2.125,0 0,13.6562 z" />
  <path
     style="fill:#ffffff;fill-opacity:1;fill-rule:nonzero"
     inkscape:connector-curvature="0"
     id="path105-9-4-2-1-5-4"
     d="m 173.65536,82.522149 -2.60938,0 0,-9.8281 q -1.4375,1.3438 -3.375,1.9844 l 0,-2.375 q 1.03125,-0.3281 2.21875,-1.25 1.20313,-0.9375 1.64063,-2.1875 l 2.125,0 0,13.6562 z" />
  <path
     style="fill:#ffffff;fill-opacity:1;fill-rule:nonzero"
     inkscape:connector-curvature="0"
     id="path291-1-2-9-7-4"
     d="m 256.0043,104.54494 q 1.96875,0 3.07812,1.4063 1.32813,1.6718 1.32813,5.5468 0,3.8594 -1.32813,5.5469 -1.10937,1.3906 -3.07812,1.3906 -1.98438,0 -3.20313,-1.5312 -1.21875,-1.5313 -1.21875,-5.4375 0,-3.8438 1.34375,-5.5313 1.09375,-1.3906 3.07813,-1.3906 z m 0,2.1563 q -0.48438,0 -0.85938,0.3125 -0.35937,0.2968 -0.5625,1.0781 -0.26562,1.0156 -0.26562,3.4062 0,2.3907 0.23437,3.2813 0.25,0.8906 0.60938,1.1875 0.35937,0.2969 0.84375,0.2969 0.46875,0 0.82812,-0.2969 0.375,-0.2969 0.59375,-1.0781 0.26563,-1 0.26563,-3.3907 0,-2.3906 -0.25,-3.2812 -0.23438,-0.9063 -0.60938,-1.2031 -0.35937,-0.3125 -0.82812,-0.3125 z" />
  <path
     style="fill:#ffffff;fill-opacity:1;fill-rule:nonzero"
     inkscape:connector-curvature="0"
     id="path291-1-2-9-7-0"
     d="m 341.46706,68.631549 q 1.96875,0 3.07812,1.4063 1.32813,1.6718 1.32813,5.5468 0,3.8594 -1.32813,5.5469 -1.10937,1.3906 -3.07812,1.3906 -1.98438,0 -3.20313,-1.5312 -1.21875,-1.5313 -1.21875,-5.4375 0,-3.8438 1.34375,-5.5313 1.09375,-1.3906 3.07813,-1.3906 z m 0,2.1563 q -0.48438,0 -0.85938,0.3125 -0.35937,0.2968 -0.5625,1.0781 -0.26562,1.0156 -0.26562,3.4062 0,2.3907 0.23437,3.2813 0.25,0.8906 0.60938,1.1875 0.35937,0.2969 0.84375,0.2969 0.46875,0 0.82812,-0.2969 0.375,-0.2969 0.59375,-1.0781 0.26563,-1 0.26563,-3.3907 0,-2.3906 -0.25,-3.2812 -0.23438,-0.9063 -0.60938,-1.2031 -0.35937,-0.3125 -0.82812,-0.3125 z" />
  <path
     style="fill:#ffffff;fill-opacity:1;fill-rule:nonzero"
     inkscape:connector-curvature="0"
     id="path105-9-4-2-1-5-2-0"
     d="m 514.98874,100.40085 -2.60938,0 0,-9.828101 q -1.4375,1.3437 -3.375,1.9844 l 0,-2.375 q 1.03125,-0.3282 2.21875,-1.25 1.20313,-0.9375 1.64063,-2.1875 l 2.125,0 0,13.656201 z" />
  <path
     style="fill:#ffffff;fill-opacity:1;fill-rule:nonzero"
     inkscape:connector-curvature="0"
     id="path105-9-4-2-1-5-7-2"
     d="m 429.65533,100.40085 -2.60938,0 0,-9.828101 q -1.4375,1.3437 -3.375,1.9844 l 0,-2.375 q 1.03125,-0.3282 2.21875,-1.25 1.20313,-0.9375 1.64063,-2.1875 l 2.125,0 0,13.656201 z" />
  <path
     style="fill:#ffffff;fill-opacity:1;fill-rule:nonzero"
     inkscape:connector-curvature="0"
     id="path105-9-4-2-1-5-4-8"
     d="m 173.65536,100.40085 -2.60938,0 0,-9.828101 q -1.4375,1.3437 -3.375,1.9844 l 0,-2.375 q 1.03125,-0.3282 2.21875,-1.25 1.20313,-0.9375 1.64063,-2.1875 l 2.125,0 0,13.656201 z" />
  <path
     style="fill:#ffffff;fill-opacity:1;fill-rule:nonzero"
     inkscape:connector-curvature="0"
     id="path105-9-4-2-1-5-8-3"
     d="m 88.322019,100.40085 -2.60938,0 0,-9.828101 q -1.4375,1.3437 -3.375,1.9844 l 0,-2.375 q 1.03125,-0.3282 2.21875,-1.25 1.20313,-0.9375 1.64063,-2.1875 l 2.125,0 0,13.656201 z" />
  <path
     style="fill:#ffffff;fill-opacity:1;fill-rule:nonzero"
     inkscape:connector-curvature="0"
     id="path291-1-2-9-7-0-3"
     d="m 341.46706,86.510249 q 1.96875,0 3.07812,1.4062 1.32813,1.6719 1.32813,5.5469 0,3.8594 -1.32813,5.5469 -1.10937,1.390601 -3.07812,1.390601 -1.98438,0 -3.20313,-1.531201 -1.21875,-1.5313 -1.21875,-5.4375 0,-3.8438 1.34375,-5.5313 1.09375,-1.3906 3.07813,-1.3906 z m 0,2.1562 q -0.48438,0 -0.85938,0.3125 -0.35937,0.2969 -0.5625,1.0782 -0.26562,1.0156 -0.26562,3.4062 0,2.3906 0.23437,3.2813 0.25,0.8906 0.60938,1.1875 0.35937,0.2968 0.84375,0.2968 0.46875,0 0.82812,-0.2968 0.375,-0.2969 0.59375,-1.0782 0.26563,-1 0.26563,-3.3906 0,-2.3906 -0.25,-3.2812 -0.23438,-0.9063 -0.60938,-1.2032 -0.35937,-0.3125 -0.82812,-0.3125 z" />
  <path
     style="fill:#ffffff;fill-opacity:1;fill-rule:nonzero;stroke:none"
     inkscape:connector-curvature="0"
     id="path105-9-4-2-1-7-4"
     d="m 258.98867,100.40086 -2.60938,0 0,-9.8281 q -1.4375,1.3437 -3.375,1.9844 l 0,-2.375 q 1.03125,-0.3282 2.21875,-1.25 1.20313,-0.9375 1.64063,-2.1875 l 2.125,0 0,13.6562 z" />
  <path
     style="fill:#ffffff;fill-rule:nonzero;stroke:none"
     inkscape:connector-curvature="0"
     id="path291-1-6"
     d="m 341.46706,198.10875 q 1.96875,0 3.07812,1.4063 1.32813,1.6718 1.32813,5.5468 0,3.8594 -1.32813,5.5469 -1.10937,1.3906 -3.07812,1.3906 -1.98438,0 -3.20313,-1.5312 -1.21875,-1.5313 -1.21875,-5.4375 0,-3.8438 1.34375,-5.5313 1.09375,-1.3906 3.07813,-1.3906 z m 0,2.1563 q -0.48438,0 -0.85938,0.3125 -0.35937,0.2968 -0.5625,1.0781 -0.26562,1.0156 -0.26562,3.4062 0,2.3907 0.23437,3.2813 0.25,0.8906 0.60938,1.1875 0.35937,0.2969 0.84375,0.2969 0.46875,0 0.82812,-0.2969 0.375,-0.2969 0.59375,-1.0781 0.26563,-1 0.26563,-3.3907 0,-2.3906 -0.25,-3.2812 -0.23438,-0.9063 -0.60938,-1.2031 -0.35937,-0.3125 -0.82812,-0.3125 z" />
  <path
     d="m 88.322019,146.43555 -2.60938,0 0,-9.8281 q -1.4375,1.3437 -3.375,1.9844 l 0,-2.375 q 1.03125,-0.3282 2.21875,-1.25 1.20313,-0.9375 1.64063,-2.1875 l 2.125,0 0,13.6562 z"
     id="path9187"
     inkscape:connector-curvature="0"
     style="fill:#ffffff;fill-opacity:1;fill-rule:nonzero" />
  <path
     d="m 173.65536,146.43555 -2.60938,0 0,-9.8281 q -1.4375,1.3437 -3.375,1.9844 l 0,-2.375 q 1.03125,-0.3282 2.21875,-1.25 1.20313,-0.9375 1.64063,-2.1875 l 2.125,0 0,13.6562 z"
     id="path9189"
     inkscape:connector-curvature="0"
     style="fill:#ffffff;fill-opacity:1;fill-rule:nonzero" />
  <path
     d="m 341.46706,132.54495 q 1.96875,0 3.07812,1.4062 1.32813,1.6719 1.32813,5.5469 0,3.8594 -1.32813,5.5469 -1.10937,1.3906 -3.07812,1.3906 -1.98438,0 -3.20313,-1.5312 -1.21875,-1.5313 -1.21875,-5.4375 0,-3.8438 1.34375,-5.5313 1.09375,-1.3906 3.07813,-1.3906 z m 0,2.1562 q -0.48438,0 -0.85938,0.3125 -0.35937,0.2969 -0.5625,1.0782 -0.26562,1.0156 -0.26562,3.4062 0,2.3906 0.23437,3.2813 0.25,0.8906 0.60938,1.1875 0.35937,0.2968 0.84375,0.2968 0.46875,0 0.82812,-0.2968 0.375,-0.2969 0.59375,-1.0782 0.26563,-1 0.26563,-3.3906 0,-2.3906 -0.25,-3.2812 -0.23438,-0.9063 -0.60938,-1.2032 -0.35937,-0.3125 -0.82812,-0.3125 z"
     id="path9191"
     inkscape:connector-curvature="0"
     style="fill:#ffffff;fill-opacity:1;fill-rule:nonzero" />
  <path
     d="m 256.0043,132.54494 q 1.96875,0 3.07812,1.4063 1.32813,1.6718 1.32813,5.5468 0,3.8594 -1.32813,5.5469 -1.10937,1.3906 -3.07812,1.3906 -1.98438,0 -3.20313,-1.5312 -1.21875,-1.5313 -1.21875,-5.4375 0,-3.8438 1.34375,-5.5313 1.09375,-1.3906 3.07813,-1.3906 z m 0,2.1563 q -0.48438,0 -0.85938,0.3125 -0.35937,0.2968 -0.5625,1.0781 -0.26562,1.0156 -0.26562,3.4062 0,2.3907 0.23437,3.2813 0.25,0.8906 0.60938,1.1875 0.35937,0.2969 0.84375,0.2969 0.46875,0 0.82812,-0.2969 0.375,-0.2969 0.59375,-1.0781 0.26563,-1 0.26563,-3.3907 0,-2.3906 -0.25,-3.2812 -0.23438,-0.9063 -0.60938,-1.2031 -0.35937,-0.3125 -0.82812,-0.3125 z"
     id="path9193"
     inkscape:connector-curvature="0"
     style="fill:#ffffff;fill-opacity:1;fill-rule:nonzero" />
  <path
     d="m 514.98874,165.22929 -2.60938,0 0,-9.8281 q -1.4375,1.3437 -3.375,1.9844 l 0,-2.375 q 1.03125,-0.3282 2.21875,-1.25 1.20313,-0.9375 1.64063,-2.1875 l 2.125,0 0,13.6562 z"
     id="path9195"
     inkscape:connector-curvature="0"
     style="fill:#ffffff;fill-opacity:1;fill-rule:nonzero" />
  <path
     d="m 429.65533,165.22929 -2.60938,0 0,-9.8281 q -1.4375,1.3437 -3.375,1.9844 l 0,-2.375 q 1.03125,-0.3282 2.21875,-1.25 1.20313,-0.9375 1.64063,-2.1875 l 2.125,0 0,13.6562 z"
     id="path9197"
     inkscape:connector-curvature="0"
     style="fill:#ffffff;fill-opacity:1;fill-rule:nonzero" />
  <path
     d="m 173.65536,165.22929 -2.60938,0 0,-9.8281 q -1.4375,1.3437 -3.375,1.9844 l 0,-2.375 q 1.03125,-0.3282 2.21875,-1.25 1.20313,-0.9375 1.64063,-2.1875 l 2.125,0 0,13.6562 z"
     id="path9199"
     inkscape:connector-curvature="0"
     style="fill:#ffffff;fill-opacity:1;fill-rule:nonzero" />
  <path
     d="m 88.322019,165.22929 -2.60938,0 0,-9.8281 q -1.4375,1.3437 -3.375,1.9844 l 0,-2.375 q 1.03125,-0.3282 2.21875,-1.25 1.20313,-0.9375 1.64063,-2.1875 l 2.125,0 0,13.6562 z"
     id="path9201"
     inkscape:connector-curvature="0"
     style="fill:#ffffff;fill-opacity:1;fill-rule:nonzero" />
  <path
     d="m 341.46706,151.33869 q 1.96875,0 3.07812,1.4062 1.32813,1.6719 1.32813,5.5469 0,3.8594 -1.32813,5.5469 -1.10937,1.3906 -3.07812,1.3906 -1.98438,0 -3.20313,-1.5312 -1.21875,-1.5313 -1.21875,-5.4375 0,-3.8438 1.34375,-5.5313 1.09375,-1.3906 3.07813,-1.3906 z m 0,2.1562 q -0.48438,0 -0.85938,0.3125 -0.35937,0.2969 -0.5625,1.0782 -0.26562,1.0156 -0.26562,3.4062 0,2.3906 0.23437,3.2813 0.25,0.8906 0.60938,1.1875 0.35937,0.2968 0.84375,0.2968 0.46875,0 0.82812,-0.2968 0.375,-0.2969 0.59375,-1.0782 0.26563,-1 0.26563,-3.3906 0,-2.3906 -0.25,-3.2812 -0.23438,-0.9063 -0.60938,-1.2032 -0.35937,-0.3125 -0.82812,-0.3125 z"
     id="path9203"
     inkscape:connector-curvature="0"
     style="fill:#ffffff;fill-opacity:1;fill-rule:nonzero" />
  <path
     d="m 258.98867,165.2293 -2.60938,0 0,-9.8281 q -1.4375,1.3437 -3.375,1.9844 l 0,-2.375 q 1.03125,-0.3282 2.21875,-1.25 1.20313,-0.9375 1.64063,-2.1875 l 2.125,0 0,13.6562 z"
     id="path9205"
     inkscape:connector-curvature="0"
     style="fill:#ffffff;fill-opacity:1;fill-rule:nonzero;stroke:none" />
  <path
     style="fill:#ffffff;fill-opacity:1;fill-rule:nonzero"
     inkscape:connector-curvature="0"
     id="path9240"
     d="m 514.98874,182.64351 -2.60938,0 0,-9.8281 q -1.4375,1.3437 -3.375,1.9844 l 0,-2.375 q 1.03125,-0.3282 2.21875,-1.25 1.20313,-0.9375 1.64063,-2.1875 l 2.125,0 0,13.6562 z" />
  <path
     style="fill:#ffffff;fill-opacity:1;fill-rule:nonzero"
     inkscape:connector-curvature="0"
     id="path9242"
     d="m 429.65533,182.64351 -2.60938,0 0,-9.8281 q -1.4375,1.3437 -3.375,1.9844 l 0,-2.375 q 1.03125,-0.3282 2.21875,-1.25 1.20313,-0.9375 1.64063,-2.1875 l 2.125,0 0,13.6562 z" />
  <path
     style="fill:#ffffff;fill-opacity:1;fill-rule:nonzero"
     inkscape:connector-curvature="0"
     id="path9248"
     d="m 341.46706,168.75291 q 1.96875,0 3.07812,1.4062 1.32813,1.6719 1.32813,5.5469 0,3.8594 -1.32813,5.5469 -1.10937,1.3906 -3.07812,1.3906 -1.98438,0 -3.20313,-1.5312 -1.21875,-1.5313 -1.21875,-5.4375 0,-3.8438 1.34375,-5.5313 1.09375,-1.3906 3.07813,-1.3906 z m 0,2.1562 q -0.48438,0 -0.85938,0.3125 -0.35937,0.2969 -0.5625,1.0782 -0.26562,1.0156 -0.26562,3.4062 0,2.3906 0.23437,3.2813 0.25,0.8906 0.60938,1.1875 0.35937,0.2968 0.84375,0.2968 0.46875,0 0.82812,-0.2968 0.375,-0.2969 0.59375,-1.0782 0.26563,-1 0.26563,-3.3906 0,-2.3906 -0.25,-3.2812 -0.23438,-0.9063 -0.60938,-1.2032 -0.35937,-0.3125 -0.82812,-0.3125 z" />
  <path
     d="m 600.32205,181.93637 -2.60938,0 0,-9.8281 q -1.4375,1.3438 -3.375,1.9844 l 0,-2.375 q 1.03125,-0.3281 2.21875,-1.25 1.20313,-0.9375 1.64063,-2.1875 l 2.125,0 0,13.6562 z"
     id="path9252"
     inkscape:connector-curvature="0"
     style="fill:#ffffff;fill-opacity:1;fill-rule:nonzero" />
  <path
     d="m 514.98874,226.43555 -2.60938,0 0,-9.8281 q -1.4375,1.3437 -3.375,1.9844 l 0,-2.375 q 1.03125,-0.3282 2.21875,-1.25 1.20313,-0.9375 1.64063,-2.1875 l 2.125,0 0,13.6562 z"
     id="path9254"
     inkscape:connector-curvature="0"
     style="fill:#ffffff;fill-opacity:1;fill-rule:nonzero" />
  <path
     d="m 597.33767,212.54495 q 1.96875,0 3.07812,1.4062 1.32813,1.6719 1.32813,5.5469 0,3.8594 -1.32813,5.5469 -1.10937,1.3906 -3.07812,1.3906 -1.98438,0 -3.20313,-1.5312 -1.21875,-1.5313 -1.21875,-5.4375 0,-3.8438 1.34375,-5.5313 1.09375,-1.3906 3.07813,-1.3906 z m 0,2.1562 q -0.48438,0 -0.85938,0.3125 -0.35937,0.2969 -0.5625,1.0782 -0.26562,1.0156 -0.26562,3.4062 0,2.3906 0.23437,3.2813 0.25,0.8906 0.60938,1.1875 0.35937,0.2968 0.84375,0.2968 0.46875,0 0.82812,-0.2968 0.375,-0.2969 0.59375,-1.0782 0.26563,-1 0.26563,-3.3906 0,-2.3906 -0.25,-3.2812 -0.23438,-0.9063 -0.60938,-1.2032 -0.35937,-0.3125 -0.82812,-0.3125 z"
     id="path9256"
     inkscape:connector-curvature="0"
     style="fill:#ffffff;fill-opacity:1;fill-rule:nonzero" />
  <rect
     ry="4.6464467"
     y="309.9902"
     x="25.684162"
     height="15.000008"
     width="620"
     id="rect9315"
     style="fill:#b66dff;fill-opacity:1;stroke:none" />
  <path
     d="m 88.322019,324.43555 -2.60938,0 0,-9.8281 q -1.4375,1.3437 -3.375,1.9844 l 0,-2.375 q 1.03125,-0.3282 2.21875,-1.25 1.20313,-0.9375 1.64063,-2.1875 l 2.125,0 0,13.6562 z"
     id="path9317"
     inkscape:connector-curvature="0"
     style="fill:#ffffff;fill-opacity:1;fill-rule:nonzero" />
  <path
     d="m 173.65536,324.43555 -2.60938,0 0,-9.8281 q -1.4375,1.3437 -3.375,1.9844 l 0,-2.375 q 1.03125,-0.3282 2.21875,-1.25 1.20313,-0.9375 1.64063,-2.1875 l 2.125,0 0,13.6562 z"
     id="path9319"
     inkscape:connector-curvature="0"
     style="fill:#ffffff;fill-opacity:1;fill-rule:nonzero" />
  <path
     d="m 514.98874,324.43555 -2.60938,0 0,-9.8281 q -1.4375,1.3437 -3.375,1.9844 l 0,-2.375 q 1.03125,-0.3282 2.21875,-1.25 1.20313,-0.9375 1.64063,-2.1875 l 2.125,0 0,13.6562 z"
     id="path9321"
     inkscape:connector-curvature="0"
     style="fill:#ffffff;fill-opacity:1;fill-rule:nonzero" />
  <path
     d="m 341.46706,310.54495 q 1.96875,0 3.07812,1.4062 1.32813,1.6719 1.32813,5.5469 0,3.8594 -1.32813,5.5469 -1.10937,1.3906 -3.07812,1.3906 -1.98438,0 -3.20313,-1.5312 -1.21875,-1.5313 -1.21875,-5.4375 0,-3.8438 1.34375,-5.5313 1.09375,-1.3906 3.07813,-1.3906 z m 0,2.1562 q -0.48438,0 -0.85938,0.3125 -0.35937,0.2969 -0.5625,1.0782 -0.26562,1.0156 -0.26562,3.4062 0,2.3906 0.23437,3.2813 0.25,0.8906 0.60938,1.1875 0.35937,0.2968 0.84375,0.2968 0.46875,0 0.82812,-0.2968 0.375,-0.2969 0.59375,-1.0782 0.26563,-1 0.26563,-3.3906 0,-2.3906 -0.25,-3.2812 -0.23438,-0.9063 -0.60938,-1.2032 -0.35937,-0.3125 -0.82812,-0.3125 z"
     id="path9323"
     inkscape:connector-curvature="0"
     style="fill:#ffffff;fill-opacity:1;fill-rule:nonzero" />
  <path
     d="m 426.67096,310.54495 q 1.96875,0 3.07812,1.4062 1.32813,1.6719 1.32813,5.5469 0,3.8594 -1.32813,5.5469 -1.10937,1.3906 -3.07812,1.3906 -1.98438,0 -3.20313,-1.5312 -1.21875,-1.5313 -1.21875,-5.4375 0,-3.8438 1.34375,-5.5313 1.09375,-1.3906 3.07813,-1.3906 z m 0,2.1562 q -0.48438,0 -0.85938,0.3125 -0.35937,0.2969 -0.5625,1.0782 -0.26562,1.0156 -0.26562,3.4062 0,2.3906 0.23437,3.2813 0.25,0.8906 0.60938,1.1875 0.35937,0.2968 0.84375,0.2968 0.46875,0 0.82812,-0.2968 0.375,-0.2969 0.59375,-1.0782 0.26563,-1 0.26563,-3.3906 0,-2.3906 -0.25,-3.2812 -0.23438,-0.9063 -0.60938,-1.2032 -0.35937,-0.3125 -0.82812,-0.3125 z"
     id="path9325"
     inkscape:connector-curvature="0"
     style="fill:#ffffff;fill-opacity:1;fill-rule:nonzero" />
  <path
     d="m 597.33767,310.54495 q 1.96875,0 3.07812,1.4062 1.32813,1.6719 1.32813,5.5469 0,3.8594 -1.32813,5.5469 -1.10937,1.3906 -3.07812,1.3906 -1.98438,0 -3.20313,-1.5312 -1.21875,-1.5313 -1.21875,-5.4375 0,-3.8438 1.34375,-5.5313 1.09375,-1.3906 3.07813,-1.3906 z m 0,2.1562 q -0.48438,0 -0.85938,0.3125 -0.35937,0.2969 -0.5625,1.0782 -0.26562,1.0156 -0.26562,3.4062 0,2.3906 0.23437,3.2813 0.25,0.8906 0.60938,1.1875 0.35937,0.2968 0.84375,0.2968 0.46875,0 0.82812,-0.2968 0.375,-0.2969 0.59375,-1.0782 0.26563,-1 0.26563,-3.3906 0,-2.3906 -0.25,-3.2812 -0.23438,-0.9063 -0.60938,-1.2032 -0.35937,-0.3125 -0.82812,-0.3125 z"
     id="path9327"
     inkscape:connector-curvature="0"
     style="fill:#ffffff;fill-opacity:1;fill-rule:nonzero" />
  <path
     d="m 256.0043,310.54494 q 1.96875,0 3.07812,1.4063 1.32813,1.6718 1.32813,5.5468 0,3.8594 -1.32813,5.5469 -1.10937,1.3906 -3.07812,1.3906 -1.98438,0 -3.20313,-1.5312 -1.21875,-1.5313 -1.21875,-5.4375 0,-3.8438 1.34375,-5.5313 1.09375,-1.3906 3.07813,-1.3906 z m 0,2.1563 q -0.48438,0 -0.85938,0.3125 -0.35937,0.2968 -0.5625,1.0781 -0.26562,1.0156 -0.26562,3.4062 0,2.3907 0.23437,3.2813 0.25,0.8906 0.60938,1.1875 0.35937,0.2969 0.84375,0.2969 0.46875,0 0.82812,-0.2969 0.375,-0.2969 0.59375,-1.0781 0.26563,-1 0.26563,-3.3907 0,-2.3906 -0.25,-3.2812 -0.23438,-0.9063 -0.60938,-1.2031 -0.35937,-0.3125 -0.82812,-0.3125 z"
     id="path9329"
     inkscape:connector-curvature="0"
     style="fill:#ffffff;fill-opacity:1;fill-rule:nonzero" />
  <rect
     ry="4.6464467"
     y="334.10742"
     x="25.684162"
     height="15.000008"
     width="620"
     id="rect9349"
     style="fill:#009292;fill-opacity:1;stroke:none" />
  <path
     d="m 514.98874,348.64351 -2.60938,0 0,-9.8281 q -1.4375,1.3437 -3.375,1.9844 l 0,-2.375 q 1.03125,-0.3282 2.21875,-1.25 1.20313,-0.9375 1.64063,-2.1875 l 2.125,0 0,13.6562 z"
     id="path9351"
     inkscape:connector-curvature="0"
     style="fill:#ffffff;fill-opacity:1;fill-rule:nonzero" />
  <path
     d="m 429.65533,348.64351 -2.60938,0 0,-9.8281 q -1.4375,1.3437 -3.375,1.9844 l 0,-2.375 q 1.03125,-0.3282 2.21875,-1.25 1.20313,-0.9375 1.64063,-2.1875 l 2.125,0 0,13.6562 z"
     id="path9353"
     inkscape:connector-curvature="0"
     style="fill:#ffffff;fill-opacity:1;fill-rule:nonzero" />
  <path
     d="m 173.65536,348.64351 -2.60938,0 0,-9.8281 q -1.4375,1.3437 -3.375,1.9844 l 0,-2.375 q 1.03125,-0.3282 2.21875,-1.25 1.20313,-0.9375 1.64063,-2.1875 l 2.125,0 0,13.6562 z"
     id="path9355"
     inkscape:connector-curvature="0"
     style="fill:#ffffff;fill-opacity:1;fill-rule:nonzero" />
  <path
     d="m 88.322019,348.64351 -2.60938,0 0,-9.8281 q -1.4375,1.3437 -3.375,1.9844 l 0,-2.375 q 1.03125,-0.3282 2.21875,-1.25 1.20313,-0.9375 1.64063,-2.1875 l 2.125,0 0,13.6562 z"
     id="path9357"
     inkscape:connector-curvature="0"
     style="fill:#ffffff;fill-opacity:1;fill-rule:nonzero" />
  <path
     d="m 341.46706,334.75291 q 1.96875,0 3.07812,1.4062 1.32813,1.6719 1.32813,5.5469 0,3.8594 -1.32813,5.5469 -1.10937,1.3906 -3.07812,1.3906 -1.98438,0 -3.20313,-1.5312 -1.21875,-1.5313 -1.21875,-5.4375 0,-3.8438 1.34375,-5.5313 1.09375,-1.3906 3.07813,-1.3906 z m 0,2.1562 q -0.48438,0 -0.85938,0.3125 -0.35937,0.2969 -0.5625,1.0782 -0.26562,1.0156 -0.26562,3.4062 0,2.3906 0.23437,3.2813 0.25,0.8906 0.60938,1.1875 0.35937,0.2968 0.84375,0.2968 0.46875,0 0.82812,-0.2968 0.375,-0.2969 0.59375,-1.0782 0.26563,-1 0.26563,-3.3906 0,-2.3906 -0.25,-3.2812 -0.23438,-0.9063 -0.60938,-1.2032 -0.35937,-0.3125 -0.82812,-0.3125 z"
     id="path9359"
     inkscape:connector-curvature="0"
     style="fill:#ffffff;fill-opacity:1;fill-rule:nonzero" />
  <path
     d="m 258.98867,348.64352 -2.60938,0 0,-9.8281 q -1.4375,1.3437 -3.375,1.9844 l 0,-2.375 q 1.03125,-0.3282 2.21875,-1.25 1.20313,-0.9375 1.64063,-2.1875 l 2.125,0 0,13.6562 z"
     id="path9361"
     inkscape:connector-curvature="0"
     style="fill:#ffffff;fill-opacity:1;fill-rule:nonzero;stroke:none" />
  <path
     style="fill:#ffffff;fill-opacity:1;fill-rule:nonzero"
     inkscape:connector-curvature="0"
     id="path9363"
     d="m 600.32205,347.93637 -2.60938,0 0,-9.8281 q -1.4375,1.3438 -3.375,1.9844 l 0,-2.375 q 1.03125,-0.3281 2.21875,-1.25 1.20313,-0.9375 1.64063,-2.1875 l 2.125,0 0,13.6562 z" />
  <text
     sodipodi:linespacing="125%"
     id="text9386"
     y="337.59741"
     x="659.56049"
     style="font-size:20px;font-style:normal;font-variant:normal;font-weight:normal;font-stretch:normal;line-height:125%;letter-spacing:0px;word-spacing:0px;fill:#000000;fill-opacity:1;stroke:none;font-family:Sans;-inkscape-font-specification:Sans"
     xml:space="preserve"><tspan
       style="font-size:27.5px;font-style:normal;font-variant:normal;font-weight:normal;font-stretch:normal;font-family:Sans;-inkscape-font-specification:Sans"
       y="337.59741"
       x="659.56049"
       id="tspan9388"
       sodipodi:role="line">Haplotypes</tspan></text>
</svg>
