<?xml version="1.0" encoding="UTF-8" standalone="no"?>
<svg
   xmlns:dc="http://purl.org/dc/elements/1.1/"
   xmlns:cc="http://creativecommons.org/ns#"
   xmlns:rdf="http://www.w3.org/1999/02/22-rdf-syntax-ns#"
   xmlns:svg="http://www.w3.org/2000/svg"
   xmlns="http://www.w3.org/2000/svg"
   xmlns:sodipodi="http://sodipodi.sourceforge.net/DTD/sodipodi-0.dtd"
   xmlns:inkscape="http://www.inkscape.org/namespaces/inkscape"
   version="1.1"
   viewBox="0 0 839.73999 41.11"
   stroke-miterlimit="10"
   id="svg2"
   inkscape:version="0.48.5 r10040"
   sodipodi:docname="sih-phasing-complete-haplo-goal1.svg"
   width="839.73999"
   height="41.110001"
   style="fill:none;stroke:none">
  <metadata
     id="metadata299">
    <rdf:RDF>
      <cc:Work
         rdf:about="">
        <dc:format>image/svg+xml</dc:format>
        <dc:type
           rdf:resource="http://purl.org/dc/dcmitype/StillImage" />
        <dc:title></dc:title>
      </cc:Work>
    </rdf:RDF>
  </metadata>
  <defs
     id="defs297" />
  <sodipodi:namedview
     pagecolor="#ffffff"
     bordercolor="#666666"
     borderopacity="1"
     objecttolerance="10"
     gridtolerance="10"
     guidetolerance="10"
     inkscape:pageopacity="0"
     inkscape:pageshadow="2"
     inkscape:window-width="1920"
     inkscape:window-height="1025"
     id="namedview295"
     showgrid="true"
     inkscape:zoom="1.4142136"
     inkscape:cx="434.18023"
     inkscape:cy="-72.756559"
     inkscape:window-x="-2"
     inkscape:window-y="-3"
     inkscape:window-maximized="1"
     inkscape:current-layer="svg2"
     showguides="true"
     inkscape:guide-bbox="true"
     fit-margin-top="0"
     fit-margin-left="0"
     fit-margin-right="0"
     fit-margin-bottom="0"
     inkscape:snap-grids="true"
     inkscape:snap-to-guides="true"
     inkscape:snap-bbox="true"
     inkscape:snap-page="true">
    <inkscape:grid
       type="xygrid"
       id="grid4427"
       originx="-189.95332px"
       originy="505.76202px"
       empspacing="5"
       visible="true"
       enabled="true"
       snapvisiblegridlinesonly="true" />
  </sodipodi:namedview>
  <clipPath
     id="p.0">
    <path
       d="M 0,0 960,0 960,720 0,720 0,0 z"
       id="path5"
       inkscape:connector-curvature="0" />
  </clipPath>
  <path
     style="fill:#000000;fill-opacity:0;fill-rule:nonzero"
     inkscape:connector-curvature="0"
     id="path121"
     d="m 243.38852,-24.423156 87.62204,0 0,22.4882322 -87.62204,0 z" />
  <path
     style="fill:#000000;fill-opacity:0;fill-rule:nonzero"
     inkscape:connector-curvature="0"
     id="path125"
     d="m 321.02008,-24.423156 87.62207,0 0,22.4882322 -87.62207,0 z" />
  <path
     style="fill:#000000;fill-opacity:0;fill-rule:nonzero"
     inkscape:connector-curvature="0"
     id="path129"
     d="m 505.0201,-24.423156 87.62207,0 0,22.4882322 -87.62207,0 z" />
  <path
     style="fill:#000000;fill-opacity:0;fill-rule:nonzero"
     inkscape:connector-curvature="0"
     id="path193"
     d="m 75.388517,-23.741957 87.622043,0 0,22.4882332 -87.622043,0 z" />
  <path
     style="fill:#000000;fill-opacity:0;fill-rule:nonzero"
     inkscape:connector-curvature="0"
     id="path197"
     d="m 427.38852,-23.741957 87.62204,0 0,22.4882332 -87.62204,0 z" />
  <path
     style="fill:#000000;fill-opacity:0;fill-rule:nonzero"
     inkscape:connector-curvature="0"
     id="path225"
     d="m 155.38852,-23.741957 87.62204,0 0,22.4882332 -87.62204,0 z" />
  <path
     style="fill:#000000;fill-opacity:0;fill-rule:nonzero"
     inkscape:connector-curvature="0"
     id="path253"
     d="m 545.59155,-23.741957 87.62201,0 0,22.4882332 -87.62201,0 z" />
  <text
     xml:space="preserve"
     style="font-size:20px;font-style:normal;font-variant:normal;font-weight:normal;font-stretch:normal;line-height:125%;letter-spacing:0px;word-spacing:0px;fill:#000000;fill-opacity:1;stroke:none;font-family:Sans;-inkscape-font-specification:Sans"
     x="80.297157"
     y="-25.153723"
     id="text4572"
     sodipodi:linespacing="125%"><tspan
       sodipodi:role="line"
       id="tspan4574"
       x="80.297157"
       y="-25.153723">SNP 1</tspan></text>
  <text
     xml:space="preserve"
     style="font-size:20px;font-style:normal;font-variant:normal;font-weight:normal;font-stretch:normal;line-height:125%;letter-spacing:0px;word-spacing:0px;fill:#000000;fill-opacity:1;stroke:none;font-family:Sans;-inkscape-font-specification:Sans"
     x="165.70862"
     y="-25.153723"
     id="text4572-8"
     sodipodi:linespacing="125%"><tspan
       sodipodi:role="line"
       id="tspan4574-3"
       x="165.70862"
       y="-25.153723">SNP 2</tspan></text>
  <text
     xml:space="preserve"
     style="font-size:20px;font-style:normal;font-variant:normal;font-weight:normal;font-stretch:normal;line-height:125%;letter-spacing:0px;word-spacing:0px;fill:#000000;fill-opacity:1;stroke:none;font-family:Sans;-inkscape-font-specification:Sans"
     x="254.50996"
     y="-25.153723"
     id="text4572-84"
     sodipodi:linespacing="125%"><tspan
       sodipodi:role="line"
       id="tspan4574-4"
       x="254.50996"
       y="-25.153723">SNP 3</tspan></text>
  <text
     xml:space="preserve"
     style="font-size:20px;font-style:normal;font-variant:normal;font-weight:normal;font-stretch:normal;line-height:125%;letter-spacing:0px;word-spacing:0px;fill:#000000;fill-opacity:1;stroke:none;font-family:Sans;-inkscape-font-specification:Sans"
     x="335.93585"
     y="-25.153723"
     id="text4572-1"
     sodipodi:linespacing="125%"><tspan
       sodipodi:role="line"
       id="tspan4574-1"
       x="335.93585"
       y="-25.153723">SNP 4</tspan></text>
  <text
     xml:space="preserve"
     style="font-size:20px;font-style:normal;font-variant:normal;font-weight:normal;font-stretch:normal;line-height:125%;letter-spacing:0px;word-spacing:0px;fill:#000000;fill-opacity:1;stroke:none;font-family:Sans;-inkscape-font-specification:Sans"
     x="421.58163"
     y="-25.153723"
     id="text4572-6"
     sodipodi:linespacing="125%"><tspan
       sodipodi:role="line"
       id="tspan4574-6"
       x="421.58163"
       y="-25.153723">SNP 5</tspan></text>
  <text
     xml:space="preserve"
     style="font-size:20px;font-style:normal;font-variant:normal;font-weight:normal;font-stretch:normal;line-height:125%;letter-spacing:0px;word-spacing:0px;fill:#000000;fill-opacity:1;stroke:none;font-family:Sans;-inkscape-font-specification:Sans"
     x="506.6709"
     y="-25.153723"
     id="text4572-4"
     sodipodi:linespacing="125%"><tspan
       sodipodi:role="line"
       id="tspan4574-7"
       x="506.6709"
       y="-25.153723">SNP 6</tspan></text>
  <text
     xml:space="preserve"
     style="font-size:20px;font-style:normal;font-variant:normal;font-weight:normal;font-stretch:normal;line-height:125%;letter-spacing:0px;word-spacing:0px;fill:#000000;fill-opacity:1;stroke:none;font-family:Sans;-inkscape-font-specification:Sans"
     x="592.22882"
     y="-25.153723"
     id="text4572-64"
     sodipodi:linespacing="125%"><tspan
       sodipodi:role="line"
       id="tspan4574-41"
       x="592.22882"
       y="-25.153723">SNP 7</tspan></text>
  <rect
     ry="4.6464467"
     y="1.9926996"
     x="49.797001"
     height="15.000008"
     width="620"
     id="rect9315"
     style="fill:#b66dff;fill-opacity:1;stroke:none" />
  <path
     d="m 92.43486,16.437807 -2.60938,0 0,-9.8281336 q -1.4375,1.3437006 -3.375,1.9844012 l 0,-2.3750012 q 1.03125,-0.3282006 2.21875,-1.2500012 1.20313,-0.9375 1.64063,-2.1874776 l 2.125,0 0,13.6562124 z"
     id="path9317"
     inkscape:connector-curvature="0"
     style="fill:#ffffff;fill-opacity:1;fill-rule:nonzero" />
  <path
     d="m 177.7682,16.437807 -2.60938,0 0,-9.8281336 q -1.4375,1.3437006 -3.375,1.9844012 l 0,-2.3750012 q 1.03125,-0.3282006 2.21875,-1.2500012 1.20313,-0.9375 1.64063,-2.1874776 l 2.125,0 0,13.6562124 z"
     id="path9319"
     inkscape:connector-curvature="0"
     style="fill:#ffffff;fill-opacity:1;fill-rule:nonzero" />
  <path
     d="m 539.10158,16.437807 -2.60938,0 0,-9.8281336 q -1.4375,1.3437006 -3.375,1.9844012 l 0,-2.3750012 q 1.03125,-0.3282006 2.21875,-1.2500012 1.20313,-0.9375 1.64063,-2.1874776 l 2.125,0 0,13.6562124 z"
     id="path9321"
     inkscape:connector-curvature="0"
     style="fill:#ffffff;fill-opacity:1;fill-rule:nonzero" />
  <path
     d="m 365.5799,2.5471946 q 1.96875,0 3.07812,1.406178 1.32813,1.6719002 1.32813,5.5469026 0,3.8594208 -1.32813,5.5469218 -1.10937,1.39061 -3.07812,1.39061 -1.98438,0 -3.20313,-1.53121 -1.21875,-1.531301 -1.21875,-5.4375218 0,-3.8438024 1.34375,-5.5313026 1.09375,-1.390578 3.07813,-1.390578 z m 0,2.1561776 q -0.48438,0 -0.85938,0.3125006 -0.35937,0.2969 -0.5625,1.0782006 -0.26562,1.0156006 -0.26562,3.4062018 0,2.3906008 0.23437,3.2813208 0.25,0.8906 0.60938,1.1875 0.35937,0.296801 0.84375,0.296801 0.46875,0 0.82812,-0.296801 0.375,-0.2969 0.59375,-1.0782 0.26563,-1.00002 0.26563,-3.3906208 0,-2.3906012 -0.25,-3.2812018 -0.23438,-0.9063006 -0.60938,-1.2032006 -0.35937,-0.3125006 -0.82812,-0.3125006 z"
     id="path9323"
     inkscape:connector-curvature="0"
     style="fill:#ffffff;fill-opacity:1;fill-rule:nonzero" />
  <path
     d="m 450.7838,2.5471946 q 1.96875,0 3.07812,1.406178 1.32813,1.6719002 1.32813,5.5469026 0,3.8594208 -1.32813,5.5469218 -1.10937,1.39061 -3.07812,1.39061 -1.98438,0 -3.20313,-1.53121 -1.21875,-1.531301 -1.21875,-5.4375218 0,-3.8438024 1.34375,-5.5313026 1.09375,-1.390578 3.07813,-1.390578 z m 0,2.1561776 q -0.48438,0 -0.85938,0.3125006 -0.35937,0.2969 -0.5625,1.0782006 -0.26562,1.0156006 -0.26562,3.4062018 0,2.3906008 0.23437,3.2813208 0.25,0.8906 0.60938,1.1875 0.35937,0.296801 0.84375,0.296801 0.46875,0 0.82812,-0.296801 0.375,-0.2969 0.59375,-1.0782 0.26563,-1.00002 0.26563,-3.3906208 0,-2.3906012 -0.25,-3.2812018 -0.23438,-0.9063006 -0.60938,-1.2032006 -0.35937,-0.3125006 -0.82812,-0.3125006 z"
     id="path9325"
     inkscape:connector-curvature="0"
     style="fill:#ffffff;fill-opacity:1;fill-rule:nonzero" />
  <path
     d="m 621.45051,2.5471946 q 1.96875,0 3.07812,1.406178 1.32813,1.6719002 1.32813,5.5469026 0,3.8594208 -1.32813,5.5469218 -1.10937,1.39061 -3.07812,1.39061 -1.98438,0 -3.20313,-1.53121 -1.21875,-1.531301 -1.21875,-5.4375218 0,-3.8438024 1.34375,-5.5313026 1.09375,-1.390578 3.07813,-1.390578 z m 0,2.1561776 q -0.48438,0 -0.85938,0.3125006 -0.35937,0.2969 -0.5625,1.0782006 -0.26562,1.0156006 -0.26562,3.4062018 0,2.3906008 0.23437,3.2813208 0.25,0.8906 0.60938,1.1875 0.35937,0.296801 0.84375,0.296801 0.46875,0 0.82812,-0.296801 0.375,-0.2969 0.59375,-1.0782 0.26563,-1.00002 0.26563,-3.3906208 0,-2.3906012 -0.25,-3.2812018 -0.23438,-0.9063006 -0.60938,-1.2032006 -0.35937,-0.3125006 -0.82812,-0.3125006 z"
     id="path9327"
     inkscape:connector-curvature="0"
     style="fill:#ffffff;fill-opacity:1;fill-rule:nonzero" />
  <path
     d="m 266.11714,2.5471846 q 1.96875,0 3.07812,1.406278 1.32813,1.6718002 1.32813,5.5468026 0,3.8594208 -1.32813,5.5469218 -1.10937,1.39061 -3.07812,1.39061 -1.98438,0 -3.20313,-1.53121 -1.21875,-1.531301 -1.21875,-5.4375218 0,-3.8438024 1.34375,-5.5313026 1.09375,-1.390578 3.07813,-1.390578 z m 0,2.1562776 q -0.48438,0 -0.85938,0.3125006 -0.35937,0.2968 -0.5625,1.0781006 -0.26562,1.0156006 -0.26562,3.4062018 0,2.3907008 0.23437,3.2813208 0.25,0.8906 0.60938,1.1875 0.35937,0.296901 0.84375,0.296901 0.46875,0 0.82812,-0.296901 0.375,-0.2969 0.59375,-1.0781 0.26563,-1.00002 0.26563,-3.3907208 0,-2.3906012 -0.25,-3.2812018 -0.23438,-0.9063006 -0.60938,-1.2031006 -0.35937,-0.3125006 -0.82812,-0.3125006 z"
     id="path9329"
     inkscape:connector-curvature="0"
     style="fill:#ffffff;fill-opacity:1;fill-rule:nonzero" />
  <rect
     ry="4.6464467"
     y="26.109993"
     x="49.797001"
     height="15.000008"
     width="620"
     id="rect9349"
     style="fill:#009292;fill-opacity:1;stroke:none" />
  <path
     d="m 539.10158,40.645864 -2.60938,0 0,-9.828143 q -1.4375,1.343712 -3.375,1.984412 l 0,-2.375012 q 1.03125,-0.3282 2.21875,-1.250001 1.20313,-0.937501 1.64063,-2.187503 l 2.125,0 0,13.656247 z"
     id="path9351"
     inkscape:connector-curvature="0"
     style="fill:#ffffff;fill-opacity:1;fill-rule:nonzero" />
  <path
     d="m 453.76817,40.645864 -2.60938,0 0,-9.828143 q -1.4375,1.343712 -3.375,1.984412 l 0,-2.375012 q 1.03125,-0.3282 2.21875,-1.250001 1.20313,-0.937501 1.64063,-2.187503 l 2.125,0 0,13.656247 z"
     id="path9353"
     inkscape:connector-curvature="0"
     style="fill:#ffffff;fill-opacity:1;fill-rule:nonzero" />
  <path
     d="m 177.7682,40.645864 -2.60938,0 0,-9.828143 q -1.4375,1.343712 -3.375,1.984412 l 0,-2.375012 q 1.03125,-0.3282 2.21875,-1.250001 1.20313,-0.937501 1.64063,-2.187503 l 2.125,0 0,13.656247 z"
     id="path9355"
     inkscape:connector-curvature="0"
     style="fill:#ffffff;fill-opacity:1;fill-rule:nonzero" />
  <path
     d="m 92.43486,40.645864 -2.60938,0 0,-9.828143 q -1.4375,1.343712 -3.375,1.984412 l 0,-2.375012 q 1.03125,-0.3282 2.21875,-1.250001 1.20313,-0.937501 1.64063,-2.187503 l 2.125,0 0,13.656247 z"
     id="path9357"
     inkscape:connector-curvature="0"
     style="fill:#ffffff;fill-opacity:1;fill-rule:nonzero" />
  <path
     d="m 365.5799,26.755217 q 1.96875,0 3.07812,1.406202 1.32813,1.671901 1.32813,5.546915 0,3.859424 -1.32813,5.546929 -1.10937,1.390601 -3.07812,1.390601 -1.98438,0 -3.20313,-1.531201 -1.21875,-1.531305 -1.21875,-5.437529 0,-3.843814 1.34375,-5.531315 1.09375,-1.390602 3.07813,-1.390602 z m 0,2.156202 q -0.48438,0 -0.85938,0.312501 -0.35937,0.2969 -0.5625,1.078201 -0.26562,1.015611 -0.26562,3.406213 0,2.390623 0.23437,3.281323 0.25,0.890601 0.60938,1.187505 0.35937,0.2968 0.84375,0.2968 0.46875,0 0.82812,-0.2968 0.375,-0.296904 0.59375,-1.078204 0.26563,-1.000001 0.26563,-3.390624 0,-2.390602 -0.25,-3.281213 -0.23438,-0.906301 -0.60938,-1.203201 -0.35937,-0.312501 -0.82812,-0.312501 z"
     id="path9359"
     inkscape:connector-curvature="0"
     style="fill:#ffffff;fill-opacity:1;fill-rule:nonzero" />
  <path
     d="m 269.10151,40.645874 -2.60938,0 0,-9.828143 q -1.4375,1.343712 -3.375,1.984412 l 0,-2.375012 q 1.03125,-0.3282 2.21875,-1.250001 1.20313,-0.937501 1.64063,-2.187503 l 2.125,0 0,13.656247 z"
     id="path9361"
     inkscape:connector-curvature="0"
     style="fill:#ffffff;fill-opacity:1;fill-rule:nonzero;stroke:none" />
  <path
     style="fill:#ffffff;fill-opacity:1;fill-rule:nonzero"
     inkscape:connector-curvature="0"
     id="path9363"
     d="m 624.43489,39.938723 -2.60938,0 0,-9.828142 q -1.4375,1.343811 -3.375,1.984412 l 0,-2.375013 q 1.03125,-0.3281 2.21875,-1.250001 1.20313,-0.937501 1.64063,-2.187502 l 2.125,0 0,13.656246 z" />
  <text
     sodipodi:linespacing="125%"
     id="text9386"
     y="29.599983"
     x="681.87634"
     style="font-size:20px;font-style:normal;font-variant:normal;font-weight:normal;font-stretch:normal;line-height:125%;letter-spacing:0px;word-spacing:0px;fill:#000000;fill-opacity:1;stroke:none;font-family:Sans;-inkscape-font-specification:Sans"
     xml:space="preserve"><tspan
       style="font-size:27.5px;font-style:normal;font-variant:normal;font-weight:normal;font-stretch:normal;font-family:Sans;-inkscape-font-specification:Sans"
       y="29.599983"
       x="681.87634"
       id="tspan9388"
       sodipodi:role="line">Haplotypes</tspan></text>
</svg>
