<?xml version="1.0" encoding="UTF-8" standalone="no"?>
<svg
   xmlns:dc="http://purl.org/dc/elements/1.1/"
   xmlns:cc="http://creativecommons.org/ns#"
   xmlns:rdf="http://www.w3.org/1999/02/22-rdf-syntax-ns#"
   xmlns:svg="http://www.w3.org/2000/svg"
   xmlns="http://www.w3.org/2000/svg"
   xmlns:sodipodi="http://sodipodi.sourceforge.net/DTD/sodipodi-0.dtd"
   xmlns:inkscape="http://www.inkscape.org/namespaces/inkscape"
   style="fill:none;stroke:none"
   height="98.177437"
   width="801.90308"
   sodipodi:docname="trio-phasing-complete-haplotype3.svg"
   inkscape:version="0.48.5 r10040"
   id="svg2"
   stroke-miterlimit="10"
   viewBox="0 0 801.90307 98.177445"
   version="1.1">
  <sodipodi:namedview
     pagecolor="#ffffff"
     bordercolor="#666666"
     borderopacity="1"
     objecttolerance="10"
     gridtolerance="10"
     guidetolerance="10"
     inkscape:pageopacity="0"
     inkscape:pageshadow="2"
     inkscape:window-width="2560"
     inkscape:window-height="1385"
     id="namedview295"
     showgrid="true"
     inkscape:zoom="1.4142136"
     inkscape:cx="218.36846"
     inkscape:cy="-83.970868"
     inkscape:window-x="-2"
     inkscape:window-y="-3"
     inkscape:window-maximized="1"
     inkscape:current-layer="svg2"
     showguides="true"
     inkscape:guide-bbox="true"
     fit-margin-top="0"
     fit-margin-left="0"
     fit-margin-right="0"
     fit-margin-bottom="0"
     inkscape:snap-grids="true"
     inkscape:snap-to-guides="true"
     inkscape:snap-bbox="true"
     inkscape:snap-page="true">
    <inkscape:grid
       type="xygrid"
       id="grid4427"
       originx="-164.00178px"
       originy="522.83198px"
       empspacing="5"
       visible="true"
       enabled="true"
       snapvisiblegridlinesonly="true" />
  </sodipodi:namedview>
  <metadata
     id="metadata299">
    <rdf:RDF>
      <cc:Work
         rdf:about="">
        <dc:format>image/svg+xml</dc:format>
        <dc:type
           rdf:resource="http://purl.org/dc/dcmitype/StillImage" />
        <dc:title />
      </cc:Work>
    </rdf:RDF>
  </metadata>
  <defs
     id="defs297" />
  <clipPath
     id="p.0">
    <path
       d="M 0,0 960,0 960,720 0,720 0,0 z"
       id="path5"
       inkscape:connector-curvature="0" />
  </clipPath>
  <rect
     style="fill:#b66dff;fill-opacity:1;stroke:none"
     id="rect6453-3-2"
     width="620"
     height="15.000008"
     x="25.95154"
     y="73.990227"
     ry="4.6464467" />
  <rect
     style="fill:#009292;fill-opacity:1;stroke:none"
     id="rect6453-3"
     width="620.04669"
     height="15.000008"
     x="25.95154"
     y="56.072754"
     ry="4.6464467" />
  <path
     style="fill:#000000;fill-opacity:0;fill-rule:nonzero"
     inkscape:connector-curvature="0"
     id="path27"
     d="m 224.88594,35.390946 61.5748,0 0,22.4882 -61.5748,0 z" />
  <path
     style="fill:#000000;fill-opacity:0;fill-rule:nonzero"
     inkscape:connector-curvature="0"
     id="path31"
     d="m 408.88594,35.390946 61.57483,0 0,22.4882 -61.57483,0 z" />
  <path
     style="fill:#000000;fill-opacity:0;fill-rule:nonzero"
     inkscape:connector-curvature="0"
     id="path35"
     d="m 304.88594,35.390946 61.5748,0 0,22.4882 -61.5748,0 z" />
  <path
     style="fill:#000000;fill-opacity:0;fill-rule:nonzero"
     inkscape:connector-curvature="0"
     id="path109"
     d="m 612.85968,40.732146 161.03937,0 0,42.6457 -161.03937,0 z" />
  <path
     style="fill:#000000;fill-opacity:0;fill-rule:nonzero"
     inkscape:connector-curvature="0"
     id="path121"
     d="m 219.54306,15.574649 87.62204,0 0,22.488197 -87.62204,0 z" />
  <path
     style="fill:#000000;fill-opacity:0;fill-rule:nonzero"
     inkscape:connector-curvature="0"
     id="path125"
     d="m 297.17462,15.574649 87.62207,0 0,22.488197 -87.62207,0 z" />
  <path
     style="fill:#000000;fill-opacity:0;fill-rule:nonzero"
     inkscape:connector-curvature="0"
     id="path129"
     d="m 481.17464,15.574649 87.62207,0 0,22.488197 -87.62207,0 z" />
  <path
     style="fill:#000000;fill-opacity:0;fill-rule:nonzero"
     inkscape:connector-curvature="0"
     id="path149"
     d="m 488.88594,35.390946 61.57483,0 0,22.4882 -61.57483,0 z" />
  <path
     style="fill:#000000;fill-opacity:0;fill-rule:nonzero"
     inkscape:connector-curvature="0"
     id="path173"
     d="m 136.88593,35.390946 61.5748,0 0,22.4882 -61.5748,0 z" />
  <path
     style="fill:#000000;fill-opacity:0;fill-rule:nonzero"
     inkscape:connector-curvature="0"
     id="path193"
     d="m 51.543057,16.255849 87.622043,0 0,22.488197 -87.622043,0 z" />
  <path
     style="fill:#000000;fill-opacity:0;fill-rule:nonzero"
     inkscape:connector-curvature="0"
     id="path197"
     d="m 403.54306,16.255849 87.62204,0 0,22.488197 -87.62204,0 z" />
  <path
     style="fill:#000000;fill-opacity:0;fill-rule:nonzero"
     inkscape:connector-curvature="0"
     id="path205"
     d="m 56.885927,35.390946 61.574803,0 0,22.4882 -61.574803,0 z" />
  <path
     style="fill:#000000;fill-opacity:0;fill-rule:nonzero"
     inkscape:connector-curvature="0"
     id="path225"
     d="m 131.54306,16.255849 87.62204,0 0,22.488197 -87.62204,0 z" />
  <path
     style="fill:#000000;fill-opacity:0;fill-rule:nonzero"
     inkscape:connector-curvature="0"
     id="path233"
     d="m 568.88594,35.390946 61.57483,0 0,22.4882 -61.57483,0 z" />
  <path
     style="fill:#000000;fill-opacity:0;fill-rule:nonzero"
     inkscape:connector-curvature="0"
     id="path253"
     d="m 571.54309,16.255849 87.62201,0 0,22.488197 -87.62201,0 z" />
  <text
     xml:space="preserve"
     style="font-size:20px;font-style:normal;font-variant:normal;font-weight:normal;font-stretch:normal;line-height:125%;letter-spacing:0px;word-spacing:0px;fill:#000000;fill-opacity:1;stroke:none;font-family:Sans;-inkscape-font-specification:Sans"
     x="56.451698"
     y="14.84375"
     id="text4572"
     sodipodi:linespacing="125%"><tspan
       sodipodi:role="line"
       id="tspan4574"
       x="56.451698"
       y="14.84375">SNP 1</tspan></text>
  <text
     xml:space="preserve"
     style="font-size:20px;font-style:normal;font-variant:normal;font-weight:normal;font-stretch:normal;line-height:125%;letter-spacing:0px;word-spacing:0px;fill:#000000;fill-opacity:1;stroke:none;font-family:Sans;-inkscape-font-specification:Sans"
     x="141.86317"
     y="14.84375"
     id="text4572-8"
     sodipodi:linespacing="125%"><tspan
       sodipodi:role="line"
       id="tspan4574-3"
       x="141.86317"
       y="14.84375">SNP 2</tspan></text>
  <text
     xml:space="preserve"
     style="font-size:20px;font-style:normal;font-variant:normal;font-weight:normal;font-stretch:normal;line-height:125%;letter-spacing:0px;word-spacing:0px;fill:#000000;fill-opacity:1;stroke:none;font-family:Sans;-inkscape-font-specification:Sans"
     x="230.66452"
     y="14.84375"
     id="text4572-84"
     sodipodi:linespacing="125%"><tspan
       sodipodi:role="line"
       id="tspan4574-4"
       x="230.66452"
       y="14.84375">SNP 3</tspan></text>
  <text
     xml:space="preserve"
     style="font-size:20px;font-style:normal;font-variant:normal;font-weight:normal;font-stretch:normal;line-height:125%;letter-spacing:0px;word-spacing:0px;fill:#000000;fill-opacity:1;stroke:none;font-family:Sans;-inkscape-font-specification:Sans"
     x="312.09039"
     y="14.84375"
     id="text4572-1"
     sodipodi:linespacing="125%"><tspan
       sodipodi:role="line"
       id="tspan4574-1"
       x="312.09039"
       y="14.84375">SNP 4</tspan></text>
  <text
     xml:space="preserve"
     style="font-size:20px;font-style:normal;font-variant:normal;font-weight:normal;font-stretch:normal;line-height:125%;letter-spacing:0px;word-spacing:0px;fill:#000000;fill-opacity:1;stroke:none;font-family:Sans;-inkscape-font-specification:Sans"
     x="397.73618"
     y="14.84375"
     id="text4572-6"
     sodipodi:linespacing="125%"><tspan
       sodipodi:role="line"
       id="tspan4574-6"
       x="397.73618"
       y="14.84375">SNP 5</tspan></text>
  <text
     xml:space="preserve"
     style="font-size:20px;font-style:normal;font-variant:normal;font-weight:normal;font-stretch:normal;line-height:125%;letter-spacing:0px;word-spacing:0px;fill:#000000;fill-opacity:1;stroke:none;font-family:Sans;-inkscape-font-specification:Sans"
     x="482.82544"
     y="14.84375"
     id="text4572-4"
     sodipodi:linespacing="125%"><tspan
       sodipodi:role="line"
       id="tspan4574-7"
       x="482.82544"
       y="14.84375">SNP 6</tspan></text>
  <text
     xml:space="preserve"
     style="font-size:20px;font-style:normal;font-variant:normal;font-weight:normal;font-stretch:normal;line-height:125%;letter-spacing:0px;word-spacing:0px;fill:#000000;fill-opacity:1;stroke:none;font-family:Sans;-inkscape-font-specification:Sans"
     x="568.38342"
     y="14.84375"
     id="text4572-64"
     sodipodi:linespacing="125%"><tspan
       sodipodi:role="line"
       id="tspan4574-41"
       x="568.38342"
       y="14.84375">SNP 7</tspan></text>
  <text
     xml:space="preserve"
     style="font-size:18px;font-style:normal;font-variant:normal;font-weight:normal;font-stretch:normal;line-height:125%;letter-spacing:0px;word-spacing:0px;fill:#000000;fill-opacity:1;stroke:none;font-family:Sans;-inkscape-font-specification:Sans"
     x="69.313026"
     y="43.843742"
     id="text4572-2"
     sodipodi:linespacing="125%"><tspan
       sodipodi:role="line"
       id="tspan4574-34"
       x="69.313026"
       y="43.843742">1/1</tspan></text>
  <text
     xml:space="preserve"
     style="font-size:18px;font-style:normal;font-variant:normal;font-weight:normal;font-stretch:normal;line-height:125%;letter-spacing:0px;word-spacing:0px;fill:#000000;fill-opacity:1;stroke:none;font-family:Sans;-inkscape-font-specification:Sans"
     x="154.64638"
     y="43.843742"
     id="text4572-2-9"
     sodipodi:linespacing="125%"><tspan
       sodipodi:role="line"
       id="tspan4574-34-1"
       x="154.64638"
       y="43.843742">1/1</tspan></text>
  <text
     xml:space="preserve"
     style="font-size:18px;font-style:normal;font-variant:normal;font-weight:normal;font-stretch:normal;line-height:125%;letter-spacing:0px;word-spacing:0px;fill:#000000;fill-opacity:1;stroke:none;font-family:Sans;-inkscape-font-specification:Sans"
     x="496.23853"
     y="43.843742"
     id="text4572-2-7"
     sodipodi:linespacing="125%"><tspan
       sodipodi:role="line"
       id="tspan4574-34-0"
       x="496.23853"
       y="43.843742">1/1</tspan></text>
  <text
     xml:space="preserve"
     style="font-size:18px;font-style:normal;font-variant:normal;font-weight:normal;font-stretch:normal;line-height:125%;letter-spacing:0px;word-spacing:0px;fill:#000000;fill-opacity:1;stroke:none;font-family:Sans;-inkscape-font-specification:Sans"
     x="244.31046"
     y="43.843742"
     id="text4572-2-2"
     sodipodi:linespacing="125%"><tspan
       sodipodi:role="line"
       id="tspan4574-34-4"
       x="244.31046"
       y="43.843742">0/1</tspan></text>
  <text
     xml:space="preserve"
     style="font-size:18px;font-style:normal;font-variant:normal;font-weight:normal;font-stretch:normal;line-height:125%;letter-spacing:0px;word-spacing:0px;fill:#000000;fill-opacity:1;stroke:none;font-family:Sans;-inkscape-font-specification:Sans"
     x="411.08578"
     y="43.843742"
     id="text4572-2-2-9"
     sodipodi:linespacing="125%"><tspan
       sodipodi:role="line"
       id="tspan4574-34-4-1"
       x="411.08578"
       y="43.843742">0/1</tspan></text>
  <text
     xml:space="preserve"
     style="font-size:18px;font-style:normal;font-variant:normal;font-weight:normal;font-stretch:normal;line-height:125%;letter-spacing:0px;word-spacing:0px;fill:#000000;fill-opacity:1;stroke:none;font-family:Sans;-inkscape-font-specification:Sans"
     x="581.75256"
     y="43.843742"
     id="text4572-2-2-2"
     sodipodi:linespacing="125%"><tspan
       sodipodi:role="line"
       id="tspan4574-34-4-6"
       x="581.75256"
       y="43.843742">0/1</tspan></text>
  <text
     xml:space="preserve"
     style="font-size:18px;font-style:normal;font-variant:normal;font-weight:normal;font-stretch:normal;line-height:125%;letter-spacing:0px;word-spacing:0px;fill:#000000;fill-opacity:1;stroke:none;font-family:Sans;-inkscape-font-specification:Sans"
     x="325.62311"
     y="43.843742"
     id="text4572-2-2-0"
     sodipodi:linespacing="125%"><tspan
       sodipodi:role="line"
       id="tspan4574-34-4-2"
       x="325.62311"
       y="43.843742">0/0</tspan></text>
  <rect
     style="fill:none;stroke:#000000;stroke-width:1.66399336;stroke-linejoin:round;stroke-miterlimit:4;stroke-opacity:1;stroke-dasharray:none;stroke-dashoffset:0"
     id="rect5757"
     width="800.23914"
     height="76.121277"
     x="0.83196419"
     y="21.224174"
     ry="6.9201159" />
  <text
     xml:space="preserve"
     style="font-size:20px;font-style:normal;font-variant:normal;font-weight:normal;font-stretch:normal;line-height:125%;letter-spacing:0px;word-spacing:0px;fill:#000000;fill-opacity:1;stroke:none;font-family:Sans;-inkscape-font-specification:Sans"
     x="685.82794"
     y="152.59741"
     id="text4572-64-9-4"
     sodipodi:linespacing="125%"><tspan
       sodipodi:role="line"
       id="tspan4574-41-0-4"
       x="-1.5357748e-05"
       y="0"
       style="font-size:27.5px;font-style:normal;font-variant:normal;font-weight:normal;font-stretch:normal;font-family:Sans;-inkscape-font-specification:Sans"><tspan
         style="font-size:17.87525177px;baseline-shift:sub"
         id="tspan3447" /></tspan></text>
  <path
     style="fill:#ffffff;fill-opacity:1;fill-rule:nonzero"
     inkscape:connector-curvature="0"
     id="path105-9-4-2-1-4"
     d="m 88.589397,88.435546 -2.60938,0 0,-9.8281 q -1.4375,1.3437 -3.375,1.9844 l 0,-2.375 q 1.03125,-0.3282 2.21875,-1.25 1.20313,-0.9375 1.64063,-2.1875 l 2.125,0 0,13.6562 z" />
  <path
     style="fill:#ffffff;fill-opacity:1;fill-rule:nonzero"
     inkscape:connector-curvature="0"
     id="path105-9-4-2-1-3"
     d="m 173.92274,88.435546 -2.60938,0 0,-9.8281 q -1.4375,1.3437 -3.375,1.9844 l 0,-2.375 q 1.03125,-0.3282 2.21875,-1.25 1.20313,-0.9375 1.64063,-2.1875 l 2.125,0 0,13.6562 z" />
  <path
     style="fill:#ffffff;fill-opacity:1;fill-rule:nonzero"
     inkscape:connector-curvature="0"
     id="path105-9-4-2-1-5"
     d="m 515.25612,88.435546 -2.60938,0 0,-9.8281 q -1.4375,1.3437 -3.375,1.9844 l 0,-2.375 q 1.03125,-0.3282 2.21875,-1.25 1.20313,-0.9375 1.64063,-2.1875 l 2.125,0 0,13.6562 z" />
  <path
     style="fill:#ffffff;fill-opacity:1;fill-rule:nonzero"
     inkscape:connector-curvature="0"
     id="path291-1-2-9-7"
     d="m 341.73444,74.544946 q 1.96875,0 3.07812,1.4062 1.32813,1.6719 1.32813,5.5469 0,3.8594 -1.32813,5.5469 -1.10937,1.3906 -3.07812,1.3906 -1.98438,0 -3.20313,-1.5312 -1.21875,-1.5313 -1.21875,-5.4375 0,-3.8438 1.34375,-5.5313 1.09375,-1.3906 3.07813,-1.3906 z m 0,2.1562 q -0.48438,0 -0.85938,0.3125 -0.35937,0.2969 -0.5625,1.0782 -0.26562,1.0156 -0.26562,3.4062 0,2.3906 0.23437,3.2813 0.25,0.8906 0.60938,1.1875 0.35937,0.2968 0.84375,0.2968 0.46875,0 0.82812,-0.2968 0.375,-0.2969 0.59375,-1.0782 0.26563,-1 0.26563,-3.3906 0,-2.3906 -0.25,-3.2812 -0.23438,-0.9063 -0.60938,-1.2032 -0.35937,-0.3125 -0.82812,-0.3125 z" />
  <path
     style="fill:#ffffff;fill-opacity:1;fill-rule:nonzero"
     inkscape:connector-curvature="0"
     id="path291-1-2-9-9"
     d="m 426.93834,74.544946 q 1.96875,0 3.07812,1.4062 1.32813,1.6719 1.32813,5.5469 0,3.8594 -1.32813,5.5469 -1.10937,1.3906 -3.07812,1.3906 -1.98438,0 -3.20313,-1.5312 -1.21875,-1.5313 -1.21875,-5.4375 0,-3.8438 1.34375,-5.5313 1.09375,-1.3906 3.07813,-1.3906 z m 0,2.1562 q -0.48438,0 -0.85938,0.3125 -0.35937,0.2969 -0.5625,1.0782 -0.26562,1.0156 -0.26562,3.4062 0,2.3906 0.23437,3.2813 0.25,0.8906 0.60938,1.1875 0.35937,0.2968 0.84375,0.2968 0.46875,0 0.82812,-0.2968 0.375,-0.2969 0.59375,-1.0782 0.26563,-1 0.26563,-3.3906 0,-2.3906 -0.25,-3.2812 -0.23438,-0.9063 -0.60938,-1.2032 -0.35937,-0.3125 -0.82812,-0.3125 z" />
  <path
     style="fill:#ffffff;fill-opacity:1;fill-rule:nonzero"
     inkscape:connector-curvature="0"
     id="path291-1-2-9-4"
     d="m 597.60505,74.544946 q 1.96875,0 3.07812,1.4062 1.32813,1.6719 1.32813,5.5469 0,3.8594 -1.32813,5.5469 -1.10937,1.3906 -3.07812,1.3906 -1.98438,0 -3.20313,-1.5312 -1.21875,-1.5313 -1.21875,-5.4375 0,-3.8438 1.34375,-5.5313 1.09375,-1.3906 3.07813,-1.3906 z m 0,2.1562 q -0.48438,0 -0.85938,0.3125 -0.35937,0.2969 -0.5625,1.0782 -0.26562,1.0156 -0.26562,3.4062 0,2.3906 0.23437,3.2813 0.25,0.8906 0.60938,1.1875 0.35937,0.2968 0.84375,0.2968 0.46875,0 0.82812,-0.2968 0.375,-0.2969 0.59375,-1.0782 0.26563,-1 0.26563,-3.3906 0,-2.3906 -0.25,-3.2812 -0.23438,-0.9063 -0.60938,-1.2032 -0.35937,-0.3125 -0.82812,-0.3125 z" />
  <path
     style="fill:#ffffff;fill-opacity:1;fill-rule:nonzero"
     inkscape:connector-curvature="0"
     id="path291-1-2-9-7-4"
     d="m 256.27168,74.544936 q 1.96875,0 3.07812,1.4063 1.32813,1.6718 1.32813,5.5468 0,3.8594 -1.32813,5.5469 -1.10937,1.3906 -3.07812,1.3906 -1.98438,0 -3.20313,-1.5312 -1.21875,-1.5313 -1.21875,-5.4375 0,-3.8438 1.34375,-5.5313 1.09375,-1.3906 3.07813,-1.3906 z m 0,2.1563 q -0.48438,0 -0.85938,0.3125 -0.35937,0.2968 -0.5625,1.0781 -0.26562,1.0156 -0.26562,3.4062 0,2.3907 0.23437,3.2813 0.25,0.8906 0.60938,1.1875 0.35937,0.2969 0.84375,0.2969 0.46875,0 0.82812,-0.2969 0.375,-0.2969 0.59375,-1.0781 0.26563,-1 0.26563,-3.3907 0,-2.3906 -0.25,-3.2812 -0.23438,-0.9063 -0.60938,-1.2031 -0.35937,-0.3125 -0.82812,-0.3125 z" />
  <path
     style="fill:#ffffff;fill-opacity:1;fill-rule:nonzero"
     inkscape:connector-curvature="0"
     id="path105-9-4-2-1-5-2-0"
     d="m 515.25612,70.400846 -2.60938,0 0,-9.8281 q -1.4375,1.3437 -3.375,1.9844 l 0,-2.375 q 1.03125,-0.3282 2.21875,-1.25 1.20313,-0.9375 1.64063,-2.1875 l 2.125,0 0,13.6562 z" />
  <path
     style="fill:#ffffff;fill-opacity:1;fill-rule:nonzero"
     inkscape:connector-curvature="0"
     id="path105-9-4-2-1-5-7-2"
     d="m 429.92271,70.400846 -2.60938,0 0,-9.8281 q -1.4375,1.3437 -3.375,1.9844 l 0,-2.375 q 1.03125,-0.3282 2.21875,-1.25 1.20313,-0.9375 1.64063,-2.1875 l 2.125,0 0,13.6562 z" />
  <path
     style="fill:#ffffff;fill-opacity:1;fill-rule:nonzero"
     inkscape:connector-curvature="0"
     id="path105-9-4-2-1-5-4-8"
     d="m 173.92274,70.400846 -2.60938,0 0,-9.8281 q -1.4375,1.3437 -3.375,1.9844 l 0,-2.375 q 1.03125,-0.3282 2.21875,-1.25 1.20313,-0.9375 1.64063,-2.1875 l 2.125,0 0,13.6562 z" />
  <path
     style="fill:#ffffff;fill-opacity:1;fill-rule:nonzero"
     inkscape:connector-curvature="0"
     id="path105-9-4-2-1-5-8-3"
     d="m 88.589397,70.400846 -2.60938,0 0,-9.8281 q -1.4375,1.3437 -3.375,1.9844 l 0,-2.375 q 1.03125,-0.3282 2.21875,-1.25 1.20313,-0.9375 1.64063,-2.1875 l 2.125,0 0,13.6562 z" />
  <path
     style="fill:#ffffff;fill-opacity:1;fill-rule:nonzero"
     inkscape:connector-curvature="0"
     id="path291-1-2-9-7-0-3"
     d="m 341.73444,56.510246 q 1.96875,0 3.07812,1.4062 1.32813,1.6719 1.32813,5.5469 0,3.8594 -1.32813,5.5469 -1.10937,1.3906 -3.07812,1.3906 -1.98438,0 -3.20313,-1.5312 -1.21875,-1.5313 -1.21875,-5.4375 0,-3.8438 1.34375,-5.5313 1.09375,-1.3906 3.07813,-1.3906 z m 0,2.1562 q -0.48438,0 -0.85938,0.3125 -0.35937,0.2969 -0.5625,1.0782 -0.26562,1.0156 -0.26562,3.4062 0,2.3906 0.23437,3.2813 0.25,0.8906 0.60938,1.1875 0.35937,0.2968 0.84375,0.2968 0.46875,0 0.82812,-0.2968 0.375,-0.2969 0.59375,-1.0782 0.26563,-1 0.26563,-3.3906 0,-2.3906 -0.25,-3.2812 -0.23438,-0.9063 -0.60938,-1.2032 -0.35937,-0.3125 -0.82812,-0.3125 z" />
  <path
     style="fill:#ffffff;fill-opacity:1;fill-rule:nonzero;stroke:none"
     inkscape:connector-curvature="0"
     id="path105-9-4-2-1-7-4"
     d="m 259.25605,70.400856 -2.60938,0 0,-9.8281 q -1.4375,1.3437 -3.375,1.9844 l 0,-2.375 q 1.03125,-0.3282 2.21875,-1.25 1.20313,-0.9375 1.64063,-2.1875 l 2.125,0 0,13.6562 z" />
  <path
     style="fill:#ffffff;fill-opacity:1;fill-rule:nonzero;stroke:none"
     inkscape:connector-curvature="0"
     id="path105-9-4-2-1-5-2-0-2"
     d="m 599.25612,68.400846 -2.60938,0 0,-9.8281 q -1.4375,1.3437 -3.375,1.9844 l 0,-2.375 q 1.03125,-0.3282 2.21875,-1.25 1.20313,-0.9375 1.64063,-2.1875 l 2.125,0 0,13.6562 z" />
  <text
     xml:space="preserve"
     style="font-size:20px;font-style:normal;font-variant:normal;font-weight:normal;font-stretch:normal;line-height:125%;letter-spacing:0px;word-spacing:0px;fill:#000000;fill-opacity:1;stroke:none;font-family:Sans;-inkscape-font-specification:Sans"
     x="689.82788"
     y="340.54248"
     id="text4572-64-9-4-4-3"
     sodipodi:linespacing="125%"><tspan
       sodipodi:role="line"
       id="tspan4574-41-0-4-4-3"
       x="689.82788"
       y="340.54248"
       style="font-size:27.5px;font-style:normal;font-variant:normal;font-weight:normal;font-stretch:normal;font-family:Sans;-inkscape-font-specification:Sans" /></text>
  <g
     transform="matrix(0.67238033,0,0,0.71559053,597.59777,-220.17334)"
     id="g5077">
    <g
       style="font-style:normal;font-variant:normal;font-weight:normal;font-stretch:normal;letter-spacing:normal;word-spacing:normal;text-anchor:start;fill:none;stroke:#000000;stroke-linecap:butt;stroke-linejoin:miter;stroke-miterlimit:10.43299961;stroke-opacity:1;stroke-dasharray:none;stroke-dashoffset:0"
       id="g5079"
       transform="matrix(0.5191112,0,0,-0.5191112,-90.84446,603.2677)"
       xml:space="preserve"
       stroke-miterlimit="10.433"
       font-style="normal"
       font-variant="normal"
       font-weight="normal"
       font-stretch="normal"
       font-size-adjust="none"
       letter-spacing="normal"
       word-spacing="normal"><path
         style="fill:#000000;stroke-width:0"
         inkscape:connector-curvature="0"
         d="m 469.82,440.23 0,0 0,0.01 0,0 0,0.01 -0.01,0.02 0,0.01 0,0.02 0,0.02 0,0.02 -0.01,0.02 0,0.02 -0.01,0.02 -0.01,0.02 -0.01,0.03 -0.01,0.02 -0.01,0.03 -0.01,0.02 -0.02,0.03 -0.02,0.02 -0.02,0.02 -0.02,0.03 -0.01,0.01 -0.01,0.01 -0.02,0.01 -0.01,0.01 -0.02,0.01 -0.01,0.01 -0.02,0.01 -0.01,0.01 -0.02,0.01 -0.02,0.01 -0.02,0 -0.02,0.01 -0.02,0.01 -0.02,0 -0.02,0.01 -0.02,0.01 -0.03,0 -0.02,0 -0.03,0.01 -0.02,0 -0.03,0 -0.03,0.01 -0.02,0 -0.03,0 c -1.16,0 -4.79,-0.41 -6.08,-0.5 -0.41,-0.05 -0.96,-0.1 -0.96,-1 0,-0.6 0.46,-0.6 1.21,-0.6 2.39,0 2.48,-0.34 2.48,-0.84 l -0.15,-1 -7.22,-28.7 c -0.21,-0.69 -0.21,-0.8 -0.21,-1.1 0,-1.14 1,-1.39 1.46,-1.39 0.79,0 1.59,0.6 1.84,1.3 l 0.94,3.78 1.11,4.48 c 0.29,1.1 0.59,2.19 0.84,3.35 0.1,0.3 0.5,1.94 0.55,2.23 0.14,0.46 1.69,3.25 3.39,4.6 1.09,0.79 2.64,1.73 4.78,1.73 2.14,0 2.69,-1.69 2.69,-3.48 0,-2.69 -1.89,-8.13 -3.1,-11.16 -0.39,-1.16 -0.64,-1.75 -0.64,-2.75 0,-2.33 1.74,-4.08 4.08,-4.08 4.69,0 6.53,7.27 6.53,7.67 0,0.5 -0.45,0.5 -0.59,0.5 -0.5,0 -0.5,-0.15 -0.75,-0.9 -0.75,-2.64 -2.34,-6.17 -5.08,-6.17 -0.86,0 -1.2,0.5 -1.2,1.64 0,1.25 0.45,2.45 0.9,3.54 0.8,2.14 3.04,8.07 3.04,10.96 0,3.23 -2,5.32 -5.74,5.32 -3.14,0 -5.53,-1.53 -7.37,-3.82 z"
         id="path5081" /><path
         style="fill:#000000;stroke-width:0"
         inkscape:connector-curvature="0"
         d="m 502.18,435.31 0,0.71 -0.02,0.68 -0.03,0.66 -0.04,0.64 -0.06,0.62 -0.07,0.59 -0.1,0.58 -0.1,0.56 -0.13,0.55 -0.15,0.52 -0.17,0.52 -0.19,0.5 -0.21,0.49 -0.24,0.48 -0.26,0.47 -0.14,0.23 -0.15,0.23 c -1.08,1.61 -3.23,3 -6.03,3 -8.08,0 -8.08,-9.52 -8.08,-12.03 0,-2.5 0,-11.81 8.08,-11.81 v 0.98 c -1.59,0 -3.72,0.94 -4.42,3.8 -0.49,2.04 -0.49,4.9 -0.49,7.48 0,2.55 0,5.2 0.52,7.11 0.73,2.75 2.97,3.49 4.39,3.49 1.89,0 3.7,-1.15 4.33,-3.18 0.56,-1.87 0.59,-4.39 0.59,-7.42 0,-2.58 0,-5.15 -0.45,-7.34 -0.7,-3.17 -3.06,-3.94 -4.47,-3.94 h 0 v -0.98 c 8.09,0 8.09,9.31 8.09,11.81 z"
         id="path5083" /><path
         style="fill:#000000;stroke-width:0"
         inkscape:connector-curvature="0"
         d="m 499.32,396.67 -0.01,-0.07 -0.02,-0.07 -0.02,-0.07 -0.02,-0.08 -0.02,-0.07 -0.01,-0.08 -0.04,-0.16 -0.04,-0.16 -0.04,-0.16 -0.04,-0.16 -0.02,-0.08 -0.02,-0.07 -0.02,-0.08 -0.02,-0.07 -0.02,-0.07 -0.01,-0.07 -0.02,-0.07 -0.01,-0.06 -0.02,-0.06 -0.01,-0.06 -0.01,-0.05 -0.01,-0.05 -0.01,-0.05 -0.01,-0.04 0,-0.03 -0.01,-0.03 0,-0.03 0,-0.01 c 0,-0.77 0.62,-1.11 1.17,-1.11 0.64,0 1.19,0.45 1.36,0.76 0.19,0.31 0.45,1.42 0.64,2.16 0.17,0.65 0.55,2.26 0.77,3.14 0.2,0.76 0.4,1.53 0.59,2.33 0.38,1.5 0.38,1.56 1.08,2.65 1.11,1.71 2.86,3.69 5.56,3.69 1.95,0 2.06,-1.61 2.06,-2.44 0,-2.09 -1.5,-5.95 -2.06,-7.42 -0.37,-0.98 -0.51,-1.3 -0.51,-1.89 0,-1.84 1.53,-2.98 3.31,-2.98 3.48,0 5.01,4.79 5.01,5.32 0,0.46 -0.45,0.46 -0.56,0.46 -0.48,0 -0.51,-0.21 -0.66,-0.6 -0.79,-2.78 -2.29,-4.22 -3.68,-4.22 -0.74,0 -0.88,0.49 -0.88,1.22 0,0.8 0.18,1.25 0.8,2.83 0.42,1.08 1.84,4.77 1.84,6.72 0,0.56 0,2.03 -1.28,3.03 -0.59,0.45 -1.61,0.94 -3.25,0.94 -3.12,0 -5.04,-2.05 -6.15,-3.52 -0.29,2.97 -2.77,3.52 -4.54,3.52 -2.89,0 -4.84,-1.77 -5.89,-3.16 -0.25,2.39 -2.29,3.16 -3.73,3.16 -1.5,0 -2.3,-1.08 -2.75,-1.88 -0.77,-1.28 -1.25,-3.28 -1.25,-3.45 0,-0.45 0.48,-0.45 0.59,-0.45 0.49,0 0.52,0.11 0.77,1.04 0.51,2.07 1.19,3.77 2.55,3.77 0.9,0 1.14,-0.77 1.14,-1.7 0,-0.67 -0.32,-1.96 -0.57,-2.89 -0.23,-0.96 -0.57,-2.38 -0.76,-3.14 l -1.11,-4.47 c -0.14,-0.44 -0.34,-1.32 -0.34,-1.42 0,-0.77 0.62,-1.11 1.18,-1.11 0.63,0 1.17,0.45 1.36,0.76 0.17,0.31 0.46,1.42 0.63,2.16 0.17,0.65 0.54,2.26 0.76,3.14 0.21,0.76 0.42,1.53 0.6,2.33 0.37,1.43 0.45,1.7 1.45,3.14 0.98,1.39 2.62,3.2 5.23,3.2 2.02,0 2.05,-1.78 2.05,-2.44 0,-0.87 -0.09,-1.33 -0.59,-3.28 z"
         id="path5085" /></g>  </g>
  <g
     id="g5450"
     transform="matrix(0.67236991,0,0,0.71559047,597.59946,-196.17093)">
    <g
       word-spacing="normal"
       letter-spacing="normal"
       font-size-adjust="none"
       font-stretch="normal"
       font-weight="normal"
       font-variant="normal"
       font-style="normal"
       stroke-miterlimit="10.433"
       xml:space="preserve"
       transform="matrix(0.5191112,0,0,-0.5191112,-90.84446,603.2677)"
       id="g5452"
       style="font-style:normal;font-variant:normal;font-weight:normal;font-stretch:normal;letter-spacing:normal;word-spacing:normal;text-anchor:start;fill:none;stroke:#000000;stroke-linecap:butt;stroke-linejoin:miter;stroke-miterlimit:10.43299961;stroke-opacity:1;stroke-dasharray:none;stroke-dashoffset:0"><path
         id="path5454"
         d="m 469.82,440.23 0,0 0,0.01 0,0 0,0.01 -0.01,0.02 0,0.01 0,0.02 0,0.02 0,0.02 -0.01,0.02 0,0.02 -0.01,0.02 -0.01,0.02 -0.01,0.03 -0.01,0.02 -0.01,0.03 -0.01,0.02 -0.02,0.03 -0.02,0.02 -0.02,0.02 -0.02,0.03 -0.01,0.01 -0.01,0.01 -0.02,0.01 -0.01,0.01 -0.02,0.01 -0.01,0.01 -0.02,0.01 -0.01,0.01 -0.02,0.01 -0.02,0.01 -0.02,0 -0.02,0.01 -0.02,0.01 -0.02,0 -0.02,0.01 -0.02,0.01 -0.03,0 -0.02,0 -0.03,0.01 -0.02,0 -0.03,0 -0.03,0.01 -0.02,0 -0.03,0 c -1.16,0 -4.79,-0.41 -6.08,-0.5 -0.41,-0.05 -0.96,-0.1 -0.96,-1 0,-0.6 0.46,-0.6 1.21,-0.6 2.39,0 2.48,-0.34 2.48,-0.84 l -0.15,-1 -7.22,-28.7 c -0.21,-0.69 -0.21,-0.8 -0.21,-1.1 0,-1.14 1,-1.39 1.46,-1.39 0.79,0 1.59,0.6 1.84,1.3 l 0.94,3.78 1.11,4.48 c 0.29,1.1 0.59,2.19 0.84,3.35 0.1,0.3 0.5,1.94 0.55,2.23 0.14,0.46 1.69,3.25 3.39,4.6 1.09,0.79 2.64,1.73 4.78,1.73 2.14,0 2.69,-1.69 2.69,-3.48 0,-2.69 -1.89,-8.13 -3.1,-11.16 -0.39,-1.16 -0.64,-1.75 -0.64,-2.75 0,-2.33 1.74,-4.08 4.08,-4.08 4.69,0 6.53,7.27 6.53,7.67 0,0.5 -0.45,0.5 -0.59,0.5 -0.5,0 -0.5,-0.15 -0.75,-0.9 -0.75,-2.64 -2.34,-6.17 -5.08,-6.17 -0.86,0 -1.2,0.5 -1.2,1.64 0,1.25 0.45,2.45 0.9,3.54 0.8,2.14 3.04,8.07 3.04,10.96 0,3.23 -2,5.32 -5.74,5.32 -3.14,0 -5.53,-1.53 -7.37,-3.82 z"
         inkscape:connector-curvature="0"
         style="fill:#000000;stroke-width:0" /><path
         id="path5456"
         d="m 495.87,446.36 0,0.04 0,0.04 0,0.04 0,0.04 0,0.04 0,0.04 0,0.04 0,0.03 -0.01,0.04 0,0.03 0,0.03 0,0.03 0,0.03 -0.01,0.03 0,0.03 0,0.02 -0.01,0.03 0,0.02 -0.01,0.02 0,0.03 -0.02,0.04 -0.01,0.04 -0.02,0.03 -0.02,0.03 -0.02,0.03 -0.02,0.03 -0.03,0.02 -0.03,0.02 -0.03,0.01 -0.04,0.02 -0.04,0.01 -0.05,0.01 -0.02,0.01 -0.02,0 -0.03,0.01 -0.03,0 -0.02,0 -0.03,0.01 -0.03,0 -0.03,0 -0.04,0 -0.03,0 -0.03,0.01 -0.04,0 -0.03,0 -0.04,0 -0.04,0 -0.04,0 -0.04,0 -0.05,0 -0.04,0 -0.05,0 c -2.23,-2.2 -5.39,-2.23 -6.82,-2.23 v -1.25 c 0.84,0 3.14,0 5.04,0.96 v -17.76 c 0,-1.16 0,-1.61 -3.48,-1.61 h -1.31 v -1.25 c 0.62,0.03 4.9,0.14 6.2,0.14 1.08,0 5.47,-0.11 6.23,-0.14 v 1.25 h -1.32 c -3.49,0 -3.49,0.45 -3.49,1.61 z"
         inkscape:connector-curvature="0"
         style="fill:#000000;stroke-width:0" /><path
         id="path5458"
         d="m 499.32,396.67 -0.01,-0.07 -0.02,-0.07 -0.02,-0.07 -0.02,-0.08 -0.02,-0.07 -0.01,-0.08 -0.04,-0.16 -0.04,-0.16 -0.04,-0.16 -0.04,-0.16 -0.02,-0.08 -0.02,-0.07 -0.02,-0.08 -0.02,-0.07 -0.02,-0.07 -0.01,-0.07 -0.02,-0.07 -0.01,-0.06 -0.02,-0.06 -0.01,-0.06 -0.01,-0.05 -0.01,-0.05 -0.01,-0.05 -0.01,-0.04 0,-0.03 -0.01,-0.03 0,-0.03 0,-0.01 c 0,-0.77 0.62,-1.11 1.17,-1.11 0.64,0 1.19,0.45 1.36,0.76 0.19,0.31 0.45,1.42 0.64,2.16 0.17,0.65 0.55,2.26 0.77,3.14 0.2,0.76 0.4,1.53 0.59,2.33 0.38,1.5 0.38,1.56 1.08,2.65 1.11,1.71 2.86,3.69 5.56,3.69 1.95,0 2.06,-1.61 2.06,-2.44 0,-2.09 -1.5,-5.95 -2.06,-7.42 -0.37,-0.98 -0.51,-1.3 -0.51,-1.89 0,-1.84 1.53,-2.98 3.31,-2.98 3.48,0 5.01,4.79 5.01,5.32 0,0.46 -0.45,0.46 -0.56,0.46 -0.48,0 -0.51,-0.21 -0.66,-0.6 -0.79,-2.78 -2.29,-4.22 -3.68,-4.22 -0.74,0 -0.88,0.49 -0.88,1.22 0,0.8 0.18,1.25 0.8,2.83 0.42,1.08 1.84,4.77 1.84,6.72 0,0.56 0,2.03 -1.28,3.03 -0.59,0.45 -1.61,0.94 -3.25,0.94 -3.12,0 -5.04,-2.05 -6.15,-3.52 -0.29,2.97 -2.77,3.52 -4.54,3.52 -2.89,0 -4.84,-1.77 -5.89,-3.16 -0.25,2.39 -2.29,3.16 -3.73,3.16 -1.5,0 -2.3,-1.08 -2.75,-1.88 -0.77,-1.28 -1.25,-3.28 -1.25,-3.45 0,-0.45 0.48,-0.45 0.59,-0.45 0.49,0 0.52,0.11 0.77,1.04 0.51,2.07 1.19,3.77 2.55,3.77 0.9,0 1.14,-0.77 1.14,-1.7 0,-0.67 -0.32,-1.96 -0.57,-2.89 -0.23,-0.96 -0.57,-2.38 -0.76,-3.14 l -1.11,-4.47 c -0.14,-0.44 -0.34,-1.32 -0.34,-1.42 0,-0.77 0.62,-1.11 1.18,-1.11 0.63,0 1.17,0.45 1.36,0.76 0.17,0.31 0.46,1.42 0.63,2.16 0.17,0.65 0.54,2.26 0.76,3.14 0.21,0.76 0.42,1.53 0.6,2.33 0.37,1.43 0.45,1.7 1.45,3.14 0.98,1.39 2.62,3.2 5.23,3.2 2.02,0 2.05,-1.78 2.05,-2.44 0,-0.87 -0.09,-1.33 -0.59,-3.28 z"
         inkscape:connector-curvature="0"
         style="fill:#000000;stroke-width:0" /></g>  </g>
</svg>
