<?xml version="1.0" encoding="UTF-8" standalone="no"?>
<svg
   xmlns:dc="http://purl.org/dc/elements/1.1/"
   xmlns:cc="http://creativecommons.org/ns#"
   xmlns:rdf="http://www.w3.org/1999/02/22-rdf-syntax-ns#"
   xmlns:svg="http://www.w3.org/2000/svg"
   xmlns="http://www.w3.org/2000/svg"
   xmlns:sodipodi="http://sodipodi.sourceforge.net/DTD/sodipodi-0.dtd"
   xmlns:inkscape="http://www.inkscape.org/namespaces/inkscape"
   style="fill:none;stroke:none"
   height="81.029999"
   width="802"
   sodipodi:docname="trio-phasing-complete-haplotype.svg"
   inkscape:version="0.48.5 r10040"
   id="svg2"
   stroke-miterlimit="10"
   viewBox="0 0 802 81.030001"
   version="1.1">
  <sodipodi:namedview
     pagecolor="#ffffff"
     bordercolor="#666666"
     borderopacity="1"
     objecttolerance="10"
     gridtolerance="10"
     guidetolerance="10"
     inkscape:pageopacity="0"
     inkscape:pageshadow="2"
     inkscape:window-width="2560"
     inkscape:window-height="1385"
     id="namedview295"
     showgrid="true"
     inkscape:zoom="1.4142136"
     inkscape:cx="215.84161"
     inkscape:cy="151.06133"
     inkscape:window-x="-2"
     inkscape:window-y="-3"
     inkscape:window-maximized="1"
     inkscape:current-layer="svg2"
     showguides="true"
     inkscape:guide-bbox="true"
     fit-margin-top="0"
     fit-margin-left="0"
     fit-margin-right="0"
     fit-margin-bottom="0"
     inkscape:snap-grids="true"
     inkscape:snap-to-guides="true"
     inkscape:snap-bbox="true"
     inkscape:snap-page="true">
    <inkscape:grid
       type="xygrid"
       id="grid4427"
       originx="-166.52863px"
       originy="757.86417px"
       empspacing="5"
       visible="true"
       enabled="true"
       snapvisiblegridlinesonly="true" />
  </sodipodi:namedview>
  <metadata
     id="metadata299">
    <rdf:RDF>
      <cc:Work
         rdf:about="">
        <dc:format>image/svg+xml</dc:format>
        <dc:type
           rdf:resource="http://purl.org/dc/dcmitype/StillImage" />
        <dc:title />
      </cc:Work>
    </rdf:RDF>
  </metadata>
  <defs
     id="defs297" />
  <clipPath
     id="p.0">
    <path
       d="M 0,0 960,0 960,720 0,720 0,0 z"
       id="path5"
       inkscape:connector-curvature="0" />
  </clipPath>
  <path
     style="fill:#000000;fill-opacity:0;fill-rule:nonzero"
     inkscape:connector-curvature="0"
     id="path117"
     d="m 628.90813,42.626987 161.03937,0 0,42.6457 -161.03937,0 z" />
  <path
     style="fill:#ffffff;fill-rule:nonzero;stroke:none"
     inkscape:connector-curvature="0"
     id="path291-1-8"
     d="m 256.32013,34.003587 q 1.96875,0 3.07812,1.4063 1.32813,1.6718 1.32813,5.5468 0,3.8594 -1.32813,5.5469 -1.10937,1.3906 -3.07812,1.3906 -1.98438,0 -3.20313,-1.5312 -1.21875,-1.5313 -1.21875,-5.4375 0,-3.8438 1.34375,-5.5313 1.09375,-1.3906 3.07813,-1.3906 z m 0,2.1563 q -0.48438,0 -0.85938,0.3125 -0.35937,0.2968 -0.5625,1.0781 -0.26562,1.0156 -0.26562,3.4062 0,2.3907 0.23437,3.2813 0.25,0.8906 0.60938,1.1875 0.35937,0.2969 0.84375,0.2969 0.46875,0 0.82812,-0.2969 0.375,-0.2969 0.59375,-1.0781 0.26563,-1 0.26563,-3.3907 0,-2.3906 -0.25,-3.2812 -0.23438,-0.9063 -0.60938,-1.2031 -0.35937,-0.3125 -0.82812,-0.3125 z" />
  <rect
     style="fill:#009292;fill-opacity:1;stroke:none"
     id="rect6453-3-2-6-0-4-5"
     width="269.99643"
     height="15.000031"
     x="26.050238"
     y="33.448936"
     ry="4.6464467" />
  <rect
     style="fill:#6db6ff;fill-opacity:1;stroke:none"
     id="rect6453-3-2-6-0-4"
     width="619.95337"
     height="15.000031"
     x="26.046671"
     y="59.903168"
     ry="4.6464467" />
  <path
     style="fill:#ffffff;fill-rule:nonzero"
     inkscape:connector-curvature="0"
     id="path105"
     d="m 88.637848,47.894187 -2.60938,0 0,-9.8281 q -1.4375,1.3438 -3.375,1.9844 l 0,-2.375 q 1.03125,-0.3281 2.21875,-1.25 1.20313,-0.9375 1.64063,-2.1875 l 2.125,0 0,13.6562 z" />
  <text
     xml:space="preserve"
     style="font-size:18px;font-style:normal;font-variant:normal;font-weight:normal;font-stretch:normal;line-height:125%;letter-spacing:0px;word-spacing:0px;fill:#000000;fill-opacity:1;stroke:none;font-family:Sans;-inkscape-font-specification:Sans"
     x="69.800934"
     y="25.738621"
     id="text4572-2-2-9-82-4"
     sodipodi:linespacing="125%"><tspan
       sodipodi:role="line"
       id="tspan4574-34-4-1-9-2"
       x="69.800934"
       y="25.738621">1/0</tspan></text>
  <text
     xml:space="preserve"
     style="font-size:18px;font-style:normal;font-variant:normal;font-weight:normal;font-stretch:normal;line-height:125%;letter-spacing:0px;word-spacing:0px;fill:#000000;fill-opacity:1;stroke:none;font-family:Sans;-inkscape-font-specification:Sans"
     x="155.13428"
     y="25.738621"
     id="text4572-2-2-9-82-9"
     sodipodi:linespacing="125%"><tspan
       sodipodi:role="line"
       id="tspan4574-34-4-1-9-1"
       x="155.13428"
       y="25.738621">1/0</tspan></text>
  <text
     xml:space="preserve"
     style="font-size:18px;font-style:normal;font-variant:normal;font-weight:normal;font-stretch:normal;line-height:125%;letter-spacing:0px;word-spacing:0px;fill:#000000;fill-opacity:1;stroke:none;font-family:Sans;-inkscape-font-specification:Sans"
     x="244.35887"
     y="25.738621"
     id="text4572-2-2-9-82-3"
     sodipodi:linespacing="125%"><tspan
       sodipodi:role="line"
       id="tspan4574-34-4-1-9-3"
       x="244.35887"
       y="25.738621">0/1</tspan></text>
  <text
     xml:space="preserve"
     style="font-size:18px;font-style:normal;font-variant:normal;font-weight:normal;font-stretch:normal;line-height:125%;letter-spacing:0px;word-spacing:0px;fill:#000000;fill-opacity:1;stroke:none;font-family:Sans;-inkscape-font-specification:Sans"
     x="325.6716"
     y="25.738621"
     id="text4572-2-2-9-82-5"
     sodipodi:linespacing="125%"><tspan
       sodipodi:role="line"
       id="tspan4574-34-4-1-9-4"
       x="325.6716"
       y="25.738621">0/0</tspan></text>
  <text
     xml:space="preserve"
     style="font-size:18px;font-style:normal;font-variant:normal;font-weight:normal;font-stretch:normal;line-height:125%;letter-spacing:0px;word-spacing:0px;fill:#000000;fill-opacity:1;stroke:none;font-family:Sans;-inkscape-font-specification:Sans"
     x="411.13428"
     y="25.738621"
     id="text4572-2-2-9-82-47"
     sodipodi:linespacing="125%"><tspan
       sodipodi:role="line"
       id="tspan4574-34-4-1-9-26"
       x="411.13428"
       y="25.738621">0/0</tspan></text>
  <text
     xml:space="preserve"
     style="font-size:18px;font-style:normal;font-variant:normal;font-weight:normal;font-stretch:normal;line-height:125%;letter-spacing:0px;word-spacing:0px;fill:#000000;fill-opacity:1;stroke:none;font-family:Sans;-inkscape-font-specification:Sans"
     x="581.80096"
     y="25.738621"
     id="text4572-2-2-9-82-1"
     sodipodi:linespacing="125%"><tspan
       sodipodi:role="line"
       id="tspan4574-34-4-1-9-27"
       x="581.80096"
       y="25.738621">0/0</tspan></text>
  <text
     xml:space="preserve"
     style="font-size:18px;font-style:normal;font-variant:normal;font-weight:normal;font-stretch:normal;line-height:125%;letter-spacing:0px;word-spacing:0px;fill:#000000;fill-opacity:1;stroke:none;font-family:Sans;-inkscape-font-specification:Sans"
     x="496.02823"
     y="25.738621"
     id="text4572-2-9-9"
     sodipodi:linespacing="125%"><tspan
       sodipodi:role="line"
       id="tspan4574-34-1-3"
       x="496.02823"
       y="25.738621">1/0</tspan></text>
  <rect
     style="fill:none;stroke:#000000;stroke-width:2;stroke-linejoin:round;stroke-miterlimit:4;stroke-opacity:1;stroke-dasharray:none;stroke-dashoffset:0"
     id="rect5757-1"
     width="800"
     height="80"
     x="0.99999118"
     y="1.2385995"
     ry="10" />
  <text
     xml:space="preserve"
     style="font-size:20px;font-style:normal;font-variant:normal;font-weight:normal;font-stretch:normal;line-height:125%;letter-spacing:0px;word-spacing:0px;fill:#000000;fill-opacity:1;stroke:none;font-family:Sans;-inkscape-font-specification:Sans"
     x="683.30103"
     y="-99.582207"
     id="text4572-64-9-4"
     sodipodi:linespacing="125%"><tspan
       sodipodi:role="line"
       id="tspan4574-41-0-4"
       x="0"
       y="-0.99999881"
       style="font-size:27.5px;font-style:normal;font-variant:normal;font-weight:normal;font-stretch:normal;font-family:Sans;-inkscape-font-specification:Sans"><tspan
         style="font-size:17.87525177px;baseline-shift:sub"
         id="tspan3447" /></tspan></text>
  <path
     style="fill:#ffffff;fill-rule:nonzero"
     inkscape:connector-curvature="0"
     id="path105-2"
     d="m 173.97119,47.894187 -2.60938,0 0,-9.8281 q -1.4375,1.3438 -3.375,1.9844 l 0,-2.375 q 1.03125,-0.3281 2.21875,-1.25 1.20313,-0.9375 1.64063,-2.1875 l 2.125,0 0,13.6562 z" />
  <path
     style="fill:#ffffff;fill-rule:nonzero"
     inkscape:connector-curvature="0"
     id="path291-8"
     d="m 597.6535,60.204507 q 1.96875,0 3.07812,1.4063 1.32813,1.6718 1.32813,5.5468 0,3.8594 -1.32813,5.5469 -1.10937,1.3906 -3.07812,1.3906 -1.98438,0 -3.20313,-1.5312 -1.21875,-1.5313 -1.21875,-5.4375 0,-3.8438 1.34375,-5.5313 1.09375,-1.3906 3.07813,-1.3906 z m 0,2.1563 q -0.48438,0 -0.85938,0.3125 -0.35937,0.2968 -0.5625,1.0781 -0.26562,1.0156 -0.26562,3.4062 0,2.3907 0.23437,3.2813 0.25,0.8906 0.60938,1.1875 0.35937,0.2969 0.84375,0.2969 0.46875,0 0.82812,-0.2969 0.375,-0.2969 0.59375,-1.0781 0.26563,-1 0.26563,-3.3907 0,-2.3906 -0.25,-3.2812 -0.23438,-0.9063 -0.60938,-1.2031 -0.35937,-0.3125 -0.82812,-0.3125 z" />
  <path
     style="fill:#ffffff;fill-rule:nonzero;stroke:none"
     inkscape:connector-curvature="0"
     id="path291-8-4"
     d="m 512.57897,60.204507 q 1.96875,0 3.07812,1.4063 1.32813,1.6718 1.32813,5.5468 0,3.8594 -1.32813,5.5469 -1.10937,1.3906 -3.07812,1.3906 -1.98438,0 -3.20313,-1.5312 -1.21875,-1.5313 -1.21875,-5.4375 0,-3.8438 1.34375,-5.5313 1.09375,-1.3906 3.07813,-1.3906 z m 0,2.1563 q -0.48438,0 -0.85938,0.3125 -0.35937,0.2968 -0.5625,1.0781 -0.26562,1.0156 -0.26562,3.4062 0,2.3907 0.23437,3.2813 0.25,0.8906 0.60938,1.1875 0.35937,0.2969 0.84375,0.2969 0.46875,0 0.82812,-0.2969 0.375,-0.2969 0.59375,-1.0781 0.26563,-1 0.26563,-3.3907 0,-2.3906 -0.25,-3.2812 -0.23438,-0.9063 -0.60938,-1.2031 -0.35937,-0.3125 -0.82812,-0.3125 z" />
  <rect
     style="fill:#b66dff;fill-opacity:1;stroke:none"
     id="rect6453-3-2-6-0-4-5-6"
     width="350"
     height="15.000031"
     x="296.04672"
     y="33.448936"
     ry="4.6464467" />
  <path
     style="fill:#ffffff;fill-opacity:1;fill-rule:nonzero;stroke:none"
     inkscape:connector-curvature="0"
     id="path105-9-4-2-1-5-4"
     d="m 515.30457,47.037497 -2.60938,0 0,-9.8281 q -1.4375,1.3437 -3.375,1.9844 l 0,-2.375 q 1.03125,-0.3282 2.21875,-1.25 1.20313,-0.9375 1.64063,-2.1875 l 2.125,0 0,13.6562 z" />
  <path
     style="fill:#ffffff;fill-opacity:1;fill-rule:nonzero;stroke:none"
     inkscape:connector-curvature="0"
     id="path291-1-2-9-7-7"
     d="m 341.78289,33.146897 q 1.96875,0 3.07812,1.4062 1.32813,1.6719 1.32813,5.5469 0,3.8594 -1.32813,5.5469 -1.10937,1.3906 -3.07812,1.3906 -1.98438,0 -3.20313,-1.5312 -1.21875,-1.5313 -1.21875,-5.4375 0,-3.8438 1.34375,-5.5313 1.09375,-1.3906 3.07813,-1.3906 z m 0,2.1562 q -0.48438,0 -0.85938,0.3125 -0.35937,0.2969 -0.5625,1.0782 -0.26562,1.0156 -0.26562,3.4062 0,2.3906 0.23437,3.2813 0.25,0.8906 0.60938,1.1875 0.35937,0.2968 0.84375,0.2968 0.46875,0 0.82812,-0.2968 0.375,-0.2969 0.59375,-1.0782 0.26563,-1 0.26563,-3.3906 0,-2.3906 -0.25,-3.2812 -0.23438,-0.9063 -0.60938,-1.2032 -0.35937,-0.3125 -0.82812,-0.3125 z" />
  <path
     style="fill:#ffffff;fill-opacity:1;fill-rule:nonzero;stroke:none"
     inkscape:connector-curvature="0"
     id="path291-1-2-9-9-5"
     d="m 426.98679,33.146897 q 1.96875,0 3.07812,1.4062 1.32813,1.6719 1.32813,5.5469 0,3.8594 -1.32813,5.5469 -1.10937,1.3906 -3.07812,1.3906 -1.98438,0 -3.20313,-1.5312 -1.21875,-1.5313 -1.21875,-5.4375 0,-3.8438 1.34375,-5.5313 1.09375,-1.3906 3.07813,-1.3906 z m 0,2.1562 q -0.48438,0 -0.85938,0.3125 -0.35937,0.2969 -0.5625,1.0782 -0.26562,1.0156 -0.26562,3.4062 0,2.3906 0.23437,3.2813 0.25,0.8906 0.60938,1.1875 0.35937,0.2968 0.84375,0.2968 0.46875,0 0.82812,-0.2968 0.375,-0.2969 0.59375,-1.0782 0.26563,-1 0.26563,-3.3906 0,-2.3906 -0.25,-3.2812 -0.23438,-0.9063 -0.60938,-1.2032 -0.35937,-0.3125 -0.82812,-0.3125 z" />
  <path
     style="fill:#ffffff;fill-opacity:1;fill-rule:nonzero;stroke:none"
     inkscape:connector-curvature="0"
     id="path291-1-2-9-4-2"
     d="m 597.6535,33.146897 q 1.96875,0 3.07812,1.4062 1.32813,1.6719 1.32813,5.5469 0,3.8594 -1.32813,5.5469 -1.10937,1.3906 -3.07812,1.3906 -1.98438,0 -3.20313,-1.5312 -1.21875,-1.5313 -1.21875,-5.4375 0,-3.8438 1.34375,-5.5313 1.09375,-1.3906 3.07813,-1.3906 z m 0,2.1562 q -0.48438,0 -0.85938,0.3125 -0.35937,0.2969 -0.5625,1.0782 -0.26562,1.0156 -0.26562,3.4062 0,2.3906 0.23437,3.2813 0.25,0.8906 0.60938,1.1875 0.35937,0.2968 0.84375,0.2968 0.46875,0 0.82812,-0.2968 0.375,-0.2969 0.59375,-1.0782 0.26563,-1 0.26563,-3.3906 0,-2.3906 -0.25,-3.2812 -0.23438,-0.9063 -0.60938,-1.2032 -0.35937,-0.3125 -0.82812,-0.3125 z" />
  <path
     style="fill:#ffffff;fill-opacity:1;fill-rule:nonzero;stroke:none"
     inkscape:connector-curvature="0"
     id="path291-1-2-50"
     d="m 86.239261,60.904237 q 1.96875,0 3.07812,1.4062 1.32813,1.6719 1.32813,5.5469 0,3.8594 -1.32813,5.5469 -1.10937,1.3906 -3.07812,1.3906 -1.98438,0 -3.20313,-1.5312 -1.21875,-1.5313 -1.21875,-5.4375 0,-3.8438 1.34375,-5.5313 1.09375,-1.3906 3.07813,-1.3906 z m 0,2.1562 q -0.48438,0 -0.85938,0.3125 -0.35937,0.2969 -0.5625,1.0782 -0.26562,1.0156 -0.26562,3.4062 0,2.3906 0.23437,3.2813 0.25,0.8906 0.60938,1.1875 0.35937,0.2968 0.84375,0.2968 0.46875,0 0.82812,-0.2968 0.375,-0.2969 0.59375,-1.0782 0.26563,-1 0.26563,-3.3906 0,-2.3906 -0.25,-3.2812 -0.23438,-0.9063 -0.60938,-1.2032 -0.35937,-0.3125 -0.82812,-0.3125 z" />
  <path
     style="fill:#ffffff;fill-opacity:1;fill-rule:nonzero;stroke:none"
     inkscape:connector-curvature="0"
     id="path291-1-2-6-7"
     d="m 171.5726,60.904237 q 1.96875,0 3.07812,1.4062 1.32813,1.6719 1.32813,5.5469 0,3.8594 -1.32813,5.5469 -1.10937,1.3906 -3.07812,1.3906 -1.98438,0 -3.20313,-1.5312 -1.21875,-1.5313 -1.21875,-5.4375 0,-3.8438 1.34375,-5.5313 1.09375,-1.3906 3.07813,-1.3906 z m 0,2.1562 q -0.48438,0 -0.85938,0.3125 -0.35937,0.2969 -0.5625,1.0782 -0.26562,1.0156 -0.26562,3.4062 0,2.3906 0.23437,3.2813 0.25,0.8906 0.60938,1.1875 0.35937,0.2968 0.84375,0.2968 0.46875,0 0.82812,-0.2968 0.375,-0.2969 0.59375,-1.0782 0.26563,-1 0.26563,-3.3906 0,-2.3906 -0.25,-3.2812 -0.23438,-0.9063 -0.60938,-1.2032 -0.35937,-0.3125 -0.82812,-0.3125 z" />
  <path
     style="fill:#ffffff;fill-opacity:1;fill-rule:nonzero;stroke:none"
     inkscape:connector-curvature="0"
     id="path291-1-2-5-7"
     d="m 341.78289,60.852787 q 1.96875,0 3.07813,1.4062 1.32812,1.6719 1.32812,5.5469 0,3.8594 -1.32812,5.5469 -1.10938,1.3906 -3.07813,1.3906 -1.98437,0 -3.20312,-1.5313 -1.21875,-1.5312 -1.21875,-5.4375 0,-3.8437 1.34375,-5.5312 1.09375,-1.3906 3.07812,-1.3906 z m 0,2.1562 q -0.48437,0 -0.85937,0.3125 -0.35938,0.2969 -0.5625,1.0781 -0.26563,1.0157 -0.26563,3.4063 0,2.3906 0.23438,3.2812 0.25,0.8907 0.60937,1.1875 0.35938,0.2969 0.84375,0.2969 0.46875,0 0.82813,-0.2969 0.375,-0.2968 0.59375,-1.0781 0.26562,-1 0.26562,-3.3906 0,-2.3906 -0.25,-3.2813 -0.23437,-0.9062 -0.60937,-1.2031 -0.35938,-0.3125 -0.82813,-0.3125 z" />
  <path
     style="fill:#ffffff;fill-opacity:1;fill-rule:nonzero;stroke:none"
     inkscape:connector-curvature="0"
     id="path291-1-2-4-3"
     d="m 426.98679,60.852787 q 1.96875,0 3.07812,1.4062 1.32813,1.6719 1.32813,5.5469 0,3.8594 -1.32813,5.5469 -1.10937,1.3906 -3.07812,1.3906 -1.98438,0 -3.20313,-1.5313 -1.21875,-1.5312 -1.21875,-5.4375 0,-3.8437 1.34375,-5.5312 1.09375,-1.3906 3.07813,-1.3906 z m 0,2.1562 q -0.48438,0 -0.85938,0.3125 -0.35937,0.2969 -0.5625,1.0781 -0.26562,1.0157 -0.26562,3.4063 0,2.3906 0.23437,3.2812 0.25,0.8907 0.60938,1.1875 0.35937,0.2969 0.84375,0.2969 0.46875,0 0.82812,-0.2969 0.375,-0.2968 0.59375,-1.0781 0.26563,-1 0.26563,-3.3906 0,-2.3906 -0.25,-3.2813 -0.23438,-0.9062 -0.60938,-1.2031 -0.35937,-0.3125 -0.82812,-0.3125 z" />
  <path
     style="fill:#ffffff;fill-opacity:1;fill-rule:nonzero;stroke:none"
     inkscape:connector-curvature="0"
     id="path105-9-4-2-1-47"
     d="m 259.3045,74.743387 -2.60938,0 0,-9.8281 q -1.4375,1.3437 -3.375,1.9843 l 0,-2.375 q 1.03125,-0.3281 2.21875,-1.25 1.20313,-0.9375 1.64063,-2.1875 l 2.125,0 0,13.6563 z" />
  <path
     style="fill:#ffffff;fill-opacity:1;fill-rule:nonzero;stroke:none"
     inkscape:connector-curvature="0"
     id="path105-9-4-2-1-47-3"
     d="m 259.3045,47.450497 -2.60938,0 0,-9.8281 q -1.4375,1.3437 -3.375,1.9843 l 0,-2.375 q 1.03125,-0.3281 2.21875,-1.25 1.20313,-0.9375 1.64063,-2.1875 l 2.125,0 0,13.6563 z" />
  <text
     xml:space="preserve"
     style="font-size:20px;font-style:normal;font-variant:normal;font-weight:normal;font-stretch:normal;line-height:125%;letter-spacing:0px;word-spacing:0px;fill:#000000;fill-opacity:1;stroke:none;font-family:Sans;-inkscape-font-specification:Sans"
     x="687.30096"
     y="88.362854"
     id="text4572-64-9-4-4-3"
     sodipodi:linespacing="125%"><tspan
       sodipodi:role="line"
       id="tspan4574-41-0-4-4-3"
       x="687.30096"
       y="88.362854"
       style="font-size:27.5px;font-style:normal;font-variant:normal;font-weight:normal;font-stretch:normal;font-family:Sans;-inkscape-font-specification:Sans" /></text>
  <g
     id="g7378"
     transform="matrix(0.91174768,0,0,0.71559047,559.87492,-233.19275)"
     inkscape:transform-center-x="528.61243"
     inkscape:transform-center-y="73.651997">
    <g
       id="g7380"
       transform="matrix(0.5191112,0,0,-0.5191112,-90.84446,603.2677)"
       xml:space="preserve"
       stroke-miterlimit="10.433"
       font-style="normal"
       font-variant="normal"
       font-weight="normal"
       font-stretch="normal"
       font-size-adjust="none"
       letter-spacing="normal"
       word-spacing="normal"
       style="font-style:normal;font-variant:normal;font-weight:normal;font-stretch:normal;letter-spacing:normal;word-spacing:normal;text-anchor:start;fill:none;stroke:#000000;stroke-linecap:butt;stroke-linejoin:miter;stroke-miterlimit:10.43299961;stroke-opacity:1;stroke-dasharray:none;stroke-dashoffset:0"><path
         d="m 469.82,440.23 0,0 0,0.01 0,0 0,0.01 -0.01,0.02 0,0.01 0,0.02 0,0.02 0,0.02 -0.01,0.02 0,0.02 -0.01,0.02 -0.01,0.02 -0.01,0.03 -0.01,0.02 -0.01,0.03 -0.01,0.02 -0.02,0.03 -0.02,0.02 -0.02,0.02 -0.02,0.03 -0.01,0.01 -0.01,0.01 -0.02,0.01 -0.01,0.01 -0.02,0.01 -0.01,0.01 -0.02,0.01 -0.01,0.01 -0.02,0.01 -0.02,0.01 -0.02,0 -0.02,0.01 -0.02,0.01 -0.02,0 -0.02,0.01 -0.02,0.01 -0.03,0 -0.02,0 -0.03,0.01 -0.02,0 -0.03,0 -0.03,0.01 -0.02,0 -0.03,0 c -1.16,0 -4.79,-0.41 -6.08,-0.5 -0.41,-0.05 -0.96,-0.1 -0.96,-1 0,-0.6 0.46,-0.6 1.21,-0.6 2.39,0 2.48,-0.34 2.48,-0.84 l -0.15,-1 -7.22,-28.7 c -0.21,-0.69 -0.21,-0.8 -0.21,-1.1 0,-1.14 1,-1.39 1.46,-1.39 0.79,0 1.59,0.6 1.84,1.3 l 0.94,3.78 1.11,4.48 c 0.29,1.1 0.59,2.19 0.84,3.35 0.1,0.3 0.5,1.94 0.55,2.23 0.14,0.46 1.69,3.25 3.39,4.6 1.09,0.79 2.64,1.73 4.78,1.73 2.14,0 2.69,-1.69 2.69,-3.48 0,-2.69 -1.89,-8.13 -3.1,-11.16 -0.39,-1.16 -0.64,-1.75 -0.64,-2.75 0,-2.33 1.74,-4.08 4.08,-4.08 4.69,0 6.53,7.27 6.53,7.67 0,0.5 -0.45,0.5 -0.59,0.5 -0.5,0 -0.5,-0.15 -0.75,-0.9 -0.75,-2.64 -2.34,-6.17 -5.08,-6.17 -0.86,0 -1.2,0.5 -1.2,1.64 0,1.25 0.45,2.45 0.9,3.54 0.8,2.14 3.04,8.07 3.04,10.96 0,3.23 -2,5.32 -5.74,5.32 -3.14,0 -5.53,-1.53 -7.37,-3.82 z"
         id="path7382"
         inkscape:connector-curvature="0"
         style="fill:#000000;stroke-width:0" /><path
         d="m 502.18,435.31 0,0.71 -0.02,0.68 -0.03,0.66 -0.04,0.64 -0.06,0.62 -0.07,0.59 -0.1,0.58 -0.1,0.56 -0.13,0.55 -0.15,0.52 -0.17,0.52 -0.19,0.5 -0.21,0.49 -0.24,0.48 -0.26,0.47 -0.14,0.23 -0.15,0.23 c -1.08,1.61 -3.23,3 -6.03,3 -8.08,0 -8.08,-9.52 -8.08,-12.03 0,-2.5 0,-11.81 8.08,-11.81 v 0.98 c -1.59,0 -3.72,0.94 -4.42,3.8 -0.49,2.04 -0.49,4.9 -0.49,7.48 0,2.55 0,5.2 0.52,7.11 0.73,2.75 2.97,3.49 4.39,3.49 1.89,0 3.7,-1.15 4.33,-3.18 0.56,-1.87 0.59,-4.39 0.59,-7.42 0,-2.58 0,-5.15 -0.45,-7.34 -0.7,-3.17 -3.06,-3.94 -4.47,-3.94 h 0 v -0.98 c 8.09,0 8.09,9.31 8.09,11.81 z"
         id="path7384"
         inkscape:connector-curvature="0"
         style="fill:#000000;stroke-width:0" /><path
         d="m 499.46,407.18 -0.11,-0.02 -0.11,-0.02 -0.11,-0.03 -0.11,-0.04 -0.09,-0.03 -0.1,-0.05 -0.09,-0.04 -0.09,-0.05 -0.08,-0.05 -0.08,-0.06 -0.07,-0.05 -0.07,-0.06 -0.07,-0.06 -0.07,-0.07 -0.05,-0.06 -0.06,-0.07 -0.05,-0.07 -0.05,-0.07 -0.05,-0.08 -0.04,-0.07 -0.03,-0.07 -0.04,-0.08 -0.03,-0.07 -0.03,-0.08 -0.02,-0.08 -0.02,-0.07 -0.02,-0.08 -0.01,-0.07 -0.01,-0.08 -0.01,-0.07 0,-0.08 -0.01,-0.07 c 0,-0.94 0.74,-1.28 1.36,-1.28 0.77,0 1.99,0.55 1.99,2.22 0,2.37 -2.72,3.03 -4.6,3.03 -5.23,0 -10.07,-4.8 -10.07,-9.64 0,-3 2.09,-6.06 6.45,-6.06 5.89,0 8.64,3.43 8.64,3.93 0,0.21 -0.31,0.6 -0.59,0.6 -0.21,0 -0.29,-0.08 -0.57,-0.36 -2.72,-3.21 -6.79,-3.21 -7.42,-3.21 -2.5,0 -3.62,1.71 -3.62,3.88 0,1 0.5,4.8 2.31,7.2 1.31,1.72 3.12,2.69 4.87,2.69 0.49,0 2.16,-0.06 3.03,-1.05 z"
         id="path7386"
         inkscape:connector-curvature="0"
         style="fill:#000000;stroke-width:0" /></g>  </g>
  <g
     id="g7780"
     transform="matrix(0.92715453,0,0,0.71559047,557.60952,-209.40375)">
    <g
       word-spacing="normal"
       letter-spacing="normal"
       font-size-adjust="none"
       font-stretch="normal"
       font-weight="normal"
       font-variant="normal"
       font-style="normal"
       stroke-miterlimit="10.433"
       xml:space="preserve"
       transform="matrix(0.5191112,0,0,-0.5191112,-90.84446,603.2677)"
       id="g7782"
       style="font-style:normal;font-variant:normal;font-weight:normal;font-stretch:normal;letter-spacing:normal;word-spacing:normal;text-anchor:start;fill:none;stroke:#000000;stroke-linecap:butt;stroke-linejoin:miter;stroke-miterlimit:10.43299961;stroke-opacity:1;stroke-dasharray:none;stroke-dashoffset:0"><path
         id="path7784"
         d="m 469.82,440.23 0,0 0,0.01 0,0 0,0.01 -0.01,0.02 0,0.01 0,0.02 0,0.02 0,0.02 -0.01,0.02 0,0.02 -0.01,0.02 -0.01,0.02 -0.01,0.03 -0.01,0.02 -0.01,0.03 -0.01,0.02 -0.02,0.03 -0.02,0.02 -0.02,0.02 -0.02,0.03 -0.01,0.01 -0.01,0.01 -0.02,0.01 -0.01,0.01 -0.02,0.01 -0.01,0.01 -0.02,0.01 -0.01,0.01 -0.02,0.01 -0.02,0.01 -0.02,0 -0.02,0.01 -0.02,0.01 -0.02,0 -0.02,0.01 -0.02,0.01 -0.03,0 -0.02,0 -0.03,0.01 -0.02,0 -0.03,0 -0.03,0.01 -0.02,0 -0.03,0 c -1.16,0 -4.79,-0.41 -6.08,-0.5 -0.41,-0.05 -0.96,-0.1 -0.96,-1 0,-0.6 0.46,-0.6 1.21,-0.6 2.39,0 2.48,-0.34 2.48,-0.84 l -0.15,-1 -7.22,-28.7 c -0.21,-0.69 -0.21,-0.8 -0.21,-1.1 0,-1.14 1,-1.39 1.46,-1.39 0.79,0 1.59,0.6 1.84,1.3 l 0.94,3.78 1.11,4.48 c 0.29,1.1 0.59,2.19 0.84,3.35 0.1,0.3 0.5,1.94 0.55,2.23 0.14,0.46 1.69,3.25 3.39,4.6 1.09,0.79 2.64,1.73 4.78,1.73 2.14,0 2.69,-1.69 2.69,-3.48 0,-2.69 -1.89,-8.13 -3.1,-11.16 -0.39,-1.16 -0.64,-1.75 -0.64,-2.75 0,-2.33 1.74,-4.08 4.08,-4.08 4.69,0 6.53,7.27 6.53,7.67 0,0.5 -0.45,0.5 -0.59,0.5 -0.5,0 -0.5,-0.15 -0.75,-0.9 -0.75,-2.64 -2.34,-6.17 -5.08,-6.17 -0.86,0 -1.2,0.5 -1.2,1.64 0,1.25 0.45,2.45 0.9,3.54 0.8,2.14 3.04,8.07 3.04,10.96 0,3.23 -2,5.32 -5.74,5.32 -3.14,0 -5.53,-1.53 -7.37,-3.82 z"
         inkscape:connector-curvature="0"
         style="fill:#000000;stroke-width:0" /><path
         id="path7786"
         d="m 495.87,446.36 0,0.04 0,0.04 0,0.04 0,0.04 0,0.04 0,0.04 0,0.04 0,0.03 -0.01,0.04 0,0.03 0,0.03 0,0.03 0,0.03 -0.01,0.03 0,0.03 0,0.02 -0.01,0.03 0,0.02 -0.01,0.02 0,0.03 -0.02,0.04 -0.01,0.04 -0.02,0.03 -0.02,0.03 -0.02,0.03 -0.02,0.03 -0.03,0.02 -0.03,0.02 -0.03,0.01 -0.04,0.02 -0.04,0.01 -0.05,0.01 -0.02,0.01 -0.02,0 -0.03,0.01 -0.03,0 -0.02,0 -0.03,0.01 -0.03,0 -0.03,0 -0.04,0 -0.03,0 -0.03,0.01 -0.04,0 -0.03,0 -0.04,0 -0.04,0 -0.04,0 -0.04,0 -0.05,0 -0.04,0 -0.05,0 c -2.23,-2.2 -5.39,-2.23 -6.82,-2.23 v -1.25 c 0.84,0 3.14,0 5.04,0.96 v -17.76 c 0,-1.16 0,-1.61 -3.48,-1.61 h -1.31 v -1.25 c 0.62,0.03 4.9,0.14 6.2,0.14 1.08,0 5.47,-0.11 6.23,-0.14 v 1.25 h -1.32 c -3.49,0 -3.49,0.45 -3.49,1.61 z"
         inkscape:connector-curvature="0"
         style="fill:#000000;stroke-width:0" /><path
         id="path7788"
         d="m 499.46,407.18 -0.11,-0.02 -0.11,-0.02 -0.11,-0.03 -0.11,-0.04 -0.09,-0.03 -0.1,-0.05 -0.09,-0.04 -0.09,-0.05 -0.08,-0.05 -0.08,-0.06 -0.07,-0.05 -0.07,-0.06 -0.07,-0.06 -0.07,-0.07 -0.05,-0.06 -0.06,-0.07 -0.05,-0.07 -0.05,-0.07 -0.05,-0.08 -0.04,-0.07 -0.03,-0.07 -0.04,-0.08 -0.03,-0.07 -0.03,-0.08 -0.02,-0.08 -0.02,-0.07 -0.02,-0.08 -0.01,-0.07 -0.01,-0.08 -0.01,-0.07 0,-0.08 -0.01,-0.07 c 0,-0.94 0.74,-1.28 1.36,-1.28 0.77,0 1.99,0.55 1.99,2.22 0,2.37 -2.72,3.03 -4.6,3.03 -5.23,0 -10.07,-4.8 -10.07,-9.64 0,-3 2.09,-6.06 6.45,-6.06 5.89,0 8.64,3.43 8.64,3.93 0,0.21 -0.31,0.6 -0.59,0.6 -0.21,0 -0.29,-0.08 -0.57,-0.36 -2.72,-3.21 -6.79,-3.21 -7.42,-3.21 -2.5,0 -3.62,1.71 -3.62,3.88 0,1 0.5,4.8 2.31,7.2 1.31,1.72 3.12,2.69 4.87,2.69 0.49,0 2.16,-0.06 3.03,-1.05 z"
         inkscape:connector-curvature="0"
         style="fill:#000000;stroke-width:0" /></g>  </g>
</svg>
