<?xml version="1.0" encoding="UTF-8" standalone="no"?>
<!-- Created with Inkscape (http://www.inkscape.org/) -->

<svg
   xmlns:dc="http://purl.org/dc/elements/1.1/"
   xmlns:cc="http://creativecommons.org/ns#"
   xmlns:rdf="http://www.w3.org/1999/02/22-rdf-syntax-ns#"
   xmlns:svg="http://www.w3.org/2000/svg"
   xmlns="http://www.w3.org/2000/svg"
   xmlns:sodipodi="http://sodipodi.sourceforge.net/DTD/sodipodi-0.dtd"
   xmlns:inkscape="http://www.inkscape.org/namespaces/inkscape"
   id="svg2985"
   version="1.1"
   inkscape:version="0.48.5 r10040"
   width="510.8875"
   height="204.6625"
   xml:space="preserve"
   sodipodi:docname="UdS_Logo_4c.eps"><metadata
     id="metadata2991"><rdf:RDF><cc:Work
         rdf:about=""><dc:format>image/svg+xml</dc:format><dc:type
           rdf:resource="http://purl.org/dc/dcmitype/StillImage" /><dc:title></dc:title></cc:Work></rdf:RDF></metadata><defs
     id="defs2989" /><sodipodi:namedview
     pagecolor="#ffffff"
     bordercolor="#666666"
     borderopacity="1"
     objecttolerance="10"
     gridtolerance="10"
     guidetolerance="10"
     inkscape:pageopacity="0"
     inkscape:pageshadow="2"
     inkscape:window-width="1366"
     inkscape:window-height="705"
     id="namedview2987"
     showgrid="false"
     inkscape:zoom="1.28"
     inkscape:cx="307.35858"
     inkscape:cy="60.452359"
     inkscape:window-x="-8"
     inkscape:window-y="-8"
     inkscape:window-maximized="1"
     inkscape:current-layer="g2995" /><g
     id="g2993"
     inkscape:groupmode="layer"
     inkscape:label="ink_ext_XXXXXX"
     transform="matrix(1.25,0,0,-1.25,0,204.6625)"><g
       id="g2995"
       transform="scale(0.1,0.1)"><path
         d="m 1458.94,1230.32 0,-976.3 -65.12,0 c -121.83,0 -233.96,57.601 -294.99,115.589 l 0,-168.5 151.33,0 62.3,-119.859 -28.79,0 -65.54,45.801 -85.04,0 30.29,-32.7619 10.43,-94.2695687 -25.88,0 -116.74,127.0314687 -185.252,0 -40.215,-45.801 -25.84,0 31.484,119.859 151.738,0 -81.894,89.063 -305.176,0 -81.894,-89.063 151.738,0 31.523,-119.859 -25.898,0 -40.195,45.801 -185.274,0 L 309.258,0 l -25.84,0 10.43,94.2305 30.293,32.8205 -85.02,0 -65.508,-45.801 -28.828,0 62.344,119.859 152.871,0 0,168.34 C 298.945,311.52 186.855,254.02 65.1563,254.02 l -65.1563,0 0,976.3 c 0,82.32 65.2344,128.48 146.797,128.48 101.348,0 175.469,-71.35 218.359,-142.57 l 34.805,421.1 166.875,0 c 0,0 50.742,-72.03 66.094,-93.81 l 186.25,0 c 15.39,21.66 66.797,93.81 66.797,93.81 l 162.913,0 43.82,-422.91 c 42.76,71.8 117.19,144.38 219.39,144.38 81.61,0 146.84,-46.16 146.84,-128.48"
         style="fill:#094270;fill-opacity:1;fill-rule:nonzero;stroke:none"
         id="path2997" /><path
         d="m 726.914,1207.74 -44.297,-33.26 44.297,-99.87 45.156,99.87 -45.156,33.26"
         style="fill:#ffffff;fill-opacity:1;fill-rule:nonzero;stroke:none"
         id="path2999" /><path
         d="m 1006.58,1320.71 c 0,-72.91 -59.119,-132.05 -132.068,-132.05 -72.91,0 -132.012,59.14 -132.012,132.05 0,72.91 59.102,132.05 132.012,132.05 72.949,0 132.068,-59.14 132.068,-132.05"
         style="fill:#ffffff;fill-opacity:1;fill-rule:nonzero;stroke:none"
         id="path3001" /><path
         d="m 974.727,1320.71 c 0,-55.35 -44.844,-100.19 -100.196,-100.19 -55.351,0 -100.215,44.84 -100.215,100.19 0,55.33 44.864,100.19 100.215,100.19 55.352,0 100.196,-44.86 100.196,-100.19"
         style="fill:#173e7d;fill-opacity:1;fill-rule:nonzero;stroke:none"
         id="path3003" /><path
         d="m 932.285,1320.71 c 0,-31.9 -25.84,-57.78 -57.773,-57.78 -31.875,0 -57.774,25.88 -57.774,57.78 0,31.89 25.899,57.77 57.774,57.77 31.933,0 57.773,-25.88 57.773,-57.77"
         style="fill:#ffffff;fill-opacity:1;fill-rule:nonzero;stroke:none"
         id="path3005" /><path
         d="m 712.148,1320.71 c 0,-72.91 -59.062,-132.05 -132.011,-132.05 -72.91,0 -132.012,59.14 -132.012,132.05 0,72.91 59.102,132.05 132.012,132.05 72.949,0 132.011,-59.14 132.011,-132.05"
         style="fill:#ffffff;fill-opacity:1;fill-rule:nonzero;stroke:none"
         id="path3007" /><path
         d="m 680.332,1320.71 c 0,-55.35 -44.824,-100.19 -100.195,-100.19 -55.313,0 -100.196,44.84 -100.196,100.19 0,55.33 44.883,100.19 100.196,100.19 55.371,0 100.195,-44.86 100.195,-100.19"
         style="fill:#173e7d;fill-opacity:1;fill-rule:nonzero;stroke:none"
         id="path3009" /><path
         d="m 637.91,1320.71 c 0,-31.9 -25.84,-57.78 -57.773,-57.78 -31.875,0 -57.774,25.88 -57.774,57.78 0,31.89 25.899,57.77 57.774,57.77 31.933,0 57.773,-25.88 57.773,-57.77"
         style="fill:#ffffff;fill-opacity:1;fill-rule:nonzero;stroke:none"
         id="path3011" /><path
         d="m 537.93,663.902 c 0,9.532 -7.774,17.305 -17.325,17.305 -9.55,0 -17.324,-7.773 -17.324,-17.305 l 0,-112.113 c 0,-6.617 -4.726,-12.008 -10.586,-12.008 -5.84,0 -10.625,5.391 -10.625,12.008 l 0,112.113 c 0,9.532 -7.734,17.305 -17.304,17.305 -9.551,0 -17.286,-7.773 -17.286,-17.305 l 0,-202.754 c 0,-25.718 20.274,-46.636 45.215,-46.636 24.922,0 45.235,20.918 45.235,46.636 l 0,202.754"
         style="fill:#ffffff;fill-opacity:1;fill-rule:nonzero;stroke:none"
         id="path3013" /><path
         d="m 690.586,617.59 c 0,9.551 -7.734,17.332 -17.285,17.332 -9.61,0 -17.344,-7.781 -17.344,-17.332 l 0,-112.129 c 0,-6.641 -4.746,-12.031 -10.605,-12.031 -5.821,0 -10.606,5.39 -10.606,12.031 l 0,112.129 c 0,9.551 -7.734,17.332 -17.285,17.332 -9.609,0 -17.344,-7.781 -17.344,-17.332 l 0,-202.75 c 0,-25.738 20.313,-46.641 45.235,-46.641 24.961,0 45.234,20.903 45.234,46.641 l 0,202.75"
         style="fill:#ffffff;fill-opacity:1;fill-rule:nonzero;stroke:none"
         id="path3015" /><path
         d="m 851.25,617.59 c 0,9.551 -7.773,17.332 -17.305,17.332 -9.59,0 -17.324,-7.781 -17.324,-17.332 l 0,-112.129 c 0,-6.641 -4.746,-12.031 -10.605,-12.031 -5.86,0 -10.606,5.39 -10.606,12.031 l 0,112.129 c 0,9.551 -7.734,17.332 -17.324,17.332 -9.57,0 -17.305,-7.781 -17.305,-17.332 l 0,-202.75 c 0,-25.738 20.274,-46.641 45.235,-46.641 24.922,0 45.234,20.903 45.234,46.641 l 0,202.75"
         style="fill:#ffffff;fill-opacity:1;fill-rule:nonzero;stroke:none"
         id="path3017" /><path
         d="m 1003.89,663.902 c 0,9.532 -7.738,17.305 -17.288,17.305 -9.571,0 -17.344,-7.773 -17.344,-17.305 l 0,-112.113 c 0,-6.617 -4.746,-12.008 -10.606,-12.008 -5.8,0 -10.605,5.391 -10.605,12.008 l 0,112.113 c 0,9.532 -7.734,17.305 -17.285,17.305 -9.551,0 -17.285,-7.773 -17.285,-17.305 l 0,-202.754 c 0,-25.718 20.273,-46.636 45.175,-46.636 24.961,0 45.238,20.918 45.238,46.636 l 0,202.754"
         style="fill:#ffffff;fill-opacity:1;fill-rule:nonzero;stroke:none"
         id="path3019" /><path
         d="m 537.93,984.832 c 0,9.551 -7.774,17.308 -17.325,17.308 -9.55,0 -17.324,-7.757 -17.324,-17.308 l 0,-112.133 c 0,-6.617 -4.726,-12.011 -10.586,-12.011 -5.84,0 -10.625,5.394 -10.625,12.011 l 0,112.133 c 0,9.551 -7.734,17.308 -17.304,17.308 -9.551,0 -17.286,-7.757 -17.286,-17.308 l 0,-202.766 c 0,-25.722 20.274,-46.64 45.215,-46.64 24.922,0 45.235,20.918 45.235,46.64 l 0,202.766"
         style="fill:#ffffff;fill-opacity:1;fill-rule:nonzero;stroke:none"
         id="path3021" /><path
         d="m 690.586,938.52 c 0,9.535 -7.734,17.289 -17.285,17.289 -9.61,0 -17.344,-7.754 -17.344,-17.289 l 0,-112.122 c 0,-6.64 -4.746,-12.031 -10.605,-12.031 -5.821,0 -10.606,5.391 -10.606,12.031 l 0,112.122 c 0,9.535 -7.734,17.289 -17.285,17.289 -9.609,0 -17.344,-7.754 -17.344,-17.289 l 0,-202.782 c 0,-25.683 20.313,-46.64 45.235,-46.64 24.961,0 45.234,20.957 45.234,46.64 l 0,202.782"
         style="fill:#ffffff;fill-opacity:1;fill-rule:nonzero;stroke:none"
         id="path3023" /><path
         d="m 851.25,938.52 c 0,9.535 -7.773,17.289 -17.305,17.289 -9.59,0 -17.324,-7.754 -17.324,-17.289 l 0,-112.122 c 0,-6.64 -4.746,-12.031 -10.605,-12.031 -5.86,0 -10.606,5.391 -10.606,12.031 l 0,112.122 c 0,9.535 -7.734,17.289 -17.324,17.289 -9.57,0 -17.305,-7.754 -17.305,-17.289 l 0,-202.782 c 0,-25.683 20.274,-46.64 45.235,-46.64 24.922,0 45.234,20.957 45.234,46.64 l 0,202.782"
         style="fill:#ffffff;fill-opacity:1;fill-rule:nonzero;stroke:none"
         id="path3025" /><path
         d="m 1003.89,984.832 c 0,9.551 -7.738,17.308 -17.288,17.308 -9.571,0 -17.344,-7.757 -17.344,-17.308 l 0,-112.133 c 0,-6.617 -4.746,-12.011 -10.606,-12.011 -5.8,0 -10.605,5.394 -10.605,12.011 l 0,112.133 c 0,9.551 -7.734,17.308 -17.285,17.308 -9.551,0 -17.285,-7.757 -17.285,-17.308 l 0,-202.766 c 0,-25.722 20.273,-46.64 45.175,-46.64 24.961,0 45.238,20.918 45.238,46.64 l 0,202.766"
         style="fill:#ffffff;fill-opacity:1;fill-rule:nonzero;stroke:none"
         id="path3027" /><path
         d="m 269.297,509.66 c 0,-25.719 20.312,-46.64 45.273,-46.64 24.922,0 45.196,20.921 45.196,46.64 l 0,568.18 c 0,9.53 -7.735,17.26 -17.286,17.26 -9.589,0 -17.324,-7.73 -17.324,-17.26 l 0,-475.578 c 0,-6.641 -4.765,-12.032 -10.586,-12.032 -5.898,0 -10.625,5.391 -10.625,12.032 l 0,549.558 c 0,9.53 -7.754,17.29 -17.304,17.29 -9.551,0 -17.344,-7.76 -17.344,-17.29 l 0,-642.16"
         style="fill:#ffffff;fill-opacity:1;fill-rule:nonzero;stroke:none"
         id="path3029" /><path
         d="m 116.66,441.699 c 0,-25.687 20.274,-46.629 45.235,-46.629 24.941,0 45.214,20.942 45.214,46.629 l 0,785.011 c 0,9.52 -7.773,17.28 -17.324,17.28 -9.551,0 -17.285,-7.76 -17.285,-17.28 l 0,-614.722 C 172.5,605.41 167.734,600 161.895,600 c -5.86,0 -10.606,5.41 -10.606,11.988 l 0,602.692 c 0,9.57 -7.734,17.3 -17.344,17.3 -9.55,0 -17.285,-7.73 -17.285,-17.3 l 0,-772.981"
         style="fill:#ffffff;fill-opacity:1;fill-rule:nonzero;stroke:none"
         id="path3031" /><path
         d="m 1189.04,1151.92 c 0,9.53 -7.73,17.29 -17.28,17.29 -9.61,0 -17.35,-7.76 -17.35,-17.29 l 0,-549.561 c 0,-6.621 -4.74,-12.007 -10.6,-12.007 -5.84,0 -10.61,5.386 -10.61,12.007 l 0,475.561 c 0,9.56 -7.73,17.32 -17.28,17.32 -9.61,0 -17.35,-7.76 -17.35,-17.32 l 0,-568.139 c 0,-25.722 20.3,-46.64 45.24,-46.64 24.96,0 45.23,20.918 45.23,46.64 l 0,642.139"
         style="fill:#ffffff;fill-opacity:1;fill-rule:nonzero;stroke:none"
         id="path3033" /><path
         d="m 1341.71,1214.77 c 0,9.55 -7.77,17.31 -17.32,17.31 -9.55,0 -17.32,-7.76 -17.32,-17.31 l 0,-602.661 c 0,-6.609 -4.73,-12.039 -10.63,-12.039 -5.8,0 -10.59,5.43 -10.59,12.039 l 0,614.691 c 0,9.55 -7.73,17.31 -17.3,17.31 -9.55,0 -17.3,-7.76 -17.3,-17.31 l 0,-784.991 c 0,-25.68 20.29,-46.637 45.19,-46.637 24.96,0 45.27,20.957 45.27,46.637 l 0,772.961"
         style="fill:#ffffff;fill-opacity:1;fill-rule:nonzero;stroke:none"
         id="path3035" /><path
         d="m 726.914,1207.74 -44.297,-33.26 44.297,-99.87 45.156,99.87 -45.156,33.26"
         style="fill:#ffffff;fill-opacity:1;fill-rule:nonzero;stroke:none"
         id="path3037" /><path
         d="m 1006.58,1320.71 c 0,-72.91 -59.119,-132.05 -132.068,-132.05 -72.91,0 -132.012,59.14 -132.012,132.05 0,72.91 59.102,132.05 132.012,132.05 72.949,0 132.068,-59.14 132.068,-132.05"
         style="fill:#ffffff;fill-opacity:1;fill-rule:nonzero;stroke:none"
         id="path3039" /><path
         d="m 974.727,1320.71 c 0,-55.35 -44.844,-100.19 -100.196,-100.19 -55.351,0 -100.215,44.84 -100.215,100.19 0,55.33 44.864,100.19 100.215,100.19 55.352,0 100.196,-44.86 100.196,-100.19"
         style="fill:#094270;fill-opacity:1;fill-rule:nonzero;stroke:none"
         id="path3041" /><path
         d="m 932.285,1320.71 c 0,-31.9 -25.84,-57.78 -57.773,-57.78 -31.875,0 -57.774,25.88 -57.774,57.78 0,31.89 25.899,57.77 57.774,57.77 31.933,0 57.773,-25.88 57.773,-57.77"
         style="fill:#ffffff;fill-opacity:1;fill-rule:nonzero;stroke:none"
         id="path3043" /><path
         d="m 712.148,1320.71 c 0,-72.91 -59.062,-132.05 -132.011,-132.05 -72.91,0 -132.012,59.14 -132.012,132.05 0,72.91 59.102,132.05 132.012,132.05 72.949,0 132.011,-59.14 132.011,-132.05"
         style="fill:#ffffff;fill-opacity:1;fill-rule:nonzero;stroke:none"
         id="path3045" /><path
         d="m 680.332,1320.71 c 0,-55.35 -44.824,-100.19 -100.195,-100.19 -55.313,0 -100.196,44.84 -100.196,100.19 0,55.33 44.883,100.19 100.196,100.19 55.371,0 100.195,-44.86 100.195,-100.19"
         style="fill:#094270;fill-opacity:1;fill-rule:nonzero;stroke:none"
         id="path3047" /><path
         d="m 637.91,1320.71 c 0,-31.9 -25.84,-57.78 -57.773,-57.78 -31.875,0 -57.774,25.88 -57.774,57.78 0,31.89 25.899,57.77 57.774,57.77 31.933,0 57.773,-25.88 57.773,-57.77"
         style="fill:#ffffff;fill-opacity:1;fill-rule:nonzero;stroke:none"
         id="path3049" /><path
         d="m 537.93,663.902 c 0,9.532 -7.774,17.305 -17.325,17.305 -9.55,0 -17.324,-7.773 -17.324,-17.305 l 0,-112.113 c 0,-6.617 -4.726,-12.008 -10.586,-12.008 -5.84,0 -10.625,5.391 -10.625,12.008 l 0,112.113 c 0,9.532 -7.734,17.305 -17.304,17.305 -9.551,0 -17.286,-7.773 -17.286,-17.305 l 0,-202.754 c 0,-25.718 20.274,-46.636 45.215,-46.636 24.922,0 45.235,20.918 45.235,46.636 l 0,202.754"
         style="fill:#ffffff;fill-opacity:1;fill-rule:nonzero;stroke:none"
         id="path3051" /><path
         d="m 690.586,617.59 c 0,9.551 -7.734,17.332 -17.285,17.332 -9.61,0 -17.344,-7.781 -17.344,-17.332 l 0,-112.129 c 0,-6.641 -4.746,-12.031 -10.605,-12.031 -5.821,0 -10.606,5.39 -10.606,12.031 l 0,112.129 c 0,9.551 -7.734,17.332 -17.285,17.332 -9.609,0 -17.344,-7.781 -17.344,-17.332 l 0,-202.75 c 0,-25.738 20.313,-46.641 45.235,-46.641 24.961,0 45.234,20.903 45.234,46.641 l 0,202.75"
         style="fill:#ffffff;fill-opacity:1;fill-rule:nonzero;stroke:none"
         id="path3053" /><path
         d="m 851.25,617.59 c 0,9.551 -7.773,17.332 -17.305,17.332 -9.59,0 -17.324,-7.781 -17.324,-17.332 l 0,-112.129 c 0,-6.641 -4.746,-12.031 -10.605,-12.031 -5.86,0 -10.606,5.39 -10.606,12.031 l 0,112.129 c 0,9.551 -7.734,17.332 -17.324,17.332 -9.57,0 -17.305,-7.781 -17.305,-17.332 l 0,-202.75 c 0,-25.738 20.274,-46.641 45.235,-46.641 24.922,0 45.234,20.903 45.234,46.641 l 0,202.75"
         style="fill:#ffffff;fill-opacity:1;fill-rule:nonzero;stroke:none"
         id="path3055" /><path
         d="m 1003.89,663.902 c 0,9.532 -7.738,17.305 -17.288,17.305 -9.571,0 -17.344,-7.773 -17.344,-17.305 l 0,-112.113 c 0,-6.617 -4.746,-12.008 -10.606,-12.008 -5.8,0 -10.605,5.391 -10.605,12.008 l 0,112.113 c 0,9.532 -7.734,17.305 -17.285,17.305 -9.551,0 -17.285,-7.773 -17.285,-17.305 l 0,-202.754 c 0,-25.718 20.273,-46.636 45.175,-46.636 24.961,0 45.238,20.918 45.238,46.636 l 0,202.754"
         style="fill:#ffffff;fill-opacity:1;fill-rule:nonzero;stroke:none"
         id="path3057" /><path
         d="m 537.93,984.832 c 0,9.551 -7.774,17.308 -17.325,17.308 -9.55,0 -17.324,-7.757 -17.324,-17.308 l 0,-112.133 c 0,-6.617 -4.726,-12.011 -10.586,-12.011 -5.84,0 -10.625,5.394 -10.625,12.011 l 0,112.133 c 0,9.551 -7.734,17.308 -17.304,17.308 -9.551,0 -17.286,-7.757 -17.286,-17.308 l 0,-202.766 c 0,-25.722 20.274,-46.64 45.215,-46.64 24.922,0 45.235,20.918 45.235,46.64 l 0,202.766"
         style="fill:#ffffff;fill-opacity:1;fill-rule:nonzero;stroke:none"
         id="path3059" /><path
         d="m 690.586,938.52 c 0,9.535 -7.734,17.289 -17.285,17.289 -9.61,0 -17.344,-7.754 -17.344,-17.289 l 0,-112.122 c 0,-6.64 -4.746,-12.031 -10.605,-12.031 -5.821,0 -10.606,5.391 -10.606,12.031 l 0,112.122 c 0,9.535 -7.734,17.289 -17.285,17.289 -9.609,0 -17.344,-7.754 -17.344,-17.289 l 0,-202.782 c 0,-25.683 20.313,-46.64 45.235,-46.64 24.961,0 45.234,20.957 45.234,46.64 l 0,202.782"
         style="fill:#ffffff;fill-opacity:1;fill-rule:nonzero;stroke:none"
         id="path3061" /><path
         d="m 851.25,938.52 c 0,9.535 -7.773,17.289 -17.305,17.289 -9.59,0 -17.324,-7.754 -17.324,-17.289 l 0,-112.122 c 0,-6.64 -4.746,-12.031 -10.605,-12.031 -5.86,0 -10.606,5.391 -10.606,12.031 l 0,112.122 c 0,9.535 -7.734,17.289 -17.324,17.289 -9.57,0 -17.305,-7.754 -17.305,-17.289 l 0,-202.782 c 0,-25.683 20.274,-46.64 45.235,-46.64 24.922,0 45.234,20.957 45.234,46.64 l 0,202.782"
         style="fill:#ffffff;fill-opacity:1;fill-rule:nonzero;stroke:none"
         id="path3063" /><path
         d="m 1003.89,984.832 c 0,9.551 -7.738,17.308 -17.288,17.308 -9.571,0 -17.344,-7.757 -17.344,-17.308 l 0,-112.133 c 0,-6.617 -4.746,-12.011 -10.606,-12.011 -5.8,0 -10.605,5.394 -10.605,12.011 l 0,112.133 c 0,9.551 -7.734,17.308 -17.285,17.308 -9.551,0 -17.285,-7.757 -17.285,-17.308 l 0,-202.766 c 0,-25.722 20.273,-46.64 45.175,-46.64 24.961,0 45.238,20.918 45.238,46.64 l 0,202.766"
         style="fill:#ffffff;fill-opacity:1;fill-rule:nonzero;stroke:none"
         id="path3065" /><path
         d="m 269.297,509.66 c 0,-25.719 20.312,-46.64 45.273,-46.64 24.922,0 45.196,20.921 45.196,46.64 l 0,568.18 c 0,9.53 -7.735,17.26 -17.286,17.26 -9.589,0 -17.324,-7.73 -17.324,-17.26 l 0,-475.578 c 0,-6.641 -4.765,-12.032 -10.586,-12.032 -5.898,0 -10.625,5.391 -10.625,12.032 l 0,549.558 c 0,9.53 -7.754,17.29 -17.304,17.29 -9.551,0 -17.344,-7.76 -17.344,-17.29 l 0,-642.16"
         style="fill:#ffffff;fill-opacity:1;fill-rule:nonzero;stroke:none"
         id="path3067" /><path
         d="m 116.66,441.699 c 0,-25.687 20.274,-46.629 45.235,-46.629 24.941,0 45.214,20.942 45.214,46.629 l 0,785.011 c 0,9.52 -7.773,17.28 -17.324,17.28 -9.551,0 -17.285,-7.76 -17.285,-17.28 l 0,-614.722 C 172.5,605.41 167.734,600 161.895,600 c -5.86,0 -10.606,5.41 -10.606,11.988 l 0,602.692 c 0,9.57 -7.734,17.3 -17.344,17.3 -9.55,0 -17.285,-7.73 -17.285,-17.3 l 0,-772.981"
         style="fill:#ffffff;fill-opacity:1;fill-rule:nonzero;stroke:none"
         id="path3069" /><path
         d="m 1189.04,1151.92 c 0,9.53 -7.73,17.29 -17.28,17.29 -9.61,0 -17.35,-7.76 -17.35,-17.29 l 0,-549.561 c 0,-6.621 -4.74,-12.007 -10.6,-12.007 -5.84,0 -10.61,5.386 -10.61,12.007 l 0,475.561 c 0,9.56 -7.73,17.32 -17.28,17.32 -9.61,0 -17.35,-7.76 -17.35,-17.32 l 0,-568.139 c 0,-25.722 20.3,-46.64 45.24,-46.64 24.96,0 45.23,20.918 45.23,46.64 l 0,642.139"
         style="fill:#ffffff;fill-opacity:1;fill-rule:nonzero;stroke:none"
         id="path3071" /><path
         d="m 1341.71,1214.77 c 0,9.55 -7.77,17.31 -17.32,17.31 -9.55,0 -17.32,-7.76 -17.32,-17.31 l 0,-602.661 c 0,-6.609 -4.73,-12.039 -10.63,-12.039 -5.8,0 -10.59,5.43 -10.59,12.039 l 0,614.691 c 0,9.55 -7.73,17.31 -17.3,17.31 -9.55,0 -17.3,-7.76 -17.3,-17.31 l 0,-784.991 c 0,-25.68 20.29,-46.637 45.19,-46.637 24.96,0 45.27,20.957 45.27,46.637 l 0,772.961"
         style="fill:#ffffff;fill-opacity:1;fill-rule:nonzero;stroke:none"
         id="path3073" /><path
         d="m 1746.1675,1076.71 c -55.3975,0 -99.4175,33.77 -99.4175,85.29 l 0,159.63 52.7617,0 0,-157.93 c 0,-27.97 18.1729,-44.69 46.6558,-44.69 28.4383,0 47.0451,16.72 47.0451,44.69 l 0,157.93 52.339,0 0,-159.63 c 0,-51.52 -43.9977,-85.29 -99.3841,-85.29"
         style="fill:#094270;fill-opacity:1;fill-rule:nonzero;stroke:none"
         id="path3075"
         inkscape:connector-curvature="0" /><path
         d="m 2079.2756,1078.76 -106.9803,149.06 0,-149.06 -52.7617,0 0,242.87 47.0451,0 106.9803,-148.71 0,148.71 52.7283,0 0,-242.87 -47.0117,0"
         style="fill:#094270;fill-opacity:1;fill-rule:nonzero;stroke:none"
         id="path3077"
         inkscape:connector-curvature="0" /><path
         d="m 2212.0472,1078.76 52.7372,0 0,242.871 -52.7372,0 0,-242.871 z"
         style="fill:#094270;fill-opacity:1;fill-rule:nonzero;stroke:none"
         id="path3079"
         inkscape:connector-curvature="0" /><path
         d="m 2441.2112,1078.76 -39.4711,0 -89.141,242.87 54.6301,0 54.2632,-158.28 54.2631,158.28 54.9971,0 -89.5414,-242.87"
         style="fill:#094270;fill-opacity:1;fill-rule:nonzero;stroke:none"
         id="path3081"
         inkscape:connector-curvature="0" /><path
         d="m 2574.7614,1078.76 0,242.87 177.9038,0 0,-42.31 -125.1866,0 0,-56.95 106.6133,0 0,-42.31 -106.6133,0 0,-59.02 125.1866,0 0,-42.28 -177.9038,0"
         style="fill:#094270;fill-opacity:1;fill-rule:nonzero;stroke:none"
         id="path3083"
         inkscape:connector-curvature="0" /><path
         d="m 2921.9052,1279.32 -49.7254,0 0,-64.12 49.7254,0 c 23.1333,0 38.3145,13.3 38.3145,32.05 0,18.77 -15.1812,32.07 -38.3145,32.07 z m 40.9392,-200.56 -52.7394,96.87 -37.9252,0 0,-96.87 -52.7172,0 0,242.87 105.8236,0 c 55.0083,0 87.6506,-33.75 87.6506,-74.38 0,-34.1 -23.1332,-55.23 -49.325,-63.77 l 60.3467,-104.72 -61.1141,0"
         style="fill:#094270;fill-opacity:1;fill-rule:nonzero;stroke:none"
         id="path3085"
         inkscape:connector-curvature="0" /><path
         d="m 3157.0861,1076.71 c -40.9615,0 -72.0691,7.85 -98.6167,32.06 l 34.1438,30.71 c 17.083,-15.35 40.1941,-20.47 65.2625,-20.47 31.0854,0 47.7791,10.59 47.7791,30.02 0,8.53 -2.6469,15.68 -8.3524,20.47 -5.2828,4.43 -11.3665,6.81 -23.8784,8.52 l -32.6313,4.08 c -23.1333,3.08 -40.2052,9.57 -52.3835,20.15 -12.8679,11.59 -19.3408,27.29 -19.3408,47.76 0,43.3 35.6898,73.67 94.079,73.67 37.2135,0 64.1282,-8.18 87.2614,-28.3 l -33.3653,-29.69 c -17.0719,14.67 -37.5804,16.72 -55.3975,16.72 -28.0825,0 -41.74,-13.98 -41.74,-30.7 0,-6.14 2.3245,-12.62 7.9854,-17.39 5.3051,-4.45 14.0135,-8.2 25.024,-9.57 l 31.875,-4.1 c 24.6458,-3.06 40.2497,-9.2 51.605,-18.75 14.4027,-12.29 20.8533,-30.02 20.8533,-51.51 0,-47.06 -43.5973,-73.68 -100.1626,-73.68"
         style="fill:#094270;fill-opacity:1;fill-rule:nonzero;stroke:none"
         id="path3087"
         inkscape:connector-curvature="0" /><path
         d="m 3322.1554,1078.76 52.7154,0 0,242.871 -52.7154,0 0,-242.871 z"
         style="fill:#094270;fill-opacity:1;fill-rule:nonzero;stroke:none"
         id="path3089"
         inkscape:connector-curvature="0" /><path
         d="m 3556.2352,1279.32 0,-200.56 -52.7172,0 0,200.56 -70.5787,0 0,42.31 193.8746,0 0,-42.31 -70.5787,0"
         style="fill:#094270;fill-opacity:1;fill-rule:nonzero;stroke:none"
         id="path3091"
         inkscape:connector-curvature="0" /><path
         d="m 3771.6972,1345.85 0,42.65 42.1404,0 0,-42.65 -42.1404,0 z m -18.9404,-95.84 -34.1438,-88.37 67.1421,0 -32.9983,88.37 z m -64.8843,95.84 0,42.65 42.0958,0 0,-42.65 -42.0958,0 z m 127.8558,-267.09 -15.9264,42.99 -95.9697,0 -16.349,-42.99 -55.0083,0 98.272,242.87 41.3396,0 98.6389,-242.87 -54.9971,0"
         style="fill:#094270;fill-opacity:1;fill-rule:nonzero;stroke:none"
         id="path3093"
         inkscape:connector-curvature="0" /><path
         d="m 3999.7379,1279.32 0,-200.56 -52.7394,0 0,200.56 -70.5342,0 0,42.31 193.8301,0 0,-42.31 -70.5565,0"
         style="fill:#094270;fill-opacity:1;fill-rule:nonzero;stroke:none"
         id="path3095"
         inkscape:connector-curvature="0" /><path
         d="m 1761.39,854.984 c -8.2,9.883 -19.1,15.024 -35.5,15.024 l -35.81,0 0,-158.293 35.81,0 c 16.4,0 27.3,5.137 35.5,15 8.85,10.937 10.24,28.34 10.24,65.156 0,36.824 -1.39,52.18 -10.24,63.113 z m 33.09,-162.371 c -16.04,-16.015 -38.89,-23.203 -64.14,-23.203 l -87.66,0 0,242.883 87.66,0 c 25.25,0 48.1,-7.152 64.14,-23.188 27.27,-27.3 24.53,-60.718 24.53,-97.234 0,-36.484 2.74,-71.973 -24.53,-99.258"
         style="fill:#094270;fill-opacity:1;fill-rule:nonzero;stroke:none"
         id="path3097"
         inkscape:connector-curvature="0" /><path
         d="m 1878.39,669.41 0,242.883 159.98,0 0,-42.285 -112.56,0 0,-56.969 95.86,0 0,-42.301 -95.86,0 0,-59.023 112.56,0 0,-42.305 -159.98,0"
         style="fill:#094270;fill-opacity:1;fill-rule:nonzero;stroke:none"
         id="path3099"
         inkscape:connector-curvature="0" /><path
         d="m 2165.28,667.379 c -36.86,0 -64.82,7.851 -88.71,32.07 l 30.7,30.703 c 15.35,-15.351 36.15,-20.468 58.69,-20.468 27.97,0 42.97,10.566 42.97,30.019 0,8.496 -2.4,15.684 -7.5,20.449 -4.8,4.453 -10.25,6.836 -21.5,8.555 l -29.32,4.063 c -20.84,3.085 -36.19,9.57 -47.09,20.136 -11.6,11.602 -17.4,27.301 -17.4,47.742 0,43.325 32.05,73.672 84.61,73.672 33.44,0 57.66,-8.164 78.46,-28.316 l -30.02,-29.652 c -15.35,14.652 -33.79,16.703 -49.81,16.703 -25.23,0 -37.54,-13.965 -37.54,-30.703 0,-6.118 2.05,-12.598 7.19,-17.399 4.77,-4.414 12.62,-8.164 22.52,-9.551 l 28.61,-4.082 c 22.19,-3.066 36.19,-9.215 46.41,-18.765 12.97,-12.285 18.75,-30 18.75,-51.504 0,-47.071 -39.22,-73.672 -90.02,-73.672"
         style="fill:#094270;fill-opacity:1;fill-rule:nonzero;stroke:none"
         id="path3101"
         inkscape:connector-curvature="0" /><path
         d="m 1724.19,258.039 c -36.82,0 -64.81,7.82 -88.69,32.031 l 30.7,30.711 c 15.35,-15.32 36.17,-20.472 58.69,-20.472 27.95,0 42.99,10.601 42.99,30.043 0,8.507 -2.42,15.66 -7.54,20.468 -4.75,4.41 -10.24,6.789 -21.49,8.512 l -29.31,4.078 c -20.8,3.07 -36.15,9.551 -47.09,20.16 -11.6,11.602 -17.38,27.289 -17.38,47.75 0,43.301 32.07,73.68 84.57,73.68 33.45,0 57.65,-8.211 78.45,-28.32 l -30,-29.692 c -15.35,14.692 -33.77,16.742 -49.8,16.742 -25.26,0 -37.52,-14.011 -37.52,-30.71 0,-6.149 2.03,-12.629 7.17,-17.399 4.74,-4.449 12.59,-8.199 22.5,-9.551 l 28.65,-4.101 c 22.19,-3.047 36.15,-9.199 46.41,-18.75 12.94,-12.289 18.75,-30 18.75,-51.508 0,-47.07 -39.22,-73.672 -90.06,-73.672"
         style="fill:#094270;fill-opacity:1;fill-rule:nonzero;stroke:none"
         id="path3103"
         inkscape:connector-curvature="0" /><path
         d="m 2160.3455,434.74769 -30.7,-88.359 60.37,0 -29.67,88.359 z m 56.62,-171.269 -14.32,43.008 -86.31,0 -14.64,-43.008 -49.5,0 88.36,242.91 37.19,0 88.67,-242.91 -49.45,0"
         style="fill:#094270;fill-opacity:1;fill-rule:nonzero;stroke:none"
         id="path3105"
         inkscape:connector-curvature="0" /><path
         d="m 2392.8659,432.84474 -30.7,-88.359 60.35,0 -29.65,88.359 z m 56.6,-171.269 -14.31,43.008 -86.29,0 -14.69,-43.008 -49.47,0 88.36,242.91 37.21,0 88.65,-242.91 -49.46,0"
         style="fill:#094270;fill-opacity:1;fill-rule:nonzero;stroke:none"
         id="path3107"
         inkscape:connector-curvature="0" /><path
         d="m 2626.05,460.66 -44.69,0 0,-64.14 44.69,0 c 20.8,0 34.45,13.3 34.45,32.05 0,18.75 -13.65,32.09 -34.45,32.09 z m 36.86,-200.609 -47.41,96.918 -34.14,0 0,-96.918 -47.42,0 0,242.91 95.2,0 c 49.47,0 78.78,-33.781 78.78,-74.391 0,-34.101 -20.82,-55.25 -44.33,-63.769 l 54.22,-104.75 -54.9,0"
         style="fill:#094270;fill-opacity:1;fill-rule:nonzero;stroke:none"
         id="path3109" /><path
         d="m 2770.7,260.051 0,242.91 47.42,0 0,-200.602 110.16,0 0,-42.308 -157.58,0"
         style="fill:#094270;fill-opacity:1;fill-rule:nonzero;stroke:none"
         id="path3111" /><path
         d="m 3062.03,431.32 -30.71,-88.359 60.37,0 -29.66,88.359 z m 56.62,-171.269 -14.36,43.008 -86.29,0 -14.67,-43.008 -49.45,0 88.36,242.91 37.17,0 88.69,-242.91 -49.45,0"
         style="fill:#094270;fill-opacity:1;fill-rule:nonzero;stroke:none"
         id="path3113" /><path
         d="m 3355.39,260.051 -96.18,149.09 0,-149.09 -47.42,0 0,242.91 42.31,0 96.17,-148.75 0,148.75 47.42,0 0,-242.91 -42.3,0"
         style="fill:#094270;fill-opacity:1;fill-rule:nonzero;stroke:none"
         id="path3115" /><path
         d="m 3593.49,445.66 c -8.18,9.86 -19.1,15 -35.45,15 l -35.86,0 0,-158.301 35.86,0 c 16.35,0 27.27,5.141 35.45,15.02 8.89,10.902 10.26,28.32 10.26,65.141 0,36.851 -1.37,52.199 -10.26,63.14 z m 33.11,-162.398 c -16.06,-16.043 -38.91,-23.211 -64.16,-23.211 l -87.66,0 0,242.91 87.66,0 c 25.25,0 48.1,-7.18 64.16,-23.199 27.26,-27.282 24.55,-60.742 24.55,-97.242 0,-36.508 2.71,-71.961 -24.55,-99.258"
         style="fill:#094270;fill-opacity:1;fill-rule:nonzero;stroke:none"
         id="path3117" /><path
         d="m 3710.5,260.051 0,242.91 160.02,0 0,-42.301 -112.61,0 0,-56.988 95.85,0 0,-42.313 -95.85,0 0,-59 112.61,0 0,-42.308 -160.02,0"
         style="fill:#094270;fill-opacity:1;fill-rule:nonzero;stroke:none"
         id="path3119" /><path
         d="m 3997.07,258.039 c -36.84,0 -64.85,7.82 -88.7,32.031 l 30.71,30.711 c 15.35,-15.32 36.15,-20.472 58.65,-20.472 27.97,0 43.01,10.601 43.01,30.043 0,8.507 -2.41,15.66 -7.54,20.468 -4.77,4.41 -10.22,6.789 -21.47,8.512 l -29.35,4.078 c -20.8,3.07 -36.15,9.551 -47.05,20.16 -11.6,11.602 -17.41,27.289 -17.41,47.75 0,43.301 32.06,73.68 84.58,73.68 33.43,0 57.65,-8.211 78.49,-28.32 l -30.06,-29.692 c -15.35,14.692 -33.75,16.742 -49.8,16.742 -25.24,0 -37.5,-14.011 -37.5,-30.71 0,-6.149 2.05,-12.629 7.15,-17.399 4.8,-4.449 12.65,-8.199 22.54,-9.551 l 28.63,-4.101 c 22.19,-3.047 36.19,-9.199 46.38,-18.75 12.99,-12.289 18.75,-30 18.75,-51.508 0,-47.07 -39.19,-73.672 -90.01,-73.672"
         style="fill:#094270;fill-opacity:1;fill-rule:nonzero;stroke:none"
         id="path3121" /><text
         xml:space="preserve"
         style="font-size:335.89099120999998000px;font-style:normal;font-weight:normal;line-height:125%;letter-spacing:0px;word-spacing:0px;fill:#ff2a2a;fill-opacity:1;stroke:none;font-family:Sans"
         x="1890.1213"
         y="-252.1819"
         id="text3123"
         sodipodi:linespacing="125%"
         transform="scale(0.97735937,-1.0231651)"><tspan
           sodipodi:role="line"
           id="tspan3125"
           x="1890.1213"
           y="-252.1819"
           style="font-weight:bold;-inkscape-font-specification:Sans Bold;fill:#ff2a2a;fill-opacity:1">P</tspan></text>
</g></g></svg>